<svg width="52" height="52" viewBox="0 0 52 52" fill="none" xmlns="http://www.w3.org/2000/svg">
<path d="M9.75 48.75H29.25C30.1117 48.7491 30.9378 48.4065 31.5471 47.7971C32.1565 47.1878 32.4991 46.3617 32.5 45.5V40.625H29.25V45.5H9.75V6.5H29.25V11.375H32.5V6.5C32.4991 5.63831 32.1565 4.81216 31.5471 4.20285C30.9378 3.59355 30.1117 3.25086 29.25 3.25H9.75C8.88831 3.25086 8.06216 3.59355 7.45285 4.20285C6.84355 4.81216 6.50086 5.63831 6.5 6.5V45.5C6.50086 46.3617 6.84355 47.1878 7.45285 47.7971C8.06216 48.4065 8.88831 48.7491 9.75 48.75Z" fill="#34495E"/>
<path d="M33.4523 33.4523L39.2795 27.625H16.25V24.375H39.2795L33.4523 18.5477L35.75 16.25L45.5 26L35.75 35.75L33.4523 33.4523Z" fill="#34495E"/>
</svg>
