<svg width="52" height="52" viewBox="0 0 52 52" fill="none" xmlns="http://www.w3.org/2000/svg">
<path d="M25.835 49.67C12.6709 49.67 2 38.9991 2 25.835C2 12.6709 12.6709 2 25.835 2C38.9991 2 49.67 12.6709 49.67 25.835C49.67 38.9991 38.9991 49.67 25.835 49.67ZM25.835 44.903C30.8921 44.903 35.7422 42.8941 39.3181 39.3181C42.8941 35.7422 44.903 30.8921 44.903 25.835C44.903 20.7779 42.8941 15.9278 39.3181 12.3519C35.7422 8.77594 30.8921 6.767 25.835 6.767C20.7779 6.767 15.9278 8.77594 12.3519 12.3519C8.77594 15.9278 6.767 20.7779 6.767 25.835C6.767 30.8921 8.77594 35.7422 12.3519 39.3181C15.9278 42.8941 20.7779 44.903 25.835 44.903Z" fill="#E9A911"/>
<path d="M13.752 17.88H19.2C20.032 17.88 20.76 18 21.384 18.24C22.008 18.48 22.528 18.808 22.944 19.224C23.376 19.64 23.696 20.128 23.904 20.688C24.128 21.248 24.24 21.856 24.24 22.512C24.24 23.12 24.144 23.656 23.952 24.12C23.776 24.584 23.544 24.992 23.256 25.344C22.968 25.696 22.648 25.992 22.296 26.232C21.944 26.456 21.6 26.64 21.264 26.784L25.08 33H21.744L18.6 27.312H16.608V33H13.752V17.88ZM16.608 25.032H18.072C18.984 25.032 19.736 24.848 20.328 24.48C20.92 24.096 21.216 23.464 21.216 22.584C21.216 21.784 20.976 21.176 20.496 20.76C20.032 20.344 19.344 20.136 18.432 20.136H16.608V25.032ZM32.1017 33.24C31.6377 33.24 31.1897 33.184 30.7577 33.072C30.3417 32.96 29.9897 32.808 29.7017 32.616V38.52H26.8937V21.528H29.0777L29.4137 22.872C29.8617 22.44 30.3737 22.088 30.9497 21.816C31.5257 21.528 32.1817 21.384 32.9177 21.384C34.4217 21.384 35.6057 21.888 36.4697 22.896C37.3497 23.888 37.7897 25.28 37.7897 27.072C37.7897 28.096 37.6297 28.992 37.3097 29.76C37.0057 30.528 36.5897 31.176 36.0617 31.704C35.5497 32.216 34.9497 32.6 34.2617 32.856C33.5737 33.112 32.8537 33.24 32.1017 33.24ZM32.1977 23.568C31.6217 23.568 31.1177 23.712 30.6857 24C30.2537 24.272 29.9257 24.544 29.7017 24.816V30.48C29.9737 30.704 30.2857 30.872 30.6377 30.984C30.9897 31.08 31.3577 31.128 31.7417 31.128C32.1257 31.128 32.5017 31.056 32.8697 30.912C33.2377 30.768 33.5657 30.544 33.8537 30.24C34.1577 29.92 34.3977 29.512 34.5737 29.016C34.7657 28.504 34.8617 27.88 34.8617 27.144C34.8617 26.088 34.6377 25.232 34.1897 24.576C33.7577 23.904 33.0937 23.568 32.1977 23.568Z" fill="#E9A911"/>
</svg>
