<svg width="1274" height="859" viewBox="0 0 1274 859" fill="none" xmlns="http://www.w3.org/2000/svg">
<path fill-rule="evenodd" clip-rule="evenodd" d="M1159.35 432.515C1168.74 361.382 1274.96 296.306 1241.5 228.778C1209.22 163.621 1045 164 983.5 136C922 108 862.191 23.6351 772.98 8.01099C683.297 -7.69592 585.93 0.674988 500.06 24.5735C418.308 47.3259 361.799 97.2355 298.727 140C240.382 179.561 188.538 221.142 141.724 267.54C88.5007 320.288 16.4867 368.683 3.58105 432.515C-9.56848 497.553 13.6888 568.869 70.1633 621.481C125.659 673.181 233.898 678.177 308.454 716.537C379.834 753.264 342.076 787.967 425 810C509.356 832.413 638.189 847.567 723 826.001C805.268 805.082 896.815 759.857 967.064 723.441C1039.82 685.726 1105.08 680.87 1143 623.501C1181.04 565.945 1151.03 495.605 1159.35 432.515Z" fill="#F4D2D2"/>
<path fill-rule="evenodd" clip-rule="evenodd" d="M1172.35 454.093C1181.74 382.96 1287.96 317.884 1254.5 250.356C1222.22 185.199 1058 185.578 996.5 157.578C935 129.578 875.191 45.2132 785.98 29.5891C696.297 13.8822 598.93 22.2531 513.06 46.1517C431.308 68.904 374.799 118.814 311.727 161.578C253.382 201.139 201.538 242.72 154.724 289.118C101.501 341.866 29.4867 390.261 16.5811 454.093C3.43151 519.131 26.6888 590.447 83.1633 643.059C138.659 694.759 246.898 699.755 321.454 738.116C392.834 774.842 355.076 809.545 438 831.578C522.356 853.991 651.189 869.146 736 847.579C818.268 826.66 909.815 781.435 980.064 745.019C1052.82 707.304 1118.08 702.448 1156 645.079C1194.04 587.524 1164.03 517.183 1172.35 454.093Z" stroke="#CF7979"/>
<path d="M990.5 250.747C995.001 250.747 998.65 247.1 998.65 242.6C998.65 238.101 995.001 234.453 990.5 234.453C985.999 234.453 982.35 238.101 982.35 242.6C982.35 247.1 985.999 250.747 990.5 250.747Z" fill="#FFBA15"/>
<path d="M999.15 228.154C1001.25 228.154 1002.95 226.453 1002.95 224.355C1002.95 222.257 1001.25 220.557 999.15 220.557C997.051 220.557 995.35 222.257 995.35 224.355C995.35 226.453 997.051 228.154 999.15 228.154Z" fill="#FFBA15"/>
<path d="M750 178.723C752.154 178.723 753.9 176.978 753.9 174.824C753.9 172.671 752.154 170.926 750 170.926C747.846 170.926 746.1 172.671 746.1 174.824C746.1 176.978 747.846 178.723 750 178.723Z" fill="#FFBA15"/>
<path d="M1005.2 635.01C1008.84 635.01 1011.8 632.056 1011.8 628.412C1011.8 624.768 1008.84 621.814 1005.2 621.814C1001.55 621.814 998.6 624.768 998.6 628.412C998.6 632.056 1001.55 635.01 1005.2 635.01Z" fill="#FFBA15"/>
<path d="M704.85 657.602C706.534 657.602 707.9 656.237 707.9 654.553C707.9 652.869 706.534 651.504 704.85 651.504C703.165 651.504 701.8 652.869 701.8 654.553C701.8 656.237 703.165 657.602 704.85 657.602Z" fill="#FFBA15"/>
<path d="M742.95 432.382C744.69 432.382 746.1 430.972 746.1 429.233C746.1 427.494 744.69 426.084 742.95 426.084C741.21 426.084 739.8 427.494 739.8 429.233C739.8 430.972 741.21 432.382 742.95 432.382Z" fill="#FFBA15"/>
<path d="M749.15 448.426C750.835 448.426 752.2 447.061 752.2 445.377C752.2 443.693 750.835 442.328 749.15 442.328C747.466 442.328 746.1 443.693 746.1 445.377C746.1 447.061 747.466 448.426 749.15 448.426Z" fill="#2F4EBB"/>
<path d="M745.5 533.396C748.648 533.396 751.2 530.845 751.2 527.698C751.2 524.551 748.648 522 745.5 522C742.352 522 739.8 524.551 739.8 527.698C739.8 530.845 742.352 533.396 745.5 533.396Z" fill="#2F4EBB"/>
<path d="M985.95 209.561C987.938 209.561 989.55 207.95 989.55 205.962C989.55 203.974 987.938 202.363 985.95 202.363C983.962 202.363 982.35 203.974 982.35 205.962C982.35 207.95 983.962 209.561 985.95 209.561Z" fill="#2F4EBB"/>
<path d="M849 215.858C850.74 215.858 852.15 214.448 852.15 212.709C852.15 210.97 850.74 209.561 849 209.561C847.26 209.561 845.85 210.97 845.85 212.709C845.85 214.448 847.26 215.858 849 215.858Z" fill="#2F4EBB"/>
<path d="M568.15 462.171C569.475 462.171 570.55 461.097 570.55 459.772C570.55 458.447 569.475 457.373 568.15 457.373C566.825 457.373 565.75 458.447 565.75 459.772C565.75 461.097 566.825 462.171 568.15 462.171Z" fill="#2F4EBB"/>
<path d="M996.85 651.504C1000.16 651.504 1002.85 648.818 1002.85 645.506C1002.85 642.193 1000.16 639.508 996.85 639.508C993.536 639.508 990.85 642.193 990.85 645.506C990.85 648.818 993.536 651.504 996.85 651.504Z" fill="#2F4EBB"/>
<path d="M755.05 276.388C754.55 273.289 754.1 267.091 759.05 267.591C760.85 267.791 761.85 269.39 763.85 268.691C767.6 267.391 766.75 262.543 768.3 259.744C770.85 255.245 775.8 261.793 779.6 259.644C780.85 258.944 781.15 257.645 781.1 256.295C781 251.247 785.45 251.597 789.1 252.596C790.05 252.846 790.45 251.397 789.5 251.147C785.8 250.147 779.65 249.797 779.5 255.145C779.45 256.445 780.15 257.745 778.25 258.544C777.65 258.794 776.65 258.494 776.1 258.344C774.8 257.944 773.65 257.045 772.3 256.695C770.55 256.195 768.85 256.545 767.65 257.944C766.15 259.744 766.2 262.193 765.5 264.292C764.75 266.541 763.3 267.841 760.85 266.741C759.85 266.291 758.95 265.892 757.8 266.042C752.65 266.741 752.9 272.989 753.55 276.788C753.75 277.737 755.2 277.338 755.05 276.388Z" fill="#2F4EBB"/>
<path d="M760.95 279.286C761.35 276.187 763.85 274.838 766.75 274.838C768.3 274.838 769.85 275.088 771.35 274.538C774.75 273.238 774.1 269.54 774.9 266.641C776.4 261.143 783.35 264.541 787.2 263.642C789.8 262.992 792 260.393 790.9 257.644C790.55 256.744 789.1 257.144 789.45 258.044C791.15 262.192 785.35 262.442 782.9 262.142C781.1 261.942 779.35 261.642 777.55 262.092C774.7 262.842 773.6 264.941 773.2 267.64C772.85 270.139 772.9 272.888 769.65 273.288C767.9 273.488 766.15 272.988 764.4 273.388C761.6 274.038 759.8 276.387 759.45 279.186C759.3 280.236 760.8 280.236 760.95 279.286Z" fill="#2F4EBB"/>
<path d="M864.25 156.531C862.5 158.731 860.65 161.43 861.5 164.379C862.2 166.778 864.1 167.677 866.4 167.527C867.75 167.427 869.15 167.078 870.25 168.277C871.1 169.177 870.55 171.076 870.3 172.076C869.9 173.625 869.15 175.125 869.3 176.774C869.55 179.023 871.35 180.773 873.65 180.273C874.6 180.073 874.2 178.623 873.25 178.823C868.9 179.823 871.9 172.576 872.1 170.826C872.25 169.377 872 167.777 870.9 166.728C869.8 165.678 868.45 165.778 867.05 165.928C864.85 166.178 862.8 165.478 862.7 162.829C862.65 160.83 864.05 159.03 865.25 157.531C865.95 156.881 864.85 155.782 864.25 156.531Z" fill="#2F4EBB"/>
<path d="M876.05 155.78C873.7 156.78 872.2 159.229 872.8 161.778C873.1 162.927 873.8 164.027 874.8 164.727C876 165.626 877.4 165.426 878.6 166.176C880.85 167.526 879.05 170.175 879.15 172.274C879.2 173.324 879.45 174.273 880.35 174.923C881.7 175.973 883.7 175.623 884.25 173.923C884.55 173.024 883.1 172.624 882.8 173.524C880.9 173.274 880.25 172.424 880.8 170.975C880.9 170.475 881 169.975 881.1 169.475C881.2 168.975 881.25 168.475 881.25 167.976C881.25 166.926 880.95 165.826 880.15 165.077C878.95 163.977 877.1 164.427 875.8 163.527C873.15 161.678 874.1 158.179 876.8 157.029C877.7 156.68 876.9 155.43 876.05 155.78Z" fill="#2F4EBB"/>
<path d="M549.1 451.226C547.95 449.427 547.95 447.228 549.1 445.378C550.25 443.579 551.85 443.529 553.7 442.829C556.25 441.78 556.3 439.131 556.15 436.731C556.1 435.882 556.05 434.982 556.3 434.132C556.95 432.133 558.65 432.683 560.2 432.933C561.1 433.083 561.95 432.933 562.7 432.433C563.65 431.783 564.25 430.634 564.55 429.534C564.8 428.634 564.85 427.685 565.05 426.785C565.15 426.135 565.35 425.535 565.65 424.986C566.45 423.736 567.4 423.636 568.55 424.736C568.8 425.685 570.25 425.285 570 424.336C569.1 421.087 565.1 422.536 564.1 424.836C563.65 425.885 563.6 427.035 563.35 428.134C563.2 428.784 563.1 429.484 562.75 430.084C562 431.433 560.6 431.183 559.3 431.033C557.75 430.883 556.55 430.733 555.55 432.183C554.4 433.832 554.7 435.782 554.7 437.681C554.75 439.98 554.25 440.88 552 441.63C551.1 441.93 550.35 442.079 549.55 442.679C546.65 444.728 545.9 448.977 547.8 451.926C548.3 452.776 549.6 452.026 549.1 451.226Z" fill="#FFBA15"/>
<path d="M555.35 454.674C553.25 454.375 554.05 452.075 555 451.176C555.7 450.526 556.65 450.126 557.55 449.676C558.65 449.126 559.75 448.477 560.55 447.527C562.7 444.828 559.6 441.229 562.6 439.08C565.6 436.981 573.65 436.031 571.3 430.433C570.95 429.533 569.65 430.333 570 431.183C571.7 435.231 563.45 436.431 561.35 438.13C560.6 438.73 559.95 439.53 559.65 440.479C559.05 442.579 560.8 444.728 559.25 446.727C557.45 448.926 553.6 448.926 552.7 452.025C552.15 453.775 553.1 455.874 555 456.174C555.9 456.274 556.3 454.824 555.35 454.674Z" fill="#FFBA15"/>
<path d="M1117.56 297.583C1116.91 296.433 1117.01 295.184 1117.71 294.084C1118.81 292.485 1120.11 292.835 1121.81 292.985C1122.96 293.085 1124.01 293.335 1125.11 292.685C1127.06 291.485 1126.76 288.986 1127.11 287.087C1127.91 282.638 1131.76 286.687 1134.36 285.287C1135.31 284.788 1135.66 283.838 1135.86 282.838C1136.21 280.889 1136.31 275.091 1140.06 277.44C1140.86 277.94 1141.66 276.64 1140.81 276.141C1137.46 274.091 1134.76 277.49 1134.46 280.639C1134.26 282.438 1134.46 284.188 1132.06 283.938C1131.21 283.838 1130.36 283.388 1129.51 283.288C1128.16 283.138 1126.96 283.538 1126.21 284.738C1125.36 286.137 1125.66 287.886 1125.31 289.386C1124.56 292.785 1121.66 290.885 1119.31 291.285C1116.16 291.835 1114.71 295.634 1116.21 298.283C1116.71 299.182 1118.01 298.433 1117.56 297.583Z" fill="#FFBA15"/>
<path d="M1125.01 300.732C1124.16 298.433 1126.81 295.884 1129.11 297.084C1129.41 297.234 1129.81 297.234 1130.01 296.984C1131.16 295.734 1131.46 294.285 1131.96 292.685C1132.86 289.786 1135.01 289.386 1137.61 288.587C1140.16 287.787 1143.01 285.688 1141.96 282.689C1141.61 281.789 1140.16 282.189 1140.51 283.089C1141.96 287.037 1134.86 287.337 1132.76 288.787C1130.21 290.586 1130.96 293.835 1129.01 295.934C1129.31 295.884 1129.61 295.834 1129.91 295.834C1126.56 294.085 1122.31 297.533 1123.61 301.182C1123.91 302.032 1125.36 301.682 1125.01 300.732Z" fill="#FFBA15"/>
<path d="M908.95 354.759C909.05 354.759 910.15 357.458 910.6 357.808C911.3 358.358 912.15 358.408 913 358.258C914.5 358.008 915.45 356.908 916.75 356.209C919.55 354.609 919.55 357.358 920.65 358.908C921.9 360.757 923.25 359.857 924.7 358.958C925.65 358.358 926.55 357.958 927.4 358.808C927.85 359.258 928.15 360.007 928.5 360.557C929.05 361.357 929.65 362.007 930.55 362.406C931.4 362.806 932.2 361.507 931.3 361.107C929.25 360.207 929 356.808 926.55 356.459C925.4 356.309 924.9 356.958 924 357.458C922.9 358.108 922.25 358.558 921.55 357.308C921.25 356.808 921.2 356.109 920.85 355.609C919.25 352.96 916.75 354.409 914.75 355.709C914.4 355.959 914.05 356.209 913.65 356.409C912.8 356.159 911.9 355.909 911.05 355.659C910.7 355.309 910.7 354.459 910.4 354.009C909.9 353.31 909.4 353.11 908.6 353.26C907.6 353.46 908 354.909 908.95 354.759Z" fill="#FFBA15"/>
<path d="M920.7 349.961C922.2 347.612 925.65 352.511 927.05 353.11C927.9 353.46 928.7 353.46 929.6 353.21C930 353.11 930.35 352.91 930.7 352.76C932.05 352.211 933.2 352.561 934.3 353.51C935.9 354.86 936.35 356.659 938.65 357.159C940 357.459 941.25 357.059 941.85 355.759C942.25 354.91 940.95 354.11 940.55 355.01C939.15 358.009 935.3 352.111 934.3 351.461C932.45 350.261 931.3 351.261 929.45 351.661C926.5 352.261 925.55 348.962 923.1 348.162C921.65 347.662 920.25 347.912 919.45 349.262C918.85 350.061 920.15 350.811 920.7 349.961Z" fill="#FFBA15"/>
<path d="M1049.74 437.332C1076.29 437.332 1102.84 437.332 1129.44 437.332C1130.39 437.332 1130.39 435.832 1129.44 435.832C1102.89 435.832 1076.34 435.832 1049.74 435.832C1048.79 435.832 1048.79 437.332 1049.74 437.332Z" fill="#CBCBCB"/>
<path d="M1071.49 436.982C1071.49 444.729 1071.49 452.426 1071.49 460.173C1071.49 461.123 1072.99 461.123 1072.99 460.173C1072.99 452.426 1072.99 444.729 1072.99 436.982C1072.99 436.032 1071.49 436.032 1071.49 436.982Z" fill="#CBCBCB"/>
<path d="M1108.59 436.232C1108.59 425.435 1108.59 414.639 1108.59 403.843C1108.59 402.893 1107.09 402.893 1107.09 403.843C1107.09 414.639 1107.09 425.435 1107.09 436.232C1107.09 437.231 1108.59 437.231 1108.59 436.232Z" fill="#CBCBCB"/>
<path d="M1090.94 404.441C1100.99 404.441 1111.04 404.441 1121.09 404.441C1122.04 404.441 1122.04 402.941 1121.09 402.941C1111.04 402.941 1100.99 402.941 1090.94 402.941C1089.99 402.941 1089.99 404.441 1090.94 404.441Z" fill="#CBCBCB"/>
<path d="M1129 224.456C1129 233.803 1129 243.15 1129 252.446C1129 253.396 1130.5 253.396 1130.5 252.446C1130.5 243.1 1130.5 233.753 1130.5 224.456C1130.5 223.507 1129 223.507 1129 224.456Z" fill="#CBCBCB"/>
<path d="M1105.65 254.595C1123.7 254.595 1141.7 254.595 1159.75 254.595C1160.7 254.595 1160.7 253.096 1159.75 253.096C1141.7 253.096 1123.7 253.096 1105.65 253.096C1104.65 253.096 1104.65 254.595 1105.65 254.595Z" fill="#CBCBCB"/>
<path d="M1159.25 254.396C1159.25 260.594 1159.25 266.791 1159.25 272.989C1159.25 273.939 1160.75 273.939 1160.75 272.989C1160.75 266.791 1160.75 260.594 1160.75 254.396C1160.75 253.446 1159.25 253.446 1159.25 254.396Z" fill="#CBCBCB"/>
<path d="M657.1 195.318C674.75 195.318 692.45 195.318 710.1 195.318C711.05 195.318 711.05 193.818 710.1 193.818C692.45 193.818 674.75 193.818 657.1 193.818C656.15 193.818 656.1 195.318 657.1 195.318Z" fill="#CBCBCB"/>
<path d="M707.9 195.168C707.9 199.966 707.9 204.764 707.9 209.563C707.9 210.512 709.4 210.512 709.4 209.563C709.4 204.764 709.4 199.966 709.4 195.168C709.4 194.168 707.9 194.168 707.9 195.168Z" fill="#CBCBCB"/>
<path d="M691.85 193.967C691.85 186.27 691.85 178.622 691.85 170.925C691.85 169.975 690.35 169.975 690.35 170.925C690.35 178.622 690.35 186.27 690.35 193.967C690.35 194.967 691.85 194.967 691.85 193.967Z" fill="#CBCBCB"/>
<path d="M552.25 349.363C564.45 349.363 576.65 349.363 588.85 349.363C589.8 349.363 589.8 347.863 588.85 347.863C576.65 347.863 564.45 347.863 552.25 347.863C551.3 347.863 551.3 349.363 552.25 349.363Z" fill="#CBCBCB"/>
<path d="M574.6 334.318C574.6 338.816 574.6 343.315 574.6 347.813C574.6 348.763 576.1 348.763 576.1 347.813C576.1 343.315 576.1 338.816 576.1 334.318C576.1 333.368 574.6 333.368 574.6 334.318Z" fill="#CBCBCB"/>
<path d="M565.8 335.068C572.3 335.068 578.8 335.068 585.3 335.068C586.25 335.068 586.25 333.568 585.3 333.568C578.8 333.568 572.3 333.568 565.8 333.568C564.8 333.568 564.8 335.068 565.8 335.068Z" fill="#CBCBCB"/>
<path d="M786 650.205C802.3 650.205 818.6 650.205 834.9 650.205C835.85 650.205 835.85 648.705 834.9 648.705C818.6 648.705 802.3 648.705 786 648.705C785 648.705 785 650.205 786 650.205Z" fill="#CBCBCB"/>
<path d="M816.1 648.706C816.1 645.207 816.1 641.708 816.1 638.16C816.1 637.21 814.6 637.21 814.6 638.16C814.6 641.658 814.6 645.157 814.6 648.706C814.6 649.705 816.1 649.705 816.1 648.706Z" fill="#CBCBCB"/>
<path d="M811.55 638.208C818.3 638.208 825.1 638.208 831.85 638.208C832.8 638.208 832.8 636.709 831.85 636.709C825.1 636.709 818.3 636.709 811.55 636.709C810.6 636.709 810.6 638.208 811.55 638.208Z" fill="#CBCBCB"/>
<path d="M553.4 623.914C569.7 623.914 586 623.914 602.3 623.914C603.25 623.914 603.25 622.414 602.3 622.414C586 622.414 569.7 622.414 553.4 622.414C552.45 622.414 552.45 623.914 553.4 623.914Z" fill="#CBCBCB"/>
<path d="M576 604.322C576 610.07 576 615.867 576 621.615C576 622.565 577.5 622.565 577.5 621.615C577.5 615.867 577.5 610.07 577.5 604.322C577.5 603.372 576 603.372 576 604.322Z" fill="#CBCBCB"/>
<path d="M576 602.072C569.5 602.072 562.95 602.072 556.45 602.072C555.5 602.072 555.5 603.572 556.45 603.572C562.95 603.572 569.5 603.572 576 603.572C576.95 603.572 576.95 602.072 576 602.072Z" fill="#CBCBCB"/>
<path d="M1096.95 579.929C1095.3 578.28 1095.7 575.081 1098.25 574.531C1099.6 574.231 1100.9 575.081 1102.2 575.231C1103.2 575.381 1104.25 575.281 1104.9 574.381C1105.9 573.081 1105.1 571.582 1105.05 570.133C1104.95 565.584 1110.35 565.884 1113.05 567.483C1113.65 567.833 1114.3 567.234 1114.15 566.634C1112.85 560.386 1120 556.087 1124.9 560.236C1125.65 560.836 1126.7 559.786 1125.95 559.186C1119.9 554.088 1111.05 559.286 1112.7 567.084C1113.05 566.784 1113.45 566.534 1113.8 566.234C1111.5 564.834 1108.55 564.135 1106.1 565.684C1105.2 566.234 1104.4 567.084 1104 568.083C1103.7 568.783 1103.55 569.433 1103.6 570.183C1103.65 571.532 1104.1 571.432 1103.1 572.732C1102 574.181 1101.9 573.531 1100.35 573.181C1099.8 573.032 1099.3 572.932 1098.7 572.982C1097.45 573.032 1096.3 573.631 1095.5 574.531C1093.75 576.48 1094.2 579.229 1095.95 580.979C1096.6 581.678 1097.65 580.629 1096.95 579.929Z" fill="#CBCBCB"/>
<path d="M1106.7 581.428C1106.15 576.88 1113.6 576.83 1115.7 573.681C1116.25 572.881 1116.45 571.982 1116.8 571.132C1117.45 569.582 1118.6 568.583 1120.3 568.133C1123.05 567.433 1125.9 568.683 1128.4 569.732C1129.3 570.082 1129.7 568.633 1128.8 568.283C1124.2 566.384 1118 564.934 1115.45 570.532C1114.55 572.531 1114.25 573.631 1112.15 574.681C1110.9 575.28 1109.6 575.63 1108.4 576.33C1106.5 577.43 1105 579.129 1105.25 581.428C1105.35 582.378 1106.85 582.378 1106.7 581.428Z" fill="#CBCBCB"/>
<path d="M891.65 436.081C892.65 438.58 893.65 441.129 894.65 443.628C894.75 443.328 894.9 443.078 895 442.778C894.45 443.128 893.9 443.478 893.35 443.878C892.5 441.879 892.85 441.379 894.45 442.278C895.4 442.878 895.85 444.178 896.05 445.227C896.5 447.627 896 450.126 895.2 452.425C895 453.025 895.6 453.424 896.1 453.324C899.1 452.725 900.3 456.323 899.7 458.573C899.25 460.222 898.35 461.671 897.45 463.121C896.95 463.921 898.25 464.67 898.75 463.871C900.35 461.372 902.2 458.273 901.1 455.174C900.25 452.875 898.15 451.425 895.7 451.875C896 452.175 896.3 452.475 896.6 452.775C897.6 449.876 898.25 446.227 897 443.278C896.15 441.329 894.2 439.829 892 440.479C890.3 440.979 889.45 442.678 890.25 444.328C891.6 447.077 893.95 445.227 895.7 444.078C895.95 443.928 896.15 443.528 896.05 443.228C895.05 440.729 894.05 438.18 893.05 435.681C892.75 434.831 891.3 435.181 891.65 436.081Z" fill="#CBCBCB"/>
<path d="M595.95 199.616C595 197.217 598.2 196.567 599.7 197.417C600.85 198.067 601.6 199.216 602.3 200.266C602.95 201.216 603.65 202.265 604 203.365C604.4 204.315 604.35 205.214 603.85 206.114C602.1 206.914 601.2 206.714 601.15 205.564C600.7 203.915 602.45 202.815 603.95 202.865C605.5 202.915 606.95 203.815 608 204.914C609.8 206.814 610.45 209.313 610.2 211.862C610.65 211.712 611.15 211.612 611.6 211.462C610.6 210.012 611.55 208.463 612.9 207.713C614.05 207.114 615.35 207.263 616.45 207.863C618.25 208.813 619.5 210.562 620.65 212.162C621.2 212.961 622.5 212.212 621.95 211.412C620.05 208.763 617.2 205.064 613.45 205.914C610.7 206.514 608.5 209.713 610.3 212.212C610.75 212.861 611.6 212.562 611.7 211.812C612.15 207.064 608.65 200.566 603.05 201.366C601.05 201.665 599.6 203.065 599.6 205.114C599.6 206.714 600.6 208.363 602.3 208.463C604.3 208.613 605.65 206.664 605.75 204.864C605.9 202.365 603.95 199.666 602.45 197.817C601.05 196.167 599 194.768 596.8 195.618C595 196.267 593.8 198.067 594.55 199.916C594.85 200.916 596.3 200.516 595.95 199.616Z" fill="#CBCBCB"/>
<path d="M859.35 272.94C857.25 271.69 858.75 267.992 861.1 269.541C863.35 271.041 860.35 273.59 858.9 271.84C858.3 271.091 857.25 272.14 857.85 272.89C859 274.289 861.2 274.189 862.5 273.04C864 271.69 863.6 269.491 862.05 268.391C860.5 267.292 858.25 267.492 857.3 269.291C856.35 270.991 857 273.29 858.65 274.239C859.4 274.689 860.15 273.44 859.35 272.94Z" fill="#CBCBCB"/>
<path d="M1018.65 163.628C1017.55 162.079 1019.45 159.73 1021.2 160.429C1021.05 160.329 1020.9 160.179 1020.75 160.079C1021.7 161.729 1020.3 163.978 1018.45 163.878C1018.7 164.078 1018.95 164.228 1019.15 164.428C1018.85 163.578 1018.5 162.679 1018.2 161.829C1017.85 160.929 1016.4 161.329 1016.75 162.229C1017.05 163.078 1017.4 163.978 1017.7 164.828C1017.8 165.178 1018.05 165.378 1018.4 165.378C1020 165.478 1021.4 164.478 1022.1 163.078C1022.65 161.979 1022.95 159.68 1021.6 158.98C1018.65 157.53 1015.6 161.929 1017.35 164.378C1017.9 165.178 1019.2 164.428 1018.65 163.628Z" fill="#CBCBCB"/>
<path d="M1059.35 237.952C1059.1 236.802 1059.95 235.553 1061.1 235.303C1062.15 235.103 1063.1 235.952 1063.35 236.902C1064 239.151 1061.05 240.201 1059.65 238.651C1059 237.952 1057.95 239.001 1058.6 239.701C1061.2 242.6 1066.2 239.751 1064.6 236.052C1063.9 234.403 1062.15 233.353 1060.4 233.903C1058.55 234.503 1057.45 236.452 1057.85 238.352C1058.15 239.301 1059.6 238.901 1059.35 237.952Z" fill="#CBCBCB"/>
<path d="M897.05 651.654C895.15 650.755 895.3 648.156 897.05 647.156C898.75 646.206 900.35 647.056 901.9 647.756C903.2 648.356 904.7 648.906 905.85 647.756C906.9 646.756 906.7 645.207 906.75 643.907C906.95 638.859 911.85 639.859 915.2 641.108C916.1 641.458 916.5 640.009 915.6 639.659C912.65 638.509 908.55 637.41 906.2 640.309C905.5 641.158 905.3 642.158 905.25 643.208C905.2 643.907 905.5 645.457 905.1 646.107C904 647.756 902.5 646.256 901.35 645.757C899.15 644.807 896 645.057 894.65 647.356C893.5 649.305 894.2 651.954 896.25 652.904C897.15 653.354 897.9 652.054 897.05 651.654Z" fill="#CBCBCB"/>
<path d="M921.25 533.847C919.75 552.19 920.55 570.584 923.65 588.727C923.8 589.677 925.25 589.277 925.1 588.328C922.05 570.334 921.25 552.041 922.75 533.847C922.85 532.897 921.35 532.897 921.25 533.847Z" fill="#CBCBCB"/>
<path d="M922.25 534.996C930.05 537.695 938.1 539.494 946.3 540.394C954 541.194 962.85 542.043 970.25 539.144C971.15 538.794 970.75 537.345 969.85 537.695C962.65 540.544 953.9 539.694 946.3 538.894C938.25 538.045 930.3 536.195 922.65 533.546C921.7 533.196 921.35 534.646 922.25 534.996Z" fill="#CBCBCB"/>
<path d="M934.15 537.045C931.55 532.997 929.4 528.698 927.9 524.1C927.2 521.901 926.6 519.702 926.15 517.452C925.9 516.103 925.65 514.753 925.5 513.404C925.5 513.254 924.95 509.705 926 510.205C926.5 510.455 927.35 510.005 927.1 509.355C924.35 502.408 922.85 495.11 922.7 487.613C922.45 487.863 922.2 488.113 921.95 488.363C922.35 488.513 922.7 488.663 923.1 488.813C923.6 489.412 924.55 488.763 924.35 488.063C923.35 484.864 922.7 481.565 922.5 478.166C922.45 477.367 922.6 468.37 923.15 468.52C923.75 468.67 924.15 468.12 924.05 467.62C923.1 461.972 922.65 456.224 922.9 450.526C923 447.677 923.25 444.878 923.7 442.079C924.1 439.53 924.3 436.431 926.3 434.582C925.9 434.532 925.5 434.482 925.1 434.432C929.3 442.329 931.65 450.976 933.8 459.573C935.9 468.02 937.75 476.567 939.35 485.164C942.6 502.908 944.65 520.851 945.55 538.895C945.6 539.844 947.1 539.844 947.05 538.895C946.15 520.751 944.1 502.658 940.8 484.764C939.15 475.867 937.25 467.02 935.05 458.224C932.9 449.777 930.55 441.38 926.4 433.632C926.15 433.183 925.55 433.183 925.2 433.482C923.5 435.032 923 437.081 922.6 439.23C922.05 442.279 921.65 445.428 921.45 448.527C921.05 455.025 921.45 461.522 922.55 467.97C922.85 467.67 923.15 467.37 923.45 467.07C920.55 466.271 920.9 472.518 920.85 473.918C920.65 478.816 921.4 483.715 922.85 488.413C923.25 488.163 923.7 487.913 924.1 487.663C923.45 486.913 922.9 486.663 921.9 486.763C921.5 486.813 921.15 487.063 921.15 487.513C921.3 495.11 922.8 502.558 925.6 509.655C925.95 509.355 926.35 509.105 926.7 508.806C921.7 506.406 924.6 517.702 925 519.402C926.5 525.899 929.2 532.097 932.8 537.695C933.4 538.595 934.7 537.845 934.15 537.045Z" fill="#CBCBCB"/>
<path d="M942.1 487.113C941.65 483.914 941.55 480.666 941.95 477.467C942.05 476.667 943.95 467.27 944.9 467.67C945.4 467.92 946 467.62 946.05 467.02C946.35 460.623 948.35 454.925 950.7 449.027C953.05 443.179 955.35 437.531 959.25 432.483C958.9 432.483 958.55 432.483 958.2 432.483C961.05 435.732 960.7 440.68 960.85 444.728C961.05 449.277 961.2 453.825 961.25 458.373C961.35 467.32 961.2 476.267 960.8 485.214C959.95 503.507 957.9 521.751 954.8 539.794C954.65 540.744 956.1 541.144 956.25 540.194C959.5 521.401 961.55 502.358 962.4 483.265C962.8 473.668 962.9 464.071 962.7 454.475C962.6 449.677 962.5 444.878 962.15 440.08C961.95 436.931 961.45 433.832 959.25 431.383C959 431.083 958.45 431.083 958.2 431.383C954.35 436.381 951.95 441.879 949.65 447.727C947.1 454.025 944.95 460.123 944.6 467.02C945 466.82 945.35 466.571 945.75 466.371C942.7 465.021 941.7 471.519 941.3 473.268C940.2 477.967 940.1 482.715 940.8 487.463C940.75 488.463 942.2 488.063 942.1 487.113Z" fill="#CBCBCB"/>
<path d="M924.35 589.977C940 595.025 956.95 594.775 972.45 589.277C973.35 588.977 972.95 587.528 972.05 587.828C956.8 593.226 940.15 593.476 924.75 588.527C923.8 588.228 923.4 589.677 924.35 589.977Z" fill="#CBCBCB"/>
<path d="M970.05 538.644C970.65 546.741 971.3 554.838 971.85 562.935C972.4 571.182 972.6 579.529 971.25 587.726C971.1 588.676 972.55 589.076 972.7 588.126C974.05 580.079 973.95 571.982 973.4 563.885C972.85 555.488 972.2 547.041 971.55 538.644C971.5 537.694 970 537.694 970.05 538.644Z" fill="#CBCBCB"/>
<path d="M703.2 602.821C713.4 597.373 723.65 591.925 733.85 586.477C738.65 587.277 745.25 588.326 753.15 589.426C768.95 591.625 794.4 595.174 826.6 596.124C858.8 597.073 882.95 595.024 892.15 594.124C914.3 592.025 927.7 589.176 938.65 586.227C948.6 583.528 956.8 580.579 962.65 578.33C967.45 579.93 972.8 582.079 978.5 585.028C981.75 586.727 984.75 588.476 987.4 590.226C978 592.925 965.35 596.374 950.3 599.872C918.6 607.27 894.3 610.768 889.2 611.518C860.05 615.667 818.5 621.515 766.25 615.467C750 613.517 728.35 609.969 703.2 602.821Z" fill="white"/>
<path d="M702.65 602.871C702.9 604.97 703.2 607.019 703.45 609.118C707.2 610.168 712.7 611.667 719.5 613.167C732.5 616.066 745.7 618.065 762.95 619.415C826.65 624.413 877.55 619.964 877.55 619.964C903 617.715 927.7 615.416 959.6 606.119C971.6 602.621 981.4 599.072 988.4 596.323C987.85 593.974 987.3 591.625 986.75 589.275C984.8 590.075 981.9 591.225 978.35 592.524C954.25 601.321 934.4 604.22 916.7 606.369C877.8 611.168 858.35 613.517 829.8 613.967C797.3 614.516 753.7 612.567 702.65 602.871Z" fill="#161616"/>
<path d="M702.3 603.82C702.3 605.419 702.3 607.019 702.3 608.618C702.3 609.568 703.8 609.568 703.8 608.618C703.8 607.019 703.8 605.419 703.8 603.82C703.8 602.82 702.3 602.82 702.3 603.82Z" fill="#161616"/>
<path d="M702.85 610.02C740.2 620.116 779.2 621.416 817.65 621.965C854.6 622.465 891.8 620.866 928.2 614.118C948.7 610.32 968.9 604.772 988.4 597.224C989.3 596.874 988.9 595.425 988 595.775C953.6 609.12 917.05 615.918 880.3 618.767C843.25 621.616 805.85 620.966 768.8 618.717C746.65 617.317 724.7 614.418 703.25 608.62C702.3 608.32 701.9 609.77 702.85 610.02Z" fill="#161616"/>
<path d="M988.4 596.173C988.7 594.074 988.8 591.925 988.6 589.826C988.5 588.876 987 588.876 987.1 589.826C987.25 591.825 987.25 593.824 986.95 595.773C986.8 596.673 988.25 597.123 988.4 596.173Z" fill="#161616"/>
<path d="M703.5 603.671C714 598.672 724.3 593.324 734.4 587.526C735.25 587.027 734.5 585.777 733.65 586.227C723.55 591.975 713.25 597.373 702.75 602.371C701.85 602.771 702.6 604.07 703.5 603.671Z" fill="#161616"/>
<path d="M734 586.828C793.65 598.174 855.65 600.273 915.8 591.676C931.8 589.377 947.7 585.828 962.5 579.23C963.4 578.831 962.6 577.531 961.75 577.931C948.45 583.829 934.25 587.278 919.9 589.527C905.3 591.826 890.55 593.226 875.8 594.175C845.85 596.075 815.75 595.575 785.9 592.726C768.6 591.076 751.45 588.577 734.4 585.378C733.45 585.228 733.05 586.678 734 586.828Z" fill="#161616"/>
<path d="M962.2 578.98C971.1 581.879 979.45 585.928 987.25 591.076C988.05 591.626 988.8 590.326 988 589.776C980.1 584.578 971.6 580.48 962.6 577.531C961.65 577.231 961.25 578.68 962.2 578.98Z" fill="#161616"/>
<path d="M703.6 602.872C721.25 608.82 739.65 611.619 758.15 613.119C776.9 614.618 795.8 615.068 814.6 615.068C851.95 615.068 889.4 612.519 926.2 605.821C947.1 602.023 967.8 596.874 987.95 590.127C988.85 589.827 988.45 588.377 987.55 588.677C952.1 600.473 915.25 607.371 878.05 610.769C841.05 614.168 803.65 614.368 766.55 612.169C745.35 610.869 724.1 608.22 703.9 601.423C703.1 601.123 702.7 602.572 703.6 602.872Z" fill="#161616"/>
<path d="M732.4 317.423C793.5 303.278 856.4 300.179 918.9 299.579C936.6 299.379 954.3 299.429 972 299.429C972.95 299.429 972.95 297.93 972 297.93C909.3 297.83 846.3 297.78 784.05 306.427C766.55 308.876 749.2 311.975 732 315.974C731.05 316.223 731.45 317.673 732.4 317.423Z" fill="#161616"/>
<path d="M975.1 298.079C975.75 321.321 976.15 348.261 976 378.2C975.9 395.594 975.75 387.297 974.2 459.671C973.3 501.357 973.05 517.051 970.1 541.142C968.2 556.837 965.9 569.732 964.2 578.479C977.1 582.078 989.4 585.477 1000.2 588.475C1016.9 593.124 1021.35 594.373 1028 595.323C1038.3 596.723 1050.85 596.922 1065.35 593.974C1070.7 550.189 1073.65 512.852 1075.35 484.263C1081.45 383.798 1075.75 337.515 1073.55 321.271C1070.55 299.379 1066.85 281.385 1064 268.939C1053.3 270.989 1044.6 273.188 1038.5 274.837C1017.55 280.585 1000.95 287.333 987.05 293.031C981.9 295.18 977.75 296.929 975.1 298.079Z" fill="white"/>
<path d="M630.4 269.84C630 274.138 629.55 279.436 629.15 284.035C620.85 378.651 616.7 425.984 615.35 456.423C613.95 489.112 613.85 536.495 620.8 595.424C621.35 596.623 622.35 598.273 624.15 599.622C626.5 601.372 628.65 601.322 632.9 602.521C636.25 603.471 638 604.421 639.6 605.02C644.2 606.82 654.5 608.869 667.6 608.369C686.4 607.619 700.85 601.871 711.45 597.523C721.4 593.474 729.35 589.126 734.85 585.827C731.75 557.987 729.45 528.598 728.15 497.759C725.5 432.182 728.15 371.953 733.6 318.273C731.3 317.373 727.95 316.123 724 314.524C717.2 311.775 700.9 305.127 672.2 291.132C660.85 285.634 646.65 278.487 630.4 269.84Z" fill="white"/>
<path d="M1063.7 268.74C1064.3 272.039 1065.1 276.587 1066 282.035C1067.25 289.783 1070.05 308.126 1072.1 332.218C1074.2 357.309 1074.7 378.901 1074.75 396.095C1074.9 430.982 1073.6 456.573 1070.2 516.252C1069.15 534.845 1067.6 562.086 1065.65 595.324C1067.7 595.174 1069.7 595.074 1071.75 594.924C1072.75 586.627 1074.1 574.281 1075.15 559.187C1075.95 548.29 1076.3 540.343 1076.65 531.796C1078.4 492.61 1078.7 493.06 1079.3 477.066C1080.5 445.527 1080.25 421.286 1080.05 399.494C1079.9 384.449 1079.45 370.204 1078.55 341.714C1077.9 322.321 1077.25 305.127 1072.85 282.785C1071.7 277.087 1070.6 272.339 1069.8 269.09C1067.75 268.99 1065.75 268.89 1063.7 268.74Z" fill="#161616"/>
<path d="M622.75 270.74C622.4 272.49 621.85 275.189 621.3 278.487C619.7 288.034 619.3 295.231 619.15 297.581C618.05 314.575 615.85 322.872 612.65 360.608C612.05 367.506 611.6 373.554 610.7 385.699C608.85 410.49 607.95 422.886 607.3 436.881C606.6 452.525 606.5 463.571 606.35 485.664C606.2 504.757 606.1 518.552 606.6 536.595C607 550.99 607.8 570.533 609.75 593.825C613.8 595.025 617.8 596.224 621.85 597.424C621.8 595.174 621.65 591.126 621.35 586.078C620.15 563.636 618.2 554.539 617.75 535.846C617.6 530.098 617.7 526.299 617.75 520.851C618.3 481.765 617.65 463.921 618 438.53C618.6 397.095 621.4 364.707 623.8 337.117C626.05 311.026 628.6 288.684 630.8 271.19C628.05 271.04 625.4 270.89 622.75 270.74Z" fill="#161616"/>
<path d="M973.9 298.931C975.75 335.618 975.5 372.405 975 409.092C974.45 444.979 974.2 480.966 971.45 516.803C969.9 537.196 967.45 557.539 963.65 577.682C963.45 578.631 964.9 579.031 965.1 578.081C971.75 542.844 974.2 507.007 975.3 471.22C976.45 434.683 976.95 398.046 976.9 361.459C976.85 340.616 976.5 319.774 975.45 298.931C975.35 297.981 973.85 297.981 973.9 298.931Z" fill="#161616"/>
<path d="M975.75 298.93C1003.5 285.185 1032.95 275.289 1063.35 269.441C1064.3 269.241 1063.9 267.792 1062.95 267.992C1032.45 273.889 1002.85 283.886 975 297.631C974.15 298.081 974.9 299.38 975.75 298.93Z" fill="#161616"/>
<path d="M1062.85 268.991C1071.1 310.526 1073.6 352.961 1073.55 395.246C1073.45 437.531 1070.95 479.716 1068.9 521.951C1067.7 546.292 1066.5 570.583 1065.3 594.924C1065.25 595.874 1066.75 595.874 1066.8 594.924C1068.95 551.84 1071.2 508.755 1073.15 465.621C1075.05 423.336 1076.25 380.951 1073.4 338.716C1071.8 315.174 1068.95 291.733 1064.35 268.641C1064.1 267.641 1062.65 268.041 1062.85 268.991Z" fill="#161616"/>
<path d="M963.9 577.98C966.15 580.579 970.15 581.079 973.3 582.028C977.6 583.328 981.95 584.627 986.25 585.927C994.95 588.526 1003.6 591.275 1012.4 593.474C1029.6 597.673 1047.25 598.522 1064.7 595.523C1065.65 595.373 1065.25 593.924 1064.3 594.074C1047.1 597.023 1029.7 596.173 1012.8 592.025C1004.75 590.075 996.85 587.576 988.95 585.177C984.95 583.977 980.95 582.778 976.95 581.578C974.95 580.979 972.95 580.379 970.95 579.779C968.85 579.129 966.5 578.679 965 576.93C964.3 576.23 963.25 577.28 963.9 577.98Z" fill="#161616"/>
<path d="M1063.85 269.041C1065.7 269.49 1067.55 269.94 1069.45 270.39C1070.4 270.64 1070.8 269.191 1069.85 268.941C1068 268.491 1066.15 268.041 1064.25 267.591C1063.3 267.391 1062.9 268.841 1063.85 269.041Z" fill="#161616"/>
<path d="M1069.35 269.889C1074.35 290.082 1075.7 311.175 1077.15 331.917C1078.65 353.11 1079.45 374.352 1079.8 395.644C1080.4 437.879 1078.95 480.114 1076.55 522.299C1075.2 546.191 1073.5 570.082 1071.75 593.974C1071.7 594.923 1073.2 594.923 1073.25 593.974C1076.4 551.489 1079.25 509.004 1080.6 466.419C1081.95 423.934 1081.85 381.35 1079.15 338.865C1077.7 315.773 1076.4 292.081 1070.85 269.539C1070.55 268.54 1069.1 268.94 1069.35 269.889Z" fill="#161616"/>
<path d="M1066.1 595.774C1068.3 595.574 1070.45 595.374 1072.65 595.174C1073.6 595.074 1073.6 593.575 1072.65 593.675C1070.45 593.875 1068.3 594.075 1066.1 594.275C1065.15 594.374 1065.15 595.874 1066.1 595.774Z" fill="#161616"/>
<path d="M732.35 317.872C729 352.51 727 387.248 726.35 422.035C725.7 456.973 726.4 491.96 728.5 526.848C729.65 546.441 731.3 565.984 733.3 585.477C733.4 586.427 734.9 586.427 734.8 585.477C731.2 550.889 728.95 516.152 728.05 481.364C727.15 446.427 727.6 411.439 729.45 376.551C730.5 356.958 731.95 337.415 733.8 317.872C733.95 316.923 732.45 316.923 732.35 317.872Z" fill="#161616"/>
<path d="M631.35 271.039C663.8 289.082 697.5 304.877 732.1 318.322C733 318.672 733.4 317.222 732.5 316.873C698 303.477 664.45 287.733 632.1 269.739C631.25 269.24 630.5 270.539 631.35 271.039Z" fill="#161616"/>
<path d="M629.8 270.691C624.25 312.976 620.4 355.511 618.3 398.145C616.2 440.78 615.9 483.465 617.3 526.1C618.1 550.041 619.45 573.983 621.35 597.874C621.45 598.824 622.95 598.824 622.85 597.874C619.45 555.339 617.85 512.654 617.95 470.02C618.05 427.335 619.95 384.7 623.55 342.165C625.6 318.274 628.2 294.482 631.3 270.691C631.4 269.741 629.9 269.741 629.8 270.691Z" fill="#161616"/>
<path d="M621.3 598.823C649.15 613.967 682.5 610.718 710.8 598.723C719.3 595.124 727.5 590.776 735.4 586.027C736.2 585.527 735.45 584.228 734.65 584.728C708.3 600.672 677.4 611.818 646.25 606.02C637.8 604.471 629.6 601.622 622.05 597.523C621.25 597.073 620.45 598.373 621.3 598.823Z" fill="#161616"/>
<path d="M610.25 594.674C613.75 596.323 617.35 597.723 621 598.972C621.9 599.272 622.3 597.823 621.4 597.523C617.85 596.323 614.4 594.974 611 593.374C610.1 592.974 609.35 594.274 610.25 594.674Z" fill="#161616"/>
<path d="M621.75 271.041C616.35 312.926 611.85 354.911 608.9 397.046C606 438.981 604.6 481.016 605.5 523.051C606 546.842 607.2 570.634 609.25 594.326C609.35 595.275 610.85 595.275 610.75 594.326C607.15 552.291 606.1 510.106 607.1 467.921C608.05 425.886 610.95 383.901 615.1 342.016C617.45 318.324 620.2 294.632 623.25 270.991C623.4 270.091 621.9 270.091 621.75 271.041Z" fill="#161616"/>
<path d="M622.6 272.09C625.5 271.49 628.4 271.29 631.4 271.44C632.35 271.49 632.35 269.991 631.4 269.941C628.3 269.791 625.25 270.041 622.2 270.641C621.25 270.841 621.65 272.29 622.6 272.09Z" fill="#161616"/>
<path d="M993.05 302.329C995.15 360.309 995.05 418.338 992.65 476.317C992 492.562 991.15 508.756 990.1 525C990.05 525.95 991.55 525.95 991.6 525C995.25 467.121 996.65 409.091 995.8 351.062C995.55 334.818 995.15 318.574 994.55 302.329C994.5 301.38 993 301.38 993.05 302.329Z" fill="#161616"/>
<path d="M1017.3 281.536C1019.3 321.872 1020.3 362.308 1020.25 402.693C1020.25 443.079 1019.25 483.514 1017.25 523.85C1016.15 546.692 1014.7 569.484 1012.95 592.276C1012.9 593.225 1014.4 593.225 1014.45 592.276C1017.55 551.99 1019.65 511.654 1020.8 471.269C1021.9 430.883 1022.05 390.448 1021.2 350.062C1020.7 327.22 1019.9 304.378 1018.8 281.536C1018.75 280.587 1017.25 280.587 1017.3 281.536Z" fill="#161616"/>
<path d="M1046.4 272.639C1049.2 314.574 1050.9 356.609 1051.35 398.694C1051.8 440.929 1051.1 483.114 1049.2 525.299C1048.15 548.94 1046.7 572.582 1044.85 596.173C1044.8 597.123 1046.3 597.123 1046.35 596.173C1049.55 554.238 1051.65 512.203 1052.5 470.168C1053.35 427.983 1053.05 385.749 1051.55 343.514C1050.7 319.872 1049.5 296.23 1047.9 272.589C1047.85 271.639 1046.35 271.639 1046.4 272.639Z" fill="#161616"/>
<path d="M987.9 543.743C986.75 556.839 984.65 569.834 981.6 582.63C981.4 583.579 982.8 583.979 983.05 583.03C986.15 570.084 988.25 556.989 989.4 543.743C989.5 542.794 988 542.794 987.9 543.743Z" fill="#161616"/>
<path d="M647.75 280.787C641.75 322.722 639.2 365.107 638.8 407.441C638.45 450.026 640.2 492.561 642.8 535.046C644.25 559.087 645.95 583.079 647.65 607.12C647.7 608.07 649.2 608.07 649.15 607.12C646.15 564.785 643.15 522.45 641.5 480.066C639.85 437.781 639.6 395.396 642.05 353.111C643.45 329.069 645.75 305.028 649.15 281.187C649.35 280.287 647.9 279.837 647.75 280.787Z" fill="#161616"/>
<path d="M676.5 294.782C672.7 335.318 670.15 376.003 669.3 416.739C668.5 457.424 669.45 498.11 672.8 538.695C674.65 561.237 677.25 583.679 680.65 606.021C680.8 606.971 682.25 606.571 682.1 605.621C676 565.336 672.5 524.65 671.2 483.915C669.9 443.729 670.65 403.444 672.85 363.308C674.1 340.466 675.85 317.624 678 294.832C678.1 293.833 676.6 293.833 676.5 294.782Z" fill="#161616"/>
<path d="M705.3 306.726C700.4 344.563 697.55 382.649 696.8 420.786C696.05 458.922 697.35 497.108 700.7 535.095C702.6 556.287 705.1 577.38 708.25 598.422C708.4 599.372 709.85 598.972 709.7 598.022C704.05 560.336 700.45 522.399 698.9 484.363C697.35 446.427 697.9 408.39 700.45 370.454C701.9 349.161 704 327.869 706.75 306.676C706.95 305.777 705.45 305.777 705.3 306.726Z" fill="#161616"/>
<path opacity="0.12" d="M1035.2 276.039C1040.75 298.681 1045.25 325.221 1046.75 354.961C1050.5 430.634 1032.7 492.462 1017.2 532.147C1006.25 549.691 995.35 567.235 984.4 584.779C995.05 589.377 1010.85 594.725 1030.55 596.325C1044.15 597.424 1055.95 596.425 1065.15 594.925C1065.25 592.726 1066.9 559.288 1067 557.089C1072.45 445.079 1072.8 437.431 1073 429.734C1073.9 398.395 1073.75 353.411 1068.4 297.281C1066.55 287.735 1064.7 278.188 1062.85 268.691C1053.7 271.091 1044.45 273.54 1035.2 276.039Z" fill="#3F3F3F"/>
<path opacity="0.13" d="M686.25 300.48C684.95 305.928 683 314.075 680.7 324.021C670.5 368.405 663 401.044 659 431.083C651.9 484.014 645.05 535.296 674.25 577.381C682.75 589.626 692.05 597.873 698.25 602.772C692.25 605.121 684.8 607.27 676.1 608.32C651.9 611.169 632.5 603.322 623 598.623C619.4 565.485 616.9 529.998 616.1 492.461C614.3 409.391 621.05 334.717 631.35 270.49C649.6 280.487 667.9 290.483 686.25 300.48Z" fill="#3F3F3F"/>
<path d="M633.8 246.699C633.15 247.199 633.65 249.148 634.55 252.497C634.9 253.796 635.25 254.796 635.45 255.446C635.05 258.145 634.7 260.844 634.3 263.543C633.5 263.643 631.45 264.093 629.55 265.742C627.8 267.291 627.1 269.091 626.85 269.891C628.45 270.04 630.4 270.39 632.5 271.04C635.55 271.99 637.95 273.289 639.7 274.389C639.7 274.989 639.8 276.138 640.6 276.988C641.3 277.688 642.15 277.788 642.65 277.888C644.45 278.188 646.6 278.587 649.35 279.187C650.55 279.887 652.55 281.037 655 282.386C663.3 286.884 666.3 287.634 674.6 292.033C679.95 294.882 679.5 294.982 683.25 296.781C689 299.58 693.95 301.229 697.3 302.179C698.7 300.63 700.95 297.631 702.2 293.282C703.2 289.833 703.15 286.834 702.95 284.885C703.8 285.335 705.15 285.835 706.7 285.635C710.7 285.185 713.25 280.637 714.05 277.388C714.75 274.539 714.1 272.74 713.55 269.391C712.3 261.893 711.2 255.196 714.3 250.947C716.9 247.399 722.25 245.749 726.55 241.001C726.95 240.551 727.7 239.701 727.45 239.301C727 238.552 723.5 239.851 721.8 240.601C720.7 241.101 712.45 244.899 709.95 253.496C709.55 254.846 709.5 258.745 709.45 266.492C709.4 272.14 709.5 275.339 707.25 277.188C706.1 278.138 704.4 278.687 702.85 278.338C700.55 277.838 699.45 275.588 698.45 274.089C695.85 270.14 692.15 268.491 687.6 266.242C684.05 264.492 681 263.843 674.85 262.493C669.05 261.244 667.3 261.394 664.8 259.544C662 257.445 660.45 254.496 659.65 252.847C658.85 251.297 657.6 248.848 657.05 245.349C656.75 243.3 656.8 241.851 656.3 241.751C655.4 241.551 654.95 245.699 651.9 247.149C650.05 248.048 648.85 247.199 645.6 247.299C643.5 247.349 641.1 247.798 638.4 248.998C637.5 248.348 634.7 246.049 633.8 246.699Z" fill="black"/>
<path d="M635.3 263.142C634.25 254.895 641.75 247.398 650.05 248.247C657.9 249.047 663.1 258.594 662.85 265.741C662.8 266.691 664.3 266.691 664.35 265.741C664.6 257.844 658.7 247.448 650.05 246.748C640.95 245.998 632.65 254.045 633.8 263.142C633.95 264.042 635.45 264.092 635.3 263.142Z" fill="black"/>
<path d="M635.15 268.34C638.2 274.288 644.75 278.486 651.6 277.587C657.85 276.737 663.15 271.689 664.1 265.441C664.25 264.491 662.8 264.091 662.65 265.041C661.8 270.739 657.1 275.337 651.4 276.087C645.15 276.937 639.25 273.038 636.45 267.59C636 266.74 634.7 267.49 635.15 268.34Z" fill="black"/>
<path d="M640.55 275.59C640.4 273.69 645.8 272.891 647.15 272.591C649.6 272.041 652.1 271.741 654.6 271.741C659.25 271.741 663.7 272.941 667.65 275.39C668.45 275.89 669.25 274.59 668.4 274.09C663.3 270.941 657.35 269.842 651.45 270.392C648.35 270.691 645.3 271.341 642.35 272.341C640.75 272.891 638.85 273.59 639 275.59C639.1 276.539 640.65 276.539 640.55 275.59Z" fill="black"/>
<path d="M662.05 258.295C665.2 262.093 670.3 262.993 674.85 263.993C680.9 265.392 687.15 266.642 692.45 269.99C703.4 276.888 705.45 291.933 696.8 301.579C696.15 302.279 697.2 303.379 697.85 302.629C705.55 294.082 705.75 280.986 697.8 272.49C693.6 267.991 687.6 265.642 681.75 264.093C675.8 262.543 667.25 262.293 663.05 257.195C662.5 256.495 661.45 257.545 662.05 258.295Z" fill="black"/>
<path d="M697.05 284.435C694.55 281.137 690.15 279.987 686.3 281.586C681.55 283.536 681.3 289.384 681.85 293.832C681.95 294.782 683.45 294.782 683.35 293.832C682.9 290.333 682.85 284.935 686.45 283.186C689.55 281.636 693.6 282.436 695.7 285.235C696.3 285.985 697.6 285.235 697.05 284.435Z" fill="black"/>
<path d="M683.15 293.131C680.4 291.032 677.55 289.233 674 290.182C673.6 290.282 673.4 290.732 673.5 291.082C674.4 294.581 679.9 296.03 682.8 297.28C687.25 299.229 691.8 300.878 696.4 302.328C697.3 302.628 697.7 301.178 696.8 300.878C693.1 299.729 689.5 298.479 685.9 296.98C683.95 296.18 682.05 295.33 680.15 294.431C678.45 293.631 675.4 292.681 674.9 290.682C674.75 290.982 674.55 291.282 674.4 291.582C677.5 290.732 680.05 292.581 682.35 294.381C683.15 295.031 683.9 293.731 683.15 293.131Z" fill="black"/>
<path d="M639.2 275.438C641.15 278.637 645.1 279.187 648.55 279.686C653.65 280.436 658.75 280.436 663.85 279.886C664.8 279.786 664.8 278.287 663.85 278.387C659.75 278.837 655.65 278.937 651.55 278.537C648.1 278.187 642.55 277.987 640.45 274.688C640 273.839 638.7 274.588 639.2 275.438Z" fill="black"/>
<path d="M627.55 270.34C628.2 266.841 631.25 265.042 634.65 264.892C634.4 264.692 634.15 264.542 633.95 264.342C634.2 265.542 634.55 266.691 635.05 267.791C635.4 268.691 636.85 268.291 636.5 267.391C636.05 266.242 635.7 265.142 635.4 263.942C635.35 263.642 635 263.393 634.7 263.393C630.7 263.593 626.9 265.792 626.15 269.94C625.95 270.89 627.4 271.29 627.55 270.34Z" fill="black"/>
<path d="M636.25 254.846C635.5 252.697 634.95 250.447 634.75 248.148C634.75 247.948 634.7 247.748 634.7 247.549C634.65 247.099 634.7 247.149 634.9 247.698C635.35 247.998 635.8 248.348 636.25 248.698C637 249.348 637.7 250.048 638.3 250.797C638.95 251.547 640 250.447 639.35 249.748C638.5 248.748 634.95 244.65 633.45 246.249C632.7 247.049 633.25 248.898 633.4 249.798C633.65 251.647 634.15 253.496 634.75 255.246C635.15 256.145 636.6 255.796 636.25 254.846Z" fill="black"/>
<path d="M653.15 247.849C653.6 247.049 654.05 246.25 654.55 245.45C654.75 245.1 654.95 244.8 655.1 244.45C655.4 243.951 655.4 243.501 656 243.651C656.7 243.801 656.45 245.45 656.45 246.05C656.45 246.999 656.5 247.949 656.5 248.899C656.5 249.848 658 249.848 658 248.899C658 247.349 658.05 245.8 657.95 244.25C657.9 243.251 657.55 242.151 656.45 241.801C655.45 241.501 654.75 242.151 654.25 242.901C653.4 244.25 652.65 245.7 651.85 247.049C651.35 247.949 652.65 248.699 653.15 247.849Z" fill="black"/>
<path d="M701.05 280.537C701.35 284.335 705.6 285.585 708.55 283.735C712.9 281.036 713.85 274.938 713.3 270.34C712.55 264.042 711.05 258.194 713.2 251.947C715.25 245.999 720.35 241.151 726.8 240.751C727.75 240.701 727.75 239.201 726.8 239.251C718 239.801 712 247.298 710.75 255.595C710 260.544 711.1 265.142 711.75 269.99C712.15 273.189 711.95 276.238 710.5 279.187C709.85 280.437 708.95 281.686 707.75 282.486C705.9 283.635 702.7 283.286 702.5 280.586C702.5 279.587 701 279.537 701.05 280.537Z" fill="black"/>
<path d="M701.85 283.237C703.4 287.385 708.8 285.536 711.15 283.137C715 279.238 714.15 272.741 713.85 267.792C713.8 266.843 712.3 266.843 712.35 267.792C712.55 270.941 712.85 274.34 712.3 277.489C712.05 278.988 711.5 280.388 710.5 281.587C709.4 282.937 704.6 286.336 703.3 282.837C702.95 281.937 701.5 282.337 701.85 283.237Z" fill="black"/>
<path d="M726.85 239.201C721.15 241.4 715.4 244.499 713.1 250.497C710.45 257.394 712.35 264.891 712.2 272.039C712.2 272.989 713.7 272.989 713.7 272.039C713.85 265.791 712.35 259.393 713.85 253.196C715.5 246.398 721.15 242.999 727.25 240.65C728.15 240.3 727.75 238.851 726.85 239.201Z" fill="black"/>
<path d="M725.7 240.052C720.45 242.451 715.65 246.65 713.2 251.998C711.9 254.797 712.1 257.896 712.1 260.945C712.1 264.843 712.25 268.792 712.55 272.69C712.6 273.64 714.1 273.64 714.05 272.69C713.85 269.542 713.7 266.443 713.65 263.294C713.6 259.995 713.15 256.096 714.4 252.997C716.55 247.749 721.4 243.701 726.45 241.352C727.35 240.952 726.6 239.652 725.7 240.052Z" fill="black"/>
<path d="M638.25 258.145C639.65 260.595 643.2 259.745 643.55 257.046C643.6 256.546 642.85 256.596 642.8 257.046C642.55 259.095 639.95 259.495 638.9 257.796C638.65 257.346 638 257.746 638.25 258.145Z" fill="white"/>
<path d="M648.85 256.195C650.4 258.845 654.35 257.795 654.4 254.746C654.4 254.246 653.65 254.246 653.65 254.746C653.6 257.095 650.7 257.845 649.5 255.846C649.25 255.396 648.6 255.746 648.85 256.195Z" fill="white"/>
<path d="M645.85 259.495C646.2 260.944 645.9 262.393 645 263.593C644.7 263.993 645.35 264.343 645.65 263.993C646.65 262.643 646.95 260.944 646.6 259.295C646.45 258.845 645.7 259.045 645.85 259.495Z" fill="white"/>
<path d="M646.15 259.445C646 261.345 647.05 263.144 648.8 263.944C649.25 264.144 649.6 263.494 649.2 263.294C647.7 262.594 646.75 261.095 646.9 259.445C646.9 258.945 646.15 258.945 646.15 259.445Z" fill="white"/>
<path d="M633.95 263.893C638.35 263.543 641.15 267.142 644.1 269.791C644.45 270.091 645 269.591 644.65 269.241C641.55 266.442 638.55 262.794 633.95 263.094C633.5 263.144 633.5 263.893 633.95 263.893Z" fill="white"/>
<path d="M642.15 272.689C647.8 269.091 654.5 267.891 661.05 269.341C661.5 269.441 661.7 268.741 661.25 268.641C654.5 267.191 647.6 268.391 641.8 272.09C641.35 272.29 641.75 272.939 642.15 272.689Z" fill="white"/>
<path d="M656.35 279.536C661 279.836 665.4 278.387 668.95 275.338C669.3 275.038 668.8 274.488 668.4 274.788C665 277.687 660.8 279.086 656.35 278.787C655.9 278.787 655.9 279.536 656.35 279.536Z" fill="white"/>
<path d="M655 244.049C653.9 245.898 653.65 248.047 654.3 250.097C654.45 250.546 655.15 250.347 655 249.897C654.4 248.047 654.6 246.098 655.6 244.449C655.9 243.999 655.25 243.599 655 244.049Z" fill="white"/>
<path d="M635.2 248.698C636.4 249.448 637.15 250.597 637.45 251.947C637.55 252.397 638.25 252.197 638.15 251.747C637.8 250.198 636.9 248.898 635.55 248.048C635.15 247.798 634.8 248.448 635.2 248.698Z" fill="white"/>
<path d="M661.65 256.695C662.6 257.845 663.7 258.844 664.95 259.594C665.35 259.844 665.75 259.194 665.35 258.944C664.15 258.195 663.05 257.245 662.2 256.145C661.85 255.795 661.35 256.345 661.65 256.695Z" fill="white"/>
<path d="M692.5 281.236C691.45 278.587 686.4 280.386 684.75 281.436C681.8 283.385 680.5 287.034 681.6 290.382C681.75 290.832 682.45 290.632 682.3 290.182C681.45 287.533 682.15 284.684 684.25 282.735C685.15 281.885 686.35 281.286 687.55 280.986C688.4 280.736 691.3 280.186 691.75 281.386C691.95 281.885 692.65 281.685 692.5 281.236Z" fill="white"/>
<path d="M682.2 290.433C678.3 288.783 674.15 288.633 670.1 289.883C669.65 290.033 669.85 290.732 670.3 290.582C674.25 289.333 678.2 289.533 682 291.132C682.45 291.332 682.65 290.582 682.2 290.433Z" fill="white"/>
<path d="M819.55 498.309C817.5 503.208 817.5 506.856 817.2 516.253C816.85 527.849 815.85 539.395 815.75 550.941C815.65 560.687 815.5 575.432 815.1 594.625C831.1 595.525 848.8 595.725 868 594.775C886.3 593.875 903.2 592.026 918.45 589.727C911.25 565.385 906.5 547.642 903.1 533.897C901.3 526.549 898.65 515.553 891.35 502.708C887.35 495.66 883.2 490.362 880.15 486.813C879.35 486.114 861.7 471.269 841.3 478.266C840.3 478.666 825.45 484.064 819.55 498.309Z" fill="#FFBA15"/>
<path d="M849 527.45C852.35 533.398 855.7 539.345 859 545.293C859.45 546.143 860.75 545.393 860.3 544.544C856.95 538.596 853.6 532.648 850.3 526.7C849.85 525.85 848.55 526.6 849 527.45Z" fill="#C64F4F"/>
<path d="M848.6 527.149C856.3 536.745 860.75 547.691 863.15 559.687C865.4 571.033 866.85 582.529 867.7 594.075C867.75 595.025 869.25 595.025 869.2 594.075C868.3 582.229 866.8 570.383 864.5 558.737C862.1 546.692 857.4 535.696 849.7 526.099C849.1 525.299 848 526.399 848.6 527.149Z" fill="#C64F4F"/>
<path opacity="0.19" d="M860.65 477.117C862.4 480.616 864.9 485.764 867.7 491.962C875.85 510.055 884.3 529.149 888.8 552.64C890.65 562.137 892.4 575.882 891.65 593.026C895.85 592.826 900.3 592.476 904.95 591.976C909.6 591.476 914.05 590.877 918.25 590.177C916.95 585.778 914.85 578.781 912.5 570.134C905.95 545.943 905.05 538.395 899.45 522.451C895.3 510.605 891.45 502.558 885.9 494.861C880.9 487.913 876.2 483.565 870.25 480.516C866.55 478.617 863.1 477.667 860.65 477.117Z" fill="#3F3F3F"/>
<path opacity="0.11" d="M848.7 527.699C850.65 534.997 852.35 543.694 853.15 553.49C854.55 570.434 852.75 584.879 850.55 595.675C856.3 595.325 862 594.975 867.75 594.625C867.15 583.279 865.85 573.733 864.6 566.485C861.45 548.042 858.15 541.194 855.5 536.796C853 532.747 850.5 529.699 848.7 527.699Z" fill="#3F3F3F"/>
<path d="M784.65 413.139C783 414.239 782 416.338 780.05 420.486C778.45 423.885 777.7 426.534 776.5 430.483C773.2 441.679 773.55 439.78 772.4 444.028C770.9 449.676 768.2 459.573 766.7 472.618C765.25 485.263 765.55 495.01 765.6 497.359C766.15 512.204 768.75 523.25 770.5 530.347C773.6 543.093 777.75 553.689 786 574.831C787.8 579.38 789.3 583.128 790.35 585.728C789.6 585.828 788.4 585.977 786.95 586.177C779.4 587.077 778.35 586.877 775.3 587.527C771.4 588.377 767.9 589.226 766.55 592.175C765.95 593.525 765.7 595.424 766.45 596.074C767.4 596.874 769.25 595.074 772.45 594.025C775.15 593.175 777.55 593.225 779.2 593.475C777.9 596.024 777.15 598.323 776.7 599.972C775.6 603.771 774.75 606.87 776.15 609.069C776.85 610.169 778.2 611.168 779.3 610.869C779.9 610.719 780.45 610.169 781.95 606.22C783.4 602.272 783.5 601.022 784.7 599.473C785.75 598.173 786.95 597.473 787.75 597.074C787.35 598.323 786.9 600.172 786.7 602.422C786.6 603.771 786.45 605.021 786.7 606.62C786.9 608.07 787.35 611.168 789.65 612.868C790.05 613.168 791.7 614.417 792.7 613.768C793.55 613.268 793.3 611.868 793.65 607.37C793.95 603.571 794.25 602.522 794.5 601.922C795.15 600.172 796.15 598.923 796.9 598.173C796.65 601.772 796.7 604.771 796.8 606.97C797 610.519 797.35 612.118 798.5 613.118C799.15 613.668 800.25 614.217 801.15 613.818C802.05 613.418 802.35 612.168 802.6 610.619C803.7 604.771 803.05 603.071 804.3 600.122C804.8 598.973 805.35 597.573 806.7 596.574C809.55 594.474 813.6 595.724 814.15 595.874C816.55 596.624 817.45 597.923 818.65 597.373C819.65 596.924 820.2 595.474 820.25 594.275C820.3 591.326 817.05 589.076 814.25 587.227C812.85 586.277 810.75 585.028 807.95 584.028C805.5 579.18 802.4 572.132 799.85 563.186C798.15 557.188 797.35 552.589 796.6 548.241C793.95 532.996 794.9 527.148 791.95 512.004C791.25 508.355 790.55 505.456 790.15 503.807C790.35 501.308 790.7 497.409 791.2 492.661C792.85 477.166 793.95 467.47 797.3 456.074C799.95 447.127 802.65 439.78 802.65 439.78C806.05 430.633 807.15 429.383 806.75 426.434C805.35 417.138 790.8 409.041 784.65 413.139Z" fill="white"/>
<path d="M780.8 417.887C771.9 438.429 766.3 460.371 765.1 482.763C763.85 505.605 767.8 527.947 775.2 549.54C779.4 561.885 784.5 573.881 789.7 585.877C790.1 586.776 791.35 585.977 791 585.127C782 564.334 773.2 543.242 769 520.95C764.85 498.958 765.7 476.216 770.5 454.374C773.2 442.128 777.1 430.182 782.1 418.686C782.45 417.787 781.2 416.987 780.8 417.887Z" fill="#161616"/>
<path d="M799.45 446.427C793.15 465.47 789.85 485.413 789.5 505.456C789.5 506.406 791 506.406 791 505.456C791.35 485.513 794.65 465.77 800.9 446.827C801.2 445.927 799.75 445.527 799.45 446.427Z" fill="#161616"/>
<path d="M784.25 496.359C788.7 502.557 790.5 509.954 791.55 517.352C792.65 524.899 793.15 532.546 794.25 540.094C796.45 555.438 800.05 570.733 807.3 584.478C807.75 585.327 809.05 584.578 808.6 583.728C801.05 569.433 797.5 553.489 795.4 537.594C793.55 523.649 794.1 507.505 785.55 495.609C785 494.86 783.7 495.609 784.25 496.359Z" fill="#161616"/>
<path d="M789.5 585.177C784.85 585.427 780.2 585.877 775.65 586.726C772.4 587.376 768.95 588.426 766.7 591.025C765.4 592.574 763.75 596.273 766.6 597.323C767.85 597.773 768.95 596.923 770 596.323C772.6 594.824 775.3 593.274 778.4 594.124C779.35 594.374 779.75 592.924 778.8 592.674C776.25 591.975 773.95 592.574 771.65 593.724C770.95 594.074 770.3 594.424 769.65 594.824C769.25 595.024 768.9 595.273 768.5 595.523C768.05 594.724 767.55 593.924 767.1 593.124C767.2 591.875 769.7 590.425 770.6 589.925C773.05 588.626 775.9 588.176 778.6 587.776C782.25 587.226 785.9 586.876 789.55 586.676C790.5 586.626 790.5 585.127 789.5 585.177Z" fill="#161616"/>
<path d="M785.4 589.626C781.45 590.276 778.2 592.975 776.7 596.624C775.1 600.422 773.75 606.07 775.6 609.969C777 612.918 780.45 613.967 781.75 610.369C782.55 608.12 782.4 605.67 783.2 603.421C784.2 600.622 785.9 598.223 788.4 596.574C789.2 596.024 788.45 594.724 787.65 595.274C785.3 596.824 783.55 598.923 782.4 601.472C781.8 602.771 781.35 604.121 781.05 605.52C780.8 606.67 780.65 612.468 777.9 610.769C776.35 609.819 776.2 606.77 776.25 605.221C776.35 602.921 776.95 600.272 777.7 598.073C778.95 594.374 781.9 591.725 785.75 591.076C786.75 590.926 786.35 589.476 785.4 589.626Z" fill="#161616"/>
<path d="M790.1 593.324C787 595.324 785.9 599.672 785.6 603.171C785.3 606.92 786.35 610.968 789.15 613.617C790.8 615.167 793.35 615.966 793.8 613.067C794.55 608.219 792.6 601.371 797.9 598.472C798.75 598.023 798 596.723 797.15 597.173C795.25 598.223 794.05 599.922 793.3 601.971C792.25 604.97 792.85 608.019 792.4 611.118C792.2 612.518 791.8 614.017 790.25 612.568C789.7 612.068 789.2 611.418 788.8 610.768C787.85 609.269 787.3 607.569 787.15 605.82C786.8 602.321 787.7 596.723 790.9 594.624C791.65 594.074 790.9 592.774 790.1 593.324Z" fill="#161616"/>
<path d="M797.2 597.324C796.25 600.923 795.35 604.672 795.95 608.42C796.2 610.22 797.25 614.618 799.55 615.068C802.15 615.568 803.2 610.97 803.45 609.27C804 605.572 803.3 601.123 806.2 598.274C806.9 597.574 805.85 596.525 805.15 597.224C801.65 600.673 802.85 605.671 801.8 610.07C801.45 611.669 800.45 614.068 798.8 612.219C797.9 611.269 797.65 609.42 797.45 608.171C796.95 604.672 797.8 601.173 798.7 597.774C798.9 596.825 797.45 596.425 797.2 597.324Z" fill="#161616"/>
<path d="M808 585.327C810.95 586.527 814 587.826 816.3 590.125C817.35 591.175 818.65 592.774 818.95 594.274C819.7 598.422 816.6 595.773 815.45 595.274C812.3 593.874 806.05 594.874 804.25 598.073C803.8 598.922 805.1 599.672 805.55 598.822C806.5 597.073 809.1 596.623 810.9 596.373C812 596.223 813.25 596.123 814.3 596.423C815.5 596.773 816.25 597.823 817.4 598.173C819.05 598.672 820.3 597.523 820.55 595.923C821 593.324 818.75 590.425 817 588.726C814.55 586.377 811.4 585.077 808.3 583.828C807.5 583.528 807.15 584.977 808 585.327Z" fill="#161616"/>
<path opacity="0.13" d="M797.9 430.282C792.15 430.632 788.7 445.326 786.8 453.474C784.65 462.62 782.7 475.216 783.1 493.559C783.45 509.953 785.55 522.449 786.25 526.797C789.4 545.491 794.35 561.185 799.2 573.481C800.8 577.979 802.35 582.478 803.95 586.926C803.05 590.625 802.15 594.423 801.3 598.372C800.2 603.57 799.2 608.668 798.4 613.566C799.35 613.666 800.65 613.616 801.55 612.717C802.7 611.567 802.55 609.718 802.6 608.118C802.65 606.619 802.8 599.372 806.05 596.672C808.05 595.023 811.25 595.023 813.45 595.823C815.7 596.672 816.7 598.322 818.2 597.822C819.35 597.472 820.15 596.073 820.3 594.973C820.8 591.324 813.8 587.576 812.65 586.976C810.4 585.776 809.35 585.626 807.9 584.127C806.1 582.228 805.5 579.978 805.25 578.979C801.1 563.184 799.05 564.184 796.25 546.041C794.15 532.345 795.5 533.145 793.35 522.249C791.85 514.552 790.6 511.403 790.2 504.755C789.75 497.458 790.6 491.76 791.5 486.712C795.25 466.069 802.45 441.078 804.2 435.13C802.6 432.631 800.4 430.132 797.9 430.282Z" fill="#3F3F3F"/>
<path d="M899.95 224.807C898.4 224.757 897.2 227.556 896.9 228.305C896.45 229.405 895.75 231.554 896.25 234.603C896.25 234.603 896.55 236.702 897.55 249.398C897.8 252.247 897.85 256.395 897.1 261.593C895.1 267.091 893.2 271.39 891.9 274.189C887.5 283.586 884.55 287.334 878.4 299.23C876.1 303.678 875.9 304.378 873.2 309.876C866.45 323.521 861.5 332.068 856.45 341.215C852 349.212 845.75 360.958 838.4 376.053C838.05 377.352 836.3 384.3 840.35 390.397C844.65 396.845 853.65 399.744 862.35 396.945C863.7 395.046 865.6 392.097 867.35 388.248C869.05 384.5 869.85 381.601 870.4 379.751C870.95 377.902 873.15 371.654 877.6 359.059C879 355.16 880.7 350.512 884.15 341.415C889.4 327.47 892 320.522 893.75 316.174C897.7 306.278 900.7 299.43 906.6 286.135C909.7 279.137 913.5 270.69 917.9 261.094C920.45 259.644 923.95 257.395 927.7 254.146C933.1 249.498 935.8 245.549 941 238.052C944.35 233.154 946.9 228.855 946.2 224.557C946.1 223.957 945.85 222.208 944.9 221.958C943.7 221.608 942.2 224.007 940.55 226.106C938.85 228.255 936.3 231.054 932.5 233.953C933.8 230.355 935.1 227.556 936 225.706C938.05 221.508 939.75 218.809 940.8 214.16C941.95 209.212 940.9 208.312 940.6 208.063C939.25 207.063 936.95 208.962 935.6 207.863C934.4 206.813 935.45 204.514 934.5 203.964C933.55 203.414 931.45 205.064 929.95 206.813C927.35 209.812 926.75 212.711 925.8 215.51C924.9 218.259 923.25 222.008 920.15 226.156C919.4 226.256 918.4 226.306 917.95 225.706C917.45 225.007 918.15 223.857 918.8 222.008C918.95 221.558 918.85 221.808 919.9 217.209C920.3 215.46 921.05 212.211 921.65 209.612C922.5 205.863 922.9 204.314 922.1 202.664C921.95 202.315 921.3 200.965 920.35 200.915C919.25 200.865 918.4 202.615 917.75 203.964C915.1 209.412 913.75 212.161 913.4 213.111C911.65 217.859 909.3 225.106 908.95 227.606C908.9 227.905 908.8 228.955 908.3 230.305C908.05 230.954 907.9 231.204 907.75 231.604C906.5 234.403 907.55 236.253 906.25 237.252C906.1 237.352 905.35 237.902 904.75 237.702C904.1 237.502 903.8 236.652 903.45 233.803C902.95 229.905 903.25 228.755 902.35 227.056C901.75 226.306 901 224.857 899.95 224.807Z" fill="white"/>
<path d="M897.55 247.949C897.9 244.3 897.35 240.752 897.15 237.103C897.05 235.354 897.05 233.554 897.3 231.805C897.45 230.805 897.65 229.806 897.95 228.856C898.45 227.406 898.5 226.207 900.1 226.157C901.6 226.107 901.5 227.007 901.75 228.256C902 229.356 902.05 230.505 902.1 231.605C902.2 233.154 902.25 234.754 902.6 236.253C902.95 237.803 903.9 239.102 905.65 238.552C906.55 238.253 906.2 236.803 905.25 237.103C903.5 237.603 903.65 231.705 903.55 230.705C903.4 229.106 903.25 227.456 902.65 225.957C901.8 223.858 899.85 222.808 898.2 224.757C896.05 227.256 895.6 231.755 895.6 234.854C895.6 239.252 896.45 243.551 896.05 247.949C896 248.899 897.5 248.899 897.55 247.949Z" fill="#161616"/>
<path d="M906.25 237.951C908.75 233.103 909.5 227.605 910.95 222.407C912.5 216.809 914.45 211.311 917.35 206.313C918 205.213 918.65 203.664 919.6 202.814C921.45 201.115 921.45 204.363 921.3 205.763C921 208.862 920.2 212.011 919.5 215.06C918.85 217.859 917.95 220.558 917.3 223.357C916.95 224.906 916.95 226.256 918.05 227.455C918.7 228.155 919.75 227.105 919.1 226.406C917.85 225.056 919.15 222.357 919.55 220.908C920 219.258 920.45 217.609 920.8 215.959C921.5 212.91 922.2 209.811 922.65 206.663C922.9 205.013 923.25 202.114 921.8 200.865C920.55 199.815 919.3 200.815 918.45 201.814C914.8 206.363 912.55 212.361 910.75 217.859C908.7 224.206 908.05 231.304 904.95 237.252C904.5 238.051 905.8 238.801 906.25 237.951Z" fill="#161616"/>
<path d="M918.4 227.605C919.9 227.755 920.45 226.655 921.15 225.455C922.25 223.556 923.25 221.557 924.2 219.608C926.05 215.809 927.35 211.66 929.6 208.112C930.1 207.312 930.7 206.312 931.5 205.713C932.15 204.963 933 204.713 934.1 205.063C934.25 205.762 934.35 206.462 934.35 207.162C934.4 209.611 933.6 212.06 932.75 214.359C931.05 218.908 929.15 223.406 927.3 227.955C926.95 228.854 928.4 229.254 928.75 228.354C929.8 225.755 940.6 202.963 933.55 202.814C932.15 202.764 930.55 204.513 929.75 205.463C928.35 207.112 927.35 209.011 926.45 210.961C925.4 213.31 924.45 215.659 923.35 217.958C922.7 219.358 921.95 220.807 921.25 222.157C920.8 223.056 919.7 226.155 918.45 226.055C917.45 226.005 917.45 227.505 918.4 227.605Z" fill="#161616"/>
<path d="M936.1 209.213C936.65 206.314 939.8 208.313 940.2 210.162C940.55 211.712 939.95 213.261 939.45 214.711C938.7 216.91 937.85 219.059 936.95 221.158C935.2 225.257 933.15 229.155 930.85 233.004C930.35 233.854 931.65 234.604 932.15 233.754C934.3 230.205 936.2 226.506 937.9 222.758C939.35 219.509 941.1 215.91 941.65 212.361C942 210.112 941.35 207.213 938.85 206.414C937 205.814 935 206.963 934.65 208.863C934.5 209.762 935.95 210.162 936.1 209.213Z" fill="#161616"/>
<path d="M933.2 234.352C935.1 232.203 936.95 230.054 938.85 227.905C939.85 226.755 940.75 225.506 941.85 224.506C942.2 224.206 942.55 223.956 942.85 223.656C943.7 223.956 944.55 224.256 945.45 224.556C945.7 225.006 945.1 226.305 944.95 226.705C943.4 231.453 941.15 235.952 938.5 240.15C933.15 248.597 925.8 255.695 917.2 260.843C916.35 261.343 917.15 262.642 917.95 262.143C928.65 255.745 937.45 246.348 943 235.202C944.35 232.503 945.65 229.654 946.5 226.755C947 225.056 947.3 222.757 945.35 221.857C943.45 220.957 941.45 222.707 940.25 223.956C937.4 226.905 934.8 230.204 932.1 233.303C931.5 234.003 932.55 235.052 933.2 234.352Z" fill="#161616"/>
<path d="M896.25 246.398C896.6 250.996 896.95 255.694 896.2 260.293C895.45 264.841 893.55 269.04 891.45 273.138C887.2 281.435 882.75 289.632 878.4 297.879C869.7 314.374 861 330.818 852.3 347.312C847.3 356.758 842.3 366.255 837.3 375.702C836.85 376.551 838.15 377.301 838.6 376.451C856.55 342.414 874.85 308.526 892.5 274.288C894.6 270.239 896.55 266.091 897.4 261.642C898.4 256.594 898.05 251.496 897.65 246.398C897.7 245.448 896.2 245.448 896.25 246.398Z" fill="#161616"/>
<path d="M917.1 260.493C901.1 294.281 887.15 328.869 874.85 364.156C871.25 374.402 867.65 384.649 863.3 394.595C862.9 395.495 864.2 396.245 864.6 395.345C872.05 378.401 877.5 360.657 883.9 343.363C890.45 325.57 897.55 307.926 905.1 290.532C909.4 280.686 913.8 270.939 918.4 261.243C918.8 260.393 917.5 259.643 917.1 260.493Z" fill="#161616"/>
<path opacity="0.1" d="M939.7 208.611C937.65 208.311 934.9 216.708 933.3 220.907C928.45 233.802 924.35 235.302 913.95 252.796C910.1 259.243 904.8 268.94 899.45 281.585C883.45 315.273 867.5 349.011 851.5 382.699C855.4 387.447 859.25 392.246 863.15 396.994C865.1 391.446 867.95 383.299 871.5 373.452C877.95 355.709 886.3 332.867 898.1 305.077C902.8 294.081 909.3 279.236 917.65 261.792C919.95 260.343 923.15 258.094 926.65 254.995C931.35 250.896 937.55 245.348 941.8 236.301C943.15 233.502 944.85 229.204 945.75 223.556C945.1 223.256 944.15 222.906 943.1 223.106C941.3 223.456 940.35 225.205 939.6 226.405C936.7 230.853 932.45 233.802 931.9 233.452C931.6 233.203 932.45 231.753 934.75 227.055C939.45 217.408 937.5 219.957 939.35 216.708C940.4 214.859 941.45 213.26 941.1 211.21C941.1 210.311 940.55 208.761 939.7 208.611Z" fill="#3F3F3F"/>
<path opacity="0.13" d="M936.65 242.699C934.15 244.299 930.6 246.648 926.55 249.747C921.9 253.245 916.9 257.044 912.7 261.842C907 268.34 904.5 274.788 903 278.536C889.25 313.624 872.9 351.71 868.25 362.307C865.7 368.105 861.7 376.851 856.4 387.348C858.8 390.497 861.25 393.645 863.65 396.794C870.55 375.752 878.5 353.71 887.6 330.868C897.4 306.327 907.55 283.385 917.75 262.042C920.5 260.193 923.6 257.844 926.75 254.795C931.2 250.546 934.4 246.248 936.65 242.699Z" fill="#3F3F3F"/>
<path d="M803.7 387.396C801.85 388.646 797.7 391.545 793.45 396.243C789.05 401.091 786.5 405.64 784.4 409.488C782.75 412.437 781.55 415.036 780.7 416.936C782 419.435 784.1 423.283 787 427.882C792.15 436.029 796.15 440.427 803.05 449.274C805.95 452.973 810.15 458.521 815.15 465.518C815.95 469.267 816.65 473.216 817.25 477.364C818.45 485.861 818.9 493.758 818.9 500.856C820.75 502.855 823.95 505.754 828.65 507.803C836.45 511.252 843.55 510.252 847.25 509.653C855.45 508.403 861.05 504.754 864.9 502.205C871.9 497.607 876.65 492.109 879.8 487.56C879.15 479.763 878.3 471.716 877.25 463.369C876.35 456.272 875.35 449.374 874.25 442.676C874.15 437.428 873.65 430.281 871.95 421.984C870.55 415.036 868.85 406.939 863.8 397.343C857.5 385.397 849.65 378.149 846.6 375.5C843.9 373.151 841.45 371.402 839.65 370.152C832.35 374.801 826.05 377.7 821.75 379.449C813.75 382.748 810 383.248 803.7 387.396Z" fill="white"/>
<path d="M781.5 417.136C783.05 411.238 787.35 405.74 791.05 400.942C794.95 395.944 799.35 391.396 804.6 387.747C805.4 387.197 804.65 385.897 803.85 386.447C798.45 390.196 793.9 394.844 789.9 399.992C786.05 404.941 781.7 410.539 780.1 416.686C779.85 417.686 781.3 418.036 781.5 417.136Z" fill="#161616"/>
<path d="M780.4 417.637C790.7 435.631 802.9 452.525 816.75 467.969C817.4 468.669 818.45 467.619 817.8 466.92C804.05 451.575 791.95 434.781 781.7 416.887C781.2 416.038 779.9 416.787 780.4 417.637Z" fill="#161616"/>
<path d="M822.699 380.15C828.299 376.202 834.449 373.253 840.999 371.353C841.949 371.103 841.549 369.654 840.599 369.904C833.899 371.853 827.649 374.852 821.949 378.851C821.149 379.4 821.899 380.7 822.699 380.15Z" fill="#161616"/>
<path d="M839.75 371.753C863.65 388.397 873.9 417.586 872.75 445.826C872.7 446.776 874.2 446.776 874.25 445.826C875.45 416.987 864.85 387.397 840.5 370.453C839.75 369.903 839 371.203 839.75 371.753Z" fill="#161616"/>
<path d="M813.5 465.02C816.1 470.368 816.4 477.015 816.95 482.813C817.55 488.711 817.75 494.659 817.75 500.607C817.75 501.557 819.25 501.557 819.25 500.607C819.3 494.009 819 487.412 818.25 480.864C817.65 475.316 817.25 469.318 814.8 464.22C814.35 463.37 813.1 464.12 813.5 465.02Z" fill="#161616"/>
<path d="M818.7 500.908C826.2 510.104 839 512.704 850.15 509.855C856.35 508.255 862.1 505.206 867.25 501.408C872.4 497.609 877.3 493.21 880.2 487.413C880.65 486.563 879.35 485.813 878.9 486.663C876.1 492.211 871.4 496.459 866.45 500.108C861.65 503.657 856.3 506.556 850.5 508.205C839.6 511.254 827.05 508.905 819.7 499.858C819.15 499.108 818.1 500.158 818.7 500.908Z" fill="#161616"/>
<path d="M873.299 443.578C875.749 458.222 878.149 472.867 878.999 487.662C879.049 488.612 880.549 488.612 880.499 487.662C879.599 472.717 877.199 457.922 874.749 443.178C874.599 442.228 873.149 442.628 873.299 443.578Z" fill="#161616"/>
<path opacity="0.13" d="M824.6 378.15C830.15 384.698 837.75 394.894 844.1 408.689C853.4 428.882 855.25 446.326 856.65 461.171C857.75 472.467 858.35 488.211 856.15 507.004C860.4 505.155 866.4 501.956 872.2 496.408C875.4 493.309 877.8 490.21 879.6 487.511C877.95 473.566 876.3 459.571 874.65 445.626C874.95 434.13 873.15 424.834 871.45 418.536C866.2 399.043 856.1 386.497 852.7 382.549C848.05 377.101 843.5 373.102 840.15 370.453C834.95 373.052 829.8 375.601 824.6 378.15Z" fill="#3F3F3F"/>
<path opacity="0.14" d="M861.85 395.645C860.95 395.895 863.05 404.042 865.05 416.088C865.05 416.088 868.1 434.381 868.75 452.075C869.2 463.771 868.6 480.865 863.35 502.107C865.75 500.908 868.7 499.158 871.75 496.709C875.45 493.71 878.1 490.561 879.9 488.062C879.25 467.919 877.55 457.473 875.95 451.575C875.65 450.426 874.85 447.726 874.2 443.928C873 436.83 873.6 433.781 872.95 427.884C872.45 423.185 871.5 420.086 869.75 414.338C867.1 405.691 862.85 395.345 861.85 395.645Z" fill="#3F3F3F"/>
<path d="M802.999 305.177C799.699 307.027 795.499 309.826 791.449 314.074C783.049 323.021 780.349 333.018 779.399 337.966C778.649 337.866 776.599 337.716 774.949 339.015C772.499 340.915 772.449 344.663 773.399 346.863C773.749 347.662 774.249 348.312 775.299 349.612C776.549 351.161 777.349 352.111 778.649 352.661C779.199 352.91 780.449 353.26 782.249 352.86C782.799 354.51 783.699 356.809 785.049 359.458C786.799 362.857 789.449 367.905 794.749 372.303C796.299 373.603 798.699 375.302 801.949 376.852C803.149 378.401 805.349 381.65 805.599 386.049C806.099 393.796 800.449 400.244 795.099 403.093C785.799 408.041 775.699 403.093 771.999 401.243C769.999 400.244 759.949 395.045 755.749 383.649C750.649 369.904 757.299 356.159 761.249 347.962C765.249 339.715 767.099 340.265 770.149 332.218C774.199 321.572 772.049 317.823 776.699 309.676C778.499 306.477 782.149 300.079 789.799 297.08C796.349 294.531 802.399 295.831 804.999 296.581C807.149 295.281 810.949 293.432 815.749 293.432C827.149 293.432 834.449 304.228 836.199 306.827C841.399 314.474 838.649 316.823 843.299 327.569C849.149 341.115 854.849 340.315 860.099 353.01C862.649 359.208 866.899 369.455 862.199 379.251C857.349 389.347 846.299 392.296 844.899 392.646C842.349 393.296 835.499 394.995 828.649 391.347C827.999 390.997 819.399 386.299 818.699 378.251C818.449 375.302 819.299 372.553 819.499 371.954C820.549 368.705 822.349 366.606 822.899 365.906C825.049 363.257 827.649 358.358 829.449 348.612C830.299 348.562 831.699 348.362 833.099 347.562C836.049 345.863 837.449 342.414 837.299 339.415C837.249 338.715 837.049 334.717 834.149 333.367C832.949 332.818 831.699 332.968 830.999 333.117C821.699 323.721 812.349 314.474 802.999 305.177Z" fill="#2F4EBB"/>
<path d="M803 305.127C797.45 308.376 793.6 311.975 791.15 314.624C783 323.47 780.4 332.717 779.85 334.866C779.5 336.216 779.25 337.315 779.15 338.115C778.6 337.915 777.35 337.565 776.1 338.115C774.2 338.965 773.8 341.264 773.6 342.414C773.1 345.063 774.1 347.162 774.5 347.962C775.05 349.111 775.95 350.961 778.1 351.91C779.85 352.71 781.5 352.41 782.2 352.26C782.9 354.06 783.9 356.559 785.45 359.408C787.8 363.906 790 368.055 794.25 371.753C795.9 373.203 798.6 375.202 802.5 376.751C803.3 378.001 804.4 379.95 805 382.499C805.5 384.499 805.6 386.198 805.55 387.498C806.85 388.147 809.3 389.147 812.35 389.097C818.2 388.997 822.05 385.348 822.95 384.449C822 381.6 821.15 378.101 820.8 374.052C820.65 372.203 820.6 370.454 820.6 368.854C822.15 367.205 824.05 364.856 825.6 361.707C828.35 356.259 828.8 351.211 828.85 348.262C829.55 348.362 830.95 348.511 832.45 347.912C834.55 347.062 835.5 345.213 836.05 344.163C836.2 343.913 838.3 339.615 836.4 335.366C835.95 334.417 835.2 332.667 833.7 332.517C832.6 332.417 831.7 333.267 831.35 333.617C829.3 331.168 825.45 326.619 820.05 320.372C815.4 314.923 812.45 311.525 807.5 308.026C805.7 306.726 804.1 305.777 803 305.127Z" fill="white"/>
<path d="M796.1 358.159C795.6 359.308 797.95 361.358 799.05 362.207C801.35 363.907 803.8 364.157 804.7 364.207C805.75 364.307 809.2 364.556 812.35 362.307C813.1 361.757 815.2 360.308 816 357.609C816.55 355.66 816.4 352.961 815.35 352.511C814.55 352.211 813.8 353.211 812.1 354.41C809.1 356.459 806 356.959 803.35 357.359C798.85 358.059 796.6 357.159 796.1 358.159Z" fill="black"/>
<path d="M780.25 346.612C782.05 354.11 784.95 361.457 789.75 367.555C794 373.003 800.3 378.251 807.65 377.551C814.45 376.902 820 371.603 823.6 366.205C827.85 359.908 829.9 352.36 829.7 344.763C829.65 343.813 828.15 343.813 828.2 344.763C828.4 351.711 826.6 358.508 822.95 364.406C819.5 369.954 813.8 375.802 806.85 376.102C799.5 376.402 793.45 370.404 789.55 364.806C785.65 359.208 783.25 352.76 781.65 346.163C781.45 345.263 780 345.663 780.25 346.612Z" fill="#161616"/>
<path d="M801.5 376.852C803.6 380.051 804.65 383.55 804.65 387.398C804.65 388.348 806.15 388.348 806.15 387.398C806.15 383.35 805 379.501 802.8 376.102C802.3 375.253 801 376.002 801.5 376.852Z" fill="#161616"/>
<path d="M805.35 387.998C811.45 391.496 819.35 389.797 823.5 384.199C824.1 383.449 822.8 382.699 822.2 383.449C818.5 388.397 811.4 389.797 806.1 386.698C805.25 386.248 804.5 387.548 805.35 387.998Z" fill="#161616"/>
<path d="M819.75 370.154C819.8 374.702 820.5 379.201 821.95 383.549C822.25 384.449 823.7 384.049 823.4 383.149C822.05 378.901 821.3 374.602 821.25 370.154C821.25 369.154 819.75 369.154 819.75 370.154Z" fill="#161616"/>
<path d="M781.75 351.361C781.1 352.061 779.5 351.811 778.75 351.411C778.15 351.111 777.6 350.661 777.15 350.212C776.15 349.262 775.35 348.112 774.85 346.863C773.85 344.514 773.4 337.766 777.85 338.966C778.8 339.215 779.2 337.766 778.25 337.516C772.75 336.067 771.9 343.364 773.3 347.013C774.4 349.962 779.45 356.059 782.85 352.411C783.45 351.711 782.4 350.661 781.75 351.361Z" fill="#161616"/>
<path d="M832 333.868C832.6 331.869 835.2 335.718 835.5 336.417C836.1 338.017 836.3 339.766 836.05 341.466C835.65 344.864 832.95 348.113 829.2 347.163C828.25 346.914 827.85 348.363 828.8 348.613C834.85 350.162 838.1 343.865 837.55 338.716C837.3 336.467 836.4 333.568 834.25 332.369C832.85 331.619 831.05 331.819 830.55 333.418C830.25 334.418 831.7 334.768 832 333.868Z" fill="#161616"/>
<path d="M787.1 323.272C788.75 320.123 791.65 318.073 795.15 317.574C796.1 317.424 795.7 315.974 794.75 316.124C790.9 316.674 787.6 319.073 785.8 322.522C785.35 323.372 786.65 324.121 787.1 323.272Z" fill="#161616"/>
<path d="M810.2 315.573C814.4 314.574 818.6 316.673 820.5 320.472C820.95 321.321 822.2 320.571 821.8 319.722C819.6 315.273 814.6 312.974 809.8 314.124C808.85 314.374 809.25 315.823 810.2 315.573Z" fill="#161616"/>
<path d="M799.3 321.721C800.25 327.019 800.5 332.467 799.95 337.866C799.75 339.515 798.95 341.864 799.7 343.514C800.5 345.313 802.65 346.862 804 348.262C804.65 348.962 805.75 347.912 805.05 347.212C804.15 346.263 803.25 345.363 802.35 344.413C800.95 342.964 800.8 342.514 801.1 340.415C801.35 338.515 801.6 336.566 801.7 334.617C801.9 330.168 801.55 325.72 800.75 321.371C800.6 320.372 799.15 320.772 799.3 321.721Z" fill="#161616"/>
<path d="M793 334.567C792.25 333.367 791.9 332.068 792 330.668C792 330.369 792.2 329.069 792.45 329.019C792.6 329.019 792.85 330.768 792.9 330.968C793 331.618 793.05 332.318 793.05 332.968C793.05 333.168 793 334.817 793 333.817C792.95 332.368 793.05 330.918 793.1 329.469C792.6 329.519 792.1 329.619 791.65 329.669C791.9 331.218 792.05 332.768 792.05 334.367C792.55 334.367 793.05 334.367 793.55 334.367C793.55 334.167 793.55 333.967 793.55 333.767C793.55 332.818 792.05 332.818 792.05 333.767C792.05 333.967 792.05 334.167 792.05 334.367C792.05 335.317 793.55 335.317 793.55 334.367C793.55 332.668 793.4 330.968 793.1 329.269C792.95 328.419 791.65 328.669 791.65 329.469C791.6 331.068 791.4 332.818 791.6 334.417C791.7 335.167 792.05 335.867 792.9 336.017C795.4 336.516 794.65 331.618 794.45 330.419C794.3 329.469 794.15 328.019 793.25 327.47C792.5 327.02 791.7 327.47 791.25 328.169C790 330.269 790.7 333.367 791.85 335.267C792.2 336.117 793.5 335.367 793 334.567Z" fill="#161616"/>
<path d="M816.1 331.917C815.35 330.717 815 329.418 815.1 328.018C815.1 327.718 815.3 326.419 815.55 326.369C815.7 326.369 815.95 328.118 816 328.318C816.1 328.968 816.15 329.667 816.15 330.317C816.15 330.517 816.1 332.167 816.1 331.167C816.05 329.717 816.15 328.268 816.2 326.818C815.7 326.868 815.2 326.968 814.75 327.018C815 328.568 815.15 330.117 815.15 331.717C815.65 331.717 816.15 331.717 816.65 331.717C816.65 331.517 816.65 331.317 816.65 331.117C816.65 330.167 815.15 330.167 815.15 331.117C815.15 331.317 815.15 331.517 815.15 331.717C815.15 332.666 816.65 332.666 816.65 331.717C816.65 330.017 816.5 328.318 816.2 326.619C816.05 325.769 814.75 326.019 814.75 326.818C814.7 328.418 814.5 330.167 814.7 331.767C814.8 332.516 815.15 333.216 816 333.366C818.5 333.866 817.75 328.968 817.55 327.768C817.4 326.819 817.25 325.369 816.35 324.819C815.6 324.369 814.8 324.819 814.35 325.519C813.1 327.618 813.8 330.717 814.95 332.616C815.3 333.516 816.6 332.766 816.1 331.917Z" fill="#161616"/>
<path d="M785.6 339.165C786.55 339.165 786.55 337.666 785.6 337.666C784.65 337.666 784.65 339.165 785.6 339.165Z" fill="#161616"/>
<path d="M791.5 340.265C791.55 340.265 791.6 340.265 791.7 340.265C792.1 340.265 792.45 339.915 792.45 339.515C792.45 339.116 792.1 338.766 791.7 338.766C791.65 338.766 791.6 338.766 791.5 338.766C791.1 338.766 790.75 339.116 790.75 339.515C790.75 339.915 791.05 340.265 791.5 340.265Z" fill="#161616"/>
<path d="M788 344.863C788.95 344.863 788.95 343.363 788 343.363C787.05 343.363 787 344.863 788 344.863Z" fill="#161616"/>
<path d="M816.4 338.415C816.45 338.415 816.5 338.415 816.6 338.415C817 338.415 817.35 338.066 817.35 337.666C817.35 337.266 817 336.916 816.6 336.916C816.55 336.916 816.5 336.916 816.4 336.916C816 336.916 815.65 337.266 815.65 337.666C815.65 338.066 815.95 338.415 816.4 338.415Z" fill="#161616"/>
<path d="M821.9 334.716C822.85 334.716 822.85 333.217 821.9 333.217C820.95 333.217 820.95 334.716 821.9 334.716Z" fill="#161616"/>
<path d="M821.15 338.765C821.2 338.765 821.25 338.765 821.35 338.765C821.75 338.765 822.1 338.415 822.1 338.015C822.1 337.615 821.75 337.266 821.35 337.266C821.3 337.266 821.25 337.266 821.15 337.266C820.75 337.266 820.4 337.615 820.4 338.015C820.45 338.415 820.75 338.765 821.15 338.765Z" fill="#161616"/>
<path d="M797.35 359.308C796.55 358.159 795.25 356.509 795.8 355.01C796.45 353.31 798.5 353.56 799.85 353.76C801.5 354.01 802.85 354.31 804.45 353.81C805.75 353.41 806.9 352.561 808.1 351.911C810.95 350.311 814.3 350.161 815.2 353.91C817.75 364.156 799.65 367.055 796.85 358.059C796.55 357.159 795.1 357.509 795.4 358.458C798.85 369.505 820.25 365.406 816.5 353.16C815.85 351.111 814.3 349.362 812.1 349.112C808.5 348.762 806.15 352.361 802.7 352.611C800.15 352.81 797.05 350.861 795 353.26C793.15 355.41 794.65 358.159 796 360.058C796.6 360.858 797.9 360.108 797.35 359.308Z" fill="#161616"/>
<path d="M794.45 356.46C795.55 359.508 801.05 358.559 803.45 358.209C808.05 357.509 812.25 355.51 815.8 352.561C816.55 351.961 815.5 350.862 814.75 351.511C812.15 353.711 809.15 355.31 805.85 356.21C804.4 356.61 796.75 358.309 795.95 356.11C795.55 355.16 794.1 355.56 794.45 356.46Z" fill="#161616"/>
<path d="M803.35 378.401C809.2 379.9 817 376.202 820.3 371.353C820.85 370.554 819.55 369.804 819 370.604C816.1 374.852 808.85 378.251 803.75 376.951C802.8 376.701 802.4 378.151 803.35 378.401Z" fill="#161616"/>
<path d="M803.9 378.851C809.1 382.1 817.65 377.501 820.15 372.553C820.6 371.703 819.3 370.954 818.85 371.803C816.75 376.002 809.1 380.35 804.65 377.601C803.8 377.052 803.05 378.351 803.9 378.851Z" fill="#161616"/>
<path opacity="0.2" d="M824.65 325.869C825 327.668 825.45 330.517 825.75 333.966C826.45 343.163 827.65 358.557 818.35 368.804C816.35 371.003 812.1 374.902 804.25 377.101C806.75 377.001 809.8 376.701 813.1 375.851C814.75 375.451 816.25 374.952 817.6 374.402C817.8 378.85 817.95 383.299 818.15 387.747C819.85 386.647 821.5 385.598 823.2 384.498C820.9 379.4 820.9 375.451 821.2 372.952C821.65 369.454 822.95 366.605 824.25 363.756C825.4 361.257 826.6 359.257 827.55 357.858C827.65 358.907 827.9 360.007 828.6 361.057C831.65 365.605 841.2 366.055 847.2 362.156C852.75 358.557 855.45 351.26 854.05 343.763C855 344.562 856 345.512 856.95 346.662C857.7 347.561 859.65 350.16 862.35 359.307C863.2 362.156 863.6 363.606 863.85 365.055C864.15 367.054 864.7 370.853 863.65 375.152C861.85 382.549 856.5 386.797 854.9 387.997C853.75 388.847 850.25 391.396 845 392.595C842.5 393.145 835 394.945 827.95 390.846C825.3 389.297 823.85 388.147 823.05 386.747C822.2 385.198 822.1 383.749 822 382.649C821.55 375.801 821.35 372.353 821.8 370.003C823.15 363.206 826.2 362.506 827.9 354.759C828.5 351.96 828.65 349.611 828.7 348.111C829.35 348.211 830.35 348.311 831.55 348.011C834.05 347.361 835.3 345.312 835.75 344.562C837.55 341.713 838.35 336.615 835.55 334.266C835.15 333.916 833.75 332.867 831.05 333.067C829 330.667 826.85 328.268 824.65 325.869Z" fill="#3F3F3F"/>
<path opacity="0.13" d="M800.95 342.064C803.5 342.814 806.1 343.614 808.65 344.364C808 344.963 807.35 345.513 806.65 346.113C806 346.663 805.4 347.113 804.75 347.612C803.95 347.013 802.8 345.963 801.9 344.364C801.4 343.514 801.1 342.714 800.95 342.064Z" fill="#3F3F3F"/>
<path opacity="0.16" d="M760.85 348.312C755.4 367.555 759.45 383.1 767.6 386.499C774 389.148 785.55 385.399 787.7 378.851C788 378.002 788.3 376.502 787.15 371.904C786.15 367.855 784.1 361.757 779.5 354.81C778.7 354.31 777.65 353.51 776.65 352.311C774.9 350.162 774.4 347.862 774.25 346.763C775.7 348.262 777.8 350.162 779.15 349.562C780.45 348.962 781.25 347.163 780.8 345.363C781.25 347.662 781.95 350.811 783.25 354.46C784.95 359.308 786.65 364.007 790.6 368.455C792.4 370.504 795.95 373.853 801.95 376.252C802.95 377.502 804.8 380.201 805.4 384.149C805.5 384.749 805.85 387.498 804.95 390.947C804.75 391.747 803.55 396.095 799.6 399.844C795 404.242 789.5 405.042 787.7 405.292C774.15 407.091 763.65 395.245 761.8 393.196C759.95 391.097 756.9 387.598 755.15 382.2C752.35 373.603 754.5 365.856 756.05 360.208C757.5 354.91 759.45 350.911 760.85 348.312Z" fill="#3F3F3F"/>
</svg>
