<svg width="858" height="668" viewBox="0 0 858 668" fill="none" xmlns="http://www.w3.org/2000/svg">
<path fill-rule="evenodd" clip-rule="evenodd" d="M848.77 302.404C845.275 223.203 840.16 136.159 787 77.3281C739.64 24.9167 646 16.3281 571 1.82812C496 -12.6719 361 64.3281 298.5 49.3281C236 34.3281 148.13 15.0292 94 59.3281C38.4491 104.79 77.8361 128.193 48.0402 193.487C15.2972 265.239 -17.5239 348.64 10.7388 422.271C38.8085 495.398 124.421 524.224 190.903 565.677C247.493 600.962 303.278 639.833 369.681 646.076C434.382 652.16 493.203 619.933 555.027 599.913C625.67 577.038 706.059 573.091 758.222 520.26C814.623 463.135 852.309 382.589 848.77 302.404Z" fill="#F4EDD2"/>
<path fill-rule="evenodd" clip-rule="evenodd" d="M856.77 322.652C853.275 243.451 848.16 156.407 795 97.5762C747.64 45.1647 654 36.5762 579 22.0762C504 7.57617 369 84.5762 306.5 69.5762C244 54.5762 156.13 35.2773 102 79.5762C46.4491 125.038 85.8361 148.441 56.0402 213.735C23.2972 285.487 -9.52386 368.888 18.7388 442.519C46.8085 515.646 132.421 544.472 198.903 585.925C255.493 621.21 311.278 660.081 377.681 666.324C442.382 672.408 501.203 640.181 563.027 620.161C633.67 597.286 714.059 593.339 766.222 540.508C822.623 483.383 860.309 402.837 856.77 322.652Z" stroke="#CFBC79"/>
<path d="M522.244 403.108C519.356 400.483 516.906 397.465 514.981 394.052C513.975 392.258 513.144 390.421 512.487 388.496C512.181 387.621 511.875 386.702 511.656 385.783C511.437 384.952 511.394 384.121 511.569 383.29C512.181 381.89 513.056 381.583 514.237 382.371C514.719 382.896 515.681 382.196 515.287 381.583C512.094 377.077 509.731 372.09 508.375 366.708C508.069 365.483 507.806 364.258 507.587 362.99C507.412 361.808 507.456 360.408 507.15 359.227C506.494 356.865 504.744 354.458 503.694 352.227C498.706 341.858 494.506 330.527 496.256 318.846C495.862 318.89 495.469 318.933 495.075 319.021C503.694 330.308 510.431 342.865 515.025 356.296C515.287 357.083 516.512 356.777 516.294 355.946C515.812 354.021 515.594 352.183 515.681 350.215C515.419 350.433 515.112 350.652 514.85 350.827C516.206 351.046 516.994 351.833 517.212 353.19C517.344 353.933 518.481 353.715 518.481 353.015C518.525 350.696 518.612 348.333 518.656 346.015C518.262 346.146 517.825 346.233 517.431 346.365C524.606 357.39 530.25 369.29 534.231 381.802C534.45 382.458 535.281 382.415 535.5 381.802C535.85 380.796 536.2 379.746 536.594 378.74C536.287 378.871 535.937 379.002 535.631 379.133C539.831 382.152 542.106 387.008 541.844 392.127C541.8 392.958 543.112 392.958 543.156 392.127C543.419 386.483 540.837 381.277 536.287 377.996C535.937 377.733 535.456 378.04 535.325 378.39C534.975 379.396 534.625 380.446 534.231 381.452C534.669 381.452 535.062 381.452 535.5 381.452C531.519 368.808 525.831 356.777 518.569 345.708C518.219 345.183 517.344 345.358 517.344 346.058C517.3 348.377 517.212 350.74 517.169 353.058C517.606 353.015 518.044 352.927 518.437 352.883C518.131 351.133 516.906 349.865 515.156 349.602C514.719 349.515 514.325 349.777 514.325 350.215C514.237 352.315 514.456 354.283 514.981 356.296C515.419 356.165 515.812 356.077 516.25 355.946C511.612 342.427 504.831 329.74 496.169 318.365C495.862 317.971 495.075 317.883 494.987 318.54C493.281 329.915 496.956 340.896 501.681 351.09C502.906 353.758 504.525 356.34 505.575 359.008C506.537 361.415 506.45 364.477 507.106 367.015C508.506 372.483 510.912 377.602 514.15 382.196C514.5 381.933 514.85 381.671 515.2 381.408C514.062 380.14 512.137 380.358 511.044 381.583C509.294 383.508 510.519 386.702 511.219 388.802C513.275 394.621 516.775 399.827 521.325 403.983C521.937 404.596 522.856 403.677 522.244 403.108Z" fill="#E8E8E8"/>
<path d="M396.638 386.395C394.494 384.777 392.569 382.895 390.994 380.708C390.381 379.877 389.813 378.958 389.288 378.083C389.025 377.558 388.719 377.077 388.5 376.552C388.281 376.114 386.4 371.039 388.981 372.177C389.55 372.439 390.206 371.914 389.9 371.258C389.331 370.208 384.475 362.683 387.013 362.07C387.45 361.983 387.581 361.458 387.406 361.108C383.381 353.802 380.538 345.97 378.831 337.789C378.7 338.052 378.525 338.314 378.394 338.577C381.85 337.964 383.556 343.389 384.694 345.795C386.094 348.77 387.494 351.745 388.938 354.677C391.825 360.758 394.669 366.795 397.556 372.877C397.906 373.577 398.913 373.052 398.738 372.352C398.431 370.952 398.475 369.727 398.869 368.327C398.519 368.414 398.125 368.502 397.775 368.633C400.006 370.427 401.8 372.483 403.288 374.977C403.594 375.502 404.294 375.327 404.469 374.802C405.869 374.452 406.788 374.758 407.269 375.764C407.488 376.158 407.706 376.595 407.925 376.989C408.45 377.952 408.931 378.914 409.456 379.833C410.463 381.758 411.469 383.639 412.475 385.564C412.869 386.308 414.006 385.652 413.613 384.908C412.606 382.983 411.6 381.102 410.594 379.177C409.719 377.514 408.931 375.458 407.663 374.014C406.35 372.527 404.031 372.352 403.2 374.408C403.594 374.364 403.988 374.32 404.381 374.233C402.85 371.695 400.969 369.508 398.65 367.627C398.256 367.32 397.688 367.408 397.556 367.933C397.119 369.552 397.075 371.039 397.425 372.658C397.819 372.483 398.213 372.308 398.606 372.133C395.15 364.783 391.65 357.389 388.15 350.039C386.575 346.758 385.263 343.039 383.206 340.02C381.938 338.183 380.319 336.783 377.956 337.22C377.606 337.264 377.431 337.702 377.519 338.008C379.225 346.277 382.156 354.239 386.225 361.633C386.356 361.327 386.488 360.977 386.619 360.67C381.938 361.852 387.756 369.989 388.719 371.783C389.025 371.477 389.331 371.17 389.638 370.864C388.5 370.383 387.319 370.645 386.619 371.739C385.613 373.314 386.531 375.283 387.231 376.727C389.2 380.97 392.263 384.558 395.981 387.402C396.638 388.058 397.294 386.92 396.638 386.395Z" fill="#E8E8E8"/>
<path d="M218.75 199.846C223.956 193.896 232.137 197.789 237.956 200.371C243.293 202.733 249.418 204.614 254.756 201.202C259.831 197.921 262.675 192.233 268.931 190.833C276.456 189.127 283.631 192.933 289.756 196.827C290.456 197.264 291.112 196.127 290.412 195.689C284.462 191.927 277.768 188.427 270.506 189.214C267.531 189.564 264.775 190.614 262.412 192.452C260.05 194.289 258.125 196.696 255.85 198.664C248.937 204.614 241.456 200.283 234.325 197.352C228.987 195.121 222.075 194.027 217.787 198.927C217.262 199.583 218.181 200.502 218.75 199.846Z" fill="#E8E8E8"/>
<path d="M200.331 280.957C203.087 278.026 207.2 281.264 209.3 283.32C211.137 285.114 213.237 287.257 215.95 287.52C218.356 287.782 220.281 286.47 221.944 284.851C224.306 282.576 226.45 280.564 229.731 279.645C233.012 278.77 236.644 278.989 239.75 280.52C242.2 281.745 244.431 284.107 247.362 283.845C249.944 283.626 251.475 281.351 253.094 279.645C255.719 276.845 259.569 275.401 263.419 275.882C269.85 276.67 275.494 282.226 282.231 280.214C283.019 279.995 282.712 278.726 281.881 278.945C275.45 280.826 269.806 275.314 263.594 274.57C260.706 274.22 257.731 274.832 255.237 276.276C254.012 276.976 252.919 277.895 251.956 278.945C250.819 280.17 249.725 281.832 248.106 282.401C244.912 283.495 241.412 279.601 238.525 278.639C235.9 277.764 233.056 277.632 230.344 278.201C227.719 278.726 225.312 279.951 223.3 281.701C220.544 284.195 218.006 287.782 213.894 285.42C210.087 283.276 204.312 274.745 199.412 280.039C198.8 280.651 199.719 281.614 200.331 280.957Z" fill="#E8E8E8"/>
<path d="M249.331 269.407C251.737 267.482 254.537 265.382 257.687 265.12C260.575 264.901 262.894 266.476 265.125 268.095C268.187 270.282 272.475 272.951 276.15 270.413C277.287 269.626 278.119 268.226 279.475 267.832C281.4 267.263 283.281 268.62 284.725 269.67C286.344 270.895 287.919 272.251 289.975 272.601C292.556 273.038 295.356 271.988 297.894 271.42C301 270.72 304.106 270.02 307.212 269.32C308.044 269.145 307.694 267.876 306.862 268.051C303.625 268.795 300.344 269.538 297.106 270.282C293.737 271.026 290.587 272.163 287.481 270.063C285.381 268.663 283.5 266.651 280.831 266.432C278.775 266.257 277.637 267.351 276.237 268.62C271.119 273.213 265.956 265.907 261.275 264.288C256.506 262.582 252 265.557 248.412 268.445C247.756 269.013 248.675 269.932 249.331 269.407Z" fill="#E8E8E8"/>
<path d="M733.338 235.282C734.519 231.476 739.156 232.657 741.694 234.057C744.1 235.37 746.375 237.207 749.219 237.513C751.581 237.776 753.506 236.726 755.519 235.588C758.625 233.795 762.081 233.051 765.581 234.145C767.856 234.845 769.781 236.726 772.231 236.901C774.594 237.12 776.344 235.545 778.225 234.363C783.169 231.257 788.506 235.588 793.8 234.276C794.631 234.057 794.281 232.788 793.45 233.007C787.981 234.363 782.863 229.901 777.569 233.226C776.388 233.97 775.25 234.976 773.894 235.413C771.838 236.07 770.131 234.801 768.381 233.882C765.975 232.657 763.394 232.045 760.681 232.351C757.838 232.657 755.781 234.057 753.288 235.326C749.131 237.426 745.938 234.845 742.394 232.92C739.025 231.082 733.556 230.295 732.113 234.932C731.85 235.72 733.119 236.07 733.338 235.282Z" fill="#E8E8E8"/>
<path d="M755.431 229.814C757.4 227.976 759.544 226.007 762.125 225.132C764.531 224.301 766.938 224.782 769.256 225.614C772.931 226.97 776.563 229.332 780.675 228.72C784.438 228.151 788.288 224.039 792.181 225.132C794.194 225.701 795.419 227.32 797.65 227.539C799.969 227.757 802.244 227.014 804.388 226.27C805.175 226.007 804.825 224.739 804.038 225.001C801.281 225.964 798.175 227.057 795.419 225.482C793.756 224.52 792.488 223.514 790.431 223.732C785.925 224.17 782.644 228.195 777.831 227.451C773.675 226.795 770.175 223.907 765.931 223.47C761.294 222.989 757.706 226.007 754.513 228.939C753.9 229.464 754.819 230.382 755.431 229.814Z" fill="#E8E8E8"/>
<path d="M330.706 96.2887C331.669 92.7887 336.219 93.3574 338.8 94.4512C341.381 95.5887 343.831 97.2512 346.763 97.2949C352.275 97.4262 356.563 91.6949 362.075 92.6574C364.656 93.0949 366.756 95.0199 369.381 95.3262C372.313 95.6762 374.019 93.5324 376.25 92.0449C378.875 90.2949 382.156 89.6387 385.306 89.9887C386.925 90.1637 388.5 90.6449 389.9 91.3887C391.213 92.0449 392.306 93.0949 393.663 93.7074C396.331 94.8887 398.081 93.2699 400.225 91.8699C404.425 89.1574 408.975 92.6574 412.125 95.4137C412.738 95.9824 413.7 95.0637 413.044 94.4949C410.681 92.3949 407.969 90.2512 404.775 89.6824C401.625 89.1137 399.963 90.7762 397.425 92.2199C395.15 93.5324 393.531 92.0887 391.65 90.9074C390.425 90.1199 389.113 89.5512 387.713 89.1574C385.044 88.4137 382.156 88.4137 379.488 89.1574C378.088 89.5512 376.775 90.1199 375.55 90.9074C374.063 91.8699 372.75 93.4887 370.956 93.9262C367.763 94.7137 364.788 91.5637 361.638 91.2574C355.294 90.6887 350.656 97.6887 344.181 95.4574C340.988 94.3637 338.188 92.0012 334.6 92.2199C332.238 92.3512 330.05 93.4887 329.438 95.8949C329.219 96.7699 330.444 97.1199 330.706 96.2887Z" fill="#E8E8E8"/>
<path d="M391.781 83.6454C394.056 81.6767 397.075 80.8892 400.006 81.5454C402.544 82.1142 404.031 83.9517 406.219 85.1329C409.675 86.9704 412.606 84.6954 415.406 82.7704C417.462 81.3704 419.519 80.3204 421.925 81.4579C423.894 82.3767 425.469 83.5579 427.744 83.4704C432.775 83.2954 438.112 77.0392 443.056 80.4954C443.756 80.9767 444.412 79.8392 443.712 79.3579C439.031 76.0767 434.131 80.5392 429.669 81.8079C427.7 82.3767 426.125 82.1579 424.287 81.2392C423.194 80.6704 422.231 80.0142 421.006 79.7517C419.256 79.3579 417.594 79.9267 416.062 80.8017C414.225 81.8517 412.606 83.4704 410.594 84.2142C407.4 85.3954 405.562 82.6829 403.112 81.3267C399.175 79.0954 394.231 79.8392 390.906 82.7267C390.206 83.2517 391.125 84.1704 391.781 83.6454Z" fill="#E8E8E8"/>
<path d="M464.012 235.457C467.806 235.457 470.881 232.382 470.881 228.588C470.881 224.795 467.806 221.72 464.012 221.72C460.219 221.72 457.144 224.795 457.144 228.588C457.144 232.382 460.219 235.457 464.012 235.457Z" stroke="#E8E8E8" stroke-miterlimit="10"/>
<path d="M246.531 351.133C249.624 351.133 252.131 348.625 252.131 345.533C252.131 342.44 249.624 339.933 246.531 339.933C243.438 339.933 240.931 342.44 240.931 345.533C240.931 348.625 243.438 351.133 246.531 351.133Z" stroke="#E8E8E8" stroke-miterlimit="10"/>
<path d="M571.637 77.1701C574.223 77.1701 576.319 75.0743 576.319 72.4889C576.319 69.9035 574.223 67.8076 571.637 67.8076C569.052 67.8076 566.956 69.9035 566.956 72.4889C566.956 75.0743 569.052 77.1701 571.637 77.1701Z" stroke="#E8E8E8" stroke-miterlimit="10"/>
<path d="M347.244 141.176C348.742 141.176 349.956 139.962 349.956 138.463C349.956 136.965 348.742 135.751 347.244 135.751C345.746 135.751 344.531 136.965 344.531 138.463C344.531 139.962 345.746 141.176 347.244 141.176Z" fill="#2F4EBB"/>
<path d="M464.363 307.777C467.649 307.777 470.313 305.113 470.313 301.827C470.313 298.541 467.649 295.877 464.363 295.877C461.077 295.877 458.413 298.541 458.413 301.827C458.413 305.113 461.077 307.777 464.363 307.777Z" fill="#2F4EBB"/>
<path d="M724.675 116.063C727.212 116.063 729.269 114.007 729.269 111.47C729.269 108.933 727.212 106.876 724.675 106.876C722.138 106.876 720.081 108.933 720.081 111.47C720.081 114.007 722.138 116.063 724.675 116.063Z" fill="#2F4EBB"/>
<path d="M257.862 345.183C259.892 345.183 261.537 343.538 261.537 341.508C261.537 339.478 259.892 337.833 257.862 337.833C255.833 337.833 254.188 339.478 254.188 341.508C254.188 343.538 255.833 345.183 257.862 345.183Z" fill="#2F4EBB"/>
<path d="M565.775 284.938C566.862 284.938 567.744 284.057 567.744 282.97C567.744 281.882 566.862 281.001 565.775 281.001C564.688 281.001 563.806 281.882 563.806 282.97C563.806 284.057 564.688 284.938 565.775 284.938Z" fill="#2F4EBB"/>
<path d="M499.8 191.314C502.361 191.314 504.438 189.238 504.438 186.677C504.438 184.115 502.361 182.039 499.8 182.039C497.239 182.039 495.163 184.115 495.163 186.677C495.163 189.238 497.239 191.314 499.8 191.314Z" fill="#FFBA15"/>
<path d="M527.318 103.858C529.3 103.858 530.906 102.251 530.906 100.27C530.906 98.2888 529.3 96.6826 527.318 96.6826C525.337 96.6826 523.731 98.2888 523.731 100.27C523.731 102.251 525.337 103.858 527.318 103.858Z" fill="#FFBA15"/>
<path d="M518.612 149.008C519.837 147.696 521.587 147.346 523.162 148.221C523.994 148.658 524.65 149.358 525.569 149.664C526.969 150.146 528.325 149.621 529.594 148.964C532.044 147.696 533.662 146.471 536.375 148.002C537.819 148.833 539.306 149.664 541.012 149.052C543.287 148.221 544.512 146.383 547.137 146.164C548.625 146.033 550.112 146.339 551.425 147.039C552.256 147.477 553 148.133 553.919 148.396C555.45 148.877 556.456 148.221 557.637 147.302C560.131 145.377 563.15 145.027 565.906 146.646C566.65 147.083 567.306 145.946 566.562 145.508C564.769 144.458 562.8 144.021 560.744 144.371C559.694 144.546 558.644 144.939 557.725 145.552C556.369 146.427 555.625 147.739 553.612 146.864C551.556 145.946 550.112 144.852 547.75 144.852C545.256 144.852 543.594 145.902 541.581 147.214C538.65 149.096 537.075 146.121 534.319 145.858C532.481 145.683 530.95 146.733 529.419 147.608C527.931 148.439 526.662 148.877 525.087 148.002C524.169 147.477 523.425 146.777 522.375 146.558C520.625 146.208 518.919 146.864 517.694 148.133C517.081 148.658 518 149.621 518.612 149.008Z" fill="#FFBA15"/>
<path d="M542.325 141.439C543.9 140.257 545.825 139.689 547.794 140.17C549.106 140.476 550.025 141.395 551.294 141.876C553.481 142.664 555.056 141.307 556.85 140.214C558.731 139.076 559.781 139.295 561.662 140.301C562.756 140.914 563.719 141.22 565.031 141.132C567.481 140.957 572.25 137.851 573.781 141.264C574.131 142.051 575.269 141.351 574.919 140.607C573.956 138.507 571.462 138.157 569.406 138.595C566.869 139.164 564.944 140.52 562.319 139.164C561.05 138.507 560.044 137.72 558.556 138.026C557.331 138.245 556.325 139.032 555.319 139.689C554.619 140.126 553.875 140.739 553.044 140.782C551.819 140.87 550.9 140.039 549.85 139.514C547.225 138.201 544.075 138.595 541.756 140.301C541.012 140.826 541.669 141.964 542.325 141.439Z" fill="#FFBA15"/>
<path d="M243.863 171.233C246.706 169.439 249.944 170.227 252.788 171.671C254.844 172.721 256.725 174.733 258.956 175.302C263.55 176.483 264.25 169.833 268.013 168.696C272.388 167.383 275.494 173.114 279.606 170.052C281.925 168.346 283.806 167.296 286.781 167.471C289.538 167.646 292.163 168.564 294.7 169.527C295.488 169.833 295.838 168.564 295.05 168.258C290.894 166.683 285.819 165.021 281.531 167.077C280.438 167.602 279.694 168.389 278.731 169.046C276.938 170.271 275.713 169.571 274.006 168.608C272.169 167.558 270.375 166.858 268.231 167.296C266.306 167.689 264.775 168.827 263.681 170.402C263.025 171.321 262.544 172.502 261.713 173.333C259.875 175.039 258.038 173.464 256.463 172.371C252.613 169.746 247.538 167.339 243.119 170.096C242.506 170.577 243.163 171.714 243.863 171.233Z" fill="#FFBA15"/>
<path d="M251.256 472.495C254.319 476.345 259.394 482.295 266.35 488.726C282.756 503.995 304.413 517.163 388.938 543.151C396.463 545.47 406.788 548.576 419.169 552.163C426.956 546.476 439.163 537.857 454.694 528.32C479.325 513.182 489.869 509.376 503.694 500.363C517.3 491.482 535.806 476.388 553.613 449.876C524.256 443.62 492.494 435.176 459.025 423.757C442.75 418.201 427.263 412.338 412.606 406.345C358.838 428.395 305.069 450.445 251.256 472.495Z" fill="white" stroke="black" stroke-width="3" stroke-miterlimit="10"/>
<path d="M388.675 489.732C391.082 485.488 394.669 482.294 399.132 480.282C399.919 479.932 399.219 478.794 398.475 479.144C393.838 481.2 390.075 484.613 387.538 489.032C387.1 489.819 388.238 490.475 388.675 489.732Z" fill="black"/>
<path d="M387.975 490.126C389.463 491.832 391.738 491.22 393.225 489.864C394.494 488.726 395.457 487.239 396.594 486.014C397.95 484.57 399.438 483.257 401.013 481.989C401.669 481.464 400.75 480.545 400.094 481.07C398.344 482.47 396.682 483.957 395.194 485.62C393.882 487.064 391.082 491.57 388.938 489.164C388.325 488.551 387.407 489.514 387.975 490.126Z" fill="black"/>
<path d="M398.956 480.194C399.481 480.632 400.05 481.113 400.575 481.551C400.837 481.769 401.231 481.813 401.494 481.551C401.712 481.332 401.756 480.851 401.494 480.632C400.969 480.194 400.4 479.713 399.875 479.276C399.612 479.057 399.219 479.013 398.956 479.276C398.737 479.494 398.694 479.976 398.956 480.194Z" fill="black"/>
<path d="M389.594 485.488C388.85 484.745 388.85 484.088 389.594 483.563C389.944 483.213 390.338 482.907 390.732 482.645C391.257 482.251 391.782 481.857 392.263 481.463C393.05 480.895 395.588 478.532 396.2 480.326C396.463 481.113 397.732 480.763 397.469 479.976C396.2 476.345 392.175 479.932 390.557 481.157C389.419 482.032 387.713 482.995 387.582 484.613C387.494 485.707 388.15 486.626 389.2 486.845C390.075 486.888 390.425 485.62 389.594 485.488Z" fill="black"/>
<path d="M392.35 490.782C395.237 493.451 396.462 497.213 398.781 500.276C400.662 502.769 403.2 504.738 406.087 505.963C412.519 508.719 419.869 507.276 425.075 502.638C425.687 502.069 424.769 501.151 424.156 501.719C418.819 506.444 411.075 507.451 404.862 503.863C402.019 502.244 399.962 499.882 398.3 497.038C396.812 494.457 395.544 491.832 393.312 489.819C392.656 489.294 391.737 490.213 392.35 490.782Z" fill="black"/>
<path d="M400.444 483.038C403.638 483.126 406.831 483.213 410.025 483.301C413.394 483.388 416.675 483.694 419.563 485.619C424.638 489.032 428.619 496.251 424.156 501.763C423.631 502.419 424.55 503.338 425.075 502.682C429.319 497.476 427.088 490.563 422.581 486.319C416.588 480.763 408.056 481.901 400.488 481.726C399.569 481.726 399.613 483.038 400.444 483.038Z" fill="black"/>
<path d="M396.113 486.276C399.088 487.851 402.019 489.513 404.819 491.351C407.838 493.319 408.8 496.951 410.2 500.101C410.55 500.888 411.688 500.188 411.338 499.444C410.113 496.732 409.194 493.013 406.744 491.088C403.769 488.726 400.138 486.888 396.769 485.138C396.025 484.745 395.369 485.882 396.113 486.276Z" fill="black"/>
<path d="M407.138 492.095C410.156 491.789 413.175 491.482 416.194 491.176C417.025 491.089 417.025 489.776 416.194 489.864C413.175 490.17 410.156 490.476 407.138 490.782C406.306 490.87 406.306 492.182 407.138 492.095Z" fill="black"/>
<path d="M407.269 492.751C409.763 493.495 412.169 494.501 414.444 495.726C415.188 496.12 415.844 494.982 415.1 494.589C412.738 493.276 410.244 492.226 407.619 491.482C406.832 491.264 406.482 492.532 407.269 492.751Z" fill="black"/>
<path d="M326.2 477.57C329.525 479.67 334.556 482.426 341.119 484.176C347.638 485.926 362.338 489.82 373.1 481.376C381.544 474.77 383.25 463.876 382.813 463.657C382.463 463.482 380.713 470.614 374.456 474.42C368.463 478.095 362.381 476.17 353.631 475.47C347.113 474.945 337.794 474.945 326.2 477.57Z" fill="#FFBA15"/>
<path d="M481.687 470.351C485.45 467.551 489.169 464.751 492.931 461.907C493.587 461.426 492.931 460.244 492.275 460.769C488.512 463.569 484.794 466.369 481.031 469.213C480.331 469.694 480.987 470.832 481.687 470.351Z" fill="black"/>
<path d="M484.094 480.369C494.594 471.75 505.138 463.088 515.638 454.469C516.294 453.944 515.375 453.025 514.719 453.55C504.219 462.169 493.675 470.832 483.175 479.45C482.519 479.975 483.481 480.894 484.094 480.369Z" fill="black"/>
<path d="M505.794 473.063C508.944 469.695 512.313 466.632 515.988 463.832C516.644 463.307 515.988 462.17 515.332 462.695C511.569 465.538 508.113 468.688 504.875 472.145C504.263 472.757 505.182 473.676 505.794 473.063Z" fill="black"/>
<path d="M420.175 457.488C433.125 449.876 445.638 441.563 457.582 432.551C458.238 432.069 457.582 430.888 456.925 431.413C444.938 440.426 432.425 448.782 419.519 456.351C418.775 456.788 419.432 457.926 420.175 457.488Z" fill="black"/>
<path d="M414.313 453.639C419.563 450.839 424.375 447.295 428.575 443.051C429.188 442.439 428.225 441.52 427.656 442.133C423.5 446.289 418.819 449.745 413.656 452.501C412.913 452.895 413.569 454.033 414.313 453.639Z" fill="black"/>
<path d="M399.7 448.038C408.45 441.082 417.419 434.388 426.562 427.957C427.262 427.476 426.606 426.338 425.906 426.819C416.675 433.294 407.619 440.076 398.781 447.119C398.081 447.644 399.044 448.563 399.7 448.038Z" fill="black"/>
<path d="M322.744 343.564C310.275 347.108 299.556 351.264 290.806 355.158C279.825 360.058 263.856 367.277 246.662 381.277C239.662 386.964 234.456 393.133 224.087 405.427C220.194 410.021 216.212 415.008 215.862 422.052C215.775 423.933 215.512 429.446 219.012 433.558C224.875 440.427 236.906 438.283 242.812 437.277C249.069 436.183 253.531 434.127 255.412 433.296C281.706 421.396 277.156 425.683 299.119 414.833C316.356 406.346 324.975 402.058 329.394 397.683C333.506 393.571 350.306 376.858 344.444 360.714C340.025 348.727 325.806 344.439 322.744 343.564Z" fill="white"/>
<path opacity="0.22" d="M333.987 347.808C331.45 350.739 327.25 355.333 321.562 360.451C293.519 385.651 271.775 384.951 251.125 404.595C244.606 410.764 235.987 421.133 229.556 438.283C232.575 438.326 237.256 438.195 242.856 437.276C254.494 435.351 262.587 431.151 267.006 428.92C297.675 413.52 304.719 416.145 323.487 402.145C332.106 395.714 336.481 392.389 339.325 385.914C346.237 370.12 336.787 352.664 333.987 347.808Z" fill="#969696"/>
<path d="M322.569 342.952C305.331 348.77 288.006 354.633 271.95 363.295C257.25 371.214 243.95 381.539 232.75 393.92C227.237 400.002 221.55 406.652 217.919 414.089C214.944 420.127 212.844 428.877 218.575 433.995C224.394 439.202 233.144 439.683 240.494 438.458C249.637 436.883 258.562 432.989 267.181 429.62C286.65 421.964 305.594 412.995 323.837 402.758C324.581 402.364 323.925 401.227 323.181 401.62C307.912 410.152 292.162 417.852 275.975 424.633C267.881 428.045 259.656 431.239 251.344 434.127C243.162 436.97 234.15 439.333 225.619 436.489C204.662 429.533 224.35 405.339 232.662 395.977C243.206 384.12 255.631 374.058 269.412 366.227C286.256 356.689 304.631 350.433 322.919 344.264C323.706 343.958 323.356 342.689 322.569 342.952Z" fill="black"/>
<path d="M345.888 409.757C347.113 408.576 349.038 406.87 351.706 405.295C355.6 402.976 357.613 402.932 365.313 400.307C371.919 398.032 374.675 396.589 377.038 395.014C379.006 393.701 382.725 391.207 382.244 389.807C381.675 388.145 375.331 388.932 368.331 389.807C362.513 390.507 362.294 390.945 357.263 391.47C349.825 392.214 349.3 391.339 346.588 392.432C341.863 394.314 336.35 399.695 337.838 404.332C339.15 408.445 345.319 409.626 345.888 409.757Z" fill="black"/>
<path d="M329.394 345.401C325.85 347.239 322.831 349.47 322.831 349.47C317.406 353.451 313.863 357.782 311.763 360.714C312.069 362.507 312.331 364.345 312.638 366.139C302.138 371.214 293.738 375.851 288.006 379.132C272.125 388.232 262.894 395.495 244.431 410.02C238.438 414.701 231.875 420.082 229.6 428.964C229.031 431.239 227.719 436.532 230.125 442.264C232.881 448.87 238.656 451.714 240.406 452.501C244.213 454.207 247.844 454.339 253.663 453.77C266.394 452.545 276.15 449.22 279.825 447.951C292.775 443.357 302.181 438.72 304.456 437.582C315.044 432.289 329.438 424.326 345.975 412.732C346.063 412.251 346.588 409.495 344.794 407.045C343.263 404.945 340.594 403.851 337.925 404.245C340.725 402.845 344.619 400.614 348.644 397.114C356.169 390.551 359.756 383.42 362.031 378.782C363.344 376.114 367.019 368.151 368.463 356.995C369.338 350.082 369.075 344.264 368.594 340.064C366.975 340.02 342.344 338.707 329.394 345.401Z" fill="white"/>
<path opacity="0.21" d="M359.144 348.42C354.419 360.451 348.688 368.457 345.013 372.963C322.831 400.307 290.806 405.907 253.575 437.145C249.244 440.776 244.825 444.757 245.744 446.551C247.888 450.795 278.819 439.332 295.225 432.464C316.969 423.363 333.769 413.651 344.75 406.695C342.869 405.47 340.944 404.245 339.063 403.064C342.038 401.664 346.281 399.301 350.481 395.407C356.038 390.289 358.75 385.17 361.288 380.182C364.263 374.363 368.375 366.226 368.594 355.157C368.681 350.52 368.069 346.713 367.544 344.22C364.788 345.576 361.988 346.976 359.144 348.42Z" fill="#9E9E9E"/>
<path d="M368.594 345.139C368.419 365.132 361.725 385.476 345.975 398.601C337.838 405.339 327.6 408.882 318.019 412.995C307.65 417.457 297.281 421.876 286.913 426.339C275.231 431.37 263.506 436.357 251.825 441.389C251.038 441.739 251.738 442.832 252.481 442.526C274.006 433.295 295.531 424.064 317.056 414.832C326.856 410.632 337.356 407.089 345.8 400.439C352.931 394.795 358.619 387.401 362.556 379.22C367.631 368.632 369.819 356.907 369.906 345.182C369.906 344.307 368.594 344.307 368.594 345.139Z" fill="black"/>
<path d="M311.106 360.757C311.106 362.726 311.369 364.52 311.981 366.357C312.069 366.095 312.2 365.876 312.288 365.613C296.713 373.27 281.4 381.582 267.05 391.426C260.138 396.151 253.444 401.27 247.1 406.738C241.15 411.901 234.675 417.457 230.825 424.457C227.588 430.32 226.844 437.057 229.731 443.226C232.706 449.613 238.656 453.682 245.569 454.513C253.794 455.52 262.631 453.42 270.55 451.407C278.644 449.351 286.519 446.507 294.175 443.138C312.2 435.307 328.869 424.763 345.406 414.307C346.106 413.87 345.45 412.732 344.75 413.17C317.713 430.32 289.406 448.17 257.075 452.763C248.85 453.945 239.969 453.945 233.975 447.338C228.681 441.476 227.85 433.382 231.263 426.338C234.588 419.513 240.669 414.176 246.269 409.188C252.438 403.676 259 398.601 265.781 393.876C280.656 383.463 296.625 374.757 312.9 366.751C313.163 366.62 313.294 366.27 313.206 366.007C312.638 364.257 312.375 362.551 312.375 360.757C312.419 359.926 311.106 359.926 311.106 360.757Z" fill="black"/>
<path d="M339.194 404.639C343.438 404.726 346.325 408.532 345.275 412.601C345.056 413.432 346.325 413.782 346.544 412.951C347.813 408.007 344.313 403.414 339.194 403.326C338.362 403.326 338.362 404.639 339.194 404.639Z" fill="black"/>
<path d="M346.763 409.582C349.344 407.701 351.575 405.907 354.638 404.901C357.7 403.895 360.763 402.801 363.781 401.576C369.6 399.257 375.331 396.632 380.888 393.745C381.631 393.351 380.975 392.213 380.231 392.607C374.281 395.713 368.2 398.513 361.944 400.92C358.925 402.057 355.863 403.02 352.844 404.113C350.306 405.032 348.25 406.87 346.106 408.445C345.45 408.926 346.106 410.063 346.763 409.582Z" fill="black"/>
<path d="M354.375 391.733C359.1 392.564 363.65 391.558 368.244 390.464C370.869 389.851 373.494 389.195 376.163 388.976C377.388 388.889 378.875 388.67 380.056 388.976C383.25 389.808 380.8 392.389 379.181 393.483C378.481 393.964 379.138 395.101 379.838 394.62C381.588 393.439 383.863 391.514 382.681 389.108C381.675 387.095 378.35 387.489 376.513 387.62C369.163 388.145 362.163 391.776 354.725 390.464C353.894 390.333 353.544 391.601 354.375 391.733Z" fill="black"/>
<path d="M386.225 249.808C385.175 250.858 383.687 252.52 382.375 254.839C380.493 258.12 379.356 262.145 380.056 275.533C380.581 285.42 381.762 293.208 382.681 298.545C383.468 303.008 384.256 306.639 384.825 309.176C390.031 331.926 399.831 358.92 403.462 368.72C406.175 376.07 409.937 386.001 414.706 397.77C412.606 399.608 409.762 402.451 407.312 406.608C406 408.795 404.075 412.076 404.906 412.951C405.606 413.651 408.275 412.908 417.2 406.564C422.318 408.576 426.256 410.633 428.925 412.208C432.775 414.439 436.056 416.758 441.218 417.458C442.662 417.676 443.887 417.676 444.718 417.676C443.931 416.101 442.531 413.695 440.081 411.376C437.15 408.62 433.825 407.57 433.912 407.351C434 407.176 436.712 408.401 440.387 409.539C443.625 410.545 447.168 410.764 454.3 411.201C455.306 411.245 456.793 411.333 457.45 410.458C458.193 409.408 457.362 407.614 457.056 406.87C454.868 402.145 446.906 399.214 444.018 398.208C445.156 398.733 448.043 399.783 451.718 399.214C455.087 398.689 457.406 397.07 458.368 396.239C456.443 395.845 454.431 395.451 452.375 395.145C442.137 393.526 432.687 393.351 424.287 393.964C423.018 390.726 421.225 385.52 419.781 378.914C418.206 371.826 418.556 369.989 416.806 359.533C415.406 351.133 414.531 346.189 412.387 339.976C410.375 334.245 408.1 329.783 406.35 326.764C399.962 298.37 397.468 285.376 396.55 279.076C395.893 274.526 395.062 271.333 393.443 264.901C392.743 262.145 392 259.476 390.381 256.239C388.981 253.395 387.406 251.251 386.225 249.808Z" fill="white"/>
<path opacity="0.11" d="M386.225 249.807C387.712 249.895 388.062 257.814 388.981 267.832C388.981 267.832 390.25 281.701 396.375 315.301C402.806 350.695 416.544 387.839 421.4 400.526C428.794 406.214 436.231 411.945 443.625 417.632C441.787 417.676 438.856 417.589 435.531 416.495C432.425 415.489 430.762 414.176 426.037 411.42C424.2 410.326 421.356 408.751 417.769 406.914C410.2 411.989 405.912 414.001 404.906 412.951C403.769 411.726 407.094 406.345 414.925 396.851C413.612 394.051 411.819 390.07 409.762 385.257C406.175 376.945 397.425 355.77 387.844 320.42C379.969 291.37 379.75 282.882 380.1 276.232C380.8 263.457 384.212 249.632 386.225 249.807Z" fill="#686868"/>
<path d="M385.743 250.245C388.281 252.301 389.55 255.32 390.687 258.295C391.825 261.314 392.7 264.42 393.487 267.57C395.106 274.22 396.331 280.957 397.731 287.651C400.531 301.301 403.331 314.907 406.131 328.557C406.306 329.389 407.575 329.039 407.4 328.207C404.468 314.032 401.537 299.814 398.65 285.639C397.25 278.857 396.025 271.989 394.275 265.295C392.875 259.957 391.256 252.957 386.706 249.37C386.05 248.801 385.087 249.72 385.743 250.245Z" fill="black"/>
<path d="M381.894 300.032C389.9 333.282 400.706 365.788 414.181 397.245C414.531 398.032 415.625 397.332 415.318 396.588C401.887 365.263 391.125 332.845 383.162 299.682C382.943 298.895 381.719 299.245 381.894 300.032Z" fill="black"/>
<path d="M406.393 327.857C417.856 347.939 415.975 372.132 423.062 393.657C423.325 394.445 424.593 394.095 424.331 393.307C417.2 371.651 419.081 347.414 407.531 327.201C407.093 326.457 405.956 327.114 406.393 327.857Z" fill="black"/>
<path d="M414.269 397.289C411.775 400.264 409.15 403.195 406.744 406.301C405.519 407.876 403.594 410.239 404.031 412.426C404.469 414.482 406.087 413.914 407.4 413.126C410.769 411.157 414.137 409.101 417.506 407.089C418.25 406.651 417.594 405.514 416.85 405.951C414.794 407.176 412.737 408.401 410.725 409.626C409.631 410.282 408.537 410.895 407.487 411.551C407.269 411.682 406.262 412.47 406.044 412.426C405.825 412.032 405.606 411.595 405.431 411.201C405.606 410.72 405.825 410.239 406.044 409.757C407.094 407.745 408.712 406.039 410.156 404.289C411.862 402.276 413.525 400.264 415.231 398.251C415.756 397.551 414.794 396.632 414.269 397.289Z" fill="black"/>
<path d="M424.069 394.313C429.887 394.488 435.706 394.707 441.481 395.013C444.325 395.188 447.125 395.363 449.969 395.538C452.769 395.757 455.569 395.845 458.238 396.851C459.025 397.157 459.375 395.888 458.588 395.582C456.225 394.663 453.775 394.488 451.281 394.313C448.306 394.095 445.331 393.92 442.356 393.745C436.275 393.395 430.194 393.132 424.069 393.001C423.238 393.001 423.238 394.313 424.069 394.313Z" fill="black"/>
<path d="M417.593 407.527C427.087 410.152 434.437 418.595 444.762 418.289C445.2 418.289 445.506 417.895 445.375 417.458C443.931 411.814 437.981 409.802 434.35 405.864C433.781 405.252 432.862 406.17 433.431 406.783C436.887 410.502 442.75 412.47 444.106 417.808C444.325 417.545 444.543 417.239 444.718 416.977C434.612 417.283 427.218 408.839 417.9 406.258C417.112 406.039 416.762 407.308 417.593 407.527Z" fill="black"/>
<path d="M433.737 407.089C438.375 409.014 443.231 410.458 448.175 411.289C450.319 411.639 452.55 411.945 454.737 411.77C456.006 411.683 457.625 411.551 458.369 410.326C460.031 407.57 456.05 404.901 454.3 403.545C450.669 400.789 446.6 398.733 442.269 397.376C441.481 397.114 441.131 398.383 441.919 398.645C445.2 399.695 448.306 401.095 451.194 402.976C452.594 403.895 453.95 404.901 455.262 405.995C455.831 406.52 456.619 407.089 457.012 407.789C458.106 409.714 456.312 410.37 454.781 410.458C447.956 411.026 440.344 408.358 434.087 405.776C433.3 405.514 432.994 406.783 433.737 407.089Z" fill="black"/>
<path d="M442.05 398.82C447.081 399.432 454.3 401.663 458.325 397.464C458.893 396.851 457.975 395.932 457.406 396.545C455.393 398.645 452.637 398.688 449.925 398.426C447.3 398.164 444.675 397.814 442.05 397.507C441.218 397.42 441.218 398.732 442.05 398.82Z" fill="black"/>
<path d="M436.581 402.538C439.6 404.07 442.881 404.813 446.162 405.645C450.012 406.607 453.556 407.92 456.794 410.195C457.494 410.676 458.15 409.539 457.45 409.057C454.519 407.001 451.369 405.645 447.912 404.726C444.281 403.764 440.606 403.107 437.237 401.401C436.494 401.007 435.837 402.145 436.581 402.538Z" fill="black"/>
<path d="M331.45 247.488C342.475 243.42 351.794 242.588 357.919 242.545C368.419 242.413 380.406 242.282 386.575 249.982C388.938 252.957 389.638 258.12 390.994 268.445C392.394 278.988 393.05 284.238 391.563 290.495C389.769 297.976 387.45 296.838 382.463 308.126C378.788 316.438 379.225 318.976 374.456 332.407C372.356 338.313 370.475 342.995 369.206 345.926C366.581 346.801 363.738 347.545 360.675 348.113C344.619 351.132 330.663 347.588 321.781 344.263C325.019 312.02 328.256 279.776 331.45 247.488Z" fill="#FFBA15"/>
<path d="M334.381 246.876C332.5 247.663 329.787 249.063 327.119 251.557C324.887 253.613 323.181 255.888 321.562 258.907C317.625 266.17 316.531 273.213 316.094 275.97C313.119 295.438 312.244 303.357 312.244 303.357C310.406 320.332 309.794 326.982 309.969 335.863C310.056 341.026 310.406 344.92 311.456 349.47C312.725 354.851 314.606 359.007 318.15 365.613C323.225 375.195 327.556 381.932 330.487 386.613C333.987 392.17 338.931 400.263 344.706 410.37C345.756 413.301 346.894 416.363 348.075 419.601C356.344 442.045 352.187 428.613 353.281 431.895C353.675 433.12 354.506 435.788 356.956 437.276C357.569 437.67 358.531 438.238 359.1 437.976C360.237 437.407 360.062 433.163 354.944 417.938C354.812 417.501 357.087 423.67 362.512 428.526C364.394 430.188 366.231 431.326 367.631 432.026C368.375 435.482 369.075 439.07 369.731 442.788C370.562 447.557 371.262 452.195 371.831 456.657C371.481 457.838 371.044 459.676 371.175 461.951C371.262 463.307 371.35 465.101 372.444 467.07C373.012 468.076 374.412 470.613 376.6 470.832C377.781 470.963 378.787 470.263 380.8 468.951C383.469 467.201 383.994 466.107 385.306 466.151C386.006 466.151 387.012 466.501 388.194 468.076C388.15 465.057 387.319 464.007 386.575 463.526C385.35 462.782 384.256 463.745 381.412 463.351C380.319 463.22 378.525 462.957 377.344 461.776C375.637 460.07 376.031 457.182 376.075 456.438C376.425 452.763 375.069 443.138 369.644 421.176C370.081 422.707 371.569 423.67 373.056 423.451C374.631 423.232 375.856 421.788 375.725 420.126C372.969 417.545 370.212 414.963 367.412 412.382C367.062 409.757 366.712 407.088 366.319 404.376C364.919 394.97 363.169 386.001 361.244 377.47C360.062 377.82 358.881 378.17 357.7 378.476C358.487 384.12 359.275 389.763 360.062 395.407C357.131 395.057 354.2 394.663 351.269 394.313C350.087 392.301 348.6 389.588 347.025 386.307C345.8 383.77 343.306 378.563 341.075 371.87C338.231 363.251 336.525 358.176 336.394 351.351C336.306 348.332 336.525 344.001 334.337 338.795C333.506 336.87 332.631 335.382 331.975 334.42C332.937 328.688 333.769 323.788 334.381 319.851C338.537 293.645 336.394 301.082 339.762 276.232C340.375 271.595 340.987 267.526 340.112 262.013C339.15 255.407 336.437 250.157 334.381 246.876Z" fill="white"/>
<path opacity="0.17" d="M331.45 247.489C329.743 250.989 327.468 256.196 325.5 262.758C321.912 274.789 321.475 284.589 321.3 291.502C320.512 320.508 320.075 335.033 322.875 347.896C330.093 381.189 347.856 403.589 355.031 412.471C361.068 419.908 366.756 425.596 370.956 429.533C370.387 430.408 369.25 431.852 367.631 432.027C365.793 432.202 364.306 430.539 362.512 428.527C360.368 426.077 357.656 422.796 354.593 418.814C355.775 421.921 357.306 426.252 358.487 431.677C359.756 437.452 359.275 437.889 359.1 437.977C357.962 438.502 354.112 432.421 352.275 429.183C349.825 424.939 346.85 418.727 344.75 410.327C338.887 400.089 333.9 391.952 330.531 386.571C320.775 370.908 317.406 366.839 314.168 357.389C313.075 354.108 310.668 346.408 309.968 336.302C309.706 332.233 309.837 329.871 311.543 312.064C313.25 294.346 313.818 289.271 314.912 282.314C317.056 268.664 318.587 264.552 320.556 260.833C323.968 254.446 328.343 250.114 331.45 247.489Z" fill="#8E8E8E"/>
<path d="M334.206 246.22C324.625 250.026 319.55 259.389 317.012 268.883C313.906 280.433 312.594 292.595 311.456 304.495C310.275 316.745 308.481 329.389 309.575 341.683C310.625 353.539 316.05 363.514 322 373.576C329.306 385.914 336.612 398.208 343.875 410.545C344.312 411.289 345.45 410.633 345.012 409.889C338.887 399.52 332.762 389.195 326.637 378.826C320.775 368.939 314.037 359.051 311.719 347.633C309.444 336.258 311.019 324.401 311.981 312.939C312.987 300.908 314.212 288.833 316.487 276.933C318.719 265.514 322.612 252.214 334.512 247.489C335.344 247.183 334.994 245.914 334.206 246.22Z" fill="black"/>
<path d="M334.381 248.058C342.869 259.039 339.456 274.658 337.881 287.301C335.912 303.183 333.944 319.02 331.975 334.901C331.887 335.733 333.2 335.733 333.287 334.901C335.344 318.189 337.444 301.433 339.5 284.72C341.031 272.295 343.569 257.814 335.3 247.139C334.775 246.483 333.856 247.401 334.381 248.058Z" fill="black"/>
<path d="M328.693 332.451C333.2 335.601 334.25 341.376 335.081 346.407C336.043 352.051 337.006 357.651 338.275 363.207C340.768 374.189 344.312 384.951 350.306 394.576C350.743 395.276 351.881 394.62 351.443 393.92C344.968 383.551 341.381 371.782 338.887 359.882C337.706 354.239 336.962 348.551 335.781 342.907C334.862 338.445 333.243 334.026 329.35 331.314C328.65 330.832 327.993 331.97 328.693 332.451Z" fill="black"/>
<path d="M351.487 395.364C354.243 395.364 356.956 395.408 359.581 396.283C360.368 396.546 360.718 395.277 359.931 395.014C357.175 394.096 354.331 394.052 351.487 394.052C350.656 394.052 350.656 395.364 351.487 395.364Z" fill="black"/>
<path d="M360.456 402.233C360.281 405.908 362.775 408.62 365.181 411.07C368.418 414.395 371.831 417.589 375.331 420.652C375.943 421.22 376.906 420.302 376.25 419.733C373.362 417.195 370.562 414.614 367.85 411.902C365.225 409.277 361.55 406.302 361.768 402.233C361.812 401.402 360.5 401.402 360.456 402.233Z" fill="black"/>
<path d="M344.094 410.501C345.8 415.357 347.506 420.214 349.562 424.939C350.612 427.301 351.706 429.664 352.931 431.939C354.025 433.951 355.162 436.489 356.781 438.107C357.481 438.807 358.444 439.289 359.362 438.589C360.456 437.714 360.106 436.007 359.844 434.826C358.794 429.314 357.175 423.889 355.25 418.595C354.944 417.807 353.675 418.157 353.981 418.945C355.381 422.707 356.562 426.557 357.525 430.451C357.787 431.501 358.006 432.551 358.269 433.601C358.444 434.345 359.275 436.576 358.75 437.189C357.831 438.195 355.162 433.164 354.856 432.595C350.787 425.507 348.075 417.764 345.362 410.107C345.1 409.364 343.831 409.714 344.094 410.501Z" fill="black"/>
<path d="M354.55 418.814C356.869 422.314 359.187 426.033 362.162 429.052C363.912 430.846 367.456 433.733 370.169 432.464C373.012 431.196 371.044 427.739 369.95 426.033C367.15 421.702 364.306 417.371 361.506 412.996C361.069 412.296 359.931 412.952 360.369 413.652C362.25 416.539 364.131 419.427 366.012 422.314C366.887 423.627 367.719 424.983 368.594 426.296C369.512 427.696 372.05 431.327 368.462 431.239C365.662 431.196 363.169 428.264 361.55 426.296C359.406 423.671 357.569 420.871 355.687 418.027C355.206 417.458 354.069 418.114 354.55 418.814Z" fill="black"/>
<path d="M360.456 413.389C363.256 417.195 366.712 420.695 370.737 423.189C372.05 424.02 373.8 424.72 375.2 423.67C376.206 422.882 376.425 421.745 375.9 420.651C375.506 419.907 374.368 420.564 374.762 421.307C374.018 422.751 373.187 423.145 372.269 422.489C371.962 422.357 371.7 422.226 371.437 422.051C370.912 421.745 370.431 421.395 369.95 421.045C368.856 420.257 367.762 419.382 366.756 418.42C364.831 416.67 363.125 414.745 361.593 412.689C361.068 412.032 359.931 412.689 360.456 413.389Z" fill="black"/>
<path d="M356.825 415.576C359.756 421.745 363.912 427.17 369.162 431.545C369.819 432.07 370.737 431.151 370.081 430.626C364.919 426.295 360.806 421.001 357.919 414.92C357.612 414.176 356.475 414.832 356.825 415.576Z" fill="black"/>
<path d="M357 379.789C358.268 387.708 359.537 395.583 360.806 403.502C360.937 404.333 362.206 403.983 362.075 403.152C360.806 395.233 359.537 387.358 358.268 379.439C358.137 378.608 356.868 379.002 357 379.789Z" fill="black"/>
<path d="M358.269 379.789C358.837 378.914 360.5 377.426 361.55 378.783C361.769 379.089 361.769 380.095 361.812 380.489C362.031 382.02 362.294 383.595 362.512 385.126C362.95 388.058 363.431 391.033 363.869 393.964C364.787 399.87 365.706 405.776 366.625 411.683C366.756 412.514 368.025 412.164 367.894 411.333C366.625 403.02 365.312 394.751 364.044 386.439C363.737 384.339 363.387 382.239 363.081 380.095C362.95 379.22 362.994 377.864 362.25 377.251C360.587 375.895 358.006 377.689 357.131 379.089C356.694 379.833 357.831 380.489 358.269 379.789Z" fill="black"/>
<path d="M369.425 422.27C371.787 434.301 373.756 446.376 375.375 458.538C375.506 459.37 376.818 459.37 376.687 458.538C375.068 446.288 373.056 434.082 370.65 421.92C370.518 421.088 369.25 421.438 369.425 422.27Z" fill="black"/>
<path d="M367.15 432.201C368.725 440.383 370.081 448.608 371.219 456.876C371.35 457.708 372.619 457.358 372.487 456.526C371.35 448.258 369.994 440.033 368.419 431.851C368.244 431.02 366.975 431.37 367.15 432.201Z" fill="black"/>
<path d="M371.394 456.876C372.137 458.713 373.931 459.938 375.944 459.72C376.775 459.632 376.775 458.32 375.944 458.407C374.587 458.582 373.187 457.882 372.662 456.526C372.356 455.738 371.087 456.088 371.394 456.876Z" fill="black"/>
<path d="M371.481 456.526C369.818 460.901 370.212 466.938 373.931 470.22C375.331 471.488 377.125 471.882 378.875 471.138C381.018 470.263 384.912 464.445 387.231 467.682C387.712 468.382 388.85 467.726 388.368 467.026C386.006 463.657 382.506 466.588 380.362 468.513C378.743 469.957 376.818 470.963 374.85 469.301C373.756 468.382 373.012 466.938 372.531 465.626C371.525 462.738 371.656 459.72 372.75 456.876C373.056 456.088 371.787 455.738 371.481 456.526Z" fill="black"/>
<path d="M375.813 458.496C376.163 460.727 377.388 463.046 379.575 463.921C382.375 465.014 388.806 462.477 387.625 467.902C387.45 468.733 388.719 469.083 388.894 468.252C389.419 465.933 388.544 463.483 386.05 462.914C384.256 462.477 382.463 463.308 380.669 462.914C378.481 462.389 377.431 460.246 377.081 458.189C376.906 457.314 375.681 457.708 375.813 458.496Z" fill="black"/>
<path d="M351.837 248.058C352.494 249.633 353.325 250.814 354.462 251.645C356.212 253.002 358.225 253.264 359.581 253.264C361.025 251.602 362.469 249.939 363.912 248.277C364.962 249.283 367.719 251.689 371.656 251.82C373.406 251.864 375.2 251.47 377.781 250.114C384.519 246.57 388.587 240.839 390.556 237.733C394.231 231.739 395.5 226.402 396.2 223.164C397.294 218.177 399.044 209.733 395.675 200.239C394.45 196.827 393.881 195.12 392.394 193.677C383.95 185.452 354.506 191.577 346.019 210.302C346.106 210.345 340.987 221.677 351.837 248.058Z" fill="white"/>
<path opacity="0.18" d="M387.8 198.271C388.456 200.94 377.737 202.34 369.293 214.371C363.343 222.902 362.425 231.171 362.25 233.008C361.637 239.658 362.906 245.083 363.956 248.321C361.943 247.096 359.931 245.827 357.962 244.602C355.993 245.958 354.068 247.271 352.1 248.627C349.562 245.696 343.656 238.04 342.562 226.708C342.212 222.946 341.293 213.671 346.587 206.058C357.612 190.221 386.75 194.027 387.8 198.271Z" fill="#8E8E8E"/>
<path d="M356.781 215.595C361.418 214.545 365.137 213.102 367.718 211.92C373.012 209.514 376.687 206.845 380.187 204.308C383.381 201.989 385.962 199.845 387.8 198.227C389.943 199.189 394.056 201.377 395.587 205.708C395.981 206.889 396.2 208.114 396.068 212.183C395.893 216.733 395.806 219.927 394.931 224.039C393.137 232.833 389.156 239.702 386.75 243.377C389.768 241.977 394.362 239.308 398.125 234.364C403.112 227.845 403.9 221.108 404.512 214.939C405.562 204.308 406.568 194.333 400.225 187.333C393.75 180.158 383.162 180.07 374.456 180.027C369.6 179.983 363.475 179.939 356.693 182.695C345.318 187.377 345.1 194.683 329.175 211.614C317.493 223.995 313.906 223.995 310.931 231.652C308 239.133 305.812 253.614 314.868 261.445C323.925 269.233 338.8 265.82 347.068 258.689C348.993 257.027 355.687 250.77 356.125 240.533C356.518 231.389 351.706 225.045 350.393 223.427C346.456 218.789 346.193 213.714 348.25 211.877C349.606 210.652 352.581 210.345 354.637 211.877C356.343 213.189 356.693 215.114 356.781 215.595Z" fill="#2F4EBB"/>
<path d="M355.687 241.058C357.962 243.683 360.544 246.046 363.344 248.102C365.662 249.808 368.769 252.215 371.744 252.565C374.762 252.915 378.35 250.858 380.8 249.327C383.644 247.577 386.137 245.302 388.237 242.721C392.656 237.121 394.625 230.077 395.762 223.121C397.031 215.421 397.206 207.546 394.975 200.021C394.756 199.233 393.487 199.54 393.706 200.371C395.762 207.283 395.762 214.502 394.712 221.546C393.75 228.065 392.175 234.715 388.456 240.227C385.219 245.083 379.312 250.202 373.362 251.121C370.125 251.602 366.581 248.758 364.087 246.965C361.375 244.996 358.925 242.677 356.694 240.14C356.037 239.483 355.119 240.402 355.687 241.058Z" fill="black"/>
<path d="M383.731 218.92C382.944 222.026 382.156 225.176 381.369 228.283C380.975 229.77 380.625 231.258 380.231 232.745C379.969 233.708 379.75 236.639 378.875 237.251C379.181 237.383 379.531 237.514 379.837 237.645C379.137 235.895 378.35 234.233 377.3 232.614C376.862 231.914 375.725 232.57 376.162 233.27C377.125 234.758 377.912 236.333 378.569 237.995C378.7 238.345 379.137 238.651 379.531 238.389C380.537 237.689 380.581 236.726 380.887 235.545C381.325 233.795 381.762 232.001 382.2 230.251C383.119 226.576 384.037 222.901 384.956 219.226C385.175 218.483 383.95 218.133 383.731 218.92Z" fill="black"/>
<path d="M367.718 233.446C368.199 237.296 371.568 240.271 375.506 240.052C376.337 240.008 376.337 238.696 375.506 238.739C372.356 238.914 369.424 236.596 369.031 233.446C368.899 232.614 367.587 232.614 367.718 233.446Z" fill="black"/>
<path d="M377.6 221.147C378.305 219.244 378.252 217.47 377.482 217.184C376.712 216.899 375.516 218.21 374.81 220.114C374.105 222.017 374.158 223.791 374.928 224.076C375.698 224.362 376.895 223.051 377.6 221.147Z" fill="black"/>
<path d="M390.233 223.114C390.938 221.211 390.885 219.437 390.115 219.151C389.345 218.866 388.148 220.177 387.443 222.08C386.738 223.984 386.791 225.758 387.561 226.043C388.331 226.329 389.527 225.017 390.233 223.114Z" fill="black"/>
<path d="M375.375 210.915C376.731 209.383 378.918 209.646 379.837 211.483C380.231 212.227 381.325 211.571 380.975 210.827C379.706 208.29 376.337 207.852 374.456 209.996C373.887 210.608 374.806 211.527 375.375 210.915Z" fill="black"/>
<path d="M388.412 212.532C389.637 211.264 392.306 210.432 393.093 212.707C393.356 213.495 394.625 213.145 394.362 212.357C393.268 209.164 389.506 209.557 387.493 211.614C386.925 212.182 387.843 213.145 388.412 212.532Z" fill="black"/>
<path d="M351.706 223.164C348.556 221.983 347.331 217.126 348.337 214.195C348.862 212.664 350.393 211.22 352.1 211.22C354.506 211.22 355.818 213.758 356.168 215.814C356.3 216.645 357.568 216.295 357.437 215.464C356.65 210.87 351.443 207.72 348.031 212.051C345.187 215.726 346.981 222.814 351.356 224.433C352.143 224.695 352.493 223.426 351.706 223.164Z" fill="black"/>
<path d="M371.175 224.302C371.131 224.302 371.087 224.302 371.043 224.302C370.693 224.302 370.387 224.608 370.387 224.958C370.387 225.308 370.693 225.614 371.043 225.614C371.087 225.614 371.131 225.614 371.175 225.614C371.525 225.614 371.831 225.308 371.831 224.958C371.831 224.608 371.525 224.302 371.175 224.302Z" fill="black"/>
<path d="M374.237 226.839C375.068 226.839 375.068 225.526 374.237 225.526C373.406 225.526 373.406 226.839 374.237 226.839Z" fill="black"/>
<path d="M371.481 228.982C372.312 228.982 372.312 227.67 371.481 227.67C370.65 227.67 370.65 228.982 371.481 228.982Z" fill="black"/>
<path d="M386.312 229.42C387.143 229.42 387.143 228.107 386.312 228.107C385.481 228.107 385.481 229.42 386.312 229.42Z" fill="black"/>
<path d="M390.162 229.114C390.993 229.114 390.993 227.802 390.162 227.802C389.287 227.802 389.287 229.114 390.162 229.114Z" fill="black"/>
<path d="M386.925 232.789C387.756 232.789 387.756 231.477 386.925 231.477C386.093 231.477 386.093 232.789 386.925 232.789Z" fill="black"/>
<path d="M363.475 247.839C362.031 249.501 360.587 251.164 359.143 252.826C358.575 253.482 359.537 254.401 360.062 253.745C361.506 252.082 362.95 250.42 364.393 248.757C364.962 248.145 364.043 247.226 363.475 247.839Z" fill="black"/>
<path d="M351.268 248.407C352.581 251.514 355.424 253.789 358.749 254.401C359.581 254.576 359.931 253.307 359.099 253.132C356.037 252.564 353.631 250.595 352.406 247.751C352.099 246.963 350.962 247.62 351.268 248.407Z" fill="black"/>
<path d="M644.22 421.7C646.451 423.056 648.988 424.369 651.744 425.638C658.044 428.481 663.907 430.013 668.763 430.844C669.638 432.419 670.907 434.694 672.395 437.406C676.42 444.756 679.526 450.575 680.357 452.063C687.051 464.619 696.413 484.044 697.813 486.975C696.72 487.544 694.882 488.244 692.651 487.981C690.026 487.675 688.276 486.1 686.876 484.744C680.007 478.356 677.994 475.688 677.994 475.688C673.357 469.563 668.851 464.094 659.795 453.244C657.476 450.488 655.595 448.3 654.457 446.988C649.557 446.55 644.657 446.113 639.801 445.631C641.288 437.669 642.776 429.663 644.22 421.7Z" fill="black"/>
<path d="M678.169 365.088C668.719 365.438 661.238 365.438 658.132 365.394C654.019 365.35 648.113 365.263 622.169 363.906C609.788 363.25 607.644 363.119 601.782 362.944C591.938 362.638 582.882 362.638 572.163 364.738C565.163 366.094 561.707 367.494 558.557 369.988C557.113 371.125 552.432 374.975 550.944 381.538C550.725 382.588 550.2 385.169 551.032 390.288C552.344 398.556 555.669 404.9 557.944 408.663C561.182 414 565.382 419.031 572.338 425.025C576.319 428.438 585.375 435.831 604.1 444.931C613.157 449.35 625.45 454.644 640.675 459.281C640.325 457.094 639.932 453.944 639.8 450.181C639.494 441.563 640.763 435 641.9 429.006C642.775 424.588 644.132 418.769 646.407 412.075C643.3 410.325 640.238 408.531 637.132 406.781C646.013 408.356 653.757 409.056 659.882 409.319C673.357 409.975 683.025 408.925 694.488 407.656C703.588 406.65 708.225 406.125 710.675 404.638C723.45 396.85 727.607 372.613 719.119 364.694C714.482 360.275 709.013 363.906 678.169 365.088Z" fill="white"/>
<path opacity="0.13" d="M641.682 430.363C636.475 428.001 629.125 424.195 621.032 418.42C603.444 405.82 587.825 387.488 590.494 384.032C591.938 382.195 597.932 385.607 607.25 389.063C630.744 397.726 651 397.463 665.175 397.245C678.519 397.07 698.732 395.232 722.4 386.876C721.875 389.982 720.388 395.976 715.4 400.657C712.207 403.676 708.794 404.945 706.475 405.688C691.163 410.72 673.007 410.151 667.582 409.932C659.269 409.582 648.55 408.926 636.125 407.57C639.8 408.795 643.475 410.02 647.15 411.245C645.357 417.588 643.519 423.976 641.682 430.363Z" fill="#898989"/>
<path d="M673.05 364.301C654.063 365.263 635.207 363.951 616.263 362.857C606.769 362.332 597.275 361.938 587.782 362.332C579.557 362.682 570.938 363.382 563.325 366.619C557.025 369.288 551.688 373.969 550.375 380.926C549.019 388.188 551.119 396.063 554.094 402.713C560.744 417.501 573.694 428.044 587.257 436.313C603.838 446.376 621.732 454.863 640.544 459.894C641.375 460.113 641.725 458.844 640.894 458.626C624.75 454.338 609.482 447.382 594.957 439.244C581.088 431.501 567.307 422.313 558.732 408.619C554.707 402.232 551.863 394.882 551.382 387.269C551.119 383.069 551.688 378.782 554.094 375.238C556.107 372.263 559.169 370.076 562.363 368.501C569.757 364.869 578.463 364.082 586.557 363.688C595.307 363.251 604.1 363.513 612.807 363.951C632.932 365.001 652.882 366.576 673.05 365.569C673.882 365.569 673.925 364.257 673.05 364.301Z" fill="black"/>
<path d="M590.231 384.601C608.125 395.714 627.157 404.857 646.975 411.857C647.763 412.12 648.113 410.851 647.325 410.589C627.594 403.589 608.65 394.489 590.888 383.464C590.144 383.026 589.488 384.164 590.231 384.601Z" fill="black"/>
<path d="M646.669 410.807C640.981 426.076 638.75 442.438 640.062 458.67C640.15 459.501 641.462 459.501 641.375 458.67C640.019 442.526 642.25 426.338 647.937 411.157C648.244 410.37 646.975 410.02 646.669 410.807Z" fill="black"/>
<path d="M643.782 422.138C646.494 424.807 651.132 426.163 654.675 427.388C659.138 428.963 663.732 430.144 668.413 430.932C669.244 431.063 669.594 429.794 668.763 429.663C664.607 428.963 660.494 428.001 656.513 426.644C654.325 425.901 652.138 425.069 650.038 424.151C648.2 423.363 646.144 422.619 644.744 421.176C644.088 420.607 643.169 421.526 643.782 422.138Z" fill="black"/>
<path d="M668.238 431.15C678.3 449.263 688.013 467.594 697.375 486.1C697.769 486.844 698.907 486.188 698.513 485.444C689.15 466.938 679.394 448.65 669.375 430.494C668.982 429.75 667.844 430.407 668.238 431.15Z" fill="black"/>
<path d="M640.413 445.413C643.913 445.894 647.457 446.332 650.957 446.813C652.444 447.032 653.888 447.119 655.069 448.213C655.682 448.781 656.207 449.525 656.688 450.181C657.607 451.406 658.569 452.632 659.488 453.857C663.469 459.15 667.451 464.4 671.694 469.519C675.982 474.638 680.488 479.538 685.519 483.913C688.888 486.844 693.919 491.263 698.338 487.5C698.994 486.932 698.032 486.013 697.419 486.582C694.138 489.382 690.2 486.144 687.619 484C685.169 481.944 682.85 479.757 680.619 477.438C676.2 472.932 672.175 468.119 668.282 463.175C664.432 458.275 660.844 453.069 656.863 448.256C655.244 446.288 653.45 445.85 651 445.544C647.5 445.063 643.957 444.625 640.457 444.144C639.582 444.013 639.582 445.325 640.413 445.413Z" fill="black"/>
<path d="M638.094 407.963C661.938 411.375 686.219 410.631 709.801 405.688C710.632 405.513 710.282 404.244 709.451 404.419C686.132 409.319 662.026 410.063 638.444 406.694C637.613 406.563 637.263 407.831 638.094 407.963Z" fill="black"/>
<path d="M627.375 222.245C627.55 219.707 627.682 216.47 627.594 212.751C627.507 208.332 627.244 208.901 626.85 201.989C626.457 195.12 626.544 192.364 624.838 191.532C624.05 191.139 623 191.27 622.3 191.707C621.819 192.014 621.163 192.67 620.55 197.57C620.2 200.414 620.375 200.764 619.894 201.332C618.669 202.82 616.788 201.639 614.469 203.214C613.113 204.132 613.55 204.657 611.625 206.582C609.613 208.595 609 208.157 607.688 209.732C607.469 209.995 605.325 212.62 605.807 215.814C605.894 216.426 606.157 218.307 607.338 218.789C608.475 219.27 609.438 218.045 610.225 218.482C611.1 218.92 610.75 220.67 610.619 223.995C610.488 227.714 610.4 229.682 611.188 231.607C611.888 233.357 613.113 234.626 614.207 235.457C614.469 236.945 614.819 239.22 615.125 242.02C616.132 251.732 615.169 256.501 615.125 263.151C615.125 273.914 617.663 282.27 619.325 287.739C621.6 295.22 624.444 301.126 626.588 305.151C629.125 305.326 632.844 305.282 637.088 304.057C641.813 302.657 644.7 300.514 650.519 296.008C661.194 287.783 666.575 283.583 668.763 281.351C677.469 272.47 678.738 267.614 679.132 265.339C679.438 263.589 680.488 257.814 677.382 255.451C674.8 253.482 670.732 254.882 669.025 255.451C665.744 256.545 664.038 258.295 661.107 260.745C655.594 265.339 655.332 264.464 650.082 268.664C646.757 271.333 642.25 275.401 637.525 281.22C637.219 279.601 636.694 277.064 635.994 273.957C634.638 267.876 633.544 264.114 632.932 261.62C630.963 254.007 630.219 247.795 628.732 235.414C628.294 232.001 627.813 227.539 627.375 222.245Z" fill="white"/>
<path opacity="0.18" d="M624.357 191.095C624.663 194.507 624.75 199.013 623.875 204.132C622.738 210.913 620.463 216.207 618.582 219.751C618.275 220.538 617.532 222.551 618.144 225.045C619.063 228.807 622.257 230.513 622.782 230.776C624.182 238.126 625.582 245.432 626.982 252.782C629.388 265.601 631.75 278.463 634.025 291.282C638.094 287.695 642.207 284.107 646.363 280.476C656.032 272.12 665.657 263.982 675.194 256.063C673.138 255.713 671.082 255.32 669.025 254.97C667.45 255.976 665.263 257.376 662.638 259.17C657.65 262.582 652.225 266.257 646.363 271.726C644 273.913 640.894 276.976 637.569 280.957C637.175 278.42 636.475 274.701 635.382 270.151C633.938 264.332 633.369 263.632 632.319 259.345C630.657 252.607 631.838 253.088 629.913 241.495C627.857 229.026 627.725 228.282 627.725 228.282C627.419 226.532 627.2 225.351 627.069 223.645C626.632 218.351 627.507 214.37 627.725 213.276C628.294 209.688 628.207 203.213 624.357 191.095Z" fill="#A5A4A4"/>
<path d="M671.913 252.739C659.094 260.264 647.325 269.408 637 280.126C636.432 280.739 637.35 281.658 637.919 281.045C648.156 270.414 659.838 261.358 672.569 253.876C673.313 253.483 672.657 252.345 671.913 252.739Z" fill="black"/>
<path d="M637.394 284.633C638.576 280.695 638.007 276.758 636.957 272.864C635.732 268.27 634.332 263.72 633.282 259.083C631.094 249.677 629.694 240.139 629.038 230.514C628.994 229.683 627.682 229.683 627.726 230.514C628.338 239.395 629.607 248.233 631.488 256.983C632.451 261.402 633.588 265.777 634.857 270.108C636.213 274.745 637.657 279.514 636.169 284.327C635.907 285.07 637.176 285.42 637.394 284.633Z" fill="black"/>
<path d="M629.038 229.858C628.295 226.27 626.501 217.87 621.076 219.051C619.282 219.445 617.532 221.108 617.663 223.076C617.838 225.789 620.551 224.914 621.994 226.358C622.607 226.97 623.526 226.008 622.913 225.439C622.169 224.695 621.426 224.695 620.551 224.301C617.182 222.858 620.857 219.139 623.482 220.714C626.282 222.376 627.157 227.276 627.769 230.208C627.944 231.039 629.213 230.689 629.038 229.858Z" fill="black"/>
<path d="M627.901 224.345C628.732 214.108 628.251 203.739 626.195 193.633C625.976 192.495 625.757 191.008 624.532 190.483C623.395 190.001 622.213 190.701 621.601 191.62C620.638 193.108 620.638 195.426 620.463 197.133C620.201 199.889 620.201 202.689 620.42 205.445C620.463 206.276 621.776 206.276 621.732 205.445C621.601 203.52 621.513 201.551 621.601 199.626C621.688 197.833 621.513 195.033 622.301 193.458C622.345 193.283 622.388 193.064 622.432 192.889C623.92 191.97 624.663 192.058 624.751 193.151C625.101 193.72 625.101 194.901 625.232 195.601C625.626 197.701 625.932 199.845 626.195 201.989C627.07 209.426 627.201 216.908 626.588 224.345C626.501 225.176 627.813 225.176 627.901 224.345Z" fill="black"/>
<path d="M620.463 200.983C619.457 198.795 616.744 201.683 616.088 202.689C614.338 205.314 614.294 208.639 615.388 211.527C616.044 213.145 617.576 215.333 619.501 214.064C622.038 212.445 621.732 207.152 621.426 204.658C621.338 203.827 620.026 203.827 620.113 204.658C620.332 206.452 620.332 208.202 619.982 209.995C619.851 210.608 619.807 211.483 619.413 212.008C618.363 213.495 617.094 212.314 616.613 211.133C615.913 209.427 615.651 207.502 616.132 205.708C616.351 204.877 616.701 204.089 617.182 203.389C617.401 203.083 619.063 201.158 619.282 201.683C619.676 202.427 620.813 201.77 620.463 200.983Z" fill="black"/>
<path d="M616.832 201.988C612.107 202.207 610.051 206.845 610.663 211.045C610.926 212.795 611.538 214.588 613.463 215.026C615.344 215.463 616.832 214.107 617.226 212.357C617.401 211.526 616.132 211.176 615.957 212.007C615.082 215.813 612.282 212.882 611.976 211.045C611.801 209.907 611.757 208.77 612.019 207.632C612.544 205.27 614.338 203.388 616.832 203.301C617.707 203.257 617.707 201.945 616.832 201.988Z" fill="black"/>
<path d="M611.45 205.97C608.475 206.889 605.719 209.951 606.463 213.276C607.163 216.514 611.188 216.908 612.806 214.195C613.244 213.451 612.106 212.795 611.669 213.539C610.838 214.895 608.913 215.245 607.994 213.714C607.469 212.839 607.644 211.614 607.95 210.739C608.563 208.989 610.05 207.764 611.8 207.239C612.588 206.976 612.281 205.708 611.45 205.97Z" fill="black"/>
<path d="M606.594 211.264C605.151 213.233 604.232 217.126 606.419 219.008C607.251 219.708 608.388 219.751 609.351 219.226C610.619 218.526 611.144 217.083 611.538 215.77C611.801 214.983 610.532 214.633 610.269 215.42C610.007 216.251 609.788 217.083 609.132 217.695C608.038 218.745 606.901 218.089 606.551 216.776C606.113 215.07 606.682 213.32 607.688 211.964C608.213 211.22 607.076 210.564 606.594 211.264Z" fill="black"/>
<path d="M609.045 218.132C611.582 223.645 607.076 232.701 614.338 235.764C615.126 236.07 615.476 234.801 614.688 234.495C610.882 232.876 611.057 228.239 611.232 224.782C611.32 222.201 611.276 219.795 610.182 217.432C609.832 216.689 608.695 217.345 609.045 218.132Z" fill="black"/>
<path d="M613.551 235.633C615.038 241.627 614.251 247.839 614.207 253.964C614.163 259.87 614.513 265.777 615.301 271.595C616.832 282.883 619.982 293.908 624.532 304.32C624.882 305.108 626.019 304.408 625.669 303.664C620.901 292.727 617.707 281.089 616.307 269.189C615.651 263.589 615.388 257.945 615.519 252.345C615.651 246.614 616.219 240.927 614.819 235.283C614.644 234.452 613.376 234.802 613.551 235.633Z" fill="black"/>
<path d="M625.407 305.588C637.832 308.388 648.769 298.37 657.738 291.326C663.032 287.17 668.194 282.882 673.182 278.376C677.601 274.351 681.757 270.02 684.688 264.77C685.082 264.026 683.988 263.37 683.551 264.113C680.794 269.057 676.944 273.17 672.788 276.932C668.282 281.045 663.557 284.982 658.788 288.832C653.976 292.682 649.119 296.62 643.913 299.901C638.488 303.357 632.232 305.807 625.757 304.32C624.926 304.145 624.576 305.413 625.407 305.588Z" fill="black"/>
<path d="M628.12 162.22C628.426 161.563 628.732 160.557 628.601 159.42C628.338 157.407 626.763 156.182 625.626 154.957C623.832 153.076 623.22 151.195 621.732 147.651C620.945 145.77 618.363 139.601 621.076 133.52C623.088 129.013 626.982 126.957 627.77 126.563C628.951 125.951 633.588 123.676 638.095 125.688C641.813 127.395 643.213 131.026 644.395 134.176C644.788 135.226 646.757 140.563 645.226 146.995C644.832 148.657 644.307 150.976 642.645 153.382C641.463 155.088 640.545 155.657 639.626 157.407C638.488 159.507 638.27 161.607 638.226 162.963C639.057 162.963 639.888 163.007 640.72 163.007C640.632 164.188 640.501 165.326 640.413 166.507C638.532 166.07 637.832 166.288 637.57 166.638C637.132 167.295 638.138 168.345 637.701 169.263C637.57 169.526 637.176 170.095 634.813 170.445C632.626 170.751 629.301 171.232 628.338 169.657C627.813 168.782 628.47 167.995 627.813 167.12C627.201 166.288 626.02 166.157 625.101 166.157C624.27 163.838 624.401 163.051 624.751 162.832C625.057 162.613 625.495 162.876 626.413 162.788C627.157 162.745 627.726 162.482 628.12 162.22Z" fill="white"/>
<path d="M633.807 161.913C633.72 157.188 633.588 152.507 633.501 147.782C633.501 146.95 632.188 146.95 632.188 147.782C632.276 152.507 632.407 157.188 632.495 161.913C632.495 162.744 633.807 162.744 633.807 161.913Z" fill="black"/>
<path d="M627.114 142.444C628.732 144.369 630.482 146.251 632.276 148.044C632.539 148.307 632.976 148.307 633.195 148.044C634.464 146.688 635.732 145.332 637.001 143.976C637.701 143.232 638.882 142.357 639.276 141.351C639.451 140.913 639.014 140.563 638.664 140.519C638.62 140.519 638.62 140.519 638.62 140.519C638.357 140.476 638.051 140.738 638.007 141.001V141.044C637.832 141.876 639.101 142.226 639.276 141.394V141.351C639.057 141.526 638.839 141.657 638.664 141.832H638.707C638.489 141.569 638.27 141.263 638.095 141.001C637.745 141.919 635.995 143.232 635.295 143.976C634.332 145.026 633.37 146.076 632.364 147.082C632.67 147.082 632.976 147.082 633.282 147.082C631.489 145.288 629.782 143.407 628.12 141.482C627.507 140.869 626.545 141.788 627.114 142.444Z" fill="black"/>
<path d="M633.325 147.038C633.5 143.713 633.588 140.388 633.675 137.063C633.675 136.232 632.363 136.232 632.363 137.063C632.275 140.388 632.188 143.713 632.013 147.038C631.969 147.869 633.282 147.869 633.325 147.038Z" fill="black"/>
<path d="M600.688 129.014C604.713 130.064 608.476 132.557 612.151 134.439C612.894 134.832 613.551 133.695 612.807 133.301C609.001 131.332 605.194 128.795 601.038 127.745C600.251 127.526 599.901 128.795 600.688 129.014Z" fill="black"/>
<path d="M620.857 126.082C619.107 124.026 617.4 122.014 615.65 119.957C615.082 119.301 614.163 120.264 614.732 120.876C616.482 122.932 618.188 124.945 619.938 127.001C620.507 127.657 621.425 126.695 620.857 126.082Z" fill="black"/>
<path d="M635.907 119.651C636.169 115.407 636.738 111.207 637.569 107.051C637.744 106.22 636.475 105.87 636.3 106.701C635.469 110.988 634.9 115.276 634.594 119.651C634.507 120.482 635.819 120.482 635.907 119.651Z" fill="black"/>
<path d="M651.089 127.483C653.976 124.901 656.951 122.408 659.926 120.001C660.582 119.476 659.664 118.558 659.007 119.083C656.032 121.533 653.057 124.026 650.17 126.564C649.557 127.133 650.476 128.051 651.089 127.483Z" fill="black"/>
<path d="M656.732 140.345C660.32 139.076 663.863 137.764 667.407 136.364C668.195 136.058 667.845 134.789 667.057 135.095C663.513 136.495 659.97 137.808 656.382 139.076C655.595 139.339 655.901 140.608 656.732 140.345Z" fill="black"/>
<path d="M605.325 149.27C607.557 148.526 609.832 147.782 612.063 147.039C612.85 146.776 612.5 145.507 611.713 145.77C609.482 146.514 607.207 147.257 604.975 148.001C604.144 148.264 604.494 149.532 605.325 149.27Z" fill="black"/>
<path d="M624.182 163.226C624.969 164.32 623.875 165.807 624.838 166.945C625.45 167.689 626.413 167.82 627.288 167.864C631.575 168.082 636.082 167.426 640.413 167.251C641.244 167.207 641.244 165.895 640.413 165.939C636.913 166.114 633.413 166.289 629.913 166.464C628.294 166.551 626.019 167.207 625.669 165.02C625.494 164.014 625.975 163.532 625.319 162.614C624.838 161.87 623.7 162.526 624.182 163.226Z" fill="black"/>
<path d="M625.8 163.444C630.788 163.532 635.731 163.619 640.719 163.707C640.5 163.488 640.281 163.269 640.063 163.051C640.15 163.969 640.15 164.669 639.975 165.632C639.8 166.463 641.069 166.813 641.244 165.982C641.463 164.976 641.506 164.057 641.375 163.051C641.331 162.701 641.113 162.394 640.719 162.394C635.731 162.307 630.788 162.219 625.8 162.132C624.969 162.132 624.969 163.444 625.8 163.444Z" fill="black"/>
<path d="M627.595 167.077C626.895 168.039 627.07 169.308 627.857 170.183C629.082 171.495 631.226 171.277 632.845 171.233C634.376 171.189 636.476 171.32 637.745 170.227C638.664 169.439 638.882 168.127 638.226 167.12C637.745 166.42 636.607 167.077 637.089 167.777C638.489 169.877 633.501 169.877 632.845 169.92C631.839 169.964 627.07 170.095 628.732 167.733C629.214 167.077 628.076 166.42 627.595 167.077Z" fill="black"/>
<path d="M628.732 162.395C629.52 158.808 626.895 155.964 625.188 153.076C623.088 149.533 621.207 145.683 620.726 141.526C620.288 137.895 620.988 133.958 623.176 130.939C625.757 127.395 630.264 125.995 634.507 125.951C643.214 125.82 644.876 136.539 644.832 143.276C644.832 147.958 643.301 151.501 640.457 155.133C638.532 157.583 636.957 160.208 637.613 163.401C637.788 164.233 639.057 163.883 638.882 163.051C638.007 158.851 641.813 156.051 643.782 152.814C645.357 150.276 646.014 147.301 646.145 144.326C646.364 139.033 645.576 132.208 642.12 127.964C638.532 123.501 631.926 124.026 627.157 126.17C621.863 128.489 619.282 134.001 619.282 139.601C619.282 142.97 620.288 146.295 621.688 149.358C622.52 151.195 623.526 152.989 624.62 154.739C625.976 156.926 628.032 159.333 627.463 162.089C627.288 162.876 628.557 163.226 628.732 162.395Z" fill="black"/>
<path d="M669.332 253.482C674.713 249.763 686.7 242.545 703.544 241.32C725.682 239.657 741.825 249.37 746.988 252.782C747.6 258.907 748.3 268.27 748.082 279.732C747.644 300.995 744.407 310.751 743.269 329.52C742.7 338.97 742.525 352.707 744.757 369.638C737.319 372.132 724.5 375.37 708.532 374.145C694.357 373.051 683.332 368.895 676.55 365.701C676.2 359.313 675.544 349.645 674.144 337.92C672.482 324.095 670.775 314.995 669.9 309.876C667.888 297.451 666.357 278.901 669.332 253.482Z" fill="#FFBA15"/>
<path d="M648.857 433.382C645.532 434.694 642.776 435.613 640.851 436.226C632.538 438.851 629.126 438.938 625.276 442.088C624.401 442.788 623.22 443.926 620.945 447.251C617.532 452.326 615.213 457.226 611.801 466.194C608.651 474.507 606.157 481.157 603.838 490.694C602.744 495.157 602.001 498.963 601.52 501.807C603.445 500.932 606.507 499.401 609.832 496.863C619.063 489.863 621.47 482.119 631.007 468.119C632.976 465.232 635.994 460.944 640.107 455.913C642.251 454.382 645.882 452.194 650.782 451.013C654.063 450.269 656.907 450.182 659.051 450.269C658.701 448.782 658.307 447.294 657.957 445.807C654.938 441.651 651.919 437.538 648.857 433.382Z" fill="black"/>
<path d="M641.944 425.245C642.513 425.551 643.388 425.989 644.351 426.645C648.507 429.532 650.388 433.295 651.744 435.876C657.913 447.689 659.138 446.726 663.032 456.001C664.651 459.851 665.744 463.132 666.444 465.407C669.157 464.357 673.138 462.739 677.907 460.507C689.019 455.301 697.026 450.226 721.701 432.595C742.351 417.807 725.332 429.532 757.138 405.514C758.276 404.682 766.194 398.689 773.588 388.582C778.488 381.932 779.976 377.82 780.413 373.926C780.719 371.432 781.507 365.045 777.394 359.751C774.682 356.251 771.138 354.851 769.651 354.326C766.019 352.97 761.076 352.445 752.544 355.114C743.838 357.87 737.757 361.982 726.732 370.207C718.201 376.595 712.994 380.751 708.576 384.164C694.138 395.407 681.976 404.901 666.357 413.651C660.669 416.757 652.444 421.045 641.944 425.245Z" fill="white"/>
<path opacity="0.18" d="M777.57 359.926C775.645 364.388 772.495 370.995 767.682 378.476C749.788 406.388 725.551 420.301 710.282 428.832C699.038 435.132 681.932 443.226 659.488 448.738C660.67 450.926 661.851 453.332 662.988 456.001C664.432 459.326 665.526 462.519 666.401 465.407C671.432 463.351 678.651 460.201 686.963 455.782C698.995 449.351 702.713 445.938 729.751 426.469C729.751 426.469 745.982 414.832 765.188 398.163C766.282 397.201 772.407 391.819 777.088 383.026C780.107 377.338 780.545 373.97 780.632 371.913C780.895 366.401 778.795 362.07 777.57 359.926Z" fill="#969696"/>
<path d="M643.126 425.595C662.463 416.845 680.707 405.907 697.638 393.132C706.038 386.832 714.176 380.182 722.619 373.97C730.757 367.976 739.201 361.982 748.344 357.564C757.007 353.407 769.519 351.132 776.519 359.62C783.519 368.107 779.057 379.788 773.457 387.62C767.507 395.976 759.719 402.757 751.713 409.013C743.182 415.707 734.432 422.182 725.726 428.701C707.176 442.657 688.144 456.482 666.269 464.751C665.482 465.057 665.832 466.326 666.619 466.02C686.876 458.363 704.769 445.982 722.051 433.12C731.238 426.251 740.426 419.338 749.526 412.338C757.707 406.082 765.801 399.476 772.232 391.382C777.963 384.207 783.082 375.107 780.807 365.57C778.663 356.689 770.307 352.139 761.557 352.489C751.276 352.882 741.782 359.226 733.469 364.695C724.457 370.645 715.926 377.295 707.394 383.945C697.288 391.82 687.094 399.52 676.201 406.345C665.351 413.17 654.063 419.207 642.382 424.457C641.682 424.807 642.338 425.945 643.126 425.595Z" fill="black"/>
<path d="M641.638 425.813C645.27 427.345 647.632 431.238 649.863 434.345C652.051 437.363 654.063 440.47 655.945 443.62C659.882 450.27 663.163 457.27 665.788 464.532C666.095 465.32 667.363 464.97 667.057 464.182C664.301 456.57 660.845 449.22 656.688 442.263C654.588 438.763 652.313 435.351 649.863 432.07C647.763 429.27 645.663 426.032 642.338 424.632C641.507 424.37 640.851 425.463 641.638 425.813Z" fill="black"/>
<path d="M648.682 432.726C644.7 434.126 640.763 435.526 636.782 436.97C633.194 438.239 629.3 439.288 625.888 440.995C623.044 442.395 621.469 444.889 619.982 447.601C618.057 451.057 616.307 454.557 614.6 458.101C608.125 471.926 603.532 486.582 600.863 501.588C600.775 502.026 601.169 502.595 601.65 502.376C607.557 500.32 612.063 496.032 615.869 491.22C620.507 485.357 624.619 479.057 628.688 472.801C632.407 467.114 635.644 460.464 640.894 455.957C643.519 453.726 646.538 452.501 649.907 451.801C653.013 451.145 656.075 450.62 658.7 448.695C659.4 448.214 658.744 447.076 658.044 447.557C655.244 449.57 651.875 449.964 648.594 450.751C645.794 451.407 643.257 452.501 640.982 454.251C636.125 457.97 633.063 463.526 629.869 468.601C625.757 475.076 621.469 481.507 616.919 487.72C612.807 493.32 608.082 498.789 601.344 501.107C601.607 501.37 601.869 501.632 602.132 501.895C604.713 487.501 609 473.457 615.082 460.157C616.569 456.92 618.144 453.77 619.807 450.62C621.513 447.382 623.132 443.751 626.544 442.045C630.132 440.295 634.2 439.201 637.919 437.889C641.594 436.576 645.313 435.264 648.988 433.951C649.819 433.732 649.513 432.464 648.682 432.726Z" fill="black"/>
<path d="M617.269 305.02C622.869 333.238 628.512 361.457 634.112 389.676C656.294 390.857 678.431 392.038 700.612 393.22C696.194 363.732 691.819 334.245 687.4 304.801C664.037 304.888 640.675 304.932 617.269 305.02Z" fill="white" stroke="black" stroke-width="3" stroke-miterlimit="10"/>
<path opacity="0.22" d="M667.406 304.845C668.762 312.807 669.812 321.426 670.381 330.701C671.824 354.063 669.724 374.67 666.618 391.426C677.949 392.038 689.281 392.651 700.656 393.22C696.237 363.732 691.862 334.245 687.443 304.801C680.749 304.845 674.056 304.845 667.406 304.845Z" fill="#898989"/>
<path d="M733.643 254.839C731.937 256.501 731.587 258.732 731.368 262.407C730.887 271.77 732.2 278.945 732.2 278.945C733.775 287.389 734.212 296.007 735.306 304.495C736.575 314.207 737.143 319.151 734.65 323.482C732.593 327.07 729.225 329.607 728.218 330.351C724.587 333.02 721.218 334.07 718.331 334.857C713.081 336.345 705.775 338.27 696.543 340.064C694.093 336.826 691.512 334.901 689.806 333.851C687.4 332.364 683.506 329.87 681.143 331.357C680.05 332.057 679.306 333.676 679.656 334.77C680.137 336.214 682.193 335.995 683.418 337.745C684.206 338.882 684.206 340.282 684.118 341.157C682.412 341.507 679.831 341.945 676.637 342.164C670.6 342.557 668.937 341.77 663.862 342.164C658.787 342.557 652.268 344.001 652.225 345.576C652.225 346.714 655.637 347.589 656.6 347.851C659.268 348.551 660.668 348.201 664.343 348.42C667.275 348.595 670.687 349.076 670.687 349.426C670.687 350.214 653.668 349.032 652.793 353.101C652.531 354.282 653.668 355.464 654.456 356.295C655.331 357.257 657.256 358.876 665.787 359.707C667.537 359.882 669.943 360.057 672.787 360.057C670.25 361.326 667.756 362.595 665.218 363.864C665.218 364.17 665.218 364.607 665.481 365.045C666.925 367.582 674.187 365.92 677.556 365.176C681.931 364.17 688.275 362.245 695.668 358.045C702.275 357.782 707.7 357.257 711.462 356.82C727.212 354.939 735.262 351.92 740.206 349.689C745.631 347.239 748.343 345.182 750.356 342.382C750.968 341.507 752.5 339.189 754.162 332.101C755.825 324.97 756.131 319.326 756.218 317.576C756.393 314.164 756.525 308.345 755.518 294.782C753.987 274.482 753.243 281.832 752.062 268.401C751.931 266.826 751.537 262.057 748.431 257.551C747.512 256.195 746.331 254.532 744.143 253.482C740.775 251.951 736.181 252.301 733.643 254.839Z" fill="white"/>
<path opacity="0.24" d="M742 252.826C742.875 255.932 744.056 260.482 745.106 266.039C745.762 269.539 747.643 280.476 746.987 308.782C746.55 326.632 745.631 329.082 744.187 331.445C740.293 337.745 733.949 340.457 721.306 345.926C710.806 350.432 703.849 353.451 693.743 355.026C689.106 355.77 681.974 356.47 672.831 360.145C671.474 360.67 664.387 363.557 664.693 364.914C664.956 365.964 669.593 365.745 673.662 365.526C678.387 365.264 680.837 365.132 683.987 364.214C686.524 363.47 690.943 361.764 695.493 357.695C702.581 357.739 708.487 357.257 712.862 356.732C719.862 355.901 727.781 354.939 737.056 351.089C742.962 348.639 747.118 346.845 750.356 342.426C751.231 341.245 752.893 338.62 754.556 330.264C755.825 323.92 756.35 317.664 756.35 309.876C756.35 305.939 755.781 299.245 754.687 285.857C753.768 274.964 754.643 287.082 751.625 266.214C751.318 264.07 750.837 260.701 748.343 257.551C746.331 254.926 743.75 253.526 742 252.826Z" fill="#898989"/>
<path d="M732.856 257.551C734.519 252.388 740.95 251.951 744.8 254.795C749.131 257.945 750.487 263.413 751.319 268.401C753.112 279.251 754.6 290.232 755.344 301.17C756.087 312.282 755.825 323.613 752.894 334.42C751.45 339.757 749.262 344.001 744.406 346.888C740.031 349.47 735.175 351.307 730.319 352.751C719.031 356.076 707.219 356.907 695.494 357.038C694.662 357.038 694.662 358.351 695.494 358.351C707.175 358.176 719.031 357.345 730.319 354.107C735.7 352.576 741.256 350.52 745.981 347.457C750.4 344.613 752.544 340.501 753.944 335.557C757.312 323.613 757.487 311.013 756.481 298.72C756 292.595 755.212 286.513 754.381 280.432C753.55 274.395 753.156 268.007 751.275 262.188C749.744 257.551 746.462 252.87 741.387 251.863C737.275 251.032 732.9 253.22 731.587 257.245C731.325 257.988 732.594 258.338 732.856 257.551Z" fill="black"/>
<path d="M731.981 255.801C729.837 262.495 730.625 269.801 731.325 276.67C732.068 283.889 733.206 291.02 734.037 298.239C734.475 301.826 734.825 305.414 735 309.045C735.218 312.764 735.481 316.745 734.868 320.464C733.643 327.464 727.037 330.701 721.087 333.151C713.387 336.301 705.25 338.358 696.981 339.364C696.15 339.451 696.15 340.764 696.981 340.676C704.287 339.801 711.506 338.139 718.418 335.601C723.887 333.589 730.231 331.226 733.818 326.326C737.756 320.945 736.618 312.764 736.137 306.551C735.568 298.633 734.3 290.801 733.337 282.926C732.243 274.351 730.493 264.595 733.206 256.151C733.468 255.364 732.2 255.014 731.981 255.801Z" fill="black"/>
<path d="M697.025 339.669C693 335.338 688.013 330.219 681.538 330.744C679.788 330.876 677.775 331.794 678.388 333.894C678.694 334.944 679.569 335.601 680.444 336.169C682.281 337.351 683.594 338.576 684.163 340.763C684.381 341.594 685.65 341.244 685.431 340.413C684.994 338.794 684.206 337.307 682.894 336.213C682.325 335.732 680.4 334.944 680.181 334.376C680.356 333.632 680.575 332.888 680.75 332.144C681.144 332.101 681.494 332.057 681.888 332.013C682.544 331.969 683.244 332.057 683.9 332.144C689.019 332.976 692.738 336.957 696.106 340.588C696.675 341.201 697.594 340.282 697.025 339.669Z" fill="black"/>
<path d="M683.987 340.544C678.562 342.469 672.525 341.113 666.881 341.332C664.3 341.419 661.719 341.682 659.137 342.076C657.125 342.382 654.194 342.426 652.531 343.826C649.95 345.969 653.187 348.157 655.331 348.419C661.062 349.207 667.012 349.076 672.787 349.382C673.619 349.426 673.619 348.113 672.787 348.069C668.544 347.851 664.256 347.632 660.012 347.413C658.875 347.369 657.737 347.326 656.6 347.238C656.031 347.194 651.35 346.801 653.581 344.701C654.194 344.132 655.769 344.044 656.556 343.869C657.519 343.694 658.481 343.519 659.444 343.344C663.819 342.688 668.281 342.469 672.7 342.644C676.594 342.819 680.487 343.126 684.25 341.813C685.125 341.551 684.775 340.282 683.987 340.544Z" fill="black"/>
<path d="M672.524 348.682C668.149 348.944 663.468 348.769 659.181 349.775C657.212 350.257 655.287 351.044 653.493 352.007C652.662 352.444 651.437 352.969 651.656 354.107C652.093 356.732 658.306 356.688 660.187 356.732C664.912 356.775 669.549 355.9 674.274 356.25C675.106 356.294 675.106 354.982 674.274 354.938C670.993 354.719 667.756 355.025 664.474 355.244C661.456 355.463 657.081 356.032 654.281 354.588C652.399 353.625 653.406 353.494 654.456 352.969C655.287 352.532 656.118 352.138 656.993 351.832C658.612 351.219 660.274 350.825 661.981 350.65C665.437 350.3 668.981 350.213 672.437 349.994C673.356 349.95 673.356 348.638 672.524 348.682Z" fill="black"/>
<path d="M654.149 356.863C659.837 359.794 666.137 361.019 672.481 360.319C673.312 360.232 673.312 358.919 672.481 359.007C666.356 359.663 660.274 358.569 654.806 355.725C654.062 355.375 653.406 356.469 654.149 356.863Z" fill="black"/>
<path d="M672.656 359.488C669.374 360.232 665.743 361.326 664.124 364.564C663.993 364.87 664.037 365.307 664.343 365.482C666.662 366.532 669.024 366.401 671.518 366.314C674.756 366.139 678.037 365.964 681.274 365.439C686.787 364.564 692.081 362.551 696.149 358.613C696.762 358.045 695.843 357.082 695.231 357.695C691.556 361.282 686.743 363.12 681.756 364.039C678.912 364.564 676.068 364.782 673.224 364.914C670.556 365.045 667.581 365.482 665.043 364.345C665.131 364.651 665.218 364.957 665.262 365.264C666.706 362.332 670.031 361.457 673.006 360.801C673.793 360.538 673.443 359.27 672.656 359.488Z" fill="black"/>
<path d="M670.687 196.913C669.375 200.02 669.2 203.082 668.937 206.801C668.806 208.682 668.544 214.588 670.512 222.026C671.737 226.663 673.05 231.695 677.119 236.726C680.662 241.101 684.731 243.551 687.312 244.82C689.106 244.295 691.031 243.682 693.087 242.851C695.1 242.063 696.937 241.188 698.6 240.357C698.687 241.976 698.994 244.863 700.656 247.97C702.056 250.638 703.85 252.388 704.987 253.351C706.3 252.782 707.787 252.038 709.362 250.901C713.081 248.232 715.137 244.951 716.231 242.895C715.619 240.357 715.05 237.47 714.7 234.276C714.087 228.588 714.262 223.557 714.7 219.445C715.662 219.445 717.194 219.313 718.769 218.526C722.312 216.732 723.494 213.013 724.019 211.263C725.287 207.151 724.587 203.651 724.106 201.42C723.669 199.451 722.181 192.582 716.275 187.463C708.881 181.12 699.65 181.907 695.669 182.213C687.181 182.957 674.8 187.157 670.687 196.913Z" fill="white"/>
<path opacity="0.29" d="M708.006 189.914C708.575 192.583 709.1 196.17 709.187 200.37C709.187 201.595 709.275 208.726 707.043 216.82C703.325 230.208 695.056 239.526 691.162 243.551C693.831 242.545 697.375 240.926 701.093 238.17C705.687 234.757 708.618 230.951 710.412 228.326C711.025 234.976 711.637 241.582 712.25 248.232C713.562 246.745 714.875 245.257 716.187 243.77C715.4 239.832 714.7 235.151 714.568 229.814C714.437 225.789 714.656 222.114 715.006 218.876C715.662 219.051 716.843 219.226 718.2 218.789C718.55 218.701 719.862 218.264 721.393 216.514C723.843 213.757 724.368 210.52 724.587 209.164C724.806 207.72 724.981 205.576 724.368 202.295C723.406 197.001 722.137 190.089 717.237 188.251C713.606 186.983 709.843 188.82 708.006 189.914Z" fill="#898989"/>
<path d="M669.025 203.17C667.756 200.282 666.487 196.214 667.45 191.795C668.894 185.276 674.231 181.864 679.656 177.314C684.731 173.114 691.469 166.639 698.337 156.882C697.681 160.601 696.981 164.276 696.325 167.995C699.125 165.501 702.231 162.92 705.6 160.339C707.787 158.676 709.975 157.145 712.075 155.701C711.462 156.532 709.931 158.851 709.844 162.176C709.756 165.851 711.419 168.389 711.987 169.22C712.6 168.389 713.606 167.164 714.875 165.632C716.669 163.532 717.194 163.095 718.112 161.782C719.994 159.114 720.256 157.364 720.606 157.407C721.175 157.495 721.394 161.432 720.344 177.139C722.4 174.82 724.456 172.457 726.469 170.139C726.819 175.257 727.212 180.376 727.562 185.495C728 187.945 728.35 191.532 727.825 195.732C727.212 200.414 725.769 204.045 724.587 206.451C723.669 205.62 722.312 204.657 720.562 204.57C718.462 204.482 717.762 205.664 716.406 205.576C713.475 205.357 713.037 199.539 709.406 194.945C705.862 190.439 700.744 188.995 697.506 188.076C694.487 187.245 685.256 184.664 677.294 190.22C671.256 194.42 669.506 201.026 669.025 203.17Z" fill="#2F4EBB"/>
<path d="M670.118 196.564C667.931 200.808 668.193 205.708 668.368 210.345C668.587 215.551 669.287 220.801 670.862 225.789C673.487 234.058 678.781 241.626 686.787 245.345C687.531 245.695 688.231 244.558 687.443 244.208C679.743 240.62 674.625 233.401 672.131 225.439C670.687 220.933 670.031 216.208 669.768 211.526C669.506 206.801 669.025 201.508 671.256 197.176C671.65 196.476 670.512 195.82 670.118 196.564Z" fill="black"/>
<path d="M687.487 245.432C700.394 242.063 710.981 232.219 715.312 219.663C715.575 218.876 714.306 218.526 714.044 219.313C709.844 231.476 699.562 240.969 687.137 244.163C686.306 244.382 686.656 245.651 687.487 245.432Z" fill="black"/>
<path d="M714.394 219.751C717.456 219.708 720.3 219.314 722.05 216.558C723.669 214.02 725.812 210.17 725.462 207.064C725.2 204.701 722.794 203.476 720.65 203.389C718.112 203.301 715.794 204.658 714.525 206.801C714.087 207.545 715.225 208.201 715.662 207.458C716.712 205.708 718.594 204.614 720.65 204.701C721.437 204.745 722.4 204.964 723.056 205.445C724.85 206.801 724.062 208.945 723.537 210.564C722.925 212.358 722.006 214.283 720.912 215.901C719.337 218.22 716.931 218.395 714.394 218.439C713.519 218.439 713.519 219.751 714.394 219.751Z" fill="black"/>
<path d="M714.262 218.876C713.737 226.97 713.343 235.151 715.575 243.07C715.793 243.901 717.062 243.551 716.843 242.72C714.656 234.933 715.093 226.883 715.575 218.876C715.618 218.045 714.306 218.045 714.262 218.876Z" fill="black"/>
<path d="M697.943 240.532C698.337 243.551 699.168 246.482 700.481 249.239C701.181 250.77 702.362 254.139 704.418 254.139C706.649 254.139 709.143 251.995 710.718 250.595C713.037 248.451 715.049 245.957 717.149 243.551C717.718 242.939 716.799 241.976 716.231 242.632C714.699 244.382 713.168 246.176 711.549 247.926C709.931 249.632 707.831 251.907 705.468 252.52C703.981 252.914 703.543 252.082 702.843 250.901C702.274 249.939 701.749 248.932 701.312 247.926C700.218 245.476 699.562 242.851 699.212 240.182C699.081 239.351 697.812 239.701 697.943 240.532Z" fill="black"/>
<path d="M682.675 194.639C682.018 203.389 681.8 212.182 682.106 220.932C682.106 221.545 683.025 221.895 683.331 221.282C684.556 218.701 685.781 216.12 687.006 213.539C687.356 212.795 686.219 212.095 685.869 212.882C684.643 215.464 683.419 218.045 682.193 220.626C682.587 220.757 683.025 220.845 683.418 220.976C683.112 212.182 683.287 203.432 683.987 194.682C684.075 193.807 682.762 193.807 682.675 194.639Z" fill="black"/>
<path d="M686.7 228.414C685.65 227.758 685.038 226.358 685.65 225.177C686.088 224.389 686.963 223.908 687.706 223.427C688.494 222.902 689.238 222.42 689.85 221.72C690.594 220.889 690.988 219.839 691.513 218.877C692.519 216.952 694.575 214.458 696.806 216.558C699.475 219.095 697.113 224.827 694.925 227.014C692.694 229.202 689.281 229.683 686.525 228.327C685.781 227.977 685.081 229.07 685.869 229.464C689.369 231.17 693.744 230.514 696.325 227.452C698.863 224.433 701.181 217.914 697.156 215.114C695.625 214.064 693.875 214.239 692.431 215.377C690.506 216.952 690.2 219.664 688.45 221.327C686.919 222.77 684.513 223.339 684.163 225.702C683.9 227.32 684.731 228.72 686.044 229.595C686.744 229.989 687.4 228.852 686.7 228.414Z" fill="black"/>
<path d="M677.075 206.101C677.606 206.101 678.037 204.71 678.037 202.995C678.037 201.279 677.606 199.889 677.075 199.889C676.543 199.889 676.112 201.279 676.112 202.995C676.112 204.71 676.543 206.101 677.075 206.101Z" fill="black"/>
<path d="M692.694 204.088C693.226 204.088 693.656 202.698 693.656 200.982C693.656 199.267 693.226 197.876 692.694 197.876C692.162 197.876 691.731 199.267 691.731 200.982C691.731 202.698 692.162 204.088 692.694 204.088Z" fill="black"/>
</svg>
