<svg width="543" height="451" viewBox="0 0 543 451" fill="none" xmlns="http://www.w3.org/2000/svg">
<path d="M155.764 418.302C162.461 418.302 169.158 418.302 175.855 418.302C176.57 418.302 176.57 417.175 175.855 417.175C169.158 417.175 162.461 417.175 155.764 417.175C155.049 417.175 155.049 418.302 155.764 418.302Z" fill="#161616"/>
<path d="M244.07 417.626C249.037 417.626 254.003 417.626 258.97 417.626C259.685 417.626 259.685 416.498 258.97 416.498C254.003 416.498 249.037 416.498 244.07 416.498C243.318 416.498 243.318 417.626 244.07 417.626Z" fill="#161616"/>
<path d="M266.193 416.949C269.091 416.949 271.95 416.949 274.847 416.949C275.562 416.949 275.562 415.822 274.847 415.822C271.95 415.822 269.091 415.822 266.193 415.822C265.479 415.822 265.479 416.949 266.193 416.949Z" fill="#161616"/>
<path d="M230.751 371.887H159.301C156.818 371.887 154.786 369.858 154.786 367.377V365.047C154.786 362.566 156.818 360.537 159.301 360.537H230.751C233.234 360.537 235.266 362.566 235.266 365.047V367.377C235.266 369.858 233.234 371.887 230.751 371.887Z" fill="#E5E5E5" stroke="#161616" stroke-width="2" stroke-miterlimit="10"/>
<path d="M237.749 383.839H166.299C163.816 383.839 161.784 381.809 161.784 379.329V376.998C161.784 374.518 163.816 372.488 166.299 372.488H237.749C240.232 372.488 242.264 374.518 242.264 376.998V379.329C242.264 381.809 240.232 383.839 237.749 383.839Z" fill="#2F4EBB" stroke="#161616" stroke-width="2" stroke-miterlimit="10"/>
<path d="M221.27 395.489H149.82C147.336 395.489 145.305 393.46 145.305 390.979V388.649C145.305 386.169 147.336 384.139 149.82 384.139H221.27C223.753 384.139 225.785 386.169 225.785 388.649V390.979C225.785 393.46 223.753 395.489 221.27 395.489Z" fill="#B6B6B6" stroke="#161616" stroke-width="2" stroke-miterlimit="10"/>
<path d="M229.999 406.464H158.586C156.103 406.464 154.071 404.434 154.071 401.954V399.624C154.071 397.143 156.103 395.114 158.586 395.114H230.036C232.519 395.114 234.551 397.143 234.551 399.624V401.954C234.514 404.434 232.482 406.464 229.999 406.464Z" fill="#FFBA15" stroke="#161616" stroke-width="2" stroke-miterlimit="10"/>
<path d="M237.749 417.814H166.299C163.816 417.814 161.784 415.784 161.784 413.304V410.974C161.784 408.493 163.816 406.464 166.299 406.464H237.749C240.232 406.464 242.264 408.493 242.264 410.974V413.304C242.264 415.784 240.232 417.814 237.749 417.814Z" fill="#949494" stroke="#161616" stroke-width="2" stroke-miterlimit="10"/>
<path d="M209.869 365.423C209.869 366.964 209.869 368.542 209.869 370.083C209.869 370.609 210.735 370.647 210.735 370.083C210.735 368.542 210.735 366.964 210.735 365.423C210.697 364.859 209.869 364.859 209.869 365.423Z" fill="#161616"/>
<path d="M212.39 366.25C212.39 367.678 212.39 369.068 212.39 370.496C212.39 371.023 213.255 371.06 213.255 370.496C213.255 369.068 213.255 367.678 213.255 366.25C213.255 365.723 212.39 365.723 212.39 366.25Z" fill="#161616"/>
<path d="M220.893 363.919C220.893 365.911 220.893 367.866 220.893 369.858C220.893 370.384 221.758 370.421 221.758 369.858C221.758 367.866 221.758 365.911 221.758 363.919C221.758 363.393 220.893 363.393 220.893 363.919Z" fill="#161616"/>
<path d="M222.586 367.302C222.586 368.091 222.586 368.843 222.586 369.632C222.586 370.158 223.451 370.196 223.451 369.632C223.451 368.843 223.451 368.091 223.451 367.302C223.451 366.776 222.586 366.776 222.586 367.302Z" fill="#161616"/>
<path d="M164.192 363.769C164.192 365.949 164.192 368.129 164.192 370.346C164.192 370.872 165.058 370.91 165.058 370.346C165.058 368.166 165.058 365.986 165.058 363.769C165.02 363.205 164.192 363.205 164.192 363.769Z" fill="#161616"/>
<path d="M160.693 365.423C160.693 366.701 160.693 368.016 160.693 369.294C160.693 369.82 161.559 369.858 161.559 369.294C161.559 368.016 161.559 366.701 161.559 365.423C161.559 364.897 160.693 364.897 160.693 365.423Z" fill="#161616"/>
<path d="M174.765 364.032C174.765 365.799 174.765 367.565 174.765 369.294C174.765 369.82 175.63 369.858 175.63 369.294C175.63 367.527 175.63 365.761 175.63 364.032C175.592 363.468 174.765 363.468 174.765 364.032Z" fill="#161616"/>
<path d="M170.89 367.114C170.89 368.279 170.89 369.444 170.89 370.609C170.89 371.135 171.755 371.173 171.755 370.609C171.755 369.444 171.755 368.279 171.755 367.114C171.717 366.55 170.89 366.55 170.89 367.114Z" fill="#161616"/>
<path d="M190.604 364.145C190.604 366.438 190.604 368.692 190.604 370.985C190.604 371.511 191.47 371.549 191.47 370.985C191.47 368.692 191.47 366.438 191.47 364.145C191.47 363.619 190.604 363.619 190.604 364.145Z" fill="#161616"/>
<path d="M193.201 366.738C193.201 367.903 193.201 369.068 193.201 370.233C193.201 370.76 194.067 370.797 194.067 370.233C194.067 369.068 194.067 367.903 194.067 366.738C194.029 366.174 193.201 366.174 193.201 366.738Z" fill="#161616"/>
<path d="M197.039 363.619C197.039 365.911 197.039 368.166 197.039 370.459C197.039 370.985 197.904 371.023 197.904 370.459C197.904 368.166 197.904 365.911 197.904 363.619C197.904 363.093 197.039 363.093 197.039 363.619Z" fill="#161616"/>
<path d="M171.905 375.082C171.905 377.788 171.905 380.494 171.905 383.2C171.905 383.726 172.771 383.763 172.771 383.2C172.771 380.494 172.771 377.788 172.771 375.082C172.771 374.556 171.905 374.556 171.905 375.082Z" fill="#161616"/>
<path d="M176.57 377.788C176.57 379.704 176.57 381.659 176.57 383.576C176.57 384.102 177.436 384.139 177.436 383.576C177.436 381.659 177.436 379.704 177.436 377.788C177.398 377.261 176.57 377.261 176.57 377.788Z" fill="#161616"/>
<path d="M191.658 376.247C191.658 378.163 191.658 380.118 191.658 382.035C191.658 382.561 192.524 382.598 192.524 382.035C192.524 380.118 192.524 378.163 192.524 376.247C192.486 375.721 191.658 375.721 191.658 376.247Z" fill="#161616"/>
<path d="M201.44 374.18C201.44 377.299 201.44 380.456 201.44 383.576C201.44 384.102 202.306 384.139 202.306 383.576C202.306 380.456 202.306 377.299 202.306 374.18C202.268 373.653 201.44 373.653 201.44 374.18Z" fill="#161616"/>
<path d="M210.32 377.938C210.32 378.953 210.32 380.005 210.32 381.02C210.32 381.546 211.186 381.584 211.186 381.02C211.186 380.005 211.186 378.953 211.186 377.938C211.186 377.374 210.32 377.374 210.32 377.938Z" fill="#161616"/>
<path d="M154.108 387.334C154.108 389.814 154.108 392.295 154.108 394.813C154.108 395.339 154.974 395.377 154.974 394.813C154.974 392.332 154.974 389.852 154.974 387.334C154.974 386.77 154.108 386.77 154.108 387.334Z" fill="#161616"/>
<path d="M173.975 387.597C173.975 390.19 173.975 392.746 173.975 395.339C173.975 395.865 174.84 395.903 174.84 395.339C174.84 392.746 174.84 390.19 174.84 387.597C174.84 387.033 173.975 387.033 173.975 387.597Z" fill="#161616"/>
<path d="M165.734 388.236C165.734 389.965 165.734 391.656 165.734 393.385C165.734 393.911 166.6 393.948 166.6 393.385C166.6 391.656 166.6 389.965 166.6 388.236C166.562 387.672 165.734 387.672 165.734 388.236Z" fill="#161616"/>
<path d="M168.557 386.545C168.557 387.973 168.557 389.363 168.557 390.792C168.557 391.318 169.422 391.355 169.422 390.792C169.422 389.363 169.422 387.973 169.422 386.545C169.422 386.018 168.557 386.018 168.557 386.545Z" fill="#161616"/>
<path d="M195.91 386.695C195.91 389.326 195.91 391.919 195.91 394.55C195.91 395.076 196.776 395.114 196.776 394.55C196.776 391.919 196.776 389.326 196.776 386.695C196.738 386.131 195.91 386.131 195.91 386.695Z" fill="#161616"/>
<path d="M188.799 386.545C188.799 387.183 188.799 387.822 188.799 388.461C188.799 388.987 189.664 389.025 189.664 388.461C189.664 387.822 189.664 387.183 189.664 386.545C189.664 386.018 188.799 386.018 188.799 386.545Z" fill="#161616"/>
<path d="M212.766 384.252C212.766 386.733 212.766 389.213 212.766 391.731C212.766 392.257 213.631 392.295 213.631 391.731C213.631 389.251 213.631 386.77 213.631 384.252C213.631 383.688 212.766 383.688 212.766 384.252Z" fill="#161616"/>
<path d="M216.528 389.626C216.528 391.13 216.528 392.633 216.528 394.136C216.528 394.663 217.394 394.7 217.394 394.136C217.394 392.633 217.394 391.13 217.394 389.626C217.356 389.1 216.528 389.1 216.528 389.626Z" fill="#161616"/>
<path d="M202.983 386.545C202.983 388.724 202.983 390.904 202.983 393.122C202.983 393.648 203.849 393.685 203.849 393.122C203.849 390.942 203.849 388.762 203.849 386.545C203.849 386.018 202.983 386.018 202.983 386.545Z" fill="#161616"/>
<path d="M161.333 396.354C161.333 399.135 161.333 401.916 161.333 404.735C161.333 405.261 162.198 405.299 162.198 404.735C162.198 401.954 162.198 399.173 162.198 396.354C162.198 395.79 161.333 395.79 161.333 396.354Z" fill="#161616"/>
<path d="M167.879 406.238C167.879 403.457 167.879 400.676 167.879 397.857C167.879 397.331 167.014 397.293 167.014 397.857C167.014 400.638 167.014 403.42 167.014 406.238C167.014 406.802 167.879 406.802 167.879 406.238Z" fill="#161616"/>
<path d="M170.588 406.013C170.588 404.923 170.588 403.87 170.588 402.781C170.588 402.254 169.723 402.217 169.723 402.781C169.723 403.87 169.723 404.923 169.723 406.013C169.723 406.539 170.588 406.539 170.588 406.013Z" fill="#161616"/>
<path d="M176.57 395.715C176.57 398.646 176.57 401.54 176.57 404.472C176.57 404.998 177.436 405.036 177.436 404.472C177.436 401.54 177.436 398.646 177.436 395.715C177.398 395.151 176.57 395.151 176.57 395.715Z" fill="#161616"/>
<path d="M178.753 399.811C178.753 401.202 178.753 402.555 178.753 403.946C178.753 404.472 179.618 404.509 179.618 403.946C179.618 402.555 179.618 401.202 179.618 399.811C179.581 399.285 178.753 399.285 178.753 399.811Z" fill="#161616"/>
<path d="M181.726 398.271C181.726 399.774 181.726 401.277 181.726 402.781C181.726 403.307 182.591 403.344 182.591 402.781C182.591 401.277 182.591 399.774 182.591 398.271C182.553 397.744 181.726 397.744 181.726 398.271Z" fill="#161616"/>
<path d="M191.395 395.715C191.395 398.759 191.395 401.803 191.395 404.848C191.395 405.374 192.26 405.411 192.26 404.848C192.26 401.803 192.26 398.759 192.26 395.715C192.222 395.151 191.395 395.151 191.395 395.715Z" fill="#161616"/>
<path d="M201.178 399.06C201.178 400.751 201.178 402.405 201.178 404.096C201.178 404.622 202.043 404.66 202.043 404.096C202.043 402.405 202.043 400.751 202.043 399.06C202.043 398.496 201.178 398.496 201.178 399.06Z" fill="#161616"/>
<path d="M214.572 395.452C214.572 398.684 214.572 401.879 214.572 405.111C214.572 405.637 215.438 405.675 215.438 405.111C215.438 401.879 215.438 398.684 215.438 395.452C215.438 394.888 214.572 394.888 214.572 395.452Z" fill="#161616"/>
<path d="M218.711 400.187C218.711 401.728 218.711 403.269 218.711 404.81C218.711 405.336 219.576 405.374 219.576 404.81C219.576 403.269 219.576 401.728 219.576 400.187C219.576 399.661 218.711 399.661 218.711 400.187Z" fill="#161616"/>
<path d="M225.822 395.94C225.822 398.346 225.822 400.751 225.822 403.156C225.822 403.683 226.688 403.72 226.688 403.156C226.688 400.751 226.688 398.346 226.688 395.94C226.65 395.414 225.822 395.414 225.822 395.94Z" fill="#161616"/>
<path d="M171.867 417.476C171.867 414.695 171.867 411.913 171.867 409.095C171.867 408.568 171.002 408.531 171.002 409.095C171.002 411.876 171.002 414.657 171.002 417.476C171.002 418.002 171.867 418.002 171.867 417.476Z" fill="#161616"/>
<path d="M174.953 417.325C174.953 415.897 174.953 414.507 174.953 413.078C174.953 412.552 174.088 412.515 174.088 413.078C174.088 414.507 174.088 415.897 174.088 417.325C174.126 417.889 174.953 417.889 174.953 417.325Z" fill="#161616"/>
<path d="M183.645 407.554C183.645 410.786 183.645 413.98 183.645 417.213C183.645 417.739 184.51 417.776 184.51 417.213C184.51 413.98 184.51 410.786 184.51 407.554C184.51 406.99 183.645 406.99 183.645 407.554Z" fill="#161616"/>
<path d="M191.395 409.095C191.395 411.086 191.395 413.041 191.395 415.033C191.395 415.559 192.26 415.596 192.26 415.033C192.26 413.041 192.26 411.086 192.26 409.095C192.222 408.531 191.395 408.531 191.395 409.095Z" fill="#161616"/>
<path d="M188.686 410.26C188.686 411.049 188.686 411.801 188.686 412.59C188.686 413.116 189.551 413.154 189.551 412.59C189.551 411.801 189.551 411.049 189.551 410.26C189.513 409.696 188.686 409.696 188.686 410.26Z" fill="#161616"/>
<path d="M205.429 406.652C205.429 409.997 205.429 413.341 205.429 416.686C205.429 417.213 206.294 417.25 206.294 416.686C206.294 413.341 206.294 409.997 206.294 406.652C206.294 406.088 205.429 406.088 205.429 406.652Z" fill="#161616"/>
<path d="M208.665 411.011C208.665 412.515 208.665 414.018 208.665 415.521C208.665 416.047 209.53 416.085 209.53 415.521C209.53 414.018 209.53 412.515 209.53 411.011C209.493 410.485 208.665 410.485 208.665 411.011Z" fill="#161616"/>
<path d="M216.904 407.14C216.904 410.26 216.904 413.417 216.904 416.536C216.904 417.062 217.77 417.1 217.77 416.536C217.77 413.417 217.77 410.26 217.77 407.14C217.77 406.614 216.904 406.614 216.904 407.14Z" fill="#161616"/>
<path d="M231.88 407.93C231.88 410.636 231.88 413.342 231.88 416.048C231.88 416.574 232.745 416.611 232.745 416.048C232.745 413.342 232.745 410.636 232.745 407.93C232.708 407.403 231.88 407.403 231.88 407.93Z" fill="#161616"/>
<path d="M234.175 411.425C234.175 412.703 234.175 414.018 234.175 415.296C234.175 415.822 235.04 415.86 235.04 415.296C235.04 414.018 235.04 412.703 235.04 411.425C235.04 410.861 234.175 410.861 234.175 411.425Z" fill="#161616"/>
<path d="M224.543 382.974C224.543 380.982 224.543 378.953 224.543 376.961C224.543 376.435 223.678 376.397 223.678 376.961C223.678 378.953 223.678 380.982 223.678 382.974C223.715 383.5 224.543 383.538 224.543 382.974Z" fill="#161616"/>
<path d="M229.735 374.518C229.735 377.224 229.735 379.892 229.735 382.598C229.735 383.125 230.601 383.162 230.601 382.598C230.601 379.892 230.601 377.224 230.601 374.518C230.563 373.992 229.735 373.954 229.735 374.518Z" fill="#161616"/>
<path d="M233.648 358.432C235.718 359.635 236.846 361.89 236.658 364.258C236.621 364.784 237.448 364.784 237.524 364.258C237.749 361.589 236.432 359.071 234.1 357.718C233.611 357.417 233.159 358.132 233.648 358.432Z" fill="#161616"/>
<path d="M147.487 386.357C146.471 388.01 146.283 389.965 146.96 391.769C147.148 392.257 147.976 392.069 147.788 391.543C147.186 389.927 147.337 388.273 148.24 386.77C148.503 386.319 147.788 385.868 147.487 386.357Z" fill="#161616"/>
<path d="M143.235 382.11C141.053 384.853 139.962 388.123 140.037 391.618C140.037 392.145 140.902 392.182 140.902 391.618C140.827 388.349 141.843 385.267 143.875 382.673C144.176 382.298 143.574 381.696 143.235 382.11Z" fill="#161616"/>
<path d="M233.271 394.099C234.776 394.888 235.717 396.391 235.717 398.12C235.717 398.646 236.582 398.684 236.582 398.12C236.582 396.128 235.491 394.287 233.723 393.385C233.234 393.122 232.782 393.836 233.271 394.099Z" fill="#161616"/>
<path opacity="0.15" d="M194.255 361.439C196.55 361.138 201.93 360.762 207.047 363.844C208.515 364.709 209.644 365.686 210.584 366.625C210.471 368.354 210.321 370.083 210.208 371.812C204.677 372.037 199.184 372.263 193.653 372.451C194.405 372.488 200.425 372.827 203.699 377.712C205.129 379.855 205.467 381.997 205.542 383.275C205.354 384.628 204.752 387.522 202.57 390.303C199.936 393.648 196.625 394.888 195.346 395.302C195.948 395.602 198.808 397.218 199.786 400.676C200.35 402.705 200.012 404.472 199.786 405.299C196.136 409.245 192.487 413.191 188.837 417.175C205.58 417.363 222.361 417.551 239.104 417.739C239.744 417.4 240.948 416.611 241.7 415.145C242.942 412.74 242.34 409.846 240.948 408.117C238.314 404.772 232.331 405.938 231.654 406.088C231.842 405.975 234.89 403.683 234.627 399.962C234.438 397.293 232.595 395.677 232.219 395.339C229.547 395.151 226.913 394.963 224.242 394.775C224.505 394.512 226.5 392.332 226.086 389.213C225.747 386.808 224.129 384.778 221.834 383.839C225.408 383.801 228.494 383.726 230.939 383.651C238.05 383.463 239.668 383.35 240.948 381.997C242.678 380.118 243.243 376.472 241.512 374.217C240.571 373.015 239.292 372.564 238.54 372.376C235.755 372.263 232.971 372.113 230.187 372C230.601 372 232.595 372.037 234.1 370.534C235.567 369.031 235.454 367.039 235.417 366.099C235.379 365.498 235.153 363.017 233.385 361.476C231.541 359.86 229.171 360.311 224.844 360.537C221.458 360.725 218.034 360.387 214.648 360.537C207.574 360.838 200.425 361.176 194.255 361.439Z" fill="#3D3D3D"/>
<path d="M246.439 407.817C272.363 407.817 298.324 407.817 324.248 407.817C331.622 407.817 339.035 407.817 346.409 407.817C347.124 407.817 347.124 406.689 346.409 406.689C320.485 406.689 294.524 406.689 268.601 406.689C261.226 406.689 253.814 406.689 246.439 406.689C245.725 406.689 245.725 407.817 246.439 407.817Z" fill="#E8E8E8"/>
<path d="M356.907 408.756C374.29 407.403 391.635 407.027 409.055 408.493C409.77 408.568 409.77 407.441 409.055 407.366C391.635 405.9 374.328 406.276 356.907 407.629C356.192 407.666 356.192 408.794 356.907 408.756Z" fill="#E8E8E8"/>
<path d="M404.014 414.695C413.382 415.521 422.676 413.191 432.007 412.59C441.601 411.988 451.233 412.59 460.715 414.281C461.43 414.394 461.73 413.304 461.016 413.191C451.685 411.537 442.203 410.899 432.722 411.425C423.165 411.951 413.608 414.431 404.014 413.567C403.299 413.492 403.299 414.619 404.014 414.695Z" fill="#E8E8E8"/>
<path d="M409.883 407.103C405.97 404.096 402.32 400.714 399.084 396.993C398.369 396.166 397.692 395.339 397.015 394.512C396.526 393.911 395.999 393.272 395.66 392.596C395.209 391.694 395.397 391.055 395.397 390.04C395.397 388.273 394.381 388.349 393.215 387.146C391.446 385.304 391.183 382.636 390.656 380.268C390.167 378.051 389.264 376.096 388.248 374.105C385.878 369.331 384.787 363.882 383.357 358.771C383.244 358.996 383.094 359.222 382.981 359.447C387.947 358.771 393.328 362.491 397.278 365.197C399.31 366.588 401.229 368.091 403.072 369.707C404.916 371.361 407.738 373.691 406.722 376.472C406.572 376.848 406.948 377.186 407.249 377.186C410.334 377.299 412.667 380.381 414.322 382.674C415.94 384.853 417.257 387.259 418.235 389.777C420.192 394.851 420.794 400.375 419.928 405.75C419.816 406.464 420.907 406.764 421.02 406.05C421.998 400.037 421.245 393.873 418.8 388.236C417.596 385.492 416.015 382.899 414.097 380.569C412.328 378.427 410.184 376.134 407.211 376.021C407.399 376.247 407.587 376.51 407.738 376.735C408.603 374.405 407.249 372.263 405.669 370.609C403.637 368.467 401.266 366.625 398.858 364.934C394.419 361.777 388.361 357.53 382.604 358.357C382.303 358.395 382.153 358.771 382.228 359.034C383.696 364.258 384.787 369.745 387.232 374.631C388.474 377.149 389.302 379.517 389.904 382.26C390.318 384.29 390.92 386.394 392.425 387.935C393.064 388.612 394.193 388.988 394.306 389.965C394.381 390.867 394.08 391.506 394.419 392.483C395.134 394.475 396.977 396.279 398.332 397.82C401.643 401.616 405.368 405.036 409.356 408.117C409.883 408.493 410.447 407.516 409.883 407.103Z" fill="#E8E8E8"/>
<path d="M416.317 382.335C417.634 377.487 421.547 373.278 424.632 369.444C425.46 368.429 426.25 367.452 427.078 366.475C427.755 365.648 428.62 364.107 429.787 363.919C430.276 363.844 430.501 364.145 431.028 363.807C431.593 363.468 431.818 362.792 432.119 362.266C434.377 358.169 437.989 355.2 441.789 352.532C444.761 350.427 447.696 348.322 449.163 344.865C448.787 344.752 448.449 344.677 448.072 344.564C446.53 350.277 446.53 355.952 447.508 361.777C448.524 367.828 448.75 373.691 447.094 379.704C443.934 391.167 435.242 398.872 426.4 406.163C425.836 406.614 426.626 407.403 427.19 406.952C435.844 399.812 444.385 392.257 447.809 381.208C449.427 375.946 449.878 370.384 449.126 364.934C448.674 361.702 447.959 358.545 447.847 355.238C447.734 351.705 448.185 348.21 449.126 344.827C449.314 344.113 448.298 343.887 448.035 344.526C446.304 348.661 442.052 350.765 438.666 353.358C436.935 354.674 435.317 356.14 433.85 357.756C433.21 358.47 432.608 359.259 432.082 360.048C431.668 360.687 431.028 362.416 430.351 362.642C429.899 362.792 429.41 362.529 428.884 362.754C428.131 363.055 427.642 363.957 427.153 364.521C425.497 366.513 423.842 368.467 422.262 370.496C419.515 373.954 416.392 377.637 415.188 381.959C415.038 382.749 416.129 383.049 416.317 382.335Z" fill="#E8E8E8"/>
<path d="M387.646 365.235C391.032 367.64 393.591 370.872 396.112 374.142C398.783 377.525 401.417 380.945 403.9 384.478C408.679 391.243 412.855 398.496 415.075 406.539C415.263 407.253 416.354 406.952 416.166 406.238C413.871 397.895 409.506 390.378 404.502 383.388C402.057 379.967 399.498 376.66 396.902 373.353C394.306 370.008 391.672 366.738 388.173 364.295C387.608 363.844 387.044 364.821 387.646 365.235Z" fill="#E8E8E8"/>
<path d="M444.084 354.298C438.102 370.008 424.293 381.734 420.343 398.346C420.192 399.06 421.246 399.36 421.434 398.646C425.347 382.035 439.193 370.309 445.175 354.599C445.439 353.922 444.347 353.622 444.084 354.298Z" fill="#E8E8E8"/>
<path d="M434.829 356.966C435.393 362.191 435.054 367.377 433.813 372.451C433.625 373.165 434.716 373.466 434.904 372.752C436.145 367.565 436.522 362.266 435.957 356.966C435.882 356.252 434.753 356.252 434.829 356.966Z" fill="#E8E8E8"/>
<path d="M438.252 367.603C441.789 365.385 445.137 362.905 448.298 360.161C448.862 359.673 448.034 358.883 447.508 359.372C444.422 362.04 441.149 364.483 437.688 366.625C437.048 367.039 437.612 368.016 438.252 367.603Z" fill="#E8E8E8"/>
<path d="M388.06 375.119C390.657 375.044 394.306 374.292 396.677 375.533C397.316 375.871 397.881 374.894 397.241 374.555C394.57 373.127 390.958 373.879 388.06 373.992C387.308 374.029 387.308 375.157 388.06 375.119Z" fill="#E8E8E8"/>
<path d="M402.283 369.407C401.831 373.052 401.907 376.623 402.433 380.268C402.546 380.982 403.637 380.682 403.524 379.968C402.998 376.435 402.998 372.939 403.412 369.407C403.524 368.693 402.396 368.693 402.283 369.407Z" fill="#E8E8E8"/>
<path d="M379.144 420.595C385.239 420.933 391.259 419.58 397.354 419.693C403.186 419.806 408.867 421.347 414.699 420.407C415.414 420.294 415.113 419.204 414.398 419.317C408.453 420.294 402.584 418.566 396.639 418.566C390.807 418.566 385.013 419.806 379.144 419.468C378.429 419.392 378.429 420.52 379.144 420.595Z" fill="#E8E8E8"/>
<path d="M449.653 406.464C454.017 405.862 458.42 405.674 462.822 405.862C467.149 406.05 471.438 406.576 475.802 406.201C480.054 405.862 484.268 405.186 488.557 405.223C492.884 405.261 497.173 405.75 501.462 406.313C502.177 406.389 502.177 405.261 501.462 405.186C497.173 404.66 492.884 404.134 488.557 404.096C484.042 404.058 479.602 404.81 475.087 405.111C470.761 405.411 466.471 404.848 462.144 404.697C457.855 404.547 453.604 404.81 449.39 405.374C448.637 405.487 448.938 406.576 449.653 406.464Z" fill="#E8E8E8"/>
<path d="M59.2554 413.68C70.9192 415.296 82.4701 412.703 94.0962 411.913C100.267 411.5 106.324 411.951 112.495 412.515C118.665 413.078 124.836 413.341 131.044 413.379C138.117 413.417 145.229 413.229 152.302 413.003C153.017 412.966 153.017 411.838 152.302 411.876C144.363 412.101 136.387 412.327 128.448 412.214C120.659 412.101 112.984 411.237 105.233 410.748C89.9574 409.734 74.7946 414.694 59.5564 412.59C58.8416 412.515 58.5406 413.567 59.2554 413.68Z" fill="#E8E8E8"/>
<path d="M125.137 420.031C129.539 420.031 133.903 418.979 138.268 418.641C142.708 418.303 147.147 418.227 151.587 418.415C152.302 418.453 152.302 417.325 151.587 417.288C147.147 417.1 142.708 417.137 138.268 417.513C133.903 417.852 129.501 418.904 125.137 418.904C124.422 418.904 124.422 420.031 125.137 420.031Z" fill="#E8E8E8"/>
<path d="M101.245 176.642C101.245 205.957 101.245 235.272 101.245 264.549C101.245 293.827 101.245 323.179 101.245 352.456C101.245 368.993 101.245 385.53 101.245 402.066C101.245 402.781 102.374 402.781 102.374 402.066C102.374 372.751 102.374 343.437 102.374 314.159C102.374 284.882 102.374 255.529 102.374 226.252C102.374 209.715 102.374 193.178 102.374 176.642C102.374 175.928 101.245 175.928 101.245 176.642Z" fill="#E8E8E8"/>
<path d="M195.984 162.886C195.984 188.029 195.984 213.173 195.984 238.316C195.984 263.459 195.984 288.602 195.984 313.746C195.984 327.99 195.984 342.271 195.984 356.516C195.984 357.23 197.113 357.23 197.113 356.516C197.113 331.372 197.113 306.229 197.113 281.086C197.113 255.943 197.113 230.799 197.113 205.656C197.113 191.412 197.113 177.13 197.113 162.886C197.113 162.172 195.984 162.172 195.984 162.886Z" fill="#E8E8E8"/>
<path d="M198.242 270.262C219.576 279.131 240.947 287.926 262.393 296.57C263.07 296.833 263.371 295.743 262.694 295.48C241.248 286.836 219.877 278.042 198.543 269.172C197.866 268.909 197.603 269.999 198.242 270.262Z" fill="#E8E8E8"/>
<path d="M257.991 295.818C257.991 324.081 257.991 352.381 257.991 380.644C257.991 388.649 257.991 396.654 257.991 404.66C257.991 405.374 259.12 405.374 259.12 404.66C259.12 376.397 259.12 348.097 259.12 319.834C259.12 311.829 259.12 303.824 259.12 295.818C259.12 295.104 257.991 295.104 257.991 295.818Z" fill="#E8E8E8"/>
<path d="M360.782 404.246C360.782 380.569 360.782 356.929 360.782 333.251C360.782 332.537 359.653 332.537 359.653 333.251C359.653 356.929 359.653 380.569 359.653 404.246C359.653 404.96 360.782 404.96 360.782 404.246Z" fill="#E8E8E8"/>
<path d="M350.285 335.807C373.274 325.923 396.338 316.001 418.198 303.749C424.444 300.253 430.614 296.533 436.634 292.586C437.236 292.173 436.672 291.196 436.07 291.609C415.075 305.327 392.425 316.151 369.549 326.223C362.965 329.117 356.343 331.974 349.758 334.792C349.043 335.131 349.645 336.07 350.285 335.807Z" fill="#E8E8E8"/>
<path d="M379.294 321.225C379.294 290.857 379.294 260.453 379.294 230.085C379.294 221.441 379.294 212.834 379.294 204.19C379.294 203.476 378.165 203.476 378.165 204.19C378.165 234.558 378.165 264.963 378.165 295.33C378.165 303.974 378.165 312.581 378.165 321.225C378.165 321.939 379.294 321.939 379.294 321.225Z" fill="#E8E8E8"/>
<path d="M372.71 206.483C400.741 206.483 428.771 206.483 456.802 206.483C464.816 206.483 472.83 206.483 480.806 206.483C481.521 206.483 481.521 205.355 480.806 205.355C452.776 205.355 424.745 205.355 396.715 205.355C388.7 205.355 380.686 205.355 372.71 205.355C371.957 205.355 371.957 206.483 372.71 206.483Z" fill="#E8E8E8"/>
<path d="M470.347 210.204C470.347 259.25 470.347 308.296 470.347 357.342C470.347 371.098 470.347 384.853 470.347 398.646C470.347 399.36 471.475 399.36 471.475 398.646C471.475 349.6 471.475 300.554 471.475 251.508C471.475 237.752 471.475 223.997 471.475 210.204C471.475 209.49 470.347 209.49 470.347 210.204Z" fill="#E8E8E8"/>
<path d="M96.4288 177.882C122.729 169.426 150.797 167.584 178.075 164.465C186.052 163.563 194.028 162.661 202.005 161.721C202.719 161.646 202.719 160.518 202.005 160.594C187.782 162.21 173.522 163.863 159.3 165.479C145.793 167.02 132.21 168.486 118.853 171.079C111.178 172.545 103.578 174.424 96.1278 176.792C95.4506 177.018 95.7516 178.107 96.4288 177.882Z" fill="#E8E8E8"/>
<path d="M109.335 205.243C109.335 198.966 109.335 192.69 109.335 186.451C109.335 185.737 108.206 185.737 108.206 186.451C108.206 192.727 108.206 199.004 108.206 205.243C108.206 205.957 109.335 205.957 109.335 205.243Z" fill="#E8E8E8"/>
<path d="M108.432 186.376C112.119 186.376 115.806 186.376 119.493 186.376C120.208 186.376 120.208 185.248 119.493 185.248C115.806 185.248 112.119 185.248 108.432 185.248C107.717 185.248 107.717 186.376 108.432 186.376Z" fill="#E8E8E8"/>
<path d="M118.967 186.113C118.967 192.652 118.967 199.192 118.967 205.694C118.967 206.408 120.096 206.408 120.096 205.694C120.096 199.154 120.096 192.615 120.096 186.113C120.096 185.399 118.967 185.399 118.967 186.113Z" fill="#E8E8E8"/>
<path d="M108.92 206.445C112.194 206.445 115.467 206.445 118.741 206.445C119.455 206.445 119.455 205.318 118.741 205.318C115.467 205.318 112.194 205.318 108.92 205.318C108.206 205.318 108.168 206.445 108.92 206.445Z" fill="#E8E8E8"/>
<path d="M141.09 205.092C141.09 198.816 141.09 192.539 141.09 186.301C141.09 185.587 139.961 185.587 139.961 186.301C139.961 192.577 139.961 198.853 139.961 205.092C139.961 205.806 141.09 205.806 141.09 205.092Z" fill="#E8E8E8"/>
<path d="M140.225 186.188C143.912 186.188 147.599 186.188 151.286 186.188C152.001 186.188 152.001 185.06 151.286 185.06C147.599 185.06 143.912 185.06 140.225 185.06C139.472 185.06 139.472 186.188 140.225 186.188Z" fill="#E8E8E8"/>
<path d="M150.722 185.962C150.722 192.502 150.722 199.041 150.722 205.543C150.722 206.257 151.85 206.257 151.85 205.543C151.85 199.004 151.85 192.464 151.85 185.962C151.85 185.248 150.722 185.248 150.722 185.962Z" fill="#E8E8E8"/>
<path d="M140.676 206.257C143.949 206.257 147.223 206.257 150.496 206.257C151.211 206.257 151.211 205.13 150.496 205.13C147.223 205.13 143.949 205.13 140.676 205.13C139.961 205.13 139.961 206.257 140.676 206.257Z" fill="#E8E8E8"/>
<path d="M173.711 204.378C173.711 198.102 173.711 191.825 173.711 185.587C173.711 184.872 172.582 184.872 172.582 185.587C172.582 191.863 172.582 198.139 172.582 204.378C172.582 205.092 173.711 205.092 173.711 204.378Z" fill="#E8E8E8"/>
<path d="M172.808 185.474C176.495 185.474 180.182 185.474 183.869 185.474C184.584 185.474 184.584 184.346 183.869 184.346C180.182 184.346 176.495 184.346 172.808 184.346C172.093 184.346 172.093 185.474 172.808 185.474Z" fill="#E8E8E8"/>
<path d="M183.343 185.248C183.343 191.788 183.343 198.327 183.343 204.829C183.343 205.543 184.472 205.543 184.472 204.829C184.472 198.29 184.472 191.75 184.472 185.248C184.472 184.497 183.343 184.497 183.343 185.248Z" fill="#E8E8E8"/>
<path d="M173.297 205.543C176.57 205.543 179.844 205.543 183.117 205.543C183.832 205.543 183.832 204.416 183.117 204.416C179.844 204.416 176.57 204.416 173.297 204.416C172.582 204.416 172.582 205.543 173.297 205.543Z" fill="#E8E8E8"/>
<path d="M97.8213 258.085C97.8213 282.852 97.8213 307.582 97.8213 332.349C97.8213 333.064 98.9501 333.064 98.9501 332.349C98.9501 307.582 98.9501 282.852 98.9501 258.085C98.9501 257.333 97.8213 257.333 97.8213 258.085Z" fill="#E8E8E8"/>
<path d="M105.723 337.085C105.723 348.585 105.723 360.048 105.723 371.549C105.723 372.263 106.851 372.263 106.851 371.549C106.851 360.048 106.851 348.585 106.851 337.085C106.851 336.371 105.723 336.371 105.723 337.085Z" fill="#E8E8E8"/>
<path d="M92.8546 174.65C104.97 170.44 117.273 166.983 129.802 164.314C130.517 164.164 130.216 163.074 129.501 163.224C116.972 165.893 104.631 169.351 92.5536 173.56C91.8764 173.785 92.1774 174.875 92.8546 174.65Z" fill="#E8E8E8"/>
<path d="M199.145 275.636C211.863 280.409 224.241 286.084 236.582 291.759C237.222 292.06 237.824 291.083 237.147 290.782C224.693 285.07 212.239 279.357 199.446 274.546C198.769 274.283 198.468 275.373 199.145 275.636Z" fill="#E8E8E8"/>
<path d="M206.519 315.362C206.519 309.085 206.519 302.809 206.519 296.57C206.519 295.856 205.391 295.856 205.391 296.57C205.391 302.846 205.391 309.123 205.391 315.362C205.391 316.113 206.519 316.113 206.519 315.362Z" fill="#E8E8E8"/>
<path d="M205.654 296.495C209.341 296.495 213.029 296.495 216.716 296.495C217.431 296.495 217.431 295.367 216.716 295.367C213.029 295.367 209.341 295.367 205.654 295.367C204.902 295.367 204.902 296.495 205.654 296.495Z" fill="#E8E8E8"/>
<path d="M216.151 296.269C216.151 302.809 216.151 309.348 216.151 315.85C216.151 316.564 217.28 316.564 217.28 315.85C217.28 309.311 217.28 302.771 217.28 296.269C217.28 295.518 216.151 295.518 216.151 296.269Z" fill="#E8E8E8"/>
<path d="M206.105 316.564C209.379 316.564 212.652 316.564 215.926 316.564C216.64 316.564 216.64 315.437 215.926 315.437C212.652 315.437 209.379 315.437 206.105 315.437C205.391 315.437 205.391 316.564 206.105 316.564Z" fill="#E8E8E8"/>
<path d="M365.786 334.492C390.355 325.284 413.909 313.558 436.07 299.539C436.672 299.163 436.107 298.186 435.505 298.562C413.42 312.543 389.942 324.231 365.485 333.402C364.808 333.665 365.109 334.755 365.786 334.492Z" fill="#E8E8E8"/>
<path d="M473.808 212.872C473.845 241.962 473.883 271.013 473.883 300.103C473.883 300.817 475.012 300.817 475.012 300.103C474.974 271.013 474.936 241.962 474.936 212.872C474.936 212.158 473.808 212.158 473.808 212.872Z" fill="#E8E8E8"/>
<path d="M392.312 202.687C421.96 202.687 451.571 202.687 481.219 202.687C481.934 202.687 481.934 201.559 481.219 201.559C451.571 201.559 421.96 201.559 392.312 201.559C391.597 201.559 391.597 202.687 392.312 202.687Z" fill="#E8E8E8"/>
<path d="M390.205 240.045C390.205 233.768 390.205 227.492 390.205 221.253C390.205 220.539 389.076 220.539 389.076 221.253C389.076 227.53 389.076 233.806 389.076 240.045C389.076 240.796 390.205 240.796 390.205 240.045Z" fill="#E8E8E8"/>
<path d="M389.34 221.178C393.027 221.178 396.714 221.178 400.402 221.178C401.117 221.178 401.117 220.05 400.402 220.05C396.714 220.05 393.027 220.05 389.34 220.05C388.625 220.05 388.625 221.178 389.34 221.178Z" fill="#E8E8E8"/>
<path d="M399.837 220.952C399.837 227.492 399.837 234.031 399.837 240.533C399.837 241.247 400.966 241.247 400.966 240.533C400.966 233.994 400.966 227.454 400.966 220.952C400.966 220.201 399.837 220.201 399.837 220.952Z" fill="#E8E8E8"/>
<path d="M389.829 241.247C393.102 241.247 396.376 241.247 399.649 241.247C400.364 241.247 400.364 240.12 399.649 240.12C396.376 240.12 393.102 240.12 389.829 240.12C389.077 240.12 389.077 241.247 389.829 241.247Z" fill="#E8E8E8"/>
<path d="M442.467 240.045C442.467 233.768 442.467 227.492 442.467 221.253C442.467 220.539 441.338 220.539 441.338 221.253C441.338 227.53 441.338 233.806 441.338 240.045C441.338 240.796 442.467 240.796 442.467 240.045Z" fill="#E8E8E8"/>
<path d="M441.564 221.178C445.251 221.178 448.938 221.178 452.625 221.178C453.34 221.178 453.34 220.05 452.625 220.05C448.938 220.05 445.251 220.05 441.564 220.05C440.849 220.05 440.849 221.178 441.564 221.178Z" fill="#E8E8E8"/>
<path d="M452.099 220.952C452.099 227.492 452.099 234.031 452.099 240.533C452.099 241.247 453.227 241.247 453.227 240.533C453.227 233.994 453.227 227.454 453.227 220.952C453.227 220.201 452.099 220.201 452.099 220.952Z" fill="#E8E8E8"/>
<path d="M442.052 241.247C445.325 241.247 448.599 241.247 451.872 241.247C452.587 241.247 452.587 240.12 451.872 240.12C448.599 240.12 445.325 240.12 442.052 240.12C441.337 240.12 441.337 241.247 442.052 241.247Z" fill="#E8E8E8"/>
<path d="M419.515 93.2443C431.962 93.2443 442.052 82.9968 442.052 70.356C442.052 57.7152 431.962 47.4678 419.515 47.4678C407.068 47.4678 396.978 57.7152 396.978 70.356C396.978 82.9968 407.068 93.2443 419.515 93.2443Z" stroke="#E8E8E8" stroke-width="3" stroke-miterlimit="10"/>
<path d="M393.515 158.79C399.761 154.543 407.361 157.211 413.833 159.391C416.881 160.406 419.966 161.345 423.164 161.646C426.626 161.984 430.087 161.608 433.473 160.932C446.905 158.151 461.429 148.68 475.237 155.106C475.877 155.407 476.479 154.43 475.801 154.129C465.643 149.394 454.468 153.115 444.535 156.497C438.741 158.489 432.758 160.481 426.55 160.631C420.192 160.782 414.623 158.188 408.641 156.535C403.449 155.069 397.579 154.655 392.914 157.812C392.349 158.226 392.913 159.203 393.515 158.79Z" fill="#E8E8E8"/>
<path d="M112.232 138.307C123.106 141.426 133.791 136.315 143.988 133.12C149.556 131.391 155.426 130.001 161.295 130.752C167.277 131.542 172.733 134.398 178.226 136.766C183.795 139.171 189.589 141.163 195.759 140.186C196.474 140.073 196.173 138.983 195.459 139.096C183.682 140.975 173.824 131.767 162.687 129.813C151.814 127.896 141.467 133.083 131.308 136.089C125.175 137.893 118.816 138.983 112.533 137.179C111.818 136.991 111.517 138.081 112.232 138.307Z" fill="#E8E8E8"/>
<path d="M209.605 154.618C213.631 154.505 217.168 152.701 220.742 151.085C222.925 150.108 225.182 149.168 227.59 148.98C230.262 148.755 232.594 149.694 234.889 150.972C239.103 153.302 243.016 155.445 247.87 156.196C252.46 156.948 257.126 156.61 261.603 155.257C262.28 155.031 262.017 153.941 261.302 154.167C256.336 155.67 251.068 155.858 245.989 154.655C243.581 154.092 241.248 153.19 239.066 152.025C236.996 150.897 235.04 149.544 232.858 148.68C224.467 145.335 217.732 153.227 209.605 153.453C208.891 153.528 208.891 154.655 209.605 154.618Z" fill="#E8E8E8"/>
<path d="M325.076 119.59C335.912 124.626 348.065 124.401 359.578 122.183C372.597 119.665 384.862 113.915 398.332 114.141C405.932 114.291 413.457 115.945 420.455 118.951C421.133 119.252 421.697 118.275 421.02 117.974C409.732 113.088 397.166 111.773 385.126 114.291C378.541 115.682 372.183 117.974 365.673 119.665C359.503 121.244 353.182 122.371 346.823 122.597C339.562 122.822 332.3 121.732 325.678 118.651C325.001 118.312 324.437 119.29 325.076 119.59Z" fill="#E8E8E8"/>
<path d="M195.269 326.186C196.436 332.312 197.564 338.476 198.731 344.602C179.316 351.63 169.872 356.478 170.474 359.184C171.189 362.454 186.427 362.566 216.226 359.56C214.947 346.781 213.668 334.003 212.389 321.187C206.67 322.878 200.951 324.532 195.269 326.186Z" fill="#161616" stroke="#161616" stroke-width="3" stroke-miterlimit="10"/>
<path d="M286.134 249.403C278.007 252.748 274.583 251.921 264.311 254.74C245.386 259.926 231.691 269.623 223.15 276.952C223.564 290.933 223.977 304.914 224.391 318.895C223.526 319.909 214.044 330.658 199.672 329.192C189.776 328.178 183.606 321.939 181.95 320.135C181.687 307.244 181.913 293.488 182.778 279.019C183.305 270.638 183.982 262.52 184.847 254.74C186.127 252.936 188.083 250.343 190.604 247.336C210.395 223.809 234.099 213.361 247.004 207.873C259.872 202.386 267.923 198.966 279.926 197.989C283.124 197.726 315.105 195.471 320.26 208.287C325.038 219.975 306.188 241.172 286.134 249.403Z" fill="white" stroke="#161616" stroke-width="3" stroke-miterlimit="10"/>
<path opacity="0.16" d="M318.19 204.341C311.041 199.417 295.276 220.389 263.897 240.157C233.722 259.137 217.919 258.836 208.814 277.29C206.03 282.89 203.133 291.759 201.364 300.779C199.182 312.13 199.182 321.826 199.671 328.704C202.117 328.591 205.014 328.253 208.137 327.426C215.699 325.434 221.08 321.638 224.24 318.97C223.826 304.726 223.375 290.482 222.961 276.275C228.228 271.991 236.619 265.864 247.944 260.64C269.127 250.831 277.066 255.041 294.524 245.006C298.55 242.713 321.313 229.597 320.786 212.459C320.635 209.715 320.598 205.994 318.19 204.341Z" fill="#3D3D3D"/>
<path opacity="0.25" d="M321.125 211.106C319.544 209.828 313.412 218.397 298.7 228.882C280.414 241.886 271.61 241.736 251.481 253.838C244.219 258.198 233.722 265.188 222.096 275.824C224.353 274.847 228.003 273.193 232.254 270.75C240.908 265.714 243.015 262.632 249.6 259.325C251.97 258.16 256.41 256.957 265.252 254.665C280.715 250.643 282.935 250.831 288.541 248.313C295.954 245.006 300.807 240.834 303.366 238.579C315.631 227.83 323.119 212.684 321.125 211.106Z" fill="#3D3D3D"/>
<path opacity="0.2" d="M222.51 276.238C217.694 293.563 212.916 310.927 208.1 328.253C210.244 327.689 212.878 326.787 215.737 325.284C219.839 323.104 222.736 320.511 224.617 318.519C223.902 304.425 223.225 290.331 222.51 276.238Z" fill="#3D3D3D"/>
<path d="M317.664 384.891C318.831 391.017 319.96 397.181 321.126 403.307C303.555 412.139 295.202 417.626 295.955 419.768C296.895 422.361 311.08 420.106 338.471 413.041C337.229 401.991 336.025 390.942 334.784 379.892C329.065 381.584 323.383 383.237 317.664 384.891Z" fill="#161616" stroke="#161616" stroke-width="3" stroke-miterlimit="10"/>
<path d="M332.714 193.892C334.031 204.04 335.724 219.336 336.551 238.015C337.793 266.842 335.987 282.89 335.686 304.2C335.423 322.878 336.288 349.675 341.631 382.711C338.734 384.628 332.187 388.424 322.931 389.063C314.127 389.664 307.392 387.108 304.232 385.68C303.404 369.67 301.936 352.644 299.566 334.755C295.202 301.794 288.617 272.103 281.318 246.096C276.803 239.857 272.25 233.656 267.735 227.417C284.177 215.804 300.582 204.228 317.024 192.615C322.216 193.066 327.446 193.479 332.714 193.892Z" fill="white" stroke="#161616" stroke-width="3" stroke-miterlimit="10"/>
<path d="M273.944 230.649C272.777 229.033 271.649 227.379 270.482 225.763C270.144 227.041 269.805 228.319 269.466 229.634C275.035 226.176 280.491 222.531 285.72 218.547C290.085 215.24 294.148 211.594 298.551 208.362C301.335 206.295 304.194 204.341 307.054 202.386C309.8 200.545 312.585 198.214 315.595 196.749C317.213 195.959 319.131 196.072 320.862 196.072C324.173 196.072 327.447 196.185 330.72 196.373C334.332 196.561 334.332 190.923 330.72 190.735C327.447 190.585 324.136 190.435 320.862 190.435C318.755 190.435 316.573 190.435 314.579 191.074C311.456 192.088 308.634 194.531 305.963 196.373C302.877 198.44 299.83 200.507 296.82 202.687C292.154 206.069 287.865 209.865 283.312 213.361C277.97 217.457 272.364 221.215 266.645 224.748C265.441 225.5 264.726 227.342 265.629 228.619C266.795 230.235 267.924 231.889 269.09 233.505C271.16 236.437 276.051 233.618 273.944 230.649Z" fill="white"/>
<path opacity="0.14" d="M295.314 198.402C301.033 215.277 306.339 234.069 310.553 254.627C321.05 306.079 321.238 351.855 318.19 387.822C319.996 388.461 322.292 389.025 324.963 389.1C333.429 389.326 339.524 384.44 341.48 382.749C339.825 374.443 337.68 362.003 336.401 346.819C333.617 313.934 337.116 295.292 337.68 267.33C338.019 250.343 337.379 226.214 332.601 196.711C320.147 197.275 307.731 197.839 295.314 198.402Z" fill="#3D3D3D"/>
<path opacity="0.2" d="M333.842 214.075C332.789 251.094 330.983 289.166 328.349 328.253C326.995 348.435 325.414 368.317 323.684 387.86C325.414 388.161 328.5 388.461 332.149 387.447C336.89 386.094 339.825 383.275 341.029 381.959C336.815 357.53 335.761 337.724 335.535 324.457C335.122 299.351 337.492 286.535 336.815 257.22C336.363 238.579 334.933 223.47 333.842 214.075Z" fill="#3D3D3D"/>
<path d="M179.955 61.3736C180.445 60.2461 175.629 57.9159 176.118 56.6005C176.607 55.2475 182.589 54.9092 186.615 57.8783C190.829 60.9602 190.566 65.4702 192.974 71.258C195.72 77.7599 200.047 81.2927 206.632 86.7047C210.582 89.9745 226.008 102.227 248.245 101.55C258.328 101.249 266.756 98.3556 273.002 95.3113C272.137 106.098 271.234 116.922 270.368 127.708C265.251 128.873 258.215 129.888 249.976 129.174C220.026 126.581 200.8 103.504 194.855 96.4012C191.243 92.0791 186.314 85.4269 181.799 76.3693C178.262 77.4216 172.769 78.6243 166.185 77.9478C161.519 77.4968 155.951 76.0686 155.988 74.7532C156.026 73.0244 165.62 71.8593 165.545 71.258C165.47 70.7318 157.907 72.7989 155.988 69.9802C154.483 67.7627 156.59 62.7642 160.127 60.7347C161.218 60.1333 162.46 59.7575 165.545 59.7951C173.898 59.7951 179.504 62.3883 179.955 61.3736Z" fill="white" stroke="#161616" stroke-width="3" stroke-miterlimit="10"/>
<path d="M155.876 67.8379C157.795 67.3869 160.015 68.3265 161.971 68.4017C163.702 68.4768 165.433 68.3265 167.126 67.9882C167.841 67.8379 167.54 66.748 166.825 66.8983C164.68 67.3117 162.535 67.4245 160.353 67.1238C158.698 66.8983 157.23 66.3722 155.575 66.748C154.86 66.8983 155.161 67.9882 155.876 67.8379Z" fill="#161616"/>
<path d="M157.456 64.1172C159.714 63.6662 161.708 64.6057 163.89 64.7185C165.809 64.8312 167.728 64.4554 169.609 63.9668C170.324 63.7789 170.023 62.689 169.308 62.8769C166.863 63.5158 164.492 63.8165 161.971 63.2903C160.278 62.9521 158.849 62.6514 157.118 62.9897C156.441 63.1776 156.742 64.2675 157.456 64.1172Z" fill="#161616"/>
<path d="M178.263 65.2447C180.182 67.2742 182.778 68.3265 185.562 68.2513C186.277 68.2137 186.277 67.0862 185.562 67.1238C183.041 67.2366 180.784 66.297 179.091 64.4554C178.564 63.9292 177.774 64.7185 178.263 65.2447Z" fill="#161616"/>
<path opacity="0.18" d="M155.989 69.6795C156.102 68.6647 164.304 68.4017 171.829 69.4916C175.892 70.0553 179.843 70.6191 183.568 72.3855C191.695 76.1814 194.366 83.435 198.58 90.0872C198.58 90.0872 208.024 104.857 224.918 113.126C241.698 121.319 260.85 115.832 271.648 111.472C271.234 116.884 270.82 122.296 270.406 127.708C260.436 129.738 252.459 129.249 247.342 128.535C218.86 124.514 200.988 102.64 193.877 93.9583C188.12 86.9302 184.283 80.4659 181.95 76.0686C178.225 77.4216 172.694 78.8122 166.11 78.1357C161.557 77.6471 156.177 76.1438 156.214 74.8284C156.29 73.1372 165.357 72.1224 165.282 71.7466C165.244 71.5587 162.686 72.1224 159.525 71.3332C158.284 71.0325 155.951 70.2432 155.989 69.6795Z" fill="#3D3D3D"/>
<path opacity="0.24" d="M241.435 122.108C254.867 122.296 265.252 117.034 270.67 113.69C270.482 118.5 270.256 123.273 270.068 128.084C262.618 129.324 249.562 130.377 234.663 125.603C207.685 116.997 194.441 95.5744 191.018 89.5987C192.109 91.553 209.83 121.695 241.435 122.108Z" fill="#3D3D3D"/>
<path opacity="0.19" d="M168.781 75.8432C176.833 75.8807 182.251 74.6781 182.363 75.2418C182.439 75.6928 179.09 77.0458 175.553 77.7223C165.282 79.6767 155.875 75.4297 155.988 74.8284C156.101 74.415 160.315 75.8056 168.781 75.8432Z" fill="#3D3D3D"/>
<path d="M284.366 92.6429C283.124 92.7181 278.948 92.906 273.605 94.2214C270.557 94.9731 268.149 95.8375 266.757 96.4012C264.236 101.513 261 109.405 259.796 119.402C258.066 133.646 261.527 142.817 263.898 156.986C265.515 166.72 266.832 180.813 265.026 198.628C268.864 202.123 278.872 210.279 294.073 212.383C315.594 215.39 331.397 204.04 334.67 201.597C336.664 189.27 338.546 176.604 340.239 163.638C343.136 141.689 345.318 120.455 346.936 100.047C336.514 90.2376 327.484 87.6067 321.125 87.0806C308.897 86.0282 297.835 91.8912 284.366 92.6429Z" fill="#FFBA15"/>
<path opacity="0.17" d="M301.259 102.114C303.592 104.519 306.79 108.165 309.65 113.126C323.383 136.954 314.88 164.765 311.08 177.093C308.446 185.737 303.442 198.402 293.584 212.083C297.346 212.722 302.087 213.097 307.505 212.571C320.373 211.293 329.704 205.468 334.369 202.01C337.906 181.941 340.916 160.594 343.249 138.044C344.603 124.814 345.619 111.923 346.372 99.4831C344.904 98.0549 342.647 96.1381 339.637 94.2214C334.783 91.102 327.145 86.2537 318.529 87.7571C307.543 89.6362 301.974 100.611 301.259 102.114Z" fill="#3D3D3D"/>
<path opacity="0.11" d="M344.679 108.09C342.76 113.464 339.788 122.033 336.778 132.782C327.823 164.314 328.463 177.844 317.589 194.118C314.278 199.079 308.709 206.107 299.341 213.06C303.969 213.022 310.666 212.459 318.304 209.94C325.227 207.648 330.532 204.566 334.144 202.048C337.079 186.338 339.675 169.388 341.594 151.235C343.136 136.127 344.152 121.695 344.679 108.09Z" fill="#3D3D3D"/>
<path d="M327.22 180.438C326.43 178.972 327.258 176.792 328.499 175.627C330.794 173.447 334.971 174.274 336.852 176.642C337.115 176.98 338.395 178.558 337.868 179.911C336.739 182.655 328.838 183.369 327.22 180.438Z" fill="white" stroke="#161616" stroke-width="3" stroke-miterlimit="10"/>
<path d="M337.831 93.6577C343.437 97.5288 350.36 103.166 357.02 111.059C364.281 119.628 369.022 128.272 372.183 135.526C374.854 141.727 376.472 147.252 377.488 151.423C374.139 159.128 367.856 170.478 356.267 180.438C352.091 184.046 347.952 186.827 344.152 189.007C342.158 191.224 339.374 194.043 335.687 196.937C333.279 198.853 330.005 201.409 329.253 200.77C328.651 200.244 329.704 197.651 331.322 195.847C333.241 193.742 335.611 193.103 335.574 192.99C335.536 192.878 333.429 193.254 331.473 194.757C329.215 196.523 329.328 198.177 328.199 198.44C325.829 199.004 320.373 193.291 321.201 187.503C321.878 182.655 326.657 180.062 328.274 179.16C332.714 176.717 337.041 177.168 338.621 177.393C344.265 168.636 349.909 159.917 355.553 151.16C354.01 149.92 351.978 148.154 349.758 145.861C347.162 143.193 339.863 135.601 336.364 125.19C331.661 111.209 335.987 98.318 337.831 93.6577Z" fill="white" stroke="#161616" stroke-width="3" stroke-miterlimit="10"/>
<path d="M322.103 192.276C323.496 189.195 325.866 186.789 328.951 185.436C329.628 185.135 329.026 184.158 328.387 184.459C325.151 185.887 322.555 188.48 321.125 191.713C320.824 192.352 321.802 192.915 322.103 192.276Z" fill="#161616"/>
<path d="M326.242 197.5C325.076 193.968 328.5 190.322 331.322 188.706C331.961 188.33 331.397 187.353 330.757 187.729C327.484 189.608 323.797 193.742 325.151 197.801C325.377 198.478 326.468 198.177 326.242 197.5Z" fill="#161616"/>
<path opacity="0.18" d="M336.1 99.8589C340.615 104.519 346.974 111.472 353.784 120.605C363.341 133.346 368.082 139.735 368.42 146.462C369.022 158.94 359.654 174.537 347.313 180.475C343.738 182.204 334.445 185.699 329.102 192.539C327.56 194.494 325.979 197.2 326.544 197.801C327.033 198.29 328.839 197.012 329.441 197.613C330.156 198.327 328.425 200.507 328.914 200.996C329.516 201.597 332.865 199.455 336.251 196.749C338.433 194.982 341.105 192.577 343.926 189.42C347.501 187.391 351.301 184.835 355.176 181.603C367.48 171.342 374.102 159.353 377.638 151.16C376.773 147.853 375.456 143.38 373.387 138.232C367.141 122.71 358.788 112.675 356.042 109.518C352.091 104.933 346.146 98.9569 337.831 93.2067C337.229 95.4241 336.665 97.6415 336.1 99.8589Z" fill="#3D3D3D"/>
<path opacity="0.21" d="M372.182 156.647C368.57 161.308 366.727 164.277 365.222 166.494C362.362 170.628 358.111 174.575 349.57 182.467C346.522 185.286 342.384 189.044 337.304 193.366C331.961 197.989 329.365 200.357 329.478 200.507C329.629 200.695 334.783 196.786 344.98 188.781C346.898 187.654 349.607 186 352.655 183.67C370.188 170.253 378.052 150.972 377.337 150.521C377.036 150.371 375.418 152.438 372.182 156.647Z" fill="#3D3D3D"/>
<path d="M276.503 31.0063C265.441 40.0639 265.892 58.4421 270.219 70.3184C272.966 77.8351 277.368 82.984 280.265 85.8404C279.663 90.2 279.061 94.5597 278.459 98.9194C281.657 100.385 286.247 101.926 291.854 102.189C306.527 102.903 317.025 94.3342 319.884 91.8537C317.288 83.1719 314.692 74.4902 312.096 65.7709C311.757 63.3279 311.193 59.5696 310.591 54.9844C308.973 43.0329 309.048 42.394 308.333 40.4397C308.032 39.6504 303.517 28.1875 293.02 26.158C284.554 24.5795 277.556 30.1419 276.503 31.0063Z" fill="white" stroke="#161616" stroke-width="3" stroke-miterlimit="10"/>
<path d="M267.397 61.5991C266.757 64.1172 266.08 68.0634 266.531 72.7989C266.832 75.9559 267.359 81.4431 271.31 86.7424C275.561 92.455 281.28 94.6349 283.726 95.4241C283.538 94.7852 283.312 93.9959 283.199 93.0564C283.086 92.0792 283.124 91.1772 283.199 90.5007C285.795 91.9289 288.429 93.3194 291.025 94.7476C297.61 88.6967 299.792 83.1344 300.544 79.1129C301.146 75.9559 301.523 70.1681 302.915 59.5696C303.178 57.6904 303.667 54.3079 305.812 53.4435C306.828 53.0301 308.182 53.218 309.048 53.9697C311.644 56.1495 309.01 62.4635 309.574 62.6514C310.139 62.8394 314.691 56.4878 313.149 49.2342C312.359 45.4759 310.176 42.8826 308.897 41.6048C306.038 46.1148 302.877 50.7751 299.378 55.5482C297.158 58.5924 294.938 61.4488 292.756 64.2299C291.928 64.6809 290.687 65.1695 289.257 65.0568C288.128 64.944 287.752 64.5682 286.924 64.3427C283.839 63.4783 282.183 67.1239 279.136 66.6353C276.653 66.2219 276.427 63.5534 273.68 63.4783C272.363 63.4407 271.837 64.042 270.482 63.7789C269.052 63.3655 268.036 62.3884 267.397 61.5991Z" fill="#161616" stroke="#161616" stroke-width="3" stroke-miterlimit="10"/>
<path d="M280.19 50.9254C279.249 55.2851 278.647 59.6823 278.384 64.1172C278.346 64.5682 278.873 64.7937 279.249 64.6058C280.792 63.8165 282.372 62.9897 283.915 62.2004C284.554 61.8622 283.99 60.885 283.35 61.2233C281.808 62.0125 280.227 62.8393 278.685 63.6286C278.986 63.7789 279.249 63.9668 279.55 64.1172C279.813 59.7575 280.378 55.473 281.318 51.2261C281.431 50.512 280.34 50.2113 280.19 50.9254Z" fill="#161616"/>
<path d="M274.169 55.4354C274.647 55.4354 275.034 54.4595 275.034 53.2556C275.034 52.0517 274.647 51.0758 274.169 51.0758C273.691 51.0758 273.304 52.0517 273.304 53.2556C273.304 54.4595 273.691 55.4354 274.169 55.4354Z" fill="#161616" stroke="#161616" stroke-width="3" stroke-miterlimit="10"/>
<path d="M288.768 55.4354C289.412 55.4354 289.934 54.4595 289.934 53.2556C289.934 52.0517 289.412 51.0758 288.768 51.0758C288.124 51.0758 287.602 52.0517 287.602 53.2556C287.602 54.4595 288.124 55.4354 288.768 55.4354Z" fill="#161616" stroke="#161616" stroke-width="3" stroke-miterlimit="10"/>
<path d="M272.062 49.0087C272.777 47.6932 274.357 47.9939 275.524 48.4073C276.201 48.6328 276.502 47.5429 275.825 47.3174C274.169 46.7161 272.062 46.6785 271.084 48.4449C270.745 49.0462 271.724 49.6476 272.062 49.0087Z" fill="#161616"/>
<path d="M286.285 47.4678C288.054 45.7765 290.763 45.9268 292.268 47.9563C292.681 48.5201 293.66 47.9563 293.246 47.3926C291.327 44.7993 287.865 44.4611 285.495 46.6785C284.968 47.1671 285.758 47.9563 286.285 47.4678Z" fill="#161616"/>
<path d="M258.668 42.0933C274.508 43.0329 290.311 44.3483 306.038 46.0772C308.182 46.3027 308.182 42.9202 306.038 42.6947C290.273 40.9658 274.47 39.6504 258.668 38.7108C256.486 38.5981 256.486 41.9806 258.668 42.0933Z" fill="#161616"/>
<path d="M268.902 39.7632C269.166 37.3203 270.144 31.0438 274.96 25.9325C281.243 19.2803 292.869 16.4991 301.899 22.1366C308.973 26.5714 312.773 35.1404 311.494 43.8598C297.309 42.5068 283.125 41.1538 268.902 39.7632Z" fill="#2F4EBB"/>
<path opacity="0.69" d="M288.918 20.4078C287.075 21.9487 287.075 25.2184 287.714 28.6761C288.429 32.472 290.273 37.0948 293.02 41.8678C299.19 42.5819 305.361 43.3336 311.531 44.0477C311.794 42.6947 312.058 40.7403 311.832 38.4102C311.832 38.4102 311.418 34.1257 309.161 30.2546C304.646 22.5124 292.831 17.1004 288.918 20.4078Z" fill="#1B348C"/>
<path opacity="0.24" d="M308.258 64.5306C306.866 65.2823 305.474 65.0943 304.984 64.9816C306.188 67.2742 309.913 75.0164 308.107 85.0135C306.377 94.5221 300.733 100.272 298.776 102.114C301.222 101.625 304.006 100.836 307.016 99.6334C312.735 97.3033 317.024 94.2214 319.922 91.7034C316.912 81.1424 313.902 70.5815 310.892 60.0206C310.892 60.2085 310.741 63.2152 308.258 64.5306Z" fill="#3D3D3D"/>
<path opacity="0.19" d="M294.336 44.8369C294.788 46.7537 295.164 49.6476 294.713 53.0301C293.922 58.7428 291.176 62.689 289.746 64.5306C290.611 64.2675 291.477 63.9668 292.342 63.7038C294.073 61.5991 295.841 59.3441 297.572 57.0515C300.432 53.2556 303.065 49.4973 305.473 45.8893C301.748 45.551 298.061 45.1752 294.336 44.8369Z" fill="#3D3D3D"/>
<path d="M169.379 16.1132C165.048 18.6735 163.81 23.0879 163.298 24.9067C163.174 25.3481 161.724 30.769 164.235 36.4194C164.977 38.0969 165.772 39.8273 167.576 40.6572C168.618 41.1516 169.555 41.1163 173.232 40.7985C174.947 40.6572 176.803 40.4807 178.783 40.2688C180.179 38.4853 182.583 34.9185 183.291 29.9038C183.414 28.9679 184.864 17.8083 178.783 14.8418C174.805 12.8818 170.015 15.7247 169.379 16.1132Z" fill="#FFBA15"/>
<path d="M166.585 40.0392C164.358 39.1387 163.014 36.9844 162.201 34.8302C161.335 32.5877 160.964 30.1509 161.088 27.7495C161.3 23.3175 163.191 18.8324 166.691 16.0072C169.997 13.3233 174.894 12.564 178.57 15.0007C182.406 17.5434 183.096 22.7877 183.131 27.0079C183.166 31.7048 182.07 36.6313 178.588 40.0039C178.341 40.2334 178.712 40.6219 178.959 40.3747C182.265 37.161 183.52 32.57 183.644 28.085C183.767 23.6883 183.237 18.1261 179.613 15.1067C176.219 12.2815 171.181 12.4227 167.557 14.7182C163.545 17.2609 161.176 21.8695 160.663 26.5135C160.345 29.3917 160.699 32.3758 161.759 35.0951C162.661 37.3906 164.093 39.5801 166.461 40.5336C166.762 40.6749 166.886 40.1628 166.585 40.0392Z" fill="#161616"/>
<path d="M166.338 40.3747C165.737 41.2223 165.861 42.476 166.745 43.1116C167.416 43.5884 168.406 43.659 169.202 43.765C170.156 43.9062 171.129 43.9592 172.101 43.9592C173.833 43.9415 175.813 43.8179 177.422 43.1469C178.588 42.6525 179.472 41.4871 178.854 40.2334C178.712 39.9333 178.253 40.1981 178.394 40.4983C179.72 43.1999 173.444 43.4295 172.083 43.4295C170.828 43.4295 169.573 43.3235 168.353 43.094C167.77 42.988 167.116 42.8821 166.745 42.37C166.373 41.8403 166.444 41.1516 166.798 40.6572C166.992 40.357 166.533 40.0922 166.338 40.3747Z" fill="#161616"/>
<path d="M166.903 43.2353C166.903 44.1181 166.921 45.0187 167.027 45.9016C167.08 46.3077 167.168 46.6608 167.504 46.908C167.982 47.2612 168.777 47.2435 169.343 47.2965C170.297 47.3671 171.27 47.3671 172.224 47.3318C173.126 47.2965 174.027 47.2259 174.929 47.1376C175.459 47.0846 176.06 47.1023 176.467 46.6961C177.368 45.8133 177.386 44.1358 177.156 43.0234C177.085 42.6879 176.573 42.8291 176.643 43.1646C176.767 43.765 176.803 44.3653 176.679 44.9834C176.502 45.8486 176.255 46.4136 175.282 46.5902C174.151 46.8021 172.878 46.8021 171.729 46.8198C170.598 46.8374 169.325 46.8904 168.211 46.6255C167.186 46.3783 167.451 44.0828 167.451 43.2353C167.434 42.8998 166.903 42.8998 166.903 43.2353Z" fill="#161616"/>
<path d="M167.08 24.218C169.202 25.5423 170.81 27.4847 171.712 29.8155C171.836 30.1333 172.348 29.992 172.224 29.6742C171.27 27.2021 169.591 25.1539 167.363 23.7589C167.063 23.5647 166.798 24.0238 167.08 24.218Z" fill="#161616"/>
<path d="M172.137 29.8155C173.18 27.6259 174.7 25.7542 176.644 24.3063C176.91 24.1121 176.644 23.6353 176.379 23.8472C174.364 25.3481 172.773 27.2904 171.677 29.5506C171.536 29.8508 171.995 30.1156 172.137 29.8155Z" fill="#161616"/>
<path d="M171.712 29.1975C171.977 32.8349 172.101 36.4724 172.048 40.1099C172.048 40.4454 172.578 40.4454 172.578 40.1099C172.631 36.4724 172.507 32.8173 172.242 29.1975C172.207 28.8443 171.676 28.8443 171.712 29.1975Z" fill="#161616"/>
<path d="M151.012 38.0969C153.363 37.3023 155.697 36.5077 158.048 35.7131C158.366 35.6072 158.224 35.0951 157.906 35.201C155.555 35.9956 153.222 36.7902 150.871 37.5848C150.535 37.6908 150.676 38.2028 151.012 38.0969Z" fill="#161616"/>
<path d="M153.699 34.5654C154.512 34.3358 155.325 34.0886 156.138 33.8591C156.457 33.7708 156.333 33.2587 155.997 33.347C155.184 33.5765 154.371 33.8237 153.557 34.0533C153.239 34.1592 153.363 34.6713 153.699 34.5654Z" fill="#161616"/>
<path d="M147.812 28.6854C150.924 28.6501 154.017 28.7383 157.111 28.9326C157.447 28.9502 157.447 28.4205 157.111 28.4029C154.017 28.2086 150.906 28.138 147.812 28.1556C147.477 28.1556 147.477 28.6854 147.812 28.6854Z" fill="#161616"/>
<path d="M154.388 26.2839C155.131 26.4782 155.891 26.5665 156.651 26.5841C156.987 26.5841 156.987 26.0544 156.651 26.0544C155.926 26.0367 155.219 25.9485 154.53 25.7719C154.194 25.6836 154.052 26.1957 154.388 26.2839Z" fill="#161616"/>
<path d="M153.239 9.84474C156.015 12.2285 158.542 14.8418 160.823 17.7024C161.035 17.9672 161.406 17.5964 161.194 17.3316C158.914 14.471 156.386 11.8401 153.611 9.47393C153.363 9.24438 152.974 9.61519 153.239 9.84474Z" fill="#161616"/>
<path d="M161 14.8595C161.477 15.3539 161.937 15.8483 162.414 16.3604C162.644 16.6076 163.015 16.2367 162.785 15.9895C162.308 15.4951 161.849 15.0007 161.371 14.4886C161.141 14.2414 160.77 14.6122 161 14.8595Z" fill="#161616"/>
<path d="M150.235 15.8483C151.101 16.3604 151.985 16.8371 152.886 17.2786C153.187 17.4375 153.452 16.9784 153.151 16.8195C152.25 16.3604 151.366 15.8836 150.5 15.3892C150.199 15.2126 149.934 15.6717 150.235 15.8483Z" fill="#161616"/>
<path d="M180.993 11.8224C183.609 9.20903 186.225 6.5957 188.842 3.98238C189.089 3.73517 188.7 3.36436 188.47 3.61157C185.854 6.22489 183.238 8.83822 180.622 11.4515C180.374 11.6987 180.745 12.0696 180.993 11.8224Z" fill="#161616"/>
<path d="M183.626 13.0407C184.298 12.5463 184.97 12.0696 185.642 11.5752C185.907 11.3809 185.659 10.9218 185.376 11.1161C184.705 11.6105 184.033 12.0872 183.361 12.5816C183.078 12.7759 183.343 13.235 183.626 13.0407Z" fill="#161616"/>
<path d="M172.826 8.36149C173.356 5.80114 173.763 3.22313 174.01 0.62746C174.046 0.291966 173.515 0.291966 173.48 0.62746C173.233 3.17015 172.844 5.71285 172.313 8.22023C172.243 8.55572 172.755 8.69698 172.826 8.36149Z" fill="#161616"/>
<path d="M187.692 24.6065C192.5 24.165 197.291 23.7236 202.099 23.2822C202.435 23.2468 202.435 22.7171 202.099 22.7524C197.291 23.1939 192.5 23.6353 187.692 24.0768C187.356 24.0944 187.339 24.6241 187.692 24.6065Z" fill="#161616"/>
<path d="M167.487 41.0104C170.474 41.6637 173.515 41.6461 176.485 40.9751C176.821 40.9045 176.679 40.3924 176.343 40.463C173.462 41.1163 170.51 41.134 167.628 40.4983C167.293 40.4277 167.151 40.9398 167.487 41.0104Z" fill="#161616"/>
<path d="M167.929 45.4954C170.209 45.7956 172.489 45.8662 174.787 45.7073C175.123 45.6897 175.123 45.1599 174.787 45.1776C172.489 45.3365 170.209 45.2659 167.929 44.9657C167.593 44.9304 167.593 45.4601 167.929 45.4954Z" fill="#161616"/>
<path d="M184.351 39.227C187.94 41.752 191.599 44.1888 195.311 46.5372C195.594 46.7138 195.859 46.2547 195.576 46.0781C191.864 43.7297 188.205 41.2929 184.617 38.7679C184.334 38.5736 184.069 39.0327 184.351 39.227Z" fill="#161616"/>
<path d="M127.862 161.293C134.158 161.293 139.261 155.654 139.261 148.698C139.261 141.741 134.158 136.102 127.862 136.102C121.566 136.102 116.463 141.741 116.463 148.698C116.463 155.654 121.566 161.293 127.862 161.293Z" fill="#FFBA15"/>
<path d="M386.36 363.127C391.04 363.127 394.834 359.472 394.834 354.965C394.834 350.457 391.04 346.803 386.36 346.803C381.681 346.803 377.887 350.457 377.887 354.965C377.887 359.472 381.681 363.127 386.36 363.127Z" fill="#FFBA15"/>
<path d="M127.963 313.852C131.445 313.852 134.268 311.033 134.268 307.554C134.268 304.076 131.445 301.257 127.963 301.257C124.481 301.257 121.658 304.076 121.658 307.554C121.658 311.033 124.481 313.852 127.963 313.852Z" fill="#FFBA15"/>
<path d="M116.211 157.112C121.755 157.112 126.248 152.397 126.248 146.582C126.248 140.766 121.755 136.052 116.211 136.052C110.668 136.052 106.174 140.766 106.174 146.582C106.174 152.397 110.668 157.112 116.211 157.112Z" fill="#2F4EBB"/>
<path d="M384.04 350.229C387.466 350.229 390.244 347.341 390.244 343.78C390.244 340.218 387.466 337.331 384.04 337.331C380.614 337.331 377.836 340.218 377.836 343.78C377.836 347.341 380.614 350.229 384.04 350.229Z" fill="#2F4EBB"/>
<path d="M466.961 172.378C470.721 172.378 473.77 169.129 473.77 165.122C473.77 161.116 470.721 157.867 466.961 157.867C463.2 157.867 460.151 161.116 460.151 165.122C460.151 169.129 463.2 172.378 466.961 172.378Z" fill="#2F4EBB"/>
</svg>
