<svg width="585" height="539" viewBox="0 0 585 539" fill="none" xmlns="http://www.w3.org/2000/svg">
<path d="M30.7136 422.351C52.1606 408.427 76.5084 410.224 99.0046 417.141C122.797 424.463 145.694 437.219 169.703 443.148C183.003 446.427 196.581 447.595 209.974 444.54C210.56 444.406 210.313 443.103 209.727 443.238C184.854 448.852 159.982 439.869 136.19 430.077C113.416 420.69 90.3641 410.269 66.4175 410.538C54.0122 410.673 41.6377 413.817 30.2507 421.184C29.6953 421.543 30.1582 422.711 30.7136 422.351Z" fill="#E8E8E8"/>
<path d="M123.555 433.94C165.945 434.793 206.985 423.07 248.43 416.108C260.535 414.087 272.73 412.47 285.015 411.661C285.87 411.616 285.87 410.269 285.015 410.314C242.58 413.099 201.675 425.765 159.555 430.706C147.63 432.098 135.615 432.862 123.6 432.637C122.655 432.592 122.655 433.94 123.555 433.94Z" fill="#E8E8E8"/>
<path d="M321.69 418.848C336.765 415.614 352.38 415.075 367.635 417.411C381.675 419.567 395.13 424.193 408.405 429.134C421.5 433.985 434.505 439.15 448.095 442.609C462.135 446.157 476.4 447.056 490.89 447.056C507.99 447.056 525.225 446.382 542.01 450.155C542.865 450.335 543.225 449.032 542.37 448.852C512.715 442.205 481.98 448.942 452.325 442.205C424.65 435.916 399.36 421.768 371.37 416.692C354.81 413.683 337.8 414.042 321.375 417.545C320.475 417.725 320.835 419.028 321.69 418.848Z" fill="#E8E8E8"/>
<path d="M75.9002 246.143C72.0302 244.975 64.4252 241.786 67.2602 236.396C69.2852 232.534 75.3152 232.219 79.0502 232.354C91.6502 232.713 104.25 233.791 116.85 232.758C128.685 231.77 139.98 228.401 151.5 225.706C163.2 222.921 175.575 220.9 187.365 224.314C192.54 225.796 197.355 228.266 202.44 229.973C204.87 230.782 207.39 231.411 209.955 231.68C213.015 231.995 216.075 231.545 219.09 231.411C222.195 231.276 225.39 231.366 228.045 233.207C230.475 234.869 232.5 238.013 230.925 240.933C228.675 245.155 222.105 243.987 218.325 243.179C207.12 240.843 195.825 240.124 184.44 241.652C178.41 242.46 172.515 243.942 166.755 245.784C160.545 247.76 154.515 249.512 147.9 248.614C141.735 247.76 135.84 245.784 129.585 245.559C123.33 245.29 117.12 246.098 110.955 246.907C98.9852 248.524 86.2052 250.59 75.0002 244.796C74.2352 244.392 73.5602 245.559 74.3252 245.964C84.8102 251.399 96.6452 250.141 107.985 248.659C113.925 247.85 119.91 246.997 125.94 246.862C132.555 246.727 138.72 248.254 145.155 249.512C151.725 250.77 157.665 250.096 164.055 248.12C170.4 246.143 176.655 244.212 183.225 243.224C190.02 242.191 196.905 241.921 203.745 242.415C209.82 242.819 215.625 244.436 221.61 245.11C225.165 245.514 229.71 245.38 231.915 242.056C234.435 238.238 231.735 233.791 228.27 231.68C223.005 228.491 216.48 230.737 210.765 230.378C204.465 229.973 198.66 227.054 192.855 224.808C180.795 220.137 168.465 220.72 156 223.371C142.815 226.155 129.99 230.423 116.49 231.501C108.705 232.129 100.83 231.995 93.0452 231.68C88.9952 231.5 84.9002 231.321 80.8502 231.141C78.3302 231.051 75.8552 231.006 73.3802 231.501C69.5552 232.264 65.1902 234.51 65.4602 239.046C65.7752 244.032 71.5352 246.323 75.5852 247.536C76.3502 247.715 76.7102 246.413 75.9002 246.143Z" fill="#E8E8E8"/>
<path d="M408 80.4458C404.13 79.9067 397.785 78.5143 396.66 74.1125C395.04 68.0038 403.77 66.0724 408 65.3088C420.375 63.1977 433.065 65.1292 445.53 65.1292C470.235 65.0842 494.58 60.4129 519.15 58.6612C531.435 57.7628 543.81 57.6281 556.05 59.2002C558.84 59.5595 561.765 59.829 564.465 60.6375C565.59 60.9519 566.85 61.4909 567.705 62.2994C569.775 64.3207 567.75 66.1622 565.86 67.1504C561 69.7107 555.465 70.7437 550.02 70.9683C539.13 71.4624 528.285 69.2166 517.395 69.6208C512.31 69.8005 507.315 70.6539 502.5 72.4057C496.875 74.4718 491.655 77.3914 485.985 79.3228C479.415 81.5687 472.485 82.6916 465.51 82.6916C458.445 82.6916 451.47 81.6136 444.495 80.8051C430.365 79.1881 416.19 79.233 402.105 81.1195C401.25 81.2542 401.25 82.6018 402.105 82.467C415.875 80.6254 429.825 80.4907 443.64 82.0627C450.48 82.8263 457.32 83.9043 464.25 84.0391C470.64 84.1738 477.075 83.3653 483.24 81.6136C489.54 79.8169 495.3 76.7177 501.375 74.2922C507.27 71.9565 513.345 70.9234 519.645 70.9234C531.255 70.8336 542.91 73.4388 554.52 71.9116C557.355 71.5523 560.1 70.9234 562.8 69.9352C564.87 69.1717 567.66 68.2284 569.145 66.4767C571.935 63.1079 567.885 60.1434 564.87 59.29C558.93 57.5382 552.225 57.2238 546.06 56.8645C539.355 56.4602 532.65 56.5052 525.945 56.8196C498.81 58.1222 471.99 63.7817 444.765 63.6918C437.025 63.6918 429.285 62.9732 421.545 62.9283C414.975 62.8833 407.46 63.0181 401.295 65.5783C397.425 67.1953 393.645 70.9683 395.805 75.4151C397.83 79.5923 403.545 81.0297 407.685 81.6136C408.495 81.8831 408.855 80.5805 408 80.4458Z" fill="#E8E8E8"/>
<path d="M30.9125 141.757C64.7686 125.497 101.872 140.679 133.09 156.984C149.003 165.293 164.673 174.187 181.276 180.745C197.554 187.168 214.483 191.614 231.654 194.175C266.119 199.34 301.396 197.049 335.293 188.65C370.813 179.846 404.467 163.856 439.703 153.84C476.36 143.419 514.682 141.173 552.069 147.866C556.616 148.674 561.122 149.617 565.628 150.695C566.399 150.875 566.724 149.572 565.953 149.393C529.661 140.859 491.948 140.454 455.575 148.45C419.202 156.445 384.981 172.794 349.298 183.44C314.671 193.77 278.501 197.948 242.737 194.22C224.956 192.378 207.338 188.56 190.288 182.631C172.67 176.522 156.148 167.629 139.544 158.825C109.545 142.88 75.6886 126.71 41.7513 136.187C37.8136 137.265 34.0383 138.748 30.3036 140.544C29.6135 140.948 30.2224 142.116 30.9125 141.757Z" fill="#E8E8E8"/>
<path d="M126.795 125.677C170.76 150.156 223.095 151.998 271.875 145.171C327.09 137.445 380.28 119.254 435.585 112.157C466.365 108.204 497.775 107.71 528.24 114.448C529.095 114.627 529.455 113.325 528.6 113.145C474.735 101.287 419.475 111.753 366.735 124.015C314.76 136.098 262.2 150.201 208.335 146.743C180.21 144.946 152.22 138.254 127.47 124.509C126.75 124.06 126.075 125.228 126.795 125.677Z" fill="#E8E8E8"/>
<path d="M30.7443 41.8174C63.8869 32.8341 99.2391 36.3825 130.488 51.8787C145.836 59.4697 160.237 69.3513 175.309 77.5711C190.5 85.8358 206.361 91.5402 223.09 94.1004C242.226 97.02 261.598 96.5259 280.774 95.0886C281.523 95.0437 281.523 93.6962 280.774 93.7411C263.453 95.0437 245.974 95.5827 228.693 93.5165C211.174 91.4054 194.445 86.1951 178.466 77.7957C163.275 69.7556 148.914 59.8739 133.644 52.0584C118.651 44.2429 102.751 39.0775 86.3765 36.8766C67.7141 34.3163 48.6965 35.574 30.4286 40.5148C29.679 40.6945 29.9946 41.9971 30.7443 41.8174Z" fill="#E8E8E8"/>
<path d="M378.93 314.057C374.97 313.249 368.49 311.228 368.175 306.332C367.995 303.322 370.515 301.121 373.17 300.313C376.365 299.28 379.74 300.223 382.845 301.121C388.515 302.783 394.23 304.131 400.17 304.355C405.705 304.58 411.195 303.771 416.55 302.334C422.31 300.807 427.935 298.741 433.65 297.124C439.68 295.417 445.845 294.519 452.145 294.429C464.16 294.249 476.04 296.405 488.01 296.899C493.995 297.124 499.89 296.809 505.785 295.911C512.175 294.923 518.7 293.441 525.225 294.204C529.905 294.743 537.42 297.887 535.89 303.906C534.54 309.161 527.07 312.126 522.48 313.608C499.44 321.064 475.68 308.667 452.325 311.946C438.87 313.833 426.18 319.492 412.59 320.57C406.38 321.064 399.99 320.66 394.095 318.459C388.695 316.393 383.835 311.901 377.67 312.979C376.815 313.114 377.175 314.417 378.03 314.282C381.72 313.653 384.96 315.405 388.065 317.112C390.585 318.459 393.105 319.717 395.85 320.525C401.475 322.232 407.505 322.457 413.355 321.918C426.225 320.705 438.33 315.629 451.065 313.563C465.105 311.317 478.92 314.551 492.78 316.393C504.075 317.875 516.18 318.235 526.8 313.518C530.85 311.722 536.25 308.847 537.285 304.086C538.23 299.819 534.945 296.405 531.39 294.653C526.125 292.093 519.78 292.587 514.2 293.351C507.405 294.249 500.79 295.686 493.905 295.776C480.495 296.001 467.265 293.261 453.9 293.216C447.51 293.216 441.165 293.935 434.955 295.552C428.79 297.169 422.805 299.415 416.685 301.076C409.125 303.098 401.52 303.727 393.78 302.514C389.91 301.885 386.265 300.807 382.53 299.729C379.74 298.92 376.725 298.247 373.8 298.876C369.435 299.819 365.475 303.951 367.41 308.578C369.165 312.8 374.52 314.641 378.66 315.495C379.38 315.54 379.74 314.237 378.93 314.057Z" fill="#E8E8E8"/>
<path d="M177.015 491.433C193.845 487.391 210.315 481.866 226.2 474.994C234.435 471.4 242.49 467.313 251.265 465.157C259.68 463.046 268.41 462.417 277.095 462.642C287.13 462.866 297.075 464.214 306.975 465.786C307.83 465.921 308.19 464.618 307.335 464.483C290.46 461.833 273.09 459.677 256.125 462.732C247.395 464.304 239.385 467.627 231.375 471.266C222.96 475.084 214.455 478.542 205.725 481.597C196.185 484.92 186.51 487.795 176.655 490.131C175.8 490.31 176.16 491.613 177.015 491.433Z" fill="#161616"/>
<path d="M283.35 463.136C290.91 462.956 298.38 461.878 305.67 459.767C313.095 457.656 320.43 454.691 328.305 455.455C332.31 455.814 336.225 456.937 340.095 457.925C344.145 458.959 348.15 459.992 352.2 461.025C359.985 463.001 367.725 464.977 375.51 466.954C376.365 467.178 376.724 465.876 375.869 465.651C367.815 463.585 359.76 461.564 351.705 459.498C344.325 457.611 336.765 455.096 329.205 454.197C321.78 453.344 314.76 455.635 307.74 457.791C299.775 460.216 291.675 461.609 283.395 461.833C282.495 461.788 282.495 463.136 283.35 463.136Z" fill="#161616"/>
<path d="M362.145 470.098C379.83 466.19 398.415 462.821 416.37 466.954C425.28 469.02 433.65 472.973 441.975 476.611C450.705 480.474 459.48 484.292 468.21 488.154C469.02 488.514 469.695 487.346 468.885 486.987C455.205 480.968 441.66 474.455 427.71 469.11C414.21 463.944 400.17 462.911 385.86 464.528C377.76 465.471 369.705 467.044 361.74 468.84C360.93 468.975 361.29 470.278 362.145 470.098Z" fill="#161616"/>
<path d="M202.26 507.019C206.895 506.211 211.575 505.402 216.21 504.594C220.845 503.785 225.525 502.752 230.205 502.258C234.525 501.809 238.935 502.573 243.21 502.977C247.935 503.471 252.705 503.92 257.43 504.414C258.285 504.504 258.285 503.157 257.43 503.067C252.705 502.573 247.935 502.123 243.21 501.629C238.62 501.18 233.985 500.417 229.35 501.001C220.17 502.123 211.035 504.145 201.9 505.717C201.045 505.896 201.405 507.199 202.26 507.019Z" fill="#161616"/>
<path d="M77.9696 304.445C81.0514 304.445 83.5496 301.952 83.5496 298.876C83.5496 295.799 81.0514 293.306 77.9696 293.306C74.8879 293.306 72.3896 295.799 72.3896 298.876C72.3896 301.952 74.8879 304.445 77.9696 304.445Z" fill="#FFBA15"/>
<path d="M93.0451 316.662C94.6606 316.662 95.9701 315.355 95.9701 313.743C95.9701 312.13 94.6606 310.823 93.0451 310.823C91.4297 310.823 90.1201 312.13 90.1201 313.743C90.1201 315.355 91.4297 316.662 93.0451 316.662Z" fill="#FFBA15"/>
<path d="M406.875 31.4866C410.678 31.4866 413.76 28.4098 413.76 24.6143C413.76 20.8189 410.678 17.7421 406.875 17.7421C403.073 17.7421 399.99 20.8189 399.99 24.6143C399.99 28.4098 403.073 31.4866 406.875 31.4866Z" fill="#FFBA15"/>
<path d="M422.895 39.2572C425.058 39.2572 426.81 37.5076 426.81 35.3494C426.81 33.1912 425.058 31.4417 422.895 31.4417C420.733 31.4417 418.98 33.1912 418.98 35.3494C418.98 37.5076 420.733 39.2572 422.895 39.2572Z" fill="#FFBA15"/>
<path d="M420.285 37.6402C423.888 37.6402 426.81 34.7242 426.81 31.1273C426.81 27.5303 423.888 24.6143 420.285 24.6143C416.681 24.6143 413.76 27.5303 413.76 31.1273C413.76 34.7242 416.681 37.6402 420.285 37.6402Z" fill="#2F4EBB"/>
<path d="M404.67 372.808C409.541 372.808 413.49 368.867 413.49 364.005C413.49 359.143 409.541 355.201 404.67 355.201C399.798 355.201 395.85 359.143 395.85 364.005C395.85 368.867 399.798 372.808 404.67 372.808Z" fill="#2F4EBB"/>
<path d="M84.4502 35.8435C87.5568 35.8435 90.0752 33.3298 90.0752 30.2289C90.0752 27.1281 87.5568 24.6143 84.4502 24.6143C81.3436 24.6143 78.8252 27.1281 78.8252 30.2289C78.8252 33.3298 81.3436 35.8435 84.4502 35.8435Z" fill="#2F4EBB"/>
<path d="M173.46 419.791C177.263 419.791 180.345 416.714 180.345 412.919C180.345 409.123 177.263 406.047 173.46 406.047C169.658 406.047 166.575 409.123 166.575 412.919C166.575 416.714 169.658 419.791 173.46 419.791Z" fill="#2F4EBB"/>
<path d="M223.14 290.521C222.195 290.117 223.275 288.455 223.77 288.23C224.355 287.961 225.525 288.32 226.155 288.5C227.145 288.814 228 289.353 228.99 289.623C230.07 289.937 231.375 290.027 232.41 289.533C236.01 287.691 231.735 281.493 237 281.493C239.88 281.493 242.31 285.76 244.695 282.571C245.55 281.448 245.91 280.011 246.36 278.663C246.72 277.495 247.035 276.282 247.845 275.339C248.79 274.261 251.67 273.183 251.985 275.519C252.075 276.372 253.47 276.372 253.335 275.519C253.11 273.902 251.94 272.824 250.275 272.734C248.295 272.599 246.855 274.081 246.045 275.699C245.46 276.821 245.19 278.079 244.785 279.292C244.515 280.145 244.155 281.628 243.39 282.167C242.58 282.706 241.95 282.122 241.275 281.717C239.52 280.55 237.405 279.651 235.29 280.415C233.355 281.133 232.59 282.795 232.68 284.772C232.68 285.356 232.86 286.074 232.815 286.658C232.5 288.724 231.105 288.814 229.665 288.5C228.225 288.185 227.01 287.287 225.525 287.018C223.95 286.703 222.375 287.107 221.655 288.679C221.07 290.027 221.43 291.375 222.78 291.914C223.59 292.138 223.95 290.835 223.14 290.521Z" fill="#2F4EBB"/>
<path d="M246.36 292.677C245.685 291.644 245.685 290.341 246.405 289.308C247.44 287.826 248.88 288.051 250.455 288.275C251.625 288.455 253.065 288.679 253.92 287.646C254.505 286.973 254.415 286.164 254.64 285.401C254.955 284.278 255.675 283.289 256.62 282.616C258.6 281.178 261.39 280.954 263.37 282.481C263.865 282.84 264.45 282.616 264.54 281.987C265.08 277.63 269.4 274.396 273.72 275.159C274.575 275.294 274.935 273.992 274.08 273.857C268.815 272.959 263.82 276.732 263.19 281.987C263.595 281.807 263.955 281.672 264.36 281.493C262.515 280.055 260.175 279.696 257.97 280.46C255.45 281.313 254.28 282.975 253.335 285.311C252.885 286.479 252.345 287.197 251.04 287.018C250.32 286.928 249.645 286.748 248.925 286.703C247.89 286.658 246.99 286.928 246.18 287.601C244.47 289.039 244.02 291.509 245.235 293.396C245.685 294.114 246.855 293.441 246.36 292.677Z" fill="#2F4EBB"/>
<path d="M269.13 46.8481C268.365 46.1294 268.59 45.6802 269.76 45.4557C270.255 44.7819 270.795 44.6472 271.38 45.0963C272.19 45.276 272.73 45.9947 273.315 46.5337C274.035 47.1625 274.665 47.8812 275.475 48.3752C276.6 49.0041 277.995 49.2736 279.165 48.6897C280.605 47.971 280.65 46.5337 281.145 45.1862C282.495 41.5928 287.085 41.2335 289.245 44.2878C289.515 44.6472 290.19 44.7819 290.415 44.2878C291.27 42.2666 292.35 39.9758 294.285 38.7631C296.22 37.5503 299.46 37.6851 300.315 40.2004C300.585 41.0089 301.89 40.6496 301.62 39.8411C300.765 37.4156 298.29 36.3376 295.815 36.7418C292.395 37.3257 290.505 40.7394 289.245 43.6141C289.65 43.6141 290.01 43.6141 290.415 43.6141C288.84 41.3682 286.14 40.1555 283.44 41.1437C282.315 41.5479 281.28 42.3564 280.605 43.3895C280.245 43.9285 280.02 44.5124 279.795 45.1412C279.66 45.5455 279.66 46.0396 279.435 46.3989C278.85 47.3871 277.23 47.7913 276.195 47.2074C273.99 45.9947 271.83 42.1318 268.77 43.7039C267.06 44.5573 266.835 46.9828 268.455 48.0159C269.22 48.4651 269.895 47.2973 269.13 46.8481Z" fill="#FFBA15"/>
<path d="M298.021 46.4887C297.706 41.9971 303.466 43.4793 305.761 44.6022C306.931 45.1862 308.371 46.2642 309.631 45.276C310.036 44.9616 310.216 44.5124 310.396 44.0632C311.071 42.581 311.521 41.503 313.321 40.964C316.111 40.1555 318.811 41.9072 321.061 43.3446C321.781 43.7937 322.456 42.6259 321.736 42.1767C319.351 40.6945 316.651 39.0326 313.726 39.5267C312.781 39.6614 311.836 40.0207 311.071 40.6047C309.901 41.4581 309.676 42.9403 308.506 43.659C307.381 44.3327 306.931 43.659 305.806 43.12C305.221 42.8505 304.636 42.581 304.006 42.3564C302.836 41.9522 301.576 41.7725 300.361 42.042C298.246 42.5361 296.536 44.2429 296.671 46.4887C296.716 47.3422 298.066 47.3422 298.021 46.4887Z" fill="#FFBA15"/>
<path d="M428.25 232.534C425.28 226.021 436.53 223.146 437.295 229.973C437.565 232.264 436.305 234.69 433.965 235.318C431.355 235.992 428.565 234.24 427.845 231.725C427.62 230.872 426.315 231.231 426.54 232.084C427.44 235.318 430.995 237.474 434.325 236.621C437.61 235.768 439.23 232.129 438.465 228.985C437.655 225.661 434.19 224.044 430.995 224.898C427.26 225.886 425.505 229.794 427.08 233.297C427.44 234.016 428.61 233.297 428.25 232.534Z" fill="#FFBA15"/>
<path d="M436.62 237.699C434.19 237.474 433.29 234.24 434.955 232.623C436.35 231.231 438.735 231.321 440.22 232.489C441.75 233.701 443.235 237.25 441.525 238.957C439.275 241.202 436.53 237.564 435.45 235.947C434.955 235.229 433.785 235.902 434.28 236.621C435.855 239.046 439.455 242.864 442.47 239.9C444.855 237.564 443.145 232.848 440.805 231.186C438.42 229.479 434.505 230.063 433.155 232.848C431.805 235.543 433.785 238.777 436.665 239.047C437.475 239.136 437.475 237.789 436.62 237.699Z" fill="#FFBA15"/>
<path d="M36.77 189.054C38.9121 188.964 40.0367 187.751 41.5362 186.628C45.0708 183.978 49.1408 186.493 51.3901 189.098C53.5322 191.569 56.6383 193.321 59.3695 190.356C60.6548 188.964 61.2975 186.898 63.0647 185.909C66.6528 183.888 69.7054 187.886 71.9546 189.637C74.5252 191.614 79.827 192.512 81.0051 188.829C81.2729 187.976 79.7198 187.616 79.4521 188.47C78.863 190.401 76.0782 190.356 74.4181 189.548C73.1328 188.919 72.2224 187.931 71.2049 187.077C69.7054 185.73 68.0452 184.427 65.7959 184.068C62.1008 183.529 60.4406 186.314 58.7804 188.559C58.352 189.188 57.8165 190.042 57.0132 190.401C55.0853 191.254 53.6929 189.548 52.6753 188.425C51.3901 186.898 49.9441 185.595 47.8555 184.786C46.1418 184.113 44.1068 183.888 42.3395 184.517C40.3045 185.236 39.0192 187.661 36.7164 187.751C35.7525 187.751 35.7524 189.098 36.77 189.054Z" fill="#FFBA15"/>
<path d="M59.2954 171.986C61.1854 174.232 64.5604 177.241 67.5304 174.771C68.2504 174.142 68.6554 173.244 69.4204 172.615C70.5454 171.761 72.0304 171.582 73.3354 171.986C76.1704 172.749 77.8354 175.445 79.3204 177.735C79.5905 178.14 80.2655 178.229 80.4905 177.735C82.4255 173.513 87.6004 172.48 91.6504 174.097C92.4604 174.411 92.8204 173.109 92.0104 172.794C87.4654 170.953 81.4804 172.3 79.3204 177.017C79.7254 177.017 80.0855 177.017 80.4905 177.017C78.4655 173.872 75.9004 170.279 71.6704 170.414C70.1854 170.459 68.8354 171.088 67.8454 172.166C66.6754 173.513 65.6854 174.591 63.7504 174.007C62.2654 173.558 61.1854 172.166 60.1954 170.998C59.7004 170.369 58.7554 171.312 59.2954 171.986Z" fill="#FFBA15"/>
<path d="M140.34 218.969C139.755 217.801 139.08 216.588 138.54 215.375C137.955 214.118 138.225 213.624 138.99 212.546C139.98 211.153 141.51 209.896 143.265 210.839C144.525 211.513 145.335 213.04 145.695 214.342C146.325 216.543 145.785 219.687 143.22 220.406C141.105 220.99 138.36 219.687 138.45 217.262C138.45 216.408 137.1 216.408 137.1 217.262C137.01 220.271 140.025 222.158 142.815 221.843C146.235 221.439 147.675 217.846 147.18 214.791C146.685 211.827 143.94 208.054 140.52 209.446C138.855 210.12 137.595 211.872 136.83 213.444C136.38 214.387 136.47 214.432 136.92 215.375C137.64 216.813 138.36 218.25 139.08 219.642C139.575 220.406 140.745 219.732 140.34 218.969Z" fill="#2F4EBB"/>
<path d="M145.335 227.772C143.625 225.751 140.7 221.799 143.22 219.283C145.02 217.487 148.26 218.16 149.745 219.957C151.275 221.799 151.59 225.392 149.205 226.739C147.18 227.907 144.255 226.784 143.895 224.449C143.76 223.595 142.455 223.955 142.59 224.808C143.13 227.862 146.865 229.3 149.565 228.087C152.85 226.56 152.985 222.023 151.05 219.373C149.205 216.813 145.155 215.914 142.635 218.025C138.99 221.035 142.14 225.976 144.435 228.671C144.93 229.389 145.875 228.446 145.335 227.772Z" fill="#FFBA15"/>
<path d="M411.42 136.861C411.465 132.908 416.91 134.076 419.25 134.346C421.275 134.57 423.12 134.301 424.92 133.313C426.9 132.28 428.52 130.663 430.455 129.54C431.715 128.776 433.245 128.102 434.73 128.102C436.305 128.147 437.295 129.09 438.69 129.674C441.93 130.977 444 127.968 446.025 125.991C450.03 122.083 455.745 123.7 460.425 125.317C461.235 125.587 461.595 124.284 460.785 124.015C456.6 122.578 451.29 121.005 447.15 123.386C445.17 124.509 444 126.575 442.2 127.878C439.635 129.719 437.475 126.8 434.775 126.755C428.97 126.665 425.91 133.358 420.06 133.043C417.54 132.908 415.11 131.965 412.68 133.088C411.105 133.807 410.115 135.064 410.07 136.816C410.025 137.714 411.375 137.714 411.42 136.861Z" fill="#2F4EBB"/>
<path d="M445.08 135.334C447.96 131.246 453.36 129.27 458.22 130.663C460.335 131.291 462.315 132.998 464.655 132.863C466.59 132.729 467.625 131.157 468.93 129.944C471.045 128.012 473.79 126.44 476.76 126.53C478.56 126.575 479.955 127.249 481.35 128.417C481.8 128.821 482.16 129.18 482.79 129.36C483.69 129.585 484.5 129.18 485.31 128.821C486.705 128.192 488.145 127.653 489.63 127.249C492.69 126.485 495.795 126.351 498.9 126.755C499.755 126.845 499.755 125.497 498.9 125.407C495.93 125.003 492.96 125.093 490.035 125.767C488.73 126.081 487.425 126.485 486.165 126.979C485.175 127.384 484.68 127.653 483.555 127.653C482.34 127.653 482.43 127.473 481.62 126.845C477.795 123.925 472.665 125.273 469.2 128.012C468.255 128.731 467.49 129.719 466.59 130.438C464.43 132.145 462.72 131.067 460.515 130.079C458.625 129.225 456.645 128.821 454.575 128.911C450.3 129.09 446.43 131.202 444 134.66C443.415 135.379 444.585 136.053 445.08 135.334Z" fill="#2F4EBB"/>
<path d="M347.204 436.59C348.059 441.98 348.914 447.415 349.724 452.805C331.949 458.554 323.219 462.193 323.579 463.72C324.029 465.606 338.249 464.214 366.239 459.677C364.619 451.143 363.044 442.609 361.424 434.075C356.654 434.883 351.929 435.737 347.204 436.59Z" fill="black"/>
<path d="M308.954 256.115C308.639 262.224 308.189 270.937 307.784 281.493C307.379 292.677 307.154 298.516 307.199 305.703C307.199 308.802 307.334 321.424 308.954 337.683C310.304 351.383 312.419 371.865 319.934 397.063C322.904 407.035 327.494 420.42 334.649 435.692C337.934 436.186 341.804 436.455 346.214 436.276C354.494 435.871 361.199 433.85 365.834 431.964C364.484 427.562 362.594 421.318 360.614 413.817C357.959 403.666 350.309 373.078 347.339 331.979C345.854 311.317 345.314 285.535 347.924 255.89C334.964 255.935 321.959 256.025 308.954 256.115Z" fill="#FFBA15"/>
<path opacity="0.09" d="M346.799 259.573C345.944 262.807 344.819 267.479 343.604 273.138C340.454 288.095 337.214 309.431 337.529 345.499C337.709 367.688 339.284 398.366 345.044 435.422C347.294 435.198 349.589 434.928 351.974 434.569C356.969 433.805 361.604 432.817 365.834 431.694C363.944 425.585 361.334 416.512 358.634 405.463C349.049 366.071 346.349 332.653 345.629 310.599C345.224 297.483 345.224 280.1 346.799 259.573Z" fill="#606060"/>
<path d="M346.935 257.283C342.435 302.738 345.225 348.868 355.17 393.47C358.005 406.137 361.38 418.623 365.34 430.975C365.61 431.784 366.915 431.425 366.645 430.616C352.785 387.182 345.855 341.636 346.215 296.046C346.305 283.11 347.025 270.129 348.285 257.238C348.375 256.429 347.025 256.429 346.935 257.283Z" fill="#161616"/>
<path d="M307.109 297.573C305.444 334.405 310.619 371.461 322.229 406.451C325.469 416.243 329.249 425.855 333.524 435.243C333.884 436.051 335.054 435.332 334.694 434.569C319.619 401.106 310.754 364.948 308.639 328.341C308.054 318.1 308.009 307.859 308.459 297.573C308.504 296.675 307.154 296.719 307.109 297.573Z" fill="#161616"/>
<path d="M334.064 435.647C335.594 437.354 339.104 436.949 341.174 436.994C344.324 437.039 347.519 436.725 350.624 436.276C353.999 435.781 357.374 435.063 360.704 434.254C362.369 433.85 365.834 433.76 366.689 431.919C367.049 431.155 365.879 430.436 365.519 431.245C365.114 432.188 362.864 432.368 362.009 432.547C360.749 432.862 359.534 433.131 358.274 433.446C355.889 433.985 353.549 434.479 351.164 434.838C348.689 435.242 346.214 435.512 343.739 435.602C341.849 435.692 336.449 436.276 335.054 434.703C334.424 434.03 333.479 435.018 334.064 435.647Z" fill="#161616"/>
<path d="M295.679 255.845C294.374 258.675 292.619 264.065 291.359 268.826C289.784 274.89 289.379 278.528 288.479 283.828C286.814 293.62 285.689 295.282 283.259 306.017C280.694 317.516 279.524 326.365 278.624 333.416C277.904 338.896 276.599 350.08 276.014 364.544C275.744 370.787 275.609 374.47 275.744 379.546C276.104 395.491 278.669 407.843 279.794 412.694C282.809 426.035 287.219 437.443 291.629 446.696C293.654 447.729 296.714 449.032 300.584 449.885C305.354 450.918 311.474 452.266 317.324 449.301C318.944 448.493 322.634 446.247 325.424 440.947C323.264 435.063 320.609 426.708 318.494 416.467C313.274 391.045 315.164 370.922 316.469 358.255C318.899 334.315 324.479 316.348 334.064 285.356C337.304 274.935 340.184 266.491 342.164 260.876C342.839 256.429 344.414 243.089 337.259 237.519C326.774 229.255 302.339 241.517 295.679 255.845Z" fill="#FFBA15"/>
<path opacity="0.08" d="M335.819 279.741C332.894 284.367 328.844 291.24 324.839 299.909C319.889 310.599 312.599 329.374 308.684 366.789C306.524 387.227 305.084 415.838 308.414 450.379C309.809 450.514 315.749 451.008 320.834 446.921C323.444 444.81 324.794 442.384 325.469 440.857C323.264 434.793 320.429 425.9 318.269 414.895C311.879 382.825 315.884 357.043 318.854 339.076C321.284 324.074 326.009 303.367 335.819 279.741Z" fill="#606060"/>
<path d="M302.744 449.796C304.274 455.275 305.804 460.8 307.334 466.28C283.214 473.601 271.379 478.183 271.784 479.98C272.234 482.046 288.659 480.519 321.06 475.398C320.205 466.594 319.35 457.836 318.54 449.032C313.23 449.257 307.964 449.526 302.744 449.796Z" fill="black"/>
<path d="M295.185 256.384C290.415 268.422 287.985 281.178 285.42 293.845C282.72 307.095 280.11 320.346 278.22 333.731C274.71 358.525 273.63 383.903 278.445 408.607C281.01 421.902 285.33 434.838 291.675 446.786C292.08 447.55 293.25 446.876 292.845 446.112C268.77 400.432 276.06 346.981 285.87 298.516C288.705 284.457 291.225 270.129 296.535 256.744C296.805 255.935 295.5 255.576 295.185 256.384Z" fill="#161616"/>
<path d="M335.234 279.651C320.159 319.762 310.079 362.882 315.929 405.867C317.549 417.725 320.384 429.358 324.524 440.588C324.839 441.396 326.144 441.037 325.829 440.228C310.844 399.848 313.904 355.56 325.154 314.641C328.394 302.918 332.264 291.374 336.539 279.966C336.854 279.157 335.549 278.843 335.234 279.651Z" fill="#161616"/>
<path d="M291.81 446.741C298.155 450.245 305.445 451.727 312.645 450.784C318.54 449.975 325.38 447.28 325.965 440.498C326.055 439.644 324.705 439.644 324.615 440.498C323.985 447.55 315.435 449.436 309.63 449.706C303.645 449.975 297.75 448.493 292.53 445.573C291.72 445.169 291.045 446.337 291.81 446.741Z" fill="#161616"/>
<path d="M300.839 145.598L300.839 145.598C295.373 155.179 295.01 164.587 294.92 172.934C294.917 173.304 294.914 173.669 294.912 174.028C294.826 185.479 294.78 191.591 296.043 204.412L296.043 204.412C297.256 216.793 297.573 234.522 293.261 257.11C297.129 259.913 302.697 263.096 309.924 264.791C330.713 269.653 348.045 257.925 351.969 255.127C347.725 230.238 345.398 210.3 344.052 196.289M300.839 145.598L344.55 196.241M300.839 145.598L300.842 145.593C302.435 142.723 304.115 140.556 305.316 139.134M300.839 145.598L304.95 138.793M344.052 196.289L344.55 196.241M344.052 196.289C344.052 196.289 344.052 196.289 344.052 196.289L344.55 196.241M344.052 196.289C343.219 187.617 340.189 175.065 334.175 150.151C334.053 149.643 333.929 149.13 333.804 148.612L333.804 148.611C332.856 144.649 331.91 140.836 330.483 137.744C329.059 134.658 327.191 132.369 324.442 131.356L324.439 131.355C320.611 129.912 316.277 131.392 312.605 133.537C308.983 135.652 306.141 138.335 305.316 139.134M344.55 196.241C343.713 187.534 340.676 174.951 334.679 150.105C334.55 149.574 334.421 149.037 334.29 148.495C332.4 140.589 330.465 133.043 324.615 130.887C316.515 127.833 306.57 137.22 304.95 138.793M305.316 139.134C305.321 139.128 305.327 139.122 305.332 139.115L304.95 138.793M305.316 139.134C305.31 139.14 305.304 139.146 305.298 139.151L304.95 138.793" fill="white" stroke="black"/>
<path opacity="0.1" d="M346.895 223.874L346.896 223.879C346.931 224.045 346.969 224.22 347.008 224.405C347.627 227.292 348.766 232.609 349.905 240.064C350.824 246.221 351.402 251.356 351.721 254.806C349.894 256.182 347.738 257.632 345.253 259.001C341.644 260.989 338.226 262.283 335.322 263.171C334.863 224.048 333.387 193.788 332.088 177.605C330.826 161.818 329.024 151.2 327.671 144.178C326.733 139.253 325.795 135.175 325.091 132.277C326.352 132.699 327.607 133.128 328.861 133.609C330.166 137.079 332.187 142.727 334.122 149.794L334.123 149.795C335.545 154.96 336.338 158.652 337.646 164.75C338.154 167.119 338.74 169.85 339.471 173.171L339.472 173.174C339.653 173.973 339.85 174.849 340.064 175.799C340.965 179.802 342.159 185.107 343.645 191.406C343.829 206.146 345.451 216.76 346.895 223.874Z" fill="#606060" stroke="black"/>
<path d="M304.905 143.105C305.31 143.913 305.985 144.183 307.47 144.901C308.73 145.53 309.945 146.294 311.205 146.833C315.075 148.495 319.62 155.861 320.34 157.029C323.085 161.475 326.28 166.686 328.125 174.232C328.62 176.208 329.745 181.329 328.44 198.622C327.045 216.364 325.245 218.834 326.64 227.683C327.675 234.106 328.98 241.786 335.325 245.964C341.22 249.826 348.015 248.479 349.41 248.209C357.96 246.548 362.82 239.945 367.545 233.522C374.745 223.775 377.49 214.028 378.66 208.368C379.2 205.718 379.11 197.948 378.975 182.452C378.795 166.461 378.525 160.936 374.34 156.265C371.505 153.121 368.04 151.639 365.655 150.875C365.835 149.887 365.88 148.405 365.07 147.147C363.54 144.811 359.895 144.856 357.555 144.901C347.52 145.171 340.05 151.908 339.69 152.223C333.435 158.017 331.59 165.114 331.005 168.078C329.745 162.509 327.675 158.241 326.055 155.502C324.66 153.121 322.59 150.695 318.405 145.755C315.12 141.892 313.545 140.409 311.07 139.601C310.53 139.421 306.435 138.209 305.085 140.05C304.455 140.904 304.455 142.206 304.905 143.105Z" fill="white"/>
<path opacity="0.11" d="M304.59 141.443C304.86 140.948 307.875 142.071 308.19 142.206C312.645 143.913 316.605 147.461 321.69 155.681C324.3 159.903 327.585 165.877 330.375 173.648C332.355 171.627 334.02 169.965 335.325 168.707C335.325 168.707 340.14 164.081 347.925 159.589C348.69 159.14 349.635 158.601 350.31 159.005C351.705 159.769 350.22 163.497 350.625 166.955C350.94 169.56 352.47 173.154 358.275 177.151C358.41 177.915 358.455 178.993 357.825 179.712C356.565 181.104 353.325 179.981 351.66 179.397C348.96 178.454 343.74 175.984 337.575 168.752C336.99 171.088 336.225 174.411 335.64 178.499C335.1 182.047 333.615 193.86 336.09 209.042C337.08 215.061 338.925 223.101 342.705 232.264C344.37 232.983 346.485 233.656 349.005 234.061C354.27 234.869 358.635 233.836 361.155 233.028C359.67 233.746 357.645 234.959 355.89 237.07C353.775 239.63 353.73 241.562 351.975 243.942C350.805 245.559 348.69 247.581 344.775 249.018C343.56 248.883 341.715 248.569 339.69 247.67C333.525 244.931 330.735 239.136 329.475 236.441C327.81 232.803 325.245 225.437 327.675 200.508C329.07 186.269 330.6 181.823 328.26 173.693C326.46 167.449 323.355 162.284 322.275 160.532C320.34 157.388 316.875 151.773 310.575 146.608C307.605 144.093 304.32 142.026 304.59 141.443Z" fill="#606060"/>
<path d="M354.765 151.504C353.955 152.582 352.92 154.154 352.11 156.22C351.66 157.433 350.58 160.263 350.85 163.856C351.345 170.998 356.475 175.355 357.42 176.118C358.05 176.612 358.59 177.017 358.95 177.241C358.41 179.083 357.78 181.823 357.555 185.191C357.195 189.953 356.835 195.298 359.625 196.87C361.425 197.858 364.125 197.184 365.61 195.747C365.97 195.388 367.005 194.265 367.275 189.189C367.59 183.17 366.33 180.655 368.13 178.903C368.895 178.095 370.2 177.601 371.325 177.106C372.585 176.567 373.71 176.298 374.52 176.118C374.025 179.801 373.665 183.08 373.395 185.73C373.08 189.009 372.945 190.671 374.07 191.704C375.105 192.648 376.815 192.827 378.12 192.243C379.83 191.48 380.37 189.369 381.315 185.147C382.08 181.823 382.71 179.038 382.305 175.265C382.08 173.333 381.675 171.761 381.315 170.683C381.225 169.92 381 168.797 380.64 167.494C379.875 164.889 379.155 164.126 378.705 162.464C378.03 160.083 378.795 158.915 378.975 156.22C379.155 154.109 378.975 151.1 377.445 147.327C376.86 147.372 375.645 147.461 374.385 148.315C372.855 149.303 372.225 150.74 372 151.234C370.83 150.965 368.715 150.695 366.285 151.369C362.1 152.492 359.895 155.591 359.31 156.535C360.48 153.974 359.49 151.459 357.915 150.83C356.565 150.246 354.945 151.414 354.765 151.504Z" fill="black"/>
<path d="M359.85 165.428C360.3 164.575 362.55 162.688 363.315 164.26C363.675 165.024 364.845 164.35 364.485 163.587C363.99 162.553 362.775 162.239 361.695 162.464C360.39 162.688 359.31 163.587 358.68 164.754C358.275 165.518 359.445 166.192 359.85 165.428Z" fill="white"/>
<path d="M373.035 161.969C373.305 161.386 373.575 160.712 374.025 160.263C374.475 159.813 375.825 159.319 375.87 160.352C375.915 161.206 377.265 161.206 377.22 160.352C377.13 159.05 376.005 158.196 374.7 158.376C373.215 158.646 372.45 159.993 371.865 161.251C371.505 162.059 372.675 162.778 373.035 161.969Z" fill="white"/>
<path d="M373.395 166.237C373.395 166.281 373.395 166.326 373.395 166.371C373.305 166.461 373.215 166.551 373.17 166.596C372.945 166.731 372.585 166.596 372.63 166.326C372.63 166.326 372.63 166.192 372.675 166.237L372.54 166.371C372.855 166.371 373.17 166.371 373.485 166.371C373.44 166.326 373.44 166.326 373.395 166.281C373.44 166.326 373.44 166.326 373.44 166.326C373.395 166.281 373.44 166.281 373.44 166.371C373.485 166.641 373.35 166.82 372.99 166.955C372.855 166.91 372.765 166.91 372.63 166.865C372.45 166.776 372.495 166.506 372.54 166.371C372.585 166.326 372.54 166.326 372.495 166.416C372.54 166.371 372.54 166.371 372.495 166.416C372.18 166.641 372.045 167 372.27 167.359C372.45 167.629 372.9 167.809 373.215 167.584C373.53 167.359 373.845 167.045 373.89 166.596C373.89 166.102 373.53 165.653 373.035 165.653C372.54 165.653 372.18 165.967 372.135 166.461C372.09 166.82 372.315 167.135 372.54 167.359C372.81 167.629 373.215 167.584 373.485 167.359C374.07 166.91 374.205 165.967 373.53 165.518C373.215 165.338 372.81 165.293 372.495 165.473C372.09 165.698 372.045 166.237 372.135 166.641C372.18 167 372.63 167.18 372.945 167.09C373.305 166.955 373.44 166.596 373.395 166.237Z" fill="white"/>
<path d="M366.195 167.629C364.89 168.393 363.135 168.033 362.28 166.776C361.785 166.057 360.615 166.731 361.11 167.449C362.415 169.291 364.89 169.92 366.915 168.797C367.635 168.348 366.96 167.18 366.195 167.629Z" fill="white"/>
<path d="M365.205 170.549C364.215 171.312 363.36 172.3 362.775 173.423C362.37 174.187 363.54 174.861 363.945 174.097C364.485 173.064 365.25 172.211 366.195 171.492C366.465 171.267 366.42 170.773 366.195 170.549C365.88 170.279 365.475 170.324 365.205 170.549Z" fill="white"/>
<path d="M376.139 165.608C377.039 164.575 377.714 163.407 378.164 162.104C378.434 161.296 377.129 160.936 376.859 161.745C376.499 162.823 375.914 163.811 375.194 164.665C374.654 165.338 375.599 166.282 376.139 165.608Z" fill="white"/>
<path d="M376.23 167.315C377.31 167.09 378.57 166.82 379.425 167.719C380.01 168.348 380.955 167.404 380.37 166.776C379.155 165.473 377.4 165.698 375.825 166.057C375.015 166.192 375.375 167.494 376.23 167.315Z" fill="white"/>
<path d="M304.365 142.071C306.435 138.837 311.34 140.769 313.815 142.386C316.785 144.272 319.035 147.102 321.06 149.932C325.155 155.636 328.8 161.835 330.15 168.797C330.33 169.65 331.635 169.291 331.455 168.438C329.88 160.128 325.02 152.133 319.53 145.755C316.335 142.071 307.29 135.109 303.195 141.443C302.745 142.116 303.915 142.835 304.365 142.071Z" fill="#161616"/>
<path d="M307.155 145.126C317.955 151.19 324.03 162.553 327.09 174.142C327.315 174.995 328.62 174.636 328.395 173.783C325.245 161.88 318.9 150.156 307.83 143.958C307.065 143.509 306.39 144.677 307.155 145.126Z" fill="#161616"/>
<path d="M331.455 168.213C332.58 160.263 337.665 153.615 344.64 149.797C348.24 147.821 352.245 146.608 356.34 146.024C358.275 145.755 360.525 145.485 362.415 146.204C364.485 146.967 366.465 150.246 363.855 151.729C363.09 152.133 363.765 153.301 364.53 152.896C367.41 151.279 366.69 147.147 364.17 145.575C360.255 143.105 353.775 144.856 349.77 146.204C339.87 149.393 331.68 157.388 330.195 167.943C330.015 168.707 331.32 169.066 331.455 168.213Z" fill="#161616"/>
<path d="M334.47 170.234C336.675 167.674 339.465 165.518 342.165 163.497C344.775 161.52 347.565 159.903 350.805 159.185C351.66 159.005 351.3 157.702 350.445 157.882C347.115 158.646 344.19 160.308 341.49 162.329C338.7 164.44 335.82 166.641 333.525 169.291C332.94 169.92 333.885 170.908 334.47 170.234Z" fill="#161616"/>
<path d="M350.985 159.319C351.93 157.163 353.145 155.097 354.63 153.256C354.9 152.941 355.215 152.402 355.575 152.178C355.89 151.594 356.295 151.549 356.88 152.088C357.6 152.088 357.915 152.357 357.915 152.986C358.41 153.929 358.455 155.546 358.635 156.624C358.815 157.478 360.12 157.118 359.94 156.265C359.58 154.558 359.13 148.45 355.89 150.111C354.63 150.74 353.685 152.312 352.875 153.39C351.66 155.052 350.67 156.804 349.815 158.646C349.455 159.409 350.625 160.128 350.985 159.319Z" fill="#161616"/>
<path d="M359.67 157.029C361.965 154.064 366.645 149.977 370.65 152.178C371.415 152.582 372.09 151.414 371.325 151.01C366.69 148.539 361.47 152.582 358.68 156.085C358.185 156.759 359.13 157.702 359.67 157.029Z" fill="#161616"/>
<path d="M371.955 151.953C372.585 150.965 375.51 147.416 376.77 148.36C377.445 148.854 377.58 150.606 377.76 151.414C378.03 152.672 378.12 153.929 378.165 155.232C378.21 156.085 379.56 156.085 379.515 155.232C379.47 153.435 379.245 151.684 378.795 149.932C378.525 148.944 378.3 147.057 377.13 146.743C376.05 146.473 374.565 147.506 373.755 148.09C372.54 148.944 371.595 150.022 370.83 151.279C370.335 151.998 371.505 152.672 371.955 151.953Z" fill="#161616"/>
<path d="M336.225 168.033C339.33 171.043 342.615 173.827 346.125 176.343C349.59 178.813 352.965 180.565 357.33 180.34C358.185 180.295 358.185 178.948 357.33 178.993C352.875 179.217 349.59 177.241 346.125 174.726C342.93 172.39 339.96 169.83 337.125 167.09C336.54 166.506 335.595 167.449 336.225 168.033Z" fill="#161616"/>
<path d="M327.135 172.66C332.04 194.399 319.26 218.16 329.835 238.957C331.815 242.864 334.83 246.413 338.97 248.165C343.02 249.871 347.7 249.737 351.885 248.389C361.155 245.425 367.14 236.846 371.73 228.761C374.655 223.685 377.085 218.25 378.525 212.546C379.245 209.716 379.695 206.751 379.83 203.832C379.965 200.463 379.515 197.094 379.65 193.726C379.695 192.872 378.345 192.872 378.3 193.726C378.12 199.205 378.84 204.416 377.76 209.851C376.815 214.702 375.06 219.418 372.855 223.82C368.76 232.084 363.225 241.382 354.72 245.739C350.31 247.985 344.865 248.838 340.14 247.087C335.505 245.38 332.445 241.292 330.465 236.935C326.235 227.458 326.73 216.678 327.855 206.617C329.115 195.208 331.095 183.664 328.53 172.255C328.215 171.492 326.91 171.806 327.135 172.66Z" fill="#161616"/>
<path d="M347.16 217.621C344.64 222.023 342.975 226.784 342.255 231.815C342.12 232.668 343.425 233.028 343.56 232.174C344.28 227.233 345.855 222.607 348.33 218.295C348.78 217.576 347.61 216.903 347.16 217.621Z" fill="#161616"/>
<path d="M348.015 218.115C354.675 217.531 361.695 216.274 368.355 216.992C369.21 217.082 369.21 215.735 368.355 215.645C361.695 214.881 354.675 216.184 348.015 216.768C347.16 216.858 347.16 218.205 348.015 218.115Z" fill="#161616"/>
<path d="M342.93 233.028C346.215 234.959 350.04 234.779 353.73 234.69C357.6 234.555 361.47 234.106 364.845 232.084C365.61 231.635 364.89 230.467 364.17 230.917C360.975 232.848 357.375 233.207 353.73 233.342C350.31 233.477 346.71 233.701 343.605 231.905C342.885 231.456 342.21 232.623 342.93 233.028Z" fill="#161616"/>
<path d="M367.725 216.678C366.87 221.619 365.565 226.38 363.81 231.051C363.495 231.86 364.8 232.219 365.115 231.411C366.915 226.739 368.22 221.933 369.03 217.037C369.165 216.184 367.86 215.825 367.725 216.678Z" fill="#161616"/>
<path d="M346.8 219.957C349.005 224.808 355.26 226.021 360.075 226.066C360.93 226.066 360.93 224.718 360.075 224.718C355.755 224.628 349.95 223.64 347.97 219.238C347.61 218.475 346.44 219.193 346.8 219.957Z" fill="#161616"/>
<path d="M356.52 224.314C356.385 225.437 356.25 226.56 356.115 227.638C356.025 228.491 357.375 228.491 357.465 227.638C357.6 226.515 357.735 225.392 357.87 224.314C357.96 223.46 356.61 223.46 356.52 224.314Z" fill="#161616"/>
<path d="M359.085 224.314C358.95 225.437 358.815 226.56 358.725 227.683C358.635 228.536 359.985 228.536 360.075 227.683C360.21 226.56 360.345 225.437 360.435 224.314C360.525 223.46 359.175 223.46 359.085 224.314Z" fill="#161616"/>
<path d="M360.255 226.2C363.45 225.482 366.105 223.505 367.77 220.72C368.22 219.957 367.05 219.283 366.6 220.047C365.07 222.562 362.73 224.224 359.895 224.898C359.04 225.122 359.4 226.425 360.255 226.2Z" fill="#161616"/>
<path d="M350.4 156.894C349.05 164.844 350.535 174.322 358.68 177.96C359.445 178.319 360.165 177.151 359.355 176.792C351.75 173.378 350.445 164.62 351.705 157.253C351.84 156.4 350.535 156.041 350.4 156.894Z" fill="#161616"/>
<path d="M378.075 154.738C378.165 157.298 378.12 159.903 378.48 162.419C378.84 165.159 381.315 168.213 380.01 170.953C379.65 171.716 380.82 172.435 381.18 171.627C382.35 169.156 381.315 167.09 380.46 164.665C379.335 161.565 379.605 157.972 379.47 154.693C379.38 153.84 378.03 153.84 378.075 154.738Z" fill="#161616"/>
<path d="M362.37 177.017C364.35 175.984 366.6 177.061 367.05 179.217C367.095 179.442 367.41 179.352 367.365 179.128C366.825 176.747 364.35 175.579 362.19 176.702C362.01 176.837 362.19 177.151 362.37 177.017Z" fill="white"/>
<path d="M365.789 179.307C366.104 179.667 366.33 180.071 366.465 180.52C366.555 180.745 366.87 180.655 366.78 180.43C366.6 179.936 366.33 179.487 366.014 179.083C365.879 178.903 365.609 179.173 365.789 179.307Z" fill="white"/>
<path d="M374.835 176.163C375.24 174.322 376.41 172.794 378.12 171.941C378.3 171.851 378.165 171.537 377.94 171.672C376.14 172.525 374.925 174.142 374.52 176.073C374.475 176.298 374.79 176.388 374.835 176.163Z" fill="white"/>
<path d="M295.59 80.9398C292.485 82.5119 289.875 85.4764 288.705 86.779C285.825 90.0579 284.34 93.1122 282.72 96.5259C281.37 99.3107 279.795 103.263 278.535 108.204C280.29 108.519 282.045 108.788 283.8 109.103C283.71 110.809 283.71 113.325 284.385 116.289C285.015 118.984 286.05 123.296 289.65 126.306C294.6 130.528 301.17 129.495 302.385 129.315C302.475 131.426 302.925 134.436 304.635 137.535C305.085 138.298 305.535 139.017 305.985 139.646C308.46 138.927 312.285 137.445 316.02 134.391C325.56 126.71 326.865 115.256 327.27 111.932C327.855 106.812 328.98 97.1547 322.635 89.1596C316.02 80.8949 303.465 76.9872 295.59 80.9398Z" fill="white"/>
<path d="M286.365 90.2825C287.625 88.396 290.055 85.6112 292.8 83.6797C297.21 80.5805 299.19 81.8831 301.44 79.1432C303.06 77.1668 304.095 73.9328 302.88 72.4057C300.945 69.9802 294.06 72.8997 293.16 73.304C291.18 74.1574 284.655 76.8973 282.045 83.8145C279.885 89.6087 281.325 95.942 282.315 96.0767C282.585 96.1217 282.765 95.6725 284.205 93.4716C284.88 92.3487 285.645 91.3156 286.365 90.2825Z" fill="#2F4EBB"/>
<path d="M296.175 76.7626C295.815 77.9304 295.275 80.2661 297.075 84.8476C300.27 93.0673 307.74 100.434 311.475 99.0862C312.285 98.7718 313.14 97.9632 314.76 97.8734C315.165 97.8734 316.785 97.7836 318.045 98.7717C320.025 100.344 320.115 103.757 318.81 105.958C318.585 106.363 317.37 108.204 315.525 108.339C313.905 108.474 313.365 107.216 312.06 107.126C308.865 106.947 306.12 113.954 305.76 114.897C305.04 116.694 303.285 121.365 304.545 127.339C304.815 128.641 305.445 131.381 307.38 134.211C311.565 140.275 318.585 141.757 321.195 142.296C323.76 142.835 333.525 144.856 341.13 138.568C342.345 137.58 346.35 134.166 347.43 128.372C349.275 118.58 341.04 111.259 340.545 110.854C340.185 105.779 338.97 97.6938 334.695 88.8452C331.995 83.2306 329.475 78.0652 323.76 74.1574C316.245 69.0818 305.31 67.6445 299.595 72.0463C299.01 72.5853 297.075 74.1125 296.175 76.7626Z" fill="#2F4EBB"/>
<path d="M287.625 124.958C286.95 125.632 284.97 127.698 284.61 130.932C284.115 135.424 287.13 138.523 287.76 139.152C291.045 142.521 296.535 143.868 300.495 141.847C300.81 141.712 304.275 139.87 304.41 137.22C304.455 136.053 303.825 135.469 302.925 132.863C302.34 131.157 301.98 129.764 301.71 128.821C300.495 129.225 298.425 129.764 295.86 129.405C291.27 128.821 288.435 125.856 287.625 124.958Z" fill="#2F4EBB"/>
<path opacity="0.12" d="M296.625 80.7152C296.67 82.1077 296.85 84.1738 297.795 86.3747C298.425 87.857 299.055 88.7553 299.55 89.474C301.44 92.3487 302.07 95.0437 303.06 98.0531C304.635 102.724 304.365 106.632 304.05 111.483C303.78 115.526 302.88 121.679 299.955 128.821C301.17 129.18 302.925 129.899 304.815 131.157C308.28 133.492 309.855 136.277 310.845 137.58C312.87 140.23 317.37 143.015 328.215 142.835C327.135 141.757 325.605 140.14 323.94 138.164C320.025 133.582 316.605 129.585 314.58 124.734C313.41 121.949 311.61 116.244 313.005 107.98C314.265 108.608 315.75 108.564 316.92 107.8C318.135 106.991 318.9 105.374 318.495 103.892C318 102.185 315.93 101.018 313.815 101.557C313.365 100.434 312.645 98.8167 311.475 97.0649C309.63 94.325 307.695 92.6182 306.975 91.9893C304.68 90.013 301.35 86.6442 296.625 80.7152Z" fill="#606060"/>
<path opacity="0.14" d="M279.03 107.396C279.075 106.677 281.37 106.093 283.305 106.228C285.015 106.363 287.04 107.126 286.995 107.8C286.95 108.429 285.06 108.923 283.665 108.968C281.505 109.058 279.03 108.114 279.03 107.396Z" fill="#606060"/>
<path d="M284.61 90.6867C282.045 96.3013 279.75 102.006 277.77 107.845C277.635 108.204 277.905 108.564 278.22 108.653C279.975 109.327 281.73 109.642 283.575 109.597C284.43 109.597 284.43 108.249 283.575 108.249C281.82 108.249 280.2 107.935 278.58 107.351C278.715 107.62 278.895 107.89 279.03 108.159C280.965 102.41 283.17 96.7954 285.735 91.3156C286.14 90.5969 284.97 89.8782 284.61 90.6867Z" fill="#161616"/>
<path d="M283.396 109.866C283.756 115.66 284.296 122.083 288.616 126.44C292.756 130.663 298.741 130.303 304.186 129.674C305.041 129.585 305.041 128.237 304.186 128.327C299.146 128.911 293.431 129.405 289.561 125.497C285.511 121.41 285.106 115.301 284.746 109.866C284.701 109.013 283.351 109.013 283.396 109.866Z" fill="#161616"/>
<path d="M301.53 129.809C302.115 132.953 303.195 135.963 304.725 138.748C305.13 139.511 306.3 138.837 305.895 138.074C304.41 135.334 303.42 132.504 302.835 129.45C302.7 128.596 301.395 128.956 301.53 129.809Z" fill="#161616"/>
<path d="M284.295 116.738C286.5 118.67 289.785 117.771 290.64 114.942C290.91 114.088 289.605 113.774 289.335 114.582C288.795 116.379 286.68 117.053 285.285 115.75C284.61 115.211 283.665 116.154 284.295 116.738Z" fill="#161616"/>
<path d="M288.435 114.897C289.155 115.076 289.695 115.481 290.145 116.02C290.37 116.289 290.865 116.244 291.09 116.02C291.36 115.75 291.315 115.346 291.09 115.076C290.505 114.358 289.695 113.819 288.795 113.594C287.985 113.37 287.625 114.672 288.435 114.897Z" fill="#161616"/>
<path d="M290.46 98.098C290.82 96.2115 293.16 96.5708 294.42 97.2446C295.5 97.8285 296.265 98.7717 296.715 99.8947C297.03 100.703 298.335 100.344 298.02 99.5353C297.3 97.6039 295.815 96.0768 293.745 95.5378C291.855 95.0437 289.605 95.6276 289.2 97.7387C289.02 98.5921 290.325 98.9514 290.46 98.098Z" fill="#161616"/>
<path d="M290.415 90.1477C292.44 86.779 296.4 89.3842 297.21 92.2139C297.435 93.0673 298.74 92.708 298.515 91.8546C297.93 89.7884 296.49 87.857 294.285 87.318C292.305 86.8688 290.28 87.7222 289.245 89.4291C288.795 90.2376 289.965 90.9113 290.415 90.1477Z" fill="#161616"/>
<path d="M291.765 105.734C292.62 105.734 292.62 104.386 291.765 104.386C290.91 104.386 290.865 105.734 291.765 105.734Z" fill="#161616"/>
<path d="M294.33 103.713C294.375 103.713 294.465 103.713 294.51 103.713C294.87 103.713 295.185 103.398 295.185 103.039C295.185 102.68 294.87 102.365 294.51 102.365C294.465 102.365 294.375 102.365 294.33 102.365C293.97 102.365 293.655 102.68 293.655 103.039C293.655 103.443 293.97 103.713 294.33 103.713Z" fill="#161616"/>
<path d="M294.375 106.003C294.375 106.048 294.375 106.093 294.375 106.138C294.375 106.992 295.725 106.992 295.725 106.138C295.725 106.093 295.725 106.048 295.725 106.003C295.725 105.15 294.375 105.15 294.375 106.003C294.375 106.048 294.375 106.093 294.375 106.138C294.375 106.992 295.725 106.992 295.725 106.138C295.725 106.093 295.725 106.048 295.725 106.003C295.725 105.15 294.375 105.15 294.375 106.003Z" fill="#161616"/>
<path d="M313.995 99.1311C315.21 97.3793 317.28 98.5023 318 99.9396C318.585 101.063 318.585 102.41 318.54 103.623C318.36 106.677 315.795 108.833 312.825 106.947C312.105 106.453 311.43 107.62 312.15 108.114C313.905 109.282 316.155 109.417 317.91 108.07C319.71 106.677 320.025 104.386 319.89 102.23C319.755 100.164 318.945 97.8734 316.785 97.1098C315.255 96.5708 313.725 97.1547 312.825 98.4573C312.375 99.1311 313.545 99.8048 313.995 99.1311Z" fill="#161616"/>
<path d="M192.945 73.4837C192 73.4837 191.055 73.5286 190.155 73.5286C188.625 76.4931 187.77 79.1881 187.275 81.1644C185.835 86.9587 186.195 91.7647 186.465 94.1004C186.645 95.6725 186.915 96.9751 187.14 97.8734C187.95 97.8734 188.76 97.8734 189.57 97.8734C189.885 98.9514 190.2 100.029 190.515 101.107C198.12 101.062 204.375 101.062 208.74 101.107C235.2 101.332 253.65 102.365 257.925 102.59C263.28 102.904 267.645 103.218 270.345 103.398C270.435 101.736 270.885 101.152 271.29 100.973C272.01 100.658 272.64 101.422 273.585 101.242C274.575 101.062 275.205 100.029 275.61 99.0862C276.42 99.4904 277.905 100.029 279.66 99.7599C280.065 99.715 280.425 99.5802 280.74 99.4904C281.505 97.9632 282.27 96.4361 283.035 94.9089C281.955 94.5496 280.425 94.2352 278.58 94.2352C277.545 94.2352 276.645 94.3699 275.88 94.5047C275.79 94.2801 275.07 92.2588 273.18 91.8097C272.595 91.6749 272.1 91.7198 271.695 91.8097C271.425 91.3156 271.155 90.8215 270.885 90.3274C269.805 90.1477 268.14 89.8782 266.16 89.5189C250.095 86.5993 238.89 83.0509 230.34 80.4907C222.15 78.0202 210.225 74.6515 194.925 70.9234C194.295 71.7768 193.62 72.6303 192.945 73.4837Z" fill="white"/>
<path opacity="0.07" d="M186.6 90.9113C187.005 90.8215 187.455 91.8546 187.95 91.7198C188.76 91.5402 188.58 88.7104 188.76 86.5993C188.895 84.5781 189.48 81.6585 191.46 78.1101C192.765 78.6491 194.745 79.5025 197.13 80.5356C205.725 84.2637 211.665 87.1383 213.465 87.9468C225.345 93.4716 238.395 95.942 241.68 96.5708C249.15 98.0082 259.5 99.2658 271.92 98.7268C271.38 100.209 270.84 101.691 270.3 103.174C268.23 103.129 265.215 103.129 261.525 103.039C245.685 102.724 234.615 102.23 228.27 101.961C219.315 101.602 206.49 101.242 190.29 101.287C190.11 100.074 189.93 98.8616 189.75 97.6488C188.715 97.8285 187.68 98.0082 186.645 98.1878C185.97 92.5732 186.15 91.0012 186.6 90.9113Z" fill="#606060"/>
<path d="M193.889 70.9683C188.265 79.6372 186.69 90.4172 189.57 100.344C189.795 101.197 191.1 100.838 190.875 99.9845C188.085 90.3723 189.615 80.0415 195.059 71.6421C195.554 70.8785 194.384 70.2047 193.889 70.9683Z" fill="#161616"/>
<path d="M195.06 72.2709C220.395 78.6491 245.685 85.0272 271.02 91.3605C271.875 91.5851 272.235 90.2825 271.38 90.0579C246.045 83.6797 220.755 77.3016 195.42 70.9683C194.61 70.7437 194.25 72.0463 195.06 72.2709Z" fill="#161616"/>
<path d="M190.514 101.826C216.929 101.601 243.344 102.23 269.714 103.668C270.569 103.713 270.569 102.365 269.714 102.32C243.344 100.883 216.929 100.254 190.514 100.479C189.659 100.479 189.659 101.826 190.514 101.826Z" fill="#161616"/>
<path d="M270.615 90.8664C272.415 94.864 272.01 99.4006 269.535 103.039C269.04 103.758 270.21 104.431 270.705 103.713C273.45 99.6701 273.81 94.6394 271.785 90.1927C271.425 89.4291 270.255 90.1028 270.615 90.8664Z" fill="#161616"/>
<path d="M271.965 92.6182C272.46 92.9775 272.82 92.8428 273.405 92.9775C274.53 93.2919 274.98 94.325 275.205 95.403C275.565 97.3793 275.07 101.557 272.145 100.389C271.335 100.074 270.975 101.377 271.785 101.691C274.755 102.859 276.69 99.7599 276.69 97.1548C276.69 95.7174 276.51 94.1004 275.7 92.8877C275.43 92.4834 275.07 92.0792 274.62 91.8546C274.035 91.5851 273.225 91.7648 272.73 91.4054C271.92 90.9563 271.245 92.1241 271.965 92.6182Z" fill="#161616"/>
<path d="M275.924 95.0886C278.219 94.9538 280.514 94.9987 282.764 95.3131C283.619 95.403 283.619 94.0555 282.764 93.9657C280.469 93.6962 278.219 93.6063 275.924 93.7411C275.069 93.8309 275.069 95.1784 275.924 95.0886Z" fill="#161616"/>
<path d="M275.745 100.029C277.59 100.344 279.435 100.479 281.28 100.299C282.135 100.209 282.135 98.8616 281.28 98.9514C279.525 99.0862 277.815 99.0412 276.105 98.7268C275.25 98.5921 274.89 99.8497 275.745 100.029Z" fill="#161616"/>
<path d="M193.125 73.1243C188.76 70.609 187.545 78.4694 186.96 80.9398C185.61 86.6442 184.98 92.5283 186.645 98.2328C186.735 98.5023 187.005 98.7268 187.275 98.7268C187.86 98.7268 188.49 98.7268 189.075 98.7268C189.93 98.7268 189.93 97.3793 189.075 97.3793C188.49 97.3793 187.86 97.3793 187.275 97.3793C187.5 97.559 187.725 97.6938 187.905 97.8734C186.735 93.7411 186.735 89.5638 187.41 85.3417C187.725 83.4552 188.13 81.5687 188.625 79.7271C188.94 78.5143 189.93 72.8099 192.405 74.2922C193.215 74.7413 193.89 73.5735 193.125 73.1243Z" fill="#161616"/>
<path d="M241.77 82.7814C240.96 81.7933 239.61 81.928 239.43 81.928C237.945 82.0178 236.505 83.3653 234.93 86.6443C231.87 92.8877 231.735 99.1311 231.735 100.119C231.69 104.431 232.095 111.438 235.155 119.793C235.425 123.296 236.01 128.192 237.315 133.897C239.61 144.138 242.04 154.918 250.41 164.485C253.56 168.123 259.77 175.175 270.57 177.735C281.865 180.43 291.045 176.433 293.295 175.4C295.275 174.456 300.81 171.671 305.49 165.787C308.325 162.239 311.61 158.376 311.07 153.615C310.845 151.549 309.945 149.797 308.595 147.012C307.245 144.227 306.525 142.835 305.085 142.296C303.105 141.532 300.99 142.88 298.65 144.227C294.69 146.473 294.33 148.629 290.055 150.875C288.93 151.459 287.805 151.863 285.555 152.582C282 153.75 278.49 154.918 275.25 155.142C268.185 155.636 262.515 151.594 260.895 150.426C254.91 146.159 252.57 140.454 251.04 136.726C247.62 128.372 247.89 120.691 248.475 116.199C250.59 115.84 251.895 114.987 252.525 114.493C254.91 112.651 255.495 110.091 256.395 106.138C256.98 103.668 257.25 102.365 256.62 101.871C255.315 100.883 251.31 104.117 250.41 104.88C250.59 101.826 251.04 99.3557 251.49 97.6039C252.075 95.2683 252.39 94.0555 253.2 93.1123C254.775 91.2707 256.62 91.4503 257.25 89.6986C257.61 88.7553 257.565 87.4528 256.8 86.6892C255.9 85.7909 253.965 85.8358 252.3 87.1384C251.76 85.9705 250.68 85.2518 249.51 85.2069C248.34 85.162 247.575 85.8807 247.35 86.0604C247.485 84.8476 246.945 83.7247 246.045 83.2755C244.83 82.6467 242.895 83.3654 242.175 85.2069C242.22 84.9823 242.535 83.7247 241.77 82.7814Z" fill="white"/>
<path opacity="0.12" d="M239.429 81.928C238.349 83.8145 236.999 86.5993 236.099 90.2376C234.119 98.1429 235.739 104.746 236.459 107.935C244.199 140.859 240.824 141.667 246.224 149.393C248.204 152.178 261.794 170.863 282.044 168.393C299.009 166.326 308.009 150.92 309.179 148.854C309.854 150.65 310.664 153.705 310.124 157.343C309.314 162.688 305.984 166.057 304.769 167.315C303.599 168.482 302.159 169.516 299.234 171.537C296.624 173.378 294.059 174.995 292.934 175.579C287.579 178.589 279.299 179.307 273.539 178.544C257.879 176.478 248.474 161.655 244.559 155.502C235.604 141.443 234.704 127.204 234.794 120.107C233.939 117.232 233.084 114.313 232.229 111.438C231.644 106.992 231.599 103.308 231.689 100.748C231.914 94.325 232.094 89.5189 235.379 85.4315C236.819 83.6348 238.394 82.5568 239.429 81.928Z" fill="#606060"/>
<path d="M300.36 170.863C307.47 167.494 312.24 160.442 311.07 152.447C310.395 147.596 306.48 139.242 300.225 142.206C297.435 143.554 295.14 146.024 292.575 147.776C289.02 150.201 284.925 152.088 280.83 153.39C275.61 155.052 269.805 155.412 264.765 152.896C261.075 151.055 258.195 148.045 255.99 144.632C251.13 137.131 248.61 128.282 249.195 119.344C249.24 118.49 247.89 118.49 247.845 119.344C247.35 126.89 249.015 134.076 252.345 140.814C255.27 146.833 259.545 152.492 266.025 154.918C273.9 157.837 282.495 154.873 289.605 151.145C292.8 149.438 295.545 147.237 298.425 145.036C301.035 143.015 303.645 142.027 306.3 144.722C309.585 148.045 310.575 153.84 309.585 158.241C308.37 163.497 304.455 167.449 299.685 169.695C298.92 170.055 299.595 171.222 300.36 170.863Z" fill="#161616"/>
<path d="M249.105 119.928C248.52 117.457 250.275 116.828 251.895 115.66C252.84 114.987 253.56 114.043 254.235 113.1C255.945 110.63 257.295 107.755 257.655 104.746C257.835 103.263 258.15 100.928 256.125 100.838C253.74 100.748 252.75 103.757 250.5 103.982C249.645 104.072 249.645 105.419 250.5 105.33C252.21 105.15 253.065 104.072 254.37 103.084C255.135 102.5 255.99 101.826 256.395 103.129C256.62 103.847 256.26 105.195 256.08 105.913C255.765 107.441 255.09 108.923 254.37 110.315C253.695 111.573 252.93 112.876 251.895 113.909C250.95 114.897 249.645 115.121 248.61 115.93C247.215 117.008 247.44 118.85 247.8 120.332C248.025 121.14 249.33 120.781 249.105 119.928Z" fill="#161616"/>
<path d="M233.4 112.831C232.5 107.036 232.41 101.107 233.31 95.3132C233.67 92.9775 234.12 90.5969 234.93 88.3511C235.425 86.9587 236.1 85.3417 237.09 84.2188C238.44 82.7365 241.095 81.9729 241.815 84.4883C242.04 85.3417 243.345 84.9823 243.12 84.1289C242.49 81.9729 240.42 80.8051 238.26 81.6585C235.515 82.7814 234.21 86.1502 233.355 88.7104C230.835 96.481 230.835 105.195 232.05 113.19C232.23 114.043 233.535 113.684 233.4 112.831Z" fill="#161616"/>
<path d="M239.925 89.6537C241.005 87.0036 244.065 81.6585 247.395 85.2967C247.98 85.9256 248.925 84.9823 248.34 84.3535C246.81 82.6916 244.605 82.4221 242.67 83.545C240.51 84.7577 239.52 87.1383 238.62 89.3392C238.305 90.1028 239.61 90.4622 239.925 89.6537Z" fill="#161616"/>
<path d="M245.594 90.7766C245.639 89.0698 246.314 87.1833 247.979 86.3748C249.374 85.701 251.039 86.0154 251.984 87.2282C252.524 87.9019 253.469 86.9587 252.929 86.2849C251.624 84.6679 249.284 84.2637 247.439 85.1171C245.279 86.1502 244.289 88.4858 244.244 90.7766C244.199 91.63 245.549 91.63 245.594 90.7766Z" fill="#161616"/>
<path d="M249.51 91.2258C250.32 88.2163 253.695 85.4764 256.62 87.9019C257.295 88.4409 258.24 87.4977 257.565 86.9587C253.83 83.9044 249.33 86.779 248.205 90.8664C247.98 91.7198 249.285 92.0792 249.51 91.2258Z" fill="#161616"/>
<path d="M256.35 87.6773C257.79 89.6986 254.595 90.9563 253.47 91.8995C252.525 92.6631 251.985 93.6513 251.58 94.7742C250.5 97.8734 250.005 101.242 249.735 104.476C249.645 105.33 250.995 105.33 251.085 104.476C251.31 102.096 251.67 99.715 252.255 97.3793C252.435 96.6158 252.615 95.8522 252.885 95.0886C253.47 93.5165 254.325 92.9326 255.63 91.9893C257.25 90.8215 258.96 88.935 257.52 86.9138C257.025 86.2849 255.855 86.9587 256.35 87.6773Z" fill="#161616"/>
<path d="M231.735 111.483C232.455 114.538 233.355 117.547 234.48 120.511C234.795 121.32 236.1 120.961 235.785 120.152C234.66 117.188 233.76 114.178 233.04 111.124C232.86 110.27 231.555 110.63 231.735 111.483Z" fill="#161616"/>
<path d="M234.254 121.365C235.964 136.816 239.789 152.672 250.184 164.709C258.464 174.277 271.604 181.553 284.564 179.173C290.684 178.05 296.264 174.995 300.719 170.728C301.349 170.144 300.404 169.156 299.774 169.785C290.864 178.319 278.174 180.565 266.879 175.489C254.729 169.965 246.224 159.589 241.409 147.327C238.169 139.017 236.549 130.213 235.559 121.41C235.514 120.511 234.164 120.511 234.254 121.365Z" fill="#161616"/>
</svg>
