<svg width="689" height="669" viewBox="0 0 689 669" fill="none" xmlns="http://www.w3.org/2000/svg">
<path fill-rule="evenodd" clip-rule="evenodd" d="M679.77 303.328C676.275 224.126 671.16 137.083 618 78.252C570.64 25.8405 477 17.252 402 2.75195C327 -11.748 192 65.252 129.5 50.252C67 35.252 -20.8697 15.9531 -75 60.252C-130.551 105.713 -91.1639 129.117 -120.96 194.411C-153.703 266.162 -186.524 349.564 -158.261 423.194C-130.192 496.322 -44.5791 525.148 21.903 566.601C78.4934 601.885 134.278 640.756 200.681 647C265.382 653.083 324.203 620.857 386.027 600.837C456.67 577.962 537.059 574.015 589.222 521.184C645.623 464.059 683.309 383.513 679.77 303.328Z" fill="#F4EDD2"/>
<path fill-rule="evenodd" clip-rule="evenodd" d="M687.77 323.576C684.275 244.375 679.16 157.331 626 98.5C578.64 46.0885 485 37.5 410 23C335 8.5 200 85.5 137.5 70.5C75 55.5 -12.8697 36.2011 -67 80.5C-122.551 125.961 -83.1639 149.365 -112.96 214.659C-145.703 286.41 -178.524 369.812 -150.261 443.442C-122.192 516.57 -36.5791 545.396 29.903 586.849C86.4934 622.133 142.278 661.004 208.681 667.248C273.382 673.331 332.203 641.105 394.027 621.085C464.67 598.21 545.059 594.263 597.222 541.432C653.623 484.307 691.309 403.761 687.77 323.576Z" stroke="#CFBC79"/>
<path d="M353.244 404.032C350.356 401.407 347.906 398.388 345.981 394.976C344.975 393.182 344.144 391.345 343.487 389.42C343.181 388.545 342.875 387.626 342.656 386.707C342.437 385.876 342.394 385.045 342.569 384.213C343.181 382.813 344.056 382.507 345.237 383.295C345.719 383.82 346.681 383.12 346.287 382.507C343.094 378.001 340.731 373.013 339.375 367.632C339.069 366.407 338.806 365.182 338.587 363.913C338.412 362.732 338.456 361.332 338.15 360.151C337.494 357.788 335.744 355.382 334.694 353.151C329.706 342.782 325.506 331.451 327.256 319.77C326.862 319.813 326.469 319.857 326.075 319.945C334.694 331.232 341.431 343.788 346.025 357.22C346.287 358.007 347.512 357.701 347.294 356.87C346.812 354.945 346.594 353.107 346.681 351.138C346.419 351.357 346.112 351.576 345.85 351.751C347.206 351.97 347.994 352.757 348.212 354.113C348.344 354.857 349.481 354.638 349.481 353.938C349.525 351.62 349.612 349.257 349.656 346.938C349.262 347.07 348.825 347.157 348.431 347.288C355.606 358.313 361.25 370.213 365.231 382.726C365.45 383.382 366.281 383.338 366.5 382.726C366.85 381.72 367.2 380.67 367.594 379.663C367.287 379.795 366.937 379.926 366.631 380.057C370.831 383.076 373.106 387.932 372.844 393.051C372.8 393.882 374.112 393.882 374.156 393.051C374.419 387.407 371.837 382.201 367.287 378.92C366.937 378.657 366.456 378.963 366.325 379.313C365.975 380.32 365.625 381.37 365.231 382.376C365.669 382.376 366.062 382.376 366.5 382.376C362.519 369.732 356.831 357.701 349.569 346.632C349.219 346.107 348.344 346.282 348.344 346.982C348.3 349.301 348.212 351.663 348.169 353.982C348.606 353.938 349.044 353.851 349.437 353.807C349.131 352.057 347.906 350.788 346.156 350.526C345.719 350.438 345.325 350.701 345.325 351.138C345.237 353.238 345.456 355.207 345.981 357.22C346.419 357.088 346.812 357.001 347.25 356.87C342.612 343.351 335.831 330.663 327.169 319.288C326.862 318.895 326.075 318.807 325.987 319.463C324.281 330.838 327.956 341.82 332.681 352.013C333.906 354.682 335.525 357.263 336.575 359.932C337.537 362.338 337.45 365.401 338.106 367.938C339.506 373.407 341.912 378.526 345.15 383.12C345.5 382.857 345.85 382.595 346.2 382.332C345.062 381.063 343.137 381.282 342.044 382.507C340.294 384.432 341.519 387.626 342.219 389.726C344.275 395.545 347.775 400.751 352.325 404.907C352.937 405.52 353.856 404.601 353.244 404.032Z" fill="#E8E8E8"/>
<path d="M227.638 387.319C225.494 385.7 223.569 383.819 221.994 381.632C221.381 380.8 220.813 379.882 220.288 379.007C220.025 378.482 219.719 378 219.5 377.475C219.281 377.038 217.4 371.963 219.981 373.1C220.55 373.363 221.206 372.838 220.9 372.182C220.331 371.132 215.475 363.607 218.013 362.994C218.45 362.907 218.581 362.382 218.406 362.032C214.381 354.725 211.538 346.894 209.831 338.713C209.7 338.975 209.525 339.238 209.394 339.5C212.85 338.888 214.556 344.313 215.694 346.719C217.094 349.694 218.494 352.669 219.938 355.6C222.825 361.682 225.669 367.719 228.556 373.8C228.906 374.5 229.913 373.975 229.738 373.275C229.431 371.875 229.475 370.65 229.869 369.25C229.519 369.338 229.125 369.425 228.775 369.557C231.006 371.35 232.8 373.407 234.288 375.9C234.594 376.425 235.294 376.25 235.469 375.725C236.869 375.375 237.788 375.682 238.269 376.688C238.488 377.082 238.706 377.519 238.925 377.913C239.45 378.875 239.931 379.838 240.456 380.757C241.463 382.682 242.469 384.563 243.475 386.488C243.869 387.232 245.006 386.575 244.613 385.832C243.606 383.907 242.6 382.025 241.594 380.1C240.719 378.438 239.931 376.382 238.663 374.938C237.35 373.45 235.031 373.275 234.2 375.332C234.594 375.288 234.988 375.244 235.381 375.157C233.85 372.619 231.969 370.432 229.65 368.55C229.256 368.244 228.688 368.332 228.556 368.857C228.119 370.475 228.075 371.963 228.425 373.582C228.819 373.407 229.213 373.232 229.606 373.057C226.15 365.707 222.65 358.313 219.15 350.963C217.575 347.682 216.263 343.963 214.206 340.944C212.938 339.107 211.319 337.707 208.956 338.144C208.606 338.188 208.431 338.625 208.519 338.932C210.225 347.2 213.156 355.163 217.225 362.557C217.356 362.25 217.488 361.9 217.619 361.594C212.938 362.775 218.756 370.913 219.719 372.707C220.025 372.4 220.331 372.094 220.638 371.788C219.5 371.307 218.319 371.569 217.619 372.663C216.613 374.238 217.531 376.207 218.231 377.65C220.2 381.894 223.263 385.482 226.981 388.325C227.638 388.982 228.294 387.844 227.638 387.319Z" fill="#E8E8E8"/>
<path d="M49.7497 200.769C54.956 194.819 63.1372 198.713 68.956 201.294C74.2935 203.657 80.4185 205.538 85.756 202.126C90.831 198.844 93.6747 193.157 99.931 191.757C107.456 190.051 114.631 193.857 120.756 197.751C121.456 198.188 122.112 197.051 121.412 196.613C115.462 192.851 108.768 189.351 101.506 190.138C98.531 190.488 95.7747 191.538 93.4122 193.376C91.0497 195.213 89.1247 197.619 86.8497 199.588C79.9372 205.538 72.456 201.207 65.3247 198.276C59.9872 196.044 53.0747 194.951 48.7872 199.851C48.2622 200.507 49.181 201.426 49.7497 200.769Z" fill="#E8E8E8"/>
<path d="M31.3312 281.881C34.0874 278.95 38.1999 282.187 40.2999 284.244C42.1374 286.037 44.2374 288.181 46.9499 288.444C49.3562 288.706 51.2812 287.394 52.9437 285.775C55.3062 283.5 57.4499 281.487 60.7312 280.569C64.0124 279.694 67.6437 279.912 70.7499 281.444C73.1999 282.669 75.4312 285.031 78.3624 284.769C80.9437 284.55 82.4749 282.275 84.0937 280.569C86.7187 277.769 90.5687 276.325 94.4187 276.806C100.85 277.594 106.494 283.15 113.231 281.137C114.019 280.919 113.712 279.65 112.881 279.869C106.45 281.75 100.806 276.237 94.5937 275.494C91.7062 275.144 88.7312 275.756 86.2374 277.2C85.0124 277.9 83.9187 278.819 82.9562 279.869C81.8187 281.094 80.7249 282.756 79.1062 283.325C75.9124 284.419 72.4124 280.525 69.5249 279.562C66.8999 278.687 64.0562 278.556 61.3437 279.125C58.7187 279.65 56.3124 280.875 54.2999 282.625C51.5437 285.119 49.0062 288.706 44.8937 286.344C41.0874 284.2 35.3124 275.669 30.4124 280.962C29.7999 281.575 30.7187 282.537 31.3312 281.881Z" fill="#E8E8E8"/>
<path d="M80.331 270.331C82.7373 268.406 85.5373 266.306 88.6873 266.043C91.5748 265.825 93.8935 267.4 96.1248 269.018C99.1873 271.206 103.475 273.875 107.15 271.337C108.287 270.55 109.119 269.15 110.475 268.756C112.4 268.187 114.281 269.543 115.725 270.593C117.344 271.818 118.919 273.175 120.975 273.525C123.556 273.962 126.356 272.912 128.894 272.343C132 271.643 135.106 270.943 138.212 270.243C139.044 270.068 138.694 268.8 137.862 268.975C134.625 269.718 131.344 270.462 128.106 271.206C124.737 271.95 121.587 273.087 118.481 270.987C116.381 269.587 114.5 267.575 111.831 267.356C109.775 267.181 108.637 268.275 107.237 269.543C102.119 274.137 96.956 266.831 92.2748 265.212C87.506 263.506 82.9998 266.481 79.4123 269.368C78.756 269.937 79.6748 270.856 80.331 270.331Z" fill="#E8E8E8"/>
<path d="M564.338 236.206C565.519 232.4 570.156 233.581 572.694 234.981C575.1 236.293 577.375 238.131 580.219 238.437C582.581 238.7 584.506 237.65 586.519 236.512C589.625 234.718 593.081 233.975 596.581 235.068C598.856 235.768 600.781 237.65 603.231 237.825C605.594 238.043 607.344 236.468 609.225 235.287C614.169 232.181 619.506 236.512 624.8 235.2C625.631 234.981 625.281 233.712 624.45 233.931C618.981 235.287 613.863 230.825 608.569 234.15C607.388 234.893 606.25 235.9 604.894 236.337C602.838 236.993 601.131 235.725 599.381 234.806C596.975 233.581 594.394 232.969 591.681 233.275C588.838 233.581 586.781 234.981 584.288 236.25C580.131 238.35 576.938 235.768 573.394 233.843C570.025 232.006 564.556 231.219 563.113 235.856C562.85 236.643 564.119 236.993 564.338 236.206Z" fill="#E8E8E8"/>
<path d="M586.431 230.737C588.4 228.9 590.544 226.931 593.125 226.056C595.531 225.225 597.938 225.706 600.256 226.537C603.931 227.894 607.563 230.256 611.675 229.644C615.438 229.075 619.288 224.962 623.181 226.056C625.194 226.625 626.419 228.244 628.65 228.462C630.969 228.681 633.244 227.937 635.388 227.194C636.175 226.931 635.825 225.662 635.038 225.925C632.281 226.887 629.175 227.981 626.419 226.406C624.756 225.444 623.488 224.437 621.431 224.656C616.925 225.094 613.644 229.119 608.831 228.375C604.675 227.719 601.175 224.831 596.931 224.394C592.294 223.912 588.706 226.931 585.513 229.862C584.9 230.387 585.819 231.306 586.431 230.737Z" fill="#E8E8E8"/>
<path d="M161.706 97.2125C162.669 93.7125 167.219 94.2812 169.8 95.375C172.381 96.5125 174.831 98.175 177.763 98.2187C183.275 98.35 187.563 92.6187 193.075 93.5812C195.656 94.0187 197.756 95.9437 200.381 96.25C203.313 96.6 205.019 94.4562 207.25 92.9687C209.875 91.2187 213.156 90.5625 216.306 90.9125C217.925 91.0875 219.5 91.5687 220.9 92.3125C222.213 92.9687 223.306 94.0187 224.663 94.6312C227.331 95.8125 229.081 94.1937 231.225 92.7937C235.425 90.0812 239.975 93.5812 243.125 96.3375C243.738 96.9062 244.7 95.9875 244.044 95.4187C241.681 93.3187 238.969 91.175 235.775 90.6062C232.625 90.0375 230.963 91.7 228.425 93.1437C226.15 94.4562 224.531 93.0125 222.65 91.8312C221.425 91.0437 220.113 90.475 218.713 90.0812C216.044 89.3375 213.156 89.3375 210.488 90.0812C209.088 90.475 207.775 91.0437 206.55 91.8312C205.063 92.7937 203.75 94.4125 201.956 94.85C198.763 95.6375 195.788 92.4875 192.638 92.1812C186.294 91.6125 181.656 98.6125 175.181 96.3812C171.988 95.2875 169.188 92.925 165.6 93.1437C163.238 93.275 161.05 94.4125 160.438 96.8187C160.219 97.6937 161.444 98.0437 161.706 97.2125Z" fill="#E8E8E8"/>
<path d="M222.781 84.5693C225.056 82.6005 228.075 81.813 231.006 82.4693C233.544 83.038 235.031 84.8755 237.219 86.0568C240.675 87.8943 243.606 85.6193 246.406 83.6943C248.462 82.2943 250.519 81.2443 252.925 82.3818C254.894 83.3005 256.469 84.4818 258.744 84.3943C263.775 84.2193 269.112 77.963 274.056 81.4193C274.756 81.9005 275.412 80.763 274.712 80.2818C270.031 77.0005 265.131 81.463 260.669 82.7318C258.7 83.3005 257.125 83.0818 255.287 82.163C254.194 81.5943 253.231 80.938 252.006 80.6755C250.256 80.2818 248.594 80.8505 247.062 81.7255C245.225 82.7755 243.606 84.3943 241.594 85.138C238.4 86.3193 236.562 83.6068 234.112 82.2505C230.175 80.0193 225.231 80.763 221.906 83.6505C221.206 84.1755 222.125 85.0943 222.781 84.5693Z" fill="#E8E8E8"/>
<path d="M295.012 236.381C298.806 236.381 301.881 233.306 301.881 229.512C301.881 225.719 298.806 222.644 295.012 222.644C291.219 222.644 288.144 225.719 288.144 229.512C288.144 233.306 291.219 236.381 295.012 236.381Z" stroke="#E8E8E8" stroke-miterlimit="10"/>
<path d="M77.5312 352.056C80.6239 352.056 83.1312 349.549 83.1312 346.456C83.1312 343.364 80.6239 340.856 77.5312 340.856C74.4384 340.856 71.9312 343.364 71.9312 346.456C71.9312 349.549 74.4384 352.056 77.5312 352.056Z" stroke="#E8E8E8" stroke-miterlimit="10"/>
<path d="M402.637 78.0939C405.223 78.0939 407.319 75.9981 407.319 73.4127C407.319 70.8273 405.223 68.7314 402.637 68.7314C400.052 68.7314 397.956 70.8273 397.956 73.4127C397.956 75.9981 400.052 78.0939 402.637 78.0939Z" stroke="#E8E8E8" stroke-miterlimit="10"/>
<path d="M178.244 142.1C179.742 142.1 180.956 140.885 180.956 139.387C180.956 137.889 179.742 136.675 178.244 136.675C176.746 136.675 175.531 137.889 175.531 139.387C175.531 140.885 176.746 142.1 178.244 142.1Z" fill="#2F4EBB"/>
<path d="M295.363 308.701C298.649 308.701 301.313 306.037 301.313 302.751C301.313 299.465 298.649 296.801 295.363 296.801C292.077 296.801 289.413 299.465 289.413 302.751C289.413 306.037 292.077 308.701 295.363 308.701Z" fill="#2F4EBB"/>
<path d="M555.675 116.987C558.212 116.987 560.269 114.931 560.269 112.394C560.269 109.856 558.212 107.8 555.675 107.8C553.138 107.8 551.081 109.856 551.081 112.394C551.081 114.931 553.138 116.987 555.675 116.987Z" fill="#2F4EBB"/>
<path d="M88.8625 346.107C90.8921 346.107 92.5375 344.462 92.5375 342.432C92.5375 340.402 90.8921 338.757 88.8625 338.757C86.8329 338.757 85.1875 340.402 85.1875 342.432C85.1875 344.462 86.8329 346.107 88.8625 346.107Z" fill="#2F4EBB"/>
<path d="M396.775 285.862C397.862 285.862 398.744 284.981 398.744 283.894C398.744 282.806 397.862 281.925 396.775 281.925C395.688 281.925 394.806 282.806 394.806 283.894C394.806 284.981 395.688 285.862 396.775 285.862Z" fill="#2F4EBB"/>
<path d="M330.8 192.238C333.361 192.238 335.438 190.162 335.438 187.6C335.438 185.039 333.361 182.963 330.8 182.963C328.239 182.963 326.163 185.039 326.163 187.6C326.163 190.162 328.239 192.238 330.8 192.238Z" fill="#FFBA15"/>
<path d="M358.318 104.781C360.3 104.781 361.906 103.175 361.906 101.194C361.906 99.2126 360.3 97.6064 358.318 97.6064C356.337 97.6064 354.731 99.2126 354.731 101.194C354.731 103.175 356.337 104.781 358.318 104.781Z" fill="#FFBA15"/>
<path d="M349.612 149.932C350.837 148.619 352.587 148.269 354.162 149.144C354.994 149.582 355.65 150.282 356.569 150.588C357.969 151.069 359.325 150.544 360.594 149.888C363.044 148.619 364.662 147.394 367.375 148.926C368.819 149.757 370.306 150.588 372.012 149.976C374.287 149.144 375.512 147.307 378.137 147.088C379.625 146.957 381.112 147.263 382.425 147.963C383.256 148.401 384 149.057 384.919 149.319C386.45 149.801 387.456 149.144 388.637 148.226C391.131 146.301 394.15 145.951 396.906 147.569C397.65 148.007 398.306 146.869 397.562 146.432C395.769 145.382 393.8 144.944 391.744 145.294C390.694 145.469 389.644 145.863 388.725 146.476C387.369 147.351 386.625 148.663 384.612 147.788C382.556 146.869 381.112 145.776 378.75 145.776C376.256 145.776 374.594 146.826 372.581 148.138C369.65 150.019 368.075 147.044 365.319 146.782C363.481 146.607 361.95 147.657 360.419 148.532C358.931 149.363 357.662 149.801 356.087 148.926C355.169 148.401 354.425 147.701 353.375 147.482C351.625 147.132 349.919 147.788 348.694 149.057C348.081 149.582 349 150.544 349.612 149.932Z" fill="#FFBA15"/>
<path d="M373.325 142.362C374.9 141.181 376.825 140.612 378.794 141.094C380.106 141.4 381.025 142.319 382.294 142.8C384.481 143.587 386.056 142.231 387.85 141.137C389.731 140 390.781 140.219 392.662 141.225C393.756 141.837 394.719 142.144 396.031 142.056C398.481 141.881 403.25 138.775 404.781 142.187C405.131 142.975 406.269 142.275 405.919 141.531C404.956 139.431 402.462 139.081 400.406 139.519C397.869 140.087 395.944 141.444 393.319 140.087C392.05 139.431 391.044 138.644 389.556 138.95C388.331 139.169 387.325 139.956 386.319 140.612C385.619 141.05 384.875 141.662 384.044 141.706C382.819 141.794 381.9 140.962 380.85 140.437C378.225 139.125 375.075 139.519 372.756 141.225C372.012 141.75 372.669 142.887 373.325 142.362Z" fill="#FFBA15"/>
<path d="M74.8627 172.157C77.7065 170.363 80.944 171.151 83.7877 172.594C85.844 173.644 87.7252 175.657 89.9565 176.226C94.5502 177.407 95.2502 170.757 99.0127 169.619C103.388 168.307 106.494 174.038 110.606 170.976C112.925 169.269 114.806 168.219 117.781 168.394C120.538 168.569 123.163 169.488 125.7 170.451C126.488 170.757 126.838 169.488 126.05 169.182C121.894 167.607 116.819 165.944 112.531 168.001C111.438 168.526 110.694 169.313 109.731 169.969C107.938 171.194 106.713 170.494 105.006 169.532C103.169 168.482 101.375 167.782 99.2315 168.219C97.3065 168.613 95.7752 169.751 94.6815 171.326C94.0252 172.244 93.544 173.426 92.7127 174.257C90.8752 175.963 89.0377 174.388 87.4627 173.294C83.6127 170.669 78.5377 168.263 74.119 171.019C73.5065 171.501 74.1627 172.638 74.8627 172.157Z" fill="#FFBA15"/>
<path d="M82.2563 473.419C85.3188 477.269 90.3938 483.219 97.3501 489.65C113.756 504.919 135.413 518.087 219.938 544.075C227.463 546.394 237.788 549.5 250.169 553.087C257.956 547.4 270.163 538.781 285.694 529.244C310.325 514.106 320.869 510.3 334.694 501.287C348.3 492.406 366.806 477.312 384.613 450.8C355.256 444.544 323.494 436.1 290.025 424.681C273.75 419.125 258.263 413.262 243.606 407.269C189.838 429.319 136.069 451.369 82.2563 473.419Z" fill="white" stroke="black" stroke-width="3" stroke-miterlimit="10"/>
<path d="M219.675 490.656C222.082 486.412 225.669 483.218 230.132 481.206C230.919 480.856 230.219 479.718 229.475 480.068C224.838 482.124 221.075 485.537 218.538 489.956C218.1 490.743 219.238 491.399 219.675 490.656Z" fill="black"/>
<path d="M218.975 491.05C220.463 492.756 222.738 492.144 224.225 490.787C225.494 489.65 226.457 488.162 227.594 486.937C228.95 485.494 230.438 484.181 232.013 482.912C232.669 482.387 231.75 481.469 231.094 481.994C229.344 483.394 227.682 484.881 226.194 486.544C224.882 487.987 222.082 492.494 219.938 490.087C219.325 489.475 218.407 490.437 218.975 491.05Z" fill="black"/>
<path d="M229.956 481.118C230.481 481.556 231.05 482.037 231.575 482.474C231.837 482.693 232.231 482.737 232.494 482.474C232.712 482.256 232.756 481.774 232.494 481.556C231.969 481.118 231.4 480.637 230.875 480.199C230.612 479.981 230.219 479.937 229.956 480.199C229.737 480.418 229.694 480.899 229.956 481.118Z" fill="black"/>
<path d="M220.594 486.412C219.85 485.668 219.85 485.012 220.594 484.487C220.944 484.137 221.338 483.831 221.732 483.568C222.257 483.175 222.782 482.781 223.263 482.387C224.05 481.818 226.588 479.456 227.2 481.25C227.463 482.037 228.732 481.687 228.469 480.9C227.2 477.269 223.175 480.856 221.557 482.081C220.419 482.956 218.713 483.918 218.582 485.537C218.494 486.631 219.15 487.55 220.2 487.768C221.075 487.812 221.425 486.543 220.594 486.412Z" fill="black"/>
<path d="M223.35 491.706C226.237 494.375 227.462 498.137 229.781 501.2C231.662 503.693 234.2 505.662 237.087 506.887C243.519 509.643 250.869 508.2 256.075 503.562C256.687 502.993 255.769 502.075 255.156 502.643C249.819 507.368 242.075 508.375 235.862 504.787C233.019 503.168 230.962 500.806 229.3 497.962C227.812 495.381 226.544 492.756 224.312 490.743C223.656 490.218 222.737 491.137 223.35 491.706Z" fill="black"/>
<path d="M231.444 483.962C234.638 484.049 237.831 484.137 241.025 484.224C244.394 484.312 247.675 484.618 250.563 486.543C255.638 489.956 259.619 497.174 255.156 502.687C254.631 503.343 255.55 504.262 256.075 503.606C260.319 498.399 258.088 491.487 253.581 487.243C247.588 481.687 239.056 482.824 231.488 482.649C230.569 482.649 230.613 483.962 231.444 483.962Z" fill="black"/>
<path d="M227.113 487.2C230.088 488.775 233.019 490.437 235.819 492.275C238.838 494.243 239.8 497.875 241.2 501.025C241.55 501.812 242.688 501.112 242.338 500.368C241.113 497.656 240.194 493.937 237.744 492.012C234.769 489.65 231.138 487.812 227.769 486.062C227.025 485.668 226.369 486.806 227.113 487.2Z" fill="black"/>
<path d="M238.138 493.019C241.156 492.712 244.175 492.406 247.194 492.1C248.025 492.012 248.025 490.7 247.194 490.787C244.175 491.094 241.156 491.4 238.138 491.706C237.306 491.794 237.306 493.106 238.138 493.019Z" fill="black"/>
<path d="M238.269 493.675C240.763 494.419 243.169 495.425 245.444 496.65C246.188 497.044 246.844 495.906 246.1 495.512C243.738 494.2 241.244 493.15 238.619 492.406C237.832 492.187 237.482 493.456 238.269 493.675Z" fill="black"/>
<path d="M157.2 478.494C160.525 480.594 165.556 483.35 172.119 485.1C178.638 486.85 193.338 490.744 204.1 482.3C212.544 475.694 214.25 464.8 213.813 464.581C213.463 464.406 211.713 471.538 205.456 475.344C199.463 479.019 193.381 477.094 184.631 476.394C178.113 475.869 168.794 475.869 157.2 478.494Z" fill="#FFBA15"/>
<path d="M312.687 471.275C316.45 468.475 320.169 465.675 323.931 462.831C324.587 462.35 323.931 461.168 323.275 461.693C319.512 464.493 315.794 467.293 312.031 470.137C311.331 470.618 311.987 471.756 312.687 471.275Z" fill="black"/>
<path d="M315.094 481.293C325.594 472.674 336.138 464.012 346.638 455.393C347.294 454.868 346.375 453.949 345.719 454.474C335.219 463.093 324.675 471.755 314.175 480.374C313.519 480.899 314.481 481.818 315.094 481.293Z" fill="black"/>
<path d="M336.794 473.987C339.944 470.619 343.313 467.556 346.988 464.756C347.644 464.231 346.988 463.094 346.332 463.619C342.569 466.462 339.113 469.612 335.875 473.069C335.263 473.681 336.182 474.6 336.794 473.987Z" fill="black"/>
<path d="M251.175 458.412C264.125 450.799 276.638 442.487 288.582 433.474C289.238 432.993 288.582 431.812 287.925 432.337C275.938 441.349 263.425 449.706 250.519 457.274C249.775 457.712 250.432 458.849 251.175 458.412Z" fill="black"/>
<path d="M245.313 454.563C250.563 451.763 255.375 448.219 259.575 443.975C260.188 443.363 259.225 442.444 258.656 443.056C254.5 447.213 249.819 450.669 244.656 453.425C243.913 453.819 244.569 454.956 245.313 454.563Z" fill="black"/>
<path d="M230.7 448.962C239.45 442.006 248.419 435.312 257.562 428.881C258.262 428.399 257.606 427.262 256.906 427.743C247.675 434.218 238.619 440.999 229.781 448.043C229.081 448.568 230.044 449.487 230.7 448.962Z" fill="black"/>
<path d="M153.744 344.488C141.275 348.032 130.556 352.188 121.806 356.082C110.825 360.982 94.8561 368.201 77.6623 382.201C70.6623 387.888 65.4561 394.057 55.0873 406.351C51.1936 410.944 47.2123 415.932 46.8623 422.976C46.7748 424.857 46.5123 430.369 50.0123 434.482C55.8748 441.351 67.9061 439.207 73.8123 438.201C80.0686 437.107 84.5311 435.051 86.4123 434.219C112.706 422.319 108.156 426.607 130.119 415.757C147.356 407.269 155.975 402.982 160.394 398.607C164.506 394.494 181.306 377.782 175.444 361.638C171.025 349.651 156.806 345.363 153.744 344.488Z" fill="white"/>
<path opacity="0.22" d="M164.987 348.731C162.45 351.663 158.25 356.256 152.562 361.375C124.519 386.575 102.775 385.875 82.1249 405.519C75.6062 411.688 66.9874 422.056 60.5562 439.206C63.5749 439.25 68.2562 439.119 73.8562 438.2C85.4937 436.275 93.5874 432.075 98.0061 429.844C128.675 414.444 135.719 417.069 154.487 403.069C163.106 396.638 167.481 393.313 170.325 386.838C177.237 371.044 167.787 353.588 164.987 348.731Z" fill="#969696"/>
<path d="M153.569 343.875C136.331 349.694 119.006 355.557 102.95 364.219C88.2499 372.138 74.9499 382.463 63.7499 394.844C58.2374 400.925 52.5499 407.575 48.9187 415.013C45.9437 421.05 43.8437 429.8 49.5749 434.919C55.3937 440.125 64.1436 440.607 71.4936 439.382C80.6374 437.807 89.5624 433.913 98.1812 430.544C117.65 422.888 136.594 413.919 154.837 403.682C155.581 403.288 154.925 402.15 154.181 402.544C138.912 411.075 123.162 418.775 106.975 425.557C98.8811 428.969 90.6561 432.163 82.3436 435.05C74.1624 437.894 65.1499 440.257 56.6186 437.413C35.6624 430.457 55.3499 406.263 63.6624 396.9C74.2061 385.044 86.6311 374.982 100.412 367.15C117.256 357.613 135.631 351.357 153.919 345.188C154.706 344.882 154.356 343.613 153.569 343.875Z" fill="black"/>
<path d="M176.888 410.681C178.113 409.5 180.038 407.794 182.706 406.219C186.6 403.9 188.613 403.856 196.313 401.231C202.919 398.956 205.675 397.513 208.038 395.938C210.006 394.625 213.725 392.131 213.244 390.731C212.675 389.069 206.331 389.856 199.331 390.731C193.513 391.431 193.294 391.869 188.263 392.394C180.825 393.138 180.3 392.263 177.588 393.356C172.863 395.238 167.35 400.619 168.838 405.256C170.15 409.369 176.319 410.55 176.888 410.681Z" fill="black"/>
<path d="M160.394 346.325C156.85 348.162 153.831 350.394 153.831 350.394C148.406 354.375 144.863 358.706 142.763 361.637C143.069 363.431 143.331 365.269 143.638 367.062C133.138 372.137 124.738 376.775 119.006 380.056C103.125 389.156 93.8938 396.419 75.4313 410.944C69.4376 415.625 62.8751 421.006 60.6001 429.887C60.0313 432.162 58.7188 437.456 61.1251 443.187C63.8813 449.794 69.6563 452.637 71.4063 453.425C75.2126 455.131 78.8438 455.262 84.6626 454.694C97.3938 453.469 107.15 450.144 110.825 448.875C123.775 444.281 133.181 439.644 135.456 438.506C146.044 433.212 160.438 425.25 176.975 413.656C177.063 413.175 177.588 410.419 175.794 407.969C174.263 405.869 171.594 404.775 168.925 405.169C171.725 403.769 175.619 401.537 179.644 398.037C187.169 391.475 190.756 384.344 193.031 379.706C194.344 377.037 198.019 369.075 199.463 357.919C200.338 351.006 200.075 345.187 199.594 340.987C197.975 340.944 173.344 339.631 160.394 346.325Z" fill="white"/>
<path opacity="0.21" d="M190.144 349.344C185.419 361.375 179.688 369.381 176.013 373.887C153.831 401.231 121.806 406.831 84.5752 438.069C80.2439 441.7 75.8251 445.681 76.7439 447.475C78.8876 451.719 109.819 440.256 126.225 433.387C147.969 424.287 164.769 414.575 175.75 407.619C173.869 406.394 171.944 405.169 170.063 403.987C173.038 402.587 177.281 400.225 181.481 396.331C187.038 391.212 189.75 386.094 192.288 381.106C195.263 375.287 199.375 367.15 199.594 356.081C199.681 351.444 199.069 347.637 198.544 345.144C195.788 346.5 192.988 347.9 190.144 349.344Z" fill="#9E9E9E"/>
<path d="M199.594 346.062C199.419 366.056 192.725 386.4 176.975 399.525C168.838 406.262 158.6 409.806 149.019 413.919C138.65 418.381 128.281 422.8 117.913 427.262C106.231 432.294 94.5063 437.281 82.8251 442.312C82.0376 442.662 82.7376 443.756 83.4813 443.45C105.006 434.219 126.531 424.987 148.056 415.756C157.856 411.556 168.356 408.012 176.8 401.362C183.931 395.719 189.619 388.325 193.556 380.144C198.631 369.556 200.819 357.831 200.906 346.106C200.906 345.231 199.594 345.231 199.594 346.062Z" fill="black"/>
<path d="M142.106 361.681C142.106 363.65 142.369 365.444 142.981 367.281C143.069 367.019 143.2 366.8 143.288 366.537C127.713 374.194 112.4 382.506 98.0501 392.35C91.1376 397.075 84.4439 402.194 78.1001 407.662C72.1501 412.825 65.6751 418.381 61.8251 425.381C58.5876 431.244 57.8439 437.981 60.7314 444.15C63.7064 450.537 69.6564 454.606 76.5689 455.437C84.7939 456.444 93.6314 454.344 101.55 452.331C109.644 450.275 117.519 447.431 125.175 444.062C143.2 436.231 159.869 425.687 176.406 415.231C177.106 414.794 176.45 413.656 175.75 414.094C148.713 431.244 120.406 449.094 88.0751 453.687C79.8501 454.869 70.9689 454.869 64.9751 448.262C59.6814 442.4 58.8501 434.306 62.2626 427.262C65.5876 420.437 71.6689 415.1 77.2689 410.112C83.4376 404.6 90.0001 399.525 96.7814 394.8C111.656 384.387 127.625 375.681 143.9 367.675C144.163 367.544 144.294 367.194 144.206 366.931C143.638 365.181 143.375 363.475 143.375 361.681C143.419 360.85 142.106 360.85 142.106 361.681Z" fill="black"/>
<path d="M170.194 405.563C174.438 405.65 177.325 409.456 176.275 413.525C176.056 414.356 177.325 414.706 177.544 413.875C178.813 408.931 175.313 404.338 170.194 404.25C169.362 404.25 169.362 405.563 170.194 405.563Z" fill="black"/>
<path d="M177.763 410.506C180.344 408.625 182.575 406.831 185.638 405.825C188.7 404.818 191.763 403.725 194.781 402.5C200.6 400.181 206.331 397.556 211.888 394.668C212.631 394.275 211.975 393.137 211.231 393.531C205.281 396.637 199.2 399.437 192.944 401.843C189.925 402.981 186.863 403.943 183.844 405.037C181.306 405.956 179.25 407.793 177.106 409.368C176.45 409.85 177.106 410.987 177.763 410.506Z" fill="black"/>
<path d="M185.375 392.656C190.1 393.488 194.65 392.481 199.244 391.388C201.869 390.775 204.494 390.119 207.163 389.9C208.388 389.813 209.875 389.594 211.056 389.9C214.25 390.731 211.8 393.313 210.181 394.406C209.481 394.888 210.138 396.025 210.838 395.544C212.588 394.363 214.863 392.438 213.681 390.031C212.675 388.019 209.35 388.413 207.513 388.544C200.163 389.069 193.163 392.7 185.725 391.388C184.894 391.256 184.544 392.525 185.375 392.656Z" fill="black"/>
<path d="M217.225 250.731C216.175 251.781 214.687 253.444 213.375 255.763C211.493 259.044 210.356 263.069 211.056 276.456C211.581 286.344 212.762 294.131 213.681 299.469C214.468 303.931 215.256 307.563 215.825 310.1C221.031 332.85 230.831 359.844 234.462 369.644C237.175 376.994 240.937 386.925 245.706 398.694C243.606 400.531 240.762 403.375 238.312 407.531C237 409.719 235.075 413 235.906 413.875C236.606 414.575 239.275 413.831 248.2 407.488C253.318 409.5 257.256 411.556 259.925 413.131C263.775 415.363 267.056 417.681 272.218 418.381C273.662 418.6 274.887 418.6 275.718 418.6C274.931 417.025 273.531 414.619 271.081 412.3C268.15 409.544 264.825 408.494 264.912 408.275C265 408.1 267.712 409.325 271.387 410.463C274.625 411.469 278.168 411.688 285.3 412.125C286.306 412.169 287.793 412.256 288.45 411.381C289.193 410.331 288.362 408.538 288.056 407.794C285.868 403.069 277.906 400.138 275.018 399.131C276.156 399.656 279.043 400.706 282.718 400.138C286.087 399.613 288.406 397.994 289.368 397.163C287.443 396.769 285.431 396.375 283.375 396.069C273.137 394.45 263.687 394.275 255.287 394.888C254.018 391.65 252.225 386.444 250.781 379.838C249.206 372.75 249.556 370.913 247.806 360.456C246.406 352.056 245.531 347.113 243.387 340.9C241.375 335.169 239.1 330.706 237.35 327.688C230.962 299.294 228.468 286.3 227.55 280C226.893 275.45 226.062 272.256 224.443 265.825C223.743 263.069 223 260.4 221.381 257.163C219.981 254.319 218.406 252.175 217.225 250.731Z" fill="white"/>
<path opacity="0.11" d="M217.225 250.731C218.712 250.819 219.062 258.737 219.981 268.756C219.981 268.756 221.25 282.625 227.375 316.225C233.806 351.619 247.544 388.762 252.4 401.45C259.794 407.137 267.231 412.869 274.625 418.556C272.787 418.6 269.856 418.512 266.531 417.419C263.425 416.412 261.762 415.1 257.037 412.344C255.2 411.25 252.356 409.675 248.769 407.837C241.2 412.912 236.912 414.925 235.906 413.875C234.769 412.65 238.094 407.269 245.925 397.775C244.612 394.975 242.819 390.994 240.762 386.181C237.175 377.869 228.425 356.694 218.844 321.344C210.969 292.294 210.75 283.806 211.1 277.156C211.8 264.381 215.212 250.556 217.225 250.731Z" fill="#686868"/>
<path d="M216.743 251.169C219.281 253.225 220.55 256.244 221.687 259.219C222.825 262.237 223.7 265.344 224.487 268.494C226.106 275.144 227.331 281.881 228.731 288.575C231.531 302.225 234.331 315.831 237.131 329.481C237.306 330.312 238.575 329.962 238.4 329.131C235.468 314.956 232.537 300.737 229.65 286.562C228.25 279.781 227.025 272.912 225.275 266.219C223.875 260.881 222.256 253.881 217.706 250.294C217.05 249.725 216.087 250.644 216.743 251.169Z" fill="black"/>
<path d="M212.894 300.956C220.9 334.206 231.706 366.712 245.181 398.169C245.531 398.956 246.625 398.256 246.318 397.512C232.887 366.187 222.125 333.769 214.162 300.606C213.943 299.818 212.719 300.169 212.894 300.956Z" fill="black"/>
<path d="M237.393 328.781C248.856 348.863 246.975 373.056 254.062 394.581C254.325 395.369 255.593 395.019 255.331 394.231C248.2 372.575 250.081 348.338 238.531 328.125C238.093 327.381 236.956 328.038 237.393 328.781Z" fill="black"/>
<path d="M245.269 398.212C242.775 401.187 240.15 404.119 237.744 407.225C236.519 408.8 234.594 411.162 235.031 413.35C235.469 415.406 237.087 414.837 238.4 414.05C241.769 412.081 245.137 410.025 248.506 408.012C249.25 407.575 248.594 406.437 247.85 406.875C245.794 408.1 243.737 409.325 241.725 410.55C240.631 411.206 239.537 411.819 238.487 412.475C238.269 412.606 237.262 413.394 237.044 413.35C236.825 412.956 236.606 412.519 236.431 412.125C236.606 411.644 236.825 411.162 237.044 410.681C238.094 408.669 239.712 406.962 241.156 405.212C242.862 403.2 244.525 401.187 246.231 399.175C246.756 398.475 245.794 397.556 245.269 398.212Z" fill="black"/>
<path d="M255.069 395.237C260.887 395.412 266.706 395.631 272.481 395.937C275.325 396.112 278.125 396.287 280.969 396.462C283.769 396.681 286.569 396.769 289.238 397.775C290.025 398.081 290.375 396.812 289.588 396.506C287.225 395.587 284.775 395.412 282.281 395.237C279.306 395.019 276.331 394.844 273.356 394.669C267.275 394.319 261.194 394.056 255.069 393.925C254.238 393.925 254.238 395.237 255.069 395.237Z" fill="black"/>
<path d="M248.593 408.45C258.087 411.075 265.437 419.519 275.762 419.213C276.2 419.213 276.506 418.819 276.375 418.382C274.931 412.738 268.981 410.725 265.35 406.788C264.781 406.175 263.862 407.094 264.431 407.707C267.887 411.425 273.75 413.394 275.106 418.732C275.325 418.469 275.543 418.163 275.718 417.9C265.612 418.207 258.218 409.763 248.9 407.182C248.112 406.963 247.762 408.232 248.593 408.45Z" fill="black"/>
<path d="M264.737 408.013C269.375 409.938 274.231 411.381 279.175 412.213C281.319 412.563 283.55 412.869 285.737 412.694C287.006 412.606 288.625 412.475 289.369 411.25C291.031 408.494 287.05 405.825 285.3 404.469C281.669 401.713 277.6 399.656 273.269 398.3C272.481 398.038 272.131 399.306 272.919 399.569C276.2 400.619 279.306 402.019 282.194 403.9C283.594 404.819 284.95 405.825 286.262 406.919C286.831 407.444 287.619 408.013 288.012 408.713C289.106 410.638 287.312 411.294 285.781 411.381C278.956 411.95 271.344 409.281 265.087 406.7C264.3 406.438 263.994 407.706 264.737 408.013Z" fill="black"/>
<path d="M273.05 399.744C278.081 400.356 285.3 402.587 289.325 398.387C289.893 397.775 288.975 396.856 288.406 397.469C286.393 399.569 283.637 399.612 280.925 399.35C278.3 399.087 275.675 398.737 273.05 398.431C272.218 398.344 272.218 399.656 273.05 399.744Z" fill="black"/>
<path d="M267.581 403.462C270.6 404.994 273.881 405.737 277.162 406.569C281.012 407.531 284.556 408.844 287.794 411.119C288.494 411.6 289.15 410.462 288.45 409.981C285.519 407.925 282.369 406.569 278.912 405.65C275.281 404.687 271.606 404.031 268.237 402.325C267.494 401.931 266.837 403.069 267.581 403.462Z" fill="black"/>
<path d="M162.45 248.412C173.475 244.344 182.794 243.512 188.919 243.469C199.419 243.337 211.406 243.206 217.575 250.906C219.938 253.881 220.638 259.044 221.994 269.369C223.394 279.912 224.05 285.162 222.563 291.419C220.769 298.9 218.45 297.762 213.463 309.05C209.788 317.362 210.225 319.9 205.456 333.331C203.356 339.237 201.475 343.919 200.206 346.85C197.581 347.725 194.738 348.469 191.675 349.037C175.619 352.056 161.663 348.512 152.781 345.187C156.019 312.944 159.256 280.7 162.45 248.412Z" fill="#FFBA15"/>
<path d="M165.381 247.8C163.5 248.587 160.787 249.987 158.119 252.481C155.887 254.537 154.181 256.812 152.562 259.831C148.625 267.094 147.531 274.137 147.094 276.894C144.119 296.362 143.244 304.281 143.244 304.281C141.406 321.256 140.794 327.906 140.969 336.787C141.056 341.95 141.406 345.844 142.456 350.394C143.725 355.775 145.606 359.931 149.15 366.537C154.225 376.119 158.556 382.856 161.487 387.537C164.987 393.094 169.931 401.187 175.706 411.294C176.756 414.225 177.894 417.287 179.075 420.525C187.344 442.969 183.187 429.537 184.281 432.819C184.675 434.044 185.506 436.712 187.956 438.2C188.569 438.594 189.531 439.162 190.1 438.9C191.237 438.331 191.062 434.087 185.944 418.862C185.812 418.425 188.087 424.594 193.512 429.45C195.394 431.112 197.231 432.25 198.631 432.95C199.375 436.406 200.075 439.994 200.731 443.712C201.562 448.481 202.262 453.119 202.831 457.581C202.481 458.762 202.044 460.6 202.175 462.875C202.262 464.231 202.35 466.025 203.444 467.994C204.012 469 205.412 471.537 207.6 471.756C208.781 471.887 209.787 471.187 211.8 469.875C214.469 468.125 214.994 467.031 216.306 467.075C217.006 467.075 218.012 467.425 219.194 469C219.15 465.981 218.319 464.931 217.575 464.45C216.35 463.706 215.256 464.669 212.412 464.275C211.319 464.144 209.525 463.881 208.344 462.7C206.637 460.994 207.031 458.106 207.075 457.362C207.425 453.687 206.069 444.062 200.644 422.1C201.081 423.631 202.569 424.594 204.056 424.375C205.631 424.156 206.856 422.712 206.725 421.05C203.969 418.469 201.212 415.887 198.412 413.306C198.062 410.681 197.712 408.012 197.319 405.3C195.919 395.894 194.169 386.925 192.244 378.394C191.062 378.744 189.881 379.094 188.7 379.4C189.487 385.044 190.275 390.687 191.062 396.331C188.131 395.981 185.2 395.587 182.269 395.237C181.087 393.225 179.6 390.512 178.025 387.231C176.8 384.694 174.306 379.487 172.075 372.794C169.231 364.175 167.525 359.1 167.394 352.275C167.306 349.256 167.525 344.925 165.337 339.719C164.506 337.794 163.631 336.306 162.975 335.344C163.937 329.612 164.769 324.712 165.381 320.775C169.537 294.569 167.394 302.006 170.762 277.156C171.375 272.519 171.987 268.45 171.112 262.937C170.15 256.331 167.437 251.081 165.381 247.8Z" fill="white"/>
<path opacity="0.17" d="M162.45 248.413C160.743 251.913 158.468 257.119 156.5 263.682C152.912 275.713 152.475 285.513 152.3 292.426C151.512 321.432 151.075 335.957 153.875 348.819C161.093 382.113 178.856 404.513 186.031 413.394C192.068 420.832 197.756 426.519 201.956 430.457C201.387 431.332 200.25 432.776 198.631 432.951C196.793 433.126 195.306 431.463 193.512 429.451C191.368 427.001 188.656 423.719 185.593 419.738C186.775 422.844 188.306 427.176 189.487 432.601C190.756 438.376 190.275 438.813 190.1 438.901C188.962 439.426 185.112 433.344 183.275 430.107C180.825 425.863 177.85 419.651 175.75 411.251C169.887 401.013 164.9 392.876 161.531 387.494C151.775 371.832 148.406 367.763 145.168 358.313C144.075 355.032 141.668 347.332 140.968 337.226C140.706 333.157 140.837 330.794 142.543 312.988C144.25 295.269 144.818 290.194 145.912 283.238C148.056 269.588 149.587 265.476 151.556 261.757C154.968 255.369 159.343 251.038 162.45 248.413Z" fill="#8E8E8E"/>
<path d="M165.206 247.144C155.625 250.95 150.55 260.313 148.012 269.807C144.906 281.357 143.594 293.519 142.456 305.419C141.275 317.669 139.481 330.313 140.575 342.606C141.625 354.463 147.05 364.438 153 374.5C160.306 386.838 167.612 399.132 174.875 411.469C175.312 412.213 176.45 411.557 176.012 410.813C169.887 400.444 163.762 390.119 157.637 379.75C151.775 369.863 145.037 359.975 142.719 348.557C140.444 337.182 142.019 325.325 142.981 313.863C143.987 301.832 145.212 289.756 147.487 277.856C149.719 266.438 153.612 253.138 165.512 248.413C166.344 248.106 165.994 246.838 165.206 247.144Z" fill="black"/>
<path d="M165.381 248.981C173.869 259.963 170.456 275.581 168.881 288.225C166.912 304.106 164.944 319.944 162.975 335.825C162.887 336.656 164.2 336.656 164.287 335.825C166.344 319.113 168.444 302.356 170.5 285.644C172.031 273.219 174.569 258.738 166.3 248.063C165.775 247.406 164.856 248.325 165.381 248.981Z" fill="black"/>
<path d="M159.693 333.375C164.2 336.525 165.25 342.3 166.081 347.331C167.043 352.975 168.006 358.575 169.275 364.131C171.768 375.112 175.312 385.875 181.306 395.5C181.743 396.2 182.881 395.544 182.443 394.844C175.968 384.475 172.381 372.706 169.887 360.806C168.706 355.162 167.962 349.475 166.781 343.831C165.862 339.369 164.243 334.95 160.35 332.237C159.65 331.756 158.993 332.894 159.693 333.375Z" fill="black"/>
<path d="M182.487 396.288C185.243 396.288 187.956 396.332 190.581 397.207C191.368 397.469 191.718 396.201 190.931 395.938C188.175 395.019 185.331 394.976 182.487 394.976C181.656 394.976 181.656 396.288 182.487 396.288Z" fill="black"/>
<path d="M191.456 403.157C191.281 406.832 193.775 409.544 196.181 411.994C199.418 415.319 202.831 418.513 206.331 421.575C206.943 422.144 207.906 421.225 207.25 420.657C204.362 418.119 201.562 415.538 198.85 412.825C196.225 410.2 192.55 407.225 192.768 403.157C192.812 402.325 191.5 402.325 191.456 403.157Z" fill="black"/>
<path d="M175.094 411.425C176.8 416.281 178.506 421.137 180.562 425.862C181.612 428.225 182.706 430.588 183.931 432.863C185.025 434.875 186.162 437.413 187.781 439.031C188.481 439.731 189.444 440.213 190.362 439.513C191.456 438.638 191.106 436.931 190.844 435.75C189.794 430.237 188.175 424.812 186.25 419.519C185.944 418.731 184.675 419.081 184.981 419.869C186.381 423.631 187.562 427.481 188.525 431.375C188.787 432.425 189.006 433.475 189.269 434.525C189.444 435.269 190.275 437.5 189.75 438.113C188.831 439.119 186.162 434.088 185.856 433.519C181.787 426.431 179.075 418.687 176.362 411.031C176.1 410.287 174.831 410.637 175.094 411.425Z" fill="black"/>
<path d="M185.55 419.738C187.869 423.238 190.187 426.957 193.162 429.976C194.912 431.769 198.456 434.657 201.169 433.388C204.012 432.119 202.044 428.663 200.95 426.957C198.15 422.626 195.306 418.294 192.506 413.919C192.069 413.219 190.931 413.876 191.369 414.576C193.25 417.463 195.131 420.351 197.012 423.238C197.887 424.551 198.719 425.907 199.594 427.219C200.512 428.619 203.05 432.251 199.462 432.163C196.662 432.119 194.169 429.188 192.55 427.219C190.406 424.594 188.569 421.794 186.687 418.951C186.206 418.382 185.069 419.038 185.55 419.738Z" fill="black"/>
<path d="M191.456 414.313C194.256 418.119 197.712 421.619 201.737 424.113C203.05 424.944 204.8 425.644 206.2 424.594C207.206 423.806 207.425 422.669 206.9 421.575C206.506 420.831 205.368 421.488 205.762 422.231C205.018 423.675 204.187 424.069 203.269 423.413C202.962 423.281 202.7 423.15 202.437 422.975C201.912 422.669 201.431 422.319 200.95 421.969C199.856 421.181 198.762 420.306 197.756 419.344C195.831 417.594 194.125 415.669 192.593 413.613C192.068 412.956 190.931 413.613 191.456 414.313Z" fill="black"/>
<path d="M187.825 416.5C190.756 422.669 194.912 428.094 200.162 432.469C200.819 432.994 201.737 432.075 201.081 431.55C195.919 427.219 191.806 421.925 188.919 415.844C188.612 415.1 187.475 415.756 187.825 416.5Z" fill="black"/>
<path d="M188 380.713C189.268 388.632 190.537 396.507 191.806 404.426C191.937 405.257 193.206 404.907 193.075 404.076C191.806 396.157 190.537 388.282 189.268 380.363C189.137 379.532 187.868 379.926 188 380.713Z" fill="black"/>
<path d="M189.269 380.713C189.837 379.838 191.5 378.35 192.55 379.707C192.769 380.013 192.769 381.019 192.812 381.413C193.031 382.944 193.294 384.519 193.512 386.05C193.95 388.982 194.431 391.957 194.869 394.888C195.787 400.794 196.706 406.7 197.625 412.607C197.756 413.438 199.025 413.088 198.894 412.257C197.625 403.944 196.312 395.675 195.044 387.363C194.737 385.263 194.387 383.163 194.081 381.019C193.95 380.144 193.994 378.788 193.25 378.175C191.587 376.819 189.006 378.613 188.131 380.013C187.694 380.757 188.831 381.413 189.269 380.713Z" fill="black"/>
<path d="M200.425 423.193C202.787 435.225 204.756 447.3 206.375 459.462C206.506 460.293 207.818 460.293 207.687 459.462C206.068 447.212 204.056 435.006 201.65 422.843C201.518 422.012 200.25 422.362 200.425 423.193Z" fill="black"/>
<path d="M198.15 433.125C199.725 441.306 201.081 449.531 202.219 457.8C202.35 458.631 203.619 458.281 203.487 457.45C202.35 449.181 200.994 440.956 199.419 432.775C199.244 431.944 197.975 432.294 198.15 433.125Z" fill="black"/>
<path d="M202.394 457.8C203.137 459.637 204.931 460.862 206.944 460.644C207.775 460.556 207.775 459.244 206.944 459.331C205.587 459.506 204.187 458.806 203.662 457.45C203.356 456.662 202.087 457.012 202.394 457.8Z" fill="black"/>
<path d="M202.481 457.45C200.818 461.825 201.212 467.862 204.931 471.144C206.331 472.412 208.125 472.806 209.875 472.062C212.018 471.187 215.912 465.369 218.231 468.606C218.712 469.306 219.85 468.65 219.368 467.95C217.006 464.581 213.506 467.512 211.362 469.437C209.743 470.881 207.818 471.887 205.85 470.225C204.756 469.306 204.012 467.862 203.531 466.55C202.525 463.662 202.656 460.644 203.75 457.8C204.056 457.012 202.787 456.662 202.481 457.45Z" fill="black"/>
<path d="M206.813 459.419C207.163 461.651 208.388 463.969 210.575 464.844C213.375 465.938 219.806 463.401 218.625 468.826C218.45 469.657 219.719 470.007 219.894 469.176C220.419 466.857 219.544 464.407 217.05 463.838C215.256 463.401 213.463 464.232 211.669 463.838C209.481 463.313 208.431 461.169 208.081 459.113C207.906 458.238 206.681 458.632 206.813 459.419Z" fill="black"/>
<path d="M182.837 248.982C183.494 250.557 184.325 251.738 185.462 252.569C187.212 253.926 189.225 254.188 190.581 254.188C192.025 252.526 193.469 250.863 194.912 249.201C195.962 250.207 198.719 252.613 202.656 252.744C204.406 252.788 206.2 252.394 208.781 251.038C215.519 247.494 219.587 241.763 221.556 238.657C225.231 232.663 226.5 227.326 227.2 224.088C228.294 219.101 230.044 210.657 226.675 201.163C225.45 197.751 224.881 196.044 223.394 194.601C214.95 186.376 185.506 192.501 177.019 211.226C177.106 211.269 171.987 222.601 182.837 248.982Z" fill="white"/>
<path opacity="0.18" d="M218.8 199.195C219.456 201.863 208.737 203.263 200.293 215.295C194.343 223.826 193.425 232.095 193.25 233.932C192.637 240.582 193.906 246.007 194.956 249.245C192.943 248.02 190.931 246.751 188.962 245.526C186.993 246.882 185.068 248.195 183.1 249.551C180.562 246.62 174.656 238.963 173.562 227.632C173.212 223.87 172.293 214.595 177.587 206.982C188.612 191.145 217.75 194.951 218.8 199.195Z" fill="#8E8E8E"/>
<path d="M187.781 216.519C192.418 215.469 196.137 214.025 198.718 212.844C204.012 210.438 207.687 207.769 211.187 205.232C214.381 202.913 216.962 200.769 218.8 199.15C220.943 200.113 225.056 202.3 226.587 206.632C226.981 207.813 227.2 209.038 227.068 213.107C226.893 217.657 226.806 220.85 225.931 224.963C224.137 233.757 220.156 240.625 217.75 244.3C220.768 242.9 225.362 240.232 229.125 235.288C234.112 228.769 234.9 222.032 235.512 215.863C236.562 205.232 237.568 195.257 231.225 188.257C224.75 181.082 214.162 180.994 205.456 180.95C200.6 180.907 194.475 180.863 187.693 183.619C176.318 188.3 176.1 195.607 160.175 212.538C148.493 224.919 144.906 224.919 141.931 232.575C139 240.057 136.812 254.538 145.868 262.369C154.925 270.157 169.8 266.744 178.068 259.613C179.993 257.95 186.687 251.694 187.125 241.457C187.518 232.313 182.706 225.969 181.393 224.35C177.456 219.713 177.193 214.638 179.25 212.8C180.606 211.575 183.581 211.269 185.637 212.8C187.343 214.113 187.693 216.038 187.781 216.519Z" fill="#2F4EBB"/>
<path d="M186.687 241.982C188.962 244.607 191.544 246.97 194.344 249.026C196.662 250.732 199.769 253.138 202.744 253.488C205.762 253.838 209.35 251.782 211.8 250.251C214.644 248.501 217.137 246.226 219.237 243.645C223.656 238.045 225.625 231.001 226.762 224.045C228.031 216.345 228.206 208.47 225.975 200.945C225.756 200.157 224.487 200.463 224.706 201.295C226.762 208.207 226.762 215.426 225.712 222.47C224.75 228.988 223.175 235.638 219.456 241.151C216.219 246.007 210.312 251.126 204.362 252.045C201.125 252.526 197.581 249.682 195.087 247.888C192.375 245.92 189.925 243.601 187.694 241.063C187.037 240.407 186.119 241.326 186.687 241.982Z" fill="black"/>
<path d="M214.731 219.844C213.944 222.95 213.156 226.1 212.369 229.207C211.975 230.694 211.625 232.182 211.231 233.669C210.969 234.632 210.75 237.563 209.875 238.175C210.181 238.307 210.531 238.438 210.837 238.569C210.137 236.819 209.35 235.157 208.3 233.538C207.862 232.838 206.725 233.494 207.162 234.194C208.125 235.682 208.912 237.257 209.569 238.919C209.7 239.269 210.137 239.575 210.531 239.313C211.537 238.613 211.581 237.65 211.887 236.469C212.325 234.719 212.762 232.925 213.2 231.175C214.119 227.5 215.037 223.825 215.956 220.15C216.175 219.407 214.95 219.057 214.731 219.844Z" fill="black"/>
<path d="M198.718 234.37C199.199 238.22 202.568 241.195 206.506 240.976C207.337 240.932 207.337 239.62 206.506 239.663C203.356 239.838 200.424 237.52 200.031 234.37C199.899 233.538 198.587 233.538 198.718 234.37Z" fill="black"/>
<path d="M208.6 222.071C209.305 220.168 209.252 218.394 208.482 218.108C207.712 217.823 206.516 219.134 205.81 221.037C205.105 222.941 205.158 224.715 205.928 225C206.698 225.286 207.895 223.974 208.6 222.071Z" fill="black"/>
<path d="M221.233 224.038C221.938 222.135 221.885 220.361 221.115 220.075C220.345 219.79 219.148 221.101 218.443 223.004C217.738 224.907 217.791 226.682 218.561 226.967C219.331 227.253 220.527 225.941 221.233 224.038Z" fill="black"/>
<path d="M206.375 211.839C207.731 210.307 209.918 210.57 210.837 212.407C211.231 213.151 212.325 212.495 211.975 211.751C210.706 209.214 207.337 208.776 205.456 210.92C204.887 211.532 205.806 212.451 206.375 211.839Z" fill="black"/>
<path d="M219.412 213.456C220.637 212.188 223.306 211.356 224.093 213.631C224.356 214.419 225.625 214.069 225.362 213.281C224.268 210.088 220.506 210.481 218.493 212.538C217.925 213.106 218.843 214.069 219.412 213.456Z" fill="black"/>
<path d="M182.706 224.088C179.556 222.906 178.331 218.05 179.337 215.119C179.862 213.588 181.393 212.144 183.1 212.144C185.506 212.144 186.818 214.681 187.168 216.738C187.3 217.569 188.568 217.219 188.437 216.388C187.65 211.794 182.443 208.644 179.031 212.975C176.187 216.65 177.981 223.738 182.356 225.356C183.143 225.619 183.493 224.35 182.706 224.088Z" fill="black"/>
<path d="M202.175 225.226C202.131 225.226 202.087 225.226 202.043 225.226C201.693 225.226 201.387 225.532 201.387 225.882C201.387 226.232 201.693 226.538 202.043 226.538C202.087 226.538 202.131 226.538 202.175 226.538C202.525 226.538 202.831 226.232 202.831 225.882C202.831 225.532 202.525 225.226 202.175 225.226Z" fill="black"/>
<path d="M205.237 227.763C206.068 227.763 206.068 226.45 205.237 226.45C204.406 226.45 204.406 227.763 205.237 227.763Z" fill="black"/>
<path d="M202.481 229.906C203.312 229.906 203.312 228.594 202.481 228.594C201.65 228.594 201.65 229.906 202.481 229.906Z" fill="black"/>
<path d="M217.312 230.344C218.143 230.344 218.143 229.031 217.312 229.031C216.481 229.031 216.481 230.344 217.312 230.344Z" fill="black"/>
<path d="M221.162 230.038C221.993 230.038 221.993 228.726 221.162 228.726C220.287 228.726 220.287 230.038 221.162 230.038Z" fill="black"/>
<path d="M217.925 233.713C218.756 233.713 218.756 232.4 217.925 232.4C217.093 232.4 217.093 233.713 217.925 233.713Z" fill="black"/>
<path d="M194.475 248.763C193.031 250.425 191.587 252.088 190.143 253.75C189.575 254.406 190.537 255.325 191.062 254.669C192.506 253.006 193.95 251.344 195.393 249.681C195.962 249.069 195.043 248.15 194.475 248.763Z" fill="black"/>
<path d="M182.268 249.331C183.581 252.437 186.424 254.712 189.749 255.325C190.581 255.5 190.931 254.231 190.099 254.056C187.037 253.487 184.631 251.519 183.406 248.675C183.099 247.887 181.962 248.544 182.268 249.331Z" fill="black"/>
<path d="M475.219 422.624C477.45 423.98 479.988 425.293 482.744 426.562C489.044 429.405 494.907 430.937 499.763 431.768C500.638 433.343 501.907 435.618 503.394 438.33C507.419 445.68 510.525 451.499 511.357 452.987C518.05 465.543 527.413 484.968 528.813 487.899C527.719 488.468 525.882 489.168 523.65 488.905C521.025 488.599 519.275 487.024 517.875 485.668C511.007 479.28 508.994 476.612 508.994 476.612C504.357 470.487 499.85 465.018 490.794 454.168C488.475 451.412 486.594 449.224 485.457 447.912C480.557 447.474 475.657 447.037 470.8 446.555C472.288 438.593 473.775 430.587 475.219 422.624Z" fill="black"/>
<path d="M509.169 366.011C499.719 366.361 492.238 366.361 489.132 366.318C485.019 366.274 479.113 366.186 453.169 364.83C440.788 364.174 438.644 364.043 432.782 363.868C422.938 363.561 413.882 363.561 403.163 365.661C396.163 367.018 392.707 368.418 389.557 370.911C388.113 372.049 383.432 375.899 381.944 382.461C381.725 383.511 381.2 386.093 382.032 391.211C383.344 399.48 386.669 405.824 388.944 409.586C392.182 414.924 396.382 419.955 403.338 425.949C407.319 429.361 416.375 436.755 435.1 445.855C444.157 450.274 456.45 455.568 471.675 460.205C471.325 458.018 470.932 454.868 470.8 451.105C470.494 442.486 471.763 435.924 472.9 429.93C473.775 425.511 475.132 419.693 477.407 412.999C474.3 411.249 471.238 409.455 468.132 407.705C477.013 409.28 484.757 409.98 490.882 410.243C504.357 410.899 514.025 409.849 525.488 408.58C534.588 407.574 539.225 407.049 541.675 405.561C554.45 397.774 558.607 373.536 550.119 365.618C545.482 361.199 540.013 364.83 509.169 366.011Z" fill="white"/>
<path opacity="0.13" d="M472.682 431.287C467.475 428.925 460.125 425.119 452.032 419.344C434.444 406.744 418.825 388.412 421.494 384.956C422.938 383.119 428.932 386.531 438.25 389.987C461.744 398.65 482 398.387 496.175 398.169C509.519 397.994 529.732 396.156 553.4 387.8C552.875 390.906 551.388 396.9 546.4 401.581C543.207 404.6 539.794 405.869 537.475 406.612C522.163 411.644 504.007 411.075 498.582 410.856C490.269 410.506 479.55 409.85 467.125 408.494C470.8 409.719 474.475 410.944 478.15 412.169C476.357 418.512 474.519 424.9 472.682 431.287Z" fill="#898989"/>
<path d="M504.05 365.224C485.063 366.187 466.207 364.874 447.263 363.781C437.769 363.256 428.275 362.862 418.782 363.256C410.557 363.606 401.938 364.306 394.325 367.543C388.025 370.212 382.688 374.893 381.375 381.849C380.019 389.112 382.119 396.987 385.094 403.637C391.744 418.424 404.694 428.968 418.257 437.237C434.838 447.299 452.732 455.787 471.544 460.818C472.375 461.037 472.725 459.768 471.894 459.549C455.75 455.262 440.482 448.306 425.957 440.168C412.088 432.424 398.307 423.237 389.732 409.543C385.707 403.156 382.863 395.806 382.382 388.193C382.119 383.993 382.688 379.706 385.094 376.162C387.107 373.187 390.169 370.999 393.363 369.424C400.757 365.793 409.463 365.006 417.557 364.612C426.307 364.174 435.1 364.437 443.807 364.874C463.932 365.924 483.882 367.499 504.05 366.493C504.882 366.493 504.925 365.181 504.05 365.224Z" fill="black"/>
<path d="M421.231 385.525C439.125 396.637 458.157 405.781 477.975 412.781C478.763 413.044 479.113 411.775 478.325 411.512C458.594 404.512 439.65 395.412 421.888 384.387C421.144 383.95 420.488 385.087 421.231 385.525Z" fill="black"/>
<path d="M477.669 411.731C471.982 427 469.75 443.362 471.063 459.594C471.15 460.425 472.463 460.425 472.375 459.594C471.019 443.45 473.25 427.262 478.938 412.081C479.244 411.294 477.975 410.943 477.669 411.731Z" fill="black"/>
<path d="M474.782 423.062C477.494 425.731 482.132 427.087 485.675 428.312C490.138 429.887 494.732 431.068 499.413 431.856C500.244 431.987 500.594 430.718 499.763 430.587C495.607 429.887 491.494 428.924 487.513 427.568C485.325 426.824 483.138 425.993 481.038 425.074C479.2 424.287 477.144 423.543 475.744 422.099C475.088 421.531 474.169 422.449 474.782 423.062Z" fill="black"/>
<path d="M499.238 432.074C509.3 450.187 519.013 468.518 528.375 487.024C528.769 487.768 529.907 487.112 529.513 486.368C520.15 467.862 510.394 449.574 500.375 431.418C499.982 430.674 498.844 431.33 499.238 432.074Z" fill="black"/>
<path d="M471.413 446.337C474.913 446.818 478.457 447.255 481.957 447.737C483.444 447.955 484.888 448.043 486.069 449.137C486.682 449.705 487.207 450.449 487.688 451.105C488.607 452.33 489.569 453.555 490.488 454.78C494.469 460.074 498.451 465.324 502.694 470.443C506.982 475.562 511.488 480.462 516.519 484.837C519.888 487.768 524.919 492.187 529.338 488.424C529.994 487.855 529.032 486.937 528.419 487.505C525.138 490.305 521.2 487.068 518.619 484.924C516.169 482.868 513.85 480.68 511.619 478.362C507.2 473.855 503.175 469.043 499.282 464.099C495.432 459.199 491.844 453.993 487.863 449.18C486.244 447.212 484.45 446.774 482 446.468C478.5 445.987 474.957 445.549 471.457 445.068C470.582 444.937 470.582 446.249 471.413 446.337Z" fill="black"/>
<path d="M469.094 408.886C492.938 412.299 517.219 411.555 540.8 406.611C541.632 406.436 541.282 405.168 540.45 405.343C517.131 410.243 493.025 410.986 469.444 407.618C468.613 407.486 468.263 408.755 469.094 408.886Z" fill="black"/>
<path d="M458.375 223.169C458.55 220.631 458.681 217.394 458.594 213.675C458.506 209.256 458.244 209.825 457.85 202.913C457.456 196.044 457.544 193.288 455.837 192.456C455.05 192.063 454 192.194 453.3 192.631C452.819 192.938 452.162 193.594 451.55 198.494C451.2 201.338 451.375 201.688 450.894 202.256C449.669 203.744 447.787 202.563 445.469 204.138C444.112 205.056 444.55 205.581 442.625 207.506C440.612 209.519 440 209.081 438.687 210.656C438.469 210.919 436.325 213.544 436.806 216.738C436.894 217.35 437.156 219.231 438.337 219.713C439.475 220.194 440.437 218.969 441.225 219.406C442.1 219.844 441.75 221.594 441.619 224.919C441.487 228.638 441.4 230.606 442.187 232.531C442.887 234.281 444.112 235.55 445.206 236.381C445.469 237.869 445.819 240.144 446.125 242.944C447.131 252.656 446.169 257.425 446.125 264.075C446.125 274.838 448.662 283.194 450.325 288.663C452.6 296.144 455.444 302.05 457.587 306.075C460.125 306.25 463.844 306.206 468.087 304.981C472.812 303.581 475.7 301.438 481.519 296.931C492.194 288.706 497.575 284.506 499.762 282.275C508.469 273.394 509.737 268.538 510.131 266.263C510.437 264.513 511.487 258.738 508.381 256.375C505.8 254.406 501.731 255.806 500.025 256.375C496.744 257.469 495.037 259.219 492.106 261.669C486.594 266.263 486.331 265.388 481.081 269.588C477.756 272.256 473.25 276.325 468.525 282.144C468.219 280.525 467.694 277.988 466.994 274.881C465.637 268.8 464.544 265.038 463.931 262.544C461.962 254.931 461.219 248.719 459.731 236.338C459.294 232.925 458.812 228.463 458.375 223.169Z" fill="white"/>
<path opacity="0.18" d="M455.357 192.019C455.663 195.431 455.75 199.937 454.875 205.056C453.738 211.837 451.463 217.131 449.582 220.675C449.275 221.462 448.532 223.475 449.144 225.969C450.063 229.731 453.257 231.437 453.782 231.7C455.182 239.05 456.582 246.356 457.982 253.706C460.388 266.525 462.75 279.387 465.025 292.206C469.094 288.619 473.207 285.031 477.363 281.4C487.032 273.044 496.657 264.906 506.194 256.987C504.138 256.637 502.082 256.244 500.025 255.894C498.45 256.9 496.263 258.3 493.638 260.094C488.65 263.506 483.225 267.181 477.363 272.65C475 274.837 471.894 277.9 468.569 281.881C468.175 279.344 467.475 275.625 466.382 271.075C464.938 265.256 464.369 264.556 463.319 260.269C461.657 253.531 462.838 254.012 460.913 242.419C458.857 229.95 458.725 229.206 458.725 229.206C458.419 227.456 458.2 226.275 458.069 224.569C457.632 219.275 458.507 215.294 458.725 214.2C459.294 210.612 459.207 204.137 455.357 192.019Z" fill="#A5A4A4"/>
<path d="M502.913 253.663C490.094 261.188 478.325 270.331 468 281.05C467.432 281.663 468.35 282.581 468.919 281.969C479.156 271.338 490.838 262.281 503.569 254.8C504.313 254.406 503.657 253.269 502.913 253.663Z" fill="black"/>
<path d="M468.394 285.557C469.575 281.619 469.006 277.682 467.956 273.788C466.731 269.194 465.331 264.644 464.281 260.007C462.094 250.6 460.694 241.063 460.038 231.438C459.994 230.607 458.681 230.607 458.725 231.438C459.338 240.319 460.606 249.157 462.488 257.907C463.45 262.325 464.588 266.7 465.856 271.032C467.213 275.669 468.656 280.438 467.169 285.25C466.906 285.994 468.175 286.344 468.394 285.557Z" fill="black"/>
<path d="M460.038 230.781C459.294 227.194 457.5 218.794 452.075 219.975C450.281 220.369 448.531 222.031 448.663 224C448.838 226.713 451.55 225.838 452.994 227.281C453.606 227.894 454.525 226.931 453.913 226.363C453.169 225.619 452.425 225.619 451.55 225.225C448.181 223.781 451.856 220.063 454.481 221.638C457.281 223.3 458.156 228.2 458.769 231.131C458.944 231.963 460.213 231.613 460.038 230.781Z" fill="black"/>
<path d="M458.9 225.269C459.731 215.031 459.25 204.663 457.194 194.556C456.975 193.419 456.756 191.931 455.531 191.406C454.394 190.925 453.213 191.625 452.6 192.544C451.638 194.031 451.637 196.35 451.462 198.056C451.2 200.813 451.2 203.613 451.419 206.369C451.462 207.2 452.775 207.2 452.731 206.369C452.6 204.444 452.513 202.475 452.6 200.55C452.688 198.756 452.513 195.956 453.3 194.381C453.344 194.206 453.387 193.988 453.431 193.813C454.919 192.894 455.662 192.981 455.75 194.075C456.1 194.644 456.1 195.825 456.231 196.525C456.625 198.625 456.931 200.769 457.194 202.913C458.069 210.35 458.2 217.831 457.587 225.269C457.5 226.1 458.812 226.1 458.9 225.269Z" fill="black"/>
<path d="M451.463 201.907C450.456 199.719 447.744 202.607 447.088 203.613C445.338 206.238 445.294 209.563 446.388 212.451C447.044 214.069 448.575 216.257 450.5 214.988C453.038 213.369 452.731 208.076 452.425 205.582C452.338 204.751 451.025 204.751 451.113 205.582C451.331 207.376 451.331 209.126 450.981 210.919C450.85 211.532 450.806 212.407 450.413 212.932C449.363 214.419 448.094 213.238 447.613 212.057C446.913 210.351 446.65 208.426 447.131 206.632C447.35 205.801 447.7 205.013 448.181 204.313C448.4 204.007 450.063 202.082 450.281 202.607C450.675 203.351 451.813 202.694 451.463 201.907Z" fill="black"/>
<path d="M447.831 202.912C443.106 203.131 441.05 207.768 441.663 211.968C441.925 213.718 442.538 215.512 444.463 215.95C446.344 216.387 447.831 215.031 448.225 213.281C448.4 212.45 447.131 212.1 446.956 212.931C446.081 216.737 443.281 213.806 442.975 211.968C442.8 210.831 442.756 209.693 443.019 208.556C443.544 206.193 445.338 204.312 447.831 204.225C448.706 204.181 448.706 202.868 447.831 202.912Z" fill="black"/>
<path d="M442.45 206.894C439.475 207.813 436.719 210.875 437.463 214.2C438.163 217.438 442.188 217.831 443.806 215.119C444.244 214.375 443.106 213.719 442.669 214.463C441.838 215.819 439.913 216.169 438.994 214.638C438.469 213.763 438.644 212.538 438.95 211.663C439.563 209.913 441.05 208.688 442.8 208.163C443.588 207.9 443.281 206.631 442.45 206.894Z" fill="black"/>
<path d="M437.594 212.188C436.15 214.156 435.231 218.05 437.419 219.931C438.25 220.631 439.388 220.675 440.35 220.15C441.619 219.45 442.144 218.006 442.538 216.694C442.8 215.906 441.531 215.556 441.269 216.344C441.006 217.175 440.788 218.006 440.131 218.619C439.038 219.669 437.9 219.013 437.55 217.7C437.113 215.994 437.681 214.244 438.688 212.888C439.213 212.144 438.075 211.488 437.594 212.188Z" fill="black"/>
<path d="M440.044 219.056C442.581 224.569 438.075 233.625 445.337 236.687C446.125 236.994 446.475 235.725 445.687 235.419C441.881 233.8 442.056 229.162 442.231 225.706C442.319 223.125 442.275 220.719 441.181 218.356C440.831 217.612 439.694 218.269 440.044 219.056Z" fill="black"/>
<path d="M444.55 236.557C446.038 242.551 445.25 248.763 445.206 254.888C445.163 260.794 445.513 266.701 446.3 272.519C447.831 283.807 450.981 294.832 455.531 305.244C455.881 306.032 457.019 305.332 456.669 304.588C451.9 293.65 448.706 282.013 447.306 270.113C446.65 264.513 446.388 258.869 446.519 253.269C446.65 247.538 447.219 241.85 445.819 236.207C445.644 235.375 444.375 235.726 444.55 236.557Z" fill="black"/>
<path d="M456.406 306.512C468.831 309.312 479.769 299.293 488.738 292.25C494.031 288.093 499.194 283.806 504.181 279.3C508.6 275.275 512.756 270.943 515.688 265.693C516.081 264.95 514.988 264.293 514.55 265.037C511.794 269.981 507.944 274.093 503.788 277.856C499.281 281.968 494.556 285.906 489.788 289.756C484.975 293.606 480.119 297.543 474.913 300.825C469.488 304.281 463.231 306.731 456.756 305.243C455.925 305.068 455.575 306.337 456.406 306.512Z" fill="black"/>
<path d="M459.119 163.144C459.425 162.487 459.731 161.481 459.6 160.344C459.337 158.331 457.762 157.106 456.625 155.881C454.831 154 454.219 152.119 452.731 148.575C451.944 146.694 449.362 140.525 452.075 134.444C454.087 129.937 457.981 127.881 458.769 127.487C459.95 126.875 464.587 124.6 469.094 126.612C472.812 128.319 474.212 131.95 475.394 135.1C475.787 136.15 477.756 141.487 476.225 147.919C475.831 149.581 475.306 151.9 473.644 154.306C472.462 156.012 471.544 156.581 470.625 158.331C469.487 160.431 469.269 162.531 469.225 163.887C470.056 163.887 470.887 163.931 471.719 163.931C471.631 165.112 471.5 166.25 471.412 167.431C469.531 166.994 468.831 167.212 468.569 167.562C468.131 168.219 469.137 169.269 468.7 170.187C468.569 170.45 468.175 171.019 465.812 171.369C463.625 171.675 460.3 172.156 459.337 170.581C458.812 169.706 459.469 168.919 458.812 168.044C458.2 167.212 457.019 167.081 456.1 167.081C455.269 164.762 455.4 163.975 455.75 163.756C456.056 163.537 456.494 163.8 457.412 163.712C458.156 163.669 458.725 163.406 459.119 163.144Z" fill="white"/>
<path d="M464.806 162.837C464.719 158.112 464.587 153.43 464.5 148.705C464.5 147.874 463.188 147.874 463.188 148.705C463.275 153.43 463.406 158.112 463.494 162.837C463.494 163.668 464.806 163.668 464.806 162.837Z" fill="black"/>
<path d="M458.113 143.368C459.731 145.293 461.481 147.175 463.275 148.968C463.538 149.231 463.975 149.231 464.194 148.968C465.463 147.612 466.731 146.256 468 144.9C468.7 144.156 469.881 143.281 470.275 142.275C470.45 141.837 470.013 141.487 469.663 141.443C469.619 141.443 469.619 141.443 469.619 141.443C469.356 141.4 469.05 141.662 469.006 141.925V141.968C468.831 142.8 470.1 143.15 470.275 142.318V142.275C470.056 142.45 469.838 142.581 469.663 142.756H469.706C469.488 142.493 469.269 142.187 469.094 141.925C468.744 142.843 466.994 144.156 466.294 144.9C465.331 145.95 464.369 147 463.363 148.006C463.669 148.006 463.975 148.006 464.281 148.006C462.488 146.212 460.781 144.331 459.119 142.406C458.506 141.793 457.544 142.712 458.113 143.368Z" fill="black"/>
<path d="M464.325 147.962C464.5 144.637 464.587 141.312 464.675 137.987C464.675 137.155 463.362 137.155 463.362 137.987C463.275 141.312 463.187 144.637 463.012 147.962C462.969 148.793 464.281 148.793 464.325 147.962Z" fill="black"/>
<path d="M431.688 129.938C435.713 130.988 439.475 133.481 443.15 135.363C443.894 135.756 444.55 134.619 443.806 134.225C440 132.256 436.194 129.719 432.038 128.669C431.25 128.45 430.9 129.719 431.688 129.938Z" fill="black"/>
<path d="M451.856 127.006C450.106 124.95 448.4 122.937 446.65 120.881C446.081 120.225 445.162 121.187 445.731 121.8C447.481 123.856 449.187 125.869 450.937 127.925C451.506 128.581 452.425 127.619 451.856 127.006Z" fill="black"/>
<path d="M466.907 120.575C467.169 116.331 467.738 112.131 468.569 107.975C468.744 107.143 467.475 106.793 467.3 107.625C466.469 111.912 465.9 116.2 465.594 120.575C465.507 121.406 466.819 121.406 466.907 120.575Z" fill="black"/>
<path d="M482.088 128.406C484.975 125.825 487.95 123.331 490.925 120.925C491.581 120.4 490.663 119.481 490.006 120.006C487.031 122.456 484.056 124.95 481.169 127.488C480.556 128.056 481.475 128.975 482.088 128.406Z" fill="black"/>
<path d="M487.731 141.269C491.319 140 494.862 138.688 498.406 137.288C499.194 136.982 498.844 135.713 498.056 136.019C494.512 137.419 490.969 138.732 487.381 140C486.594 140.263 486.9 141.531 487.731 141.269Z" fill="black"/>
<path d="M436.325 150.194C438.556 149.45 440.831 148.706 443.062 147.962C443.85 147.7 443.5 146.431 442.712 146.694C440.481 147.438 438.206 148.181 435.975 148.925C435.144 149.187 435.494 150.456 436.325 150.194Z" fill="black"/>
<path d="M455.181 164.15C455.969 165.244 454.875 166.731 455.837 167.869C456.45 168.612 457.413 168.744 458.288 168.787C462.575 169.006 467.081 168.35 471.413 168.175C472.244 168.131 472.244 166.819 471.413 166.862C467.913 167.037 464.413 167.212 460.913 167.387C459.294 167.475 457.019 168.131 456.669 165.944C456.494 164.937 456.975 164.456 456.319 163.537C455.838 162.794 454.7 163.45 455.181 164.15Z" fill="black"/>
<path d="M456.8 164.368C461.788 164.456 466.731 164.543 471.719 164.631C471.5 164.412 471.281 164.193 471.063 163.974C471.15 164.893 471.15 165.593 470.975 166.556C470.8 167.387 472.069 167.737 472.244 166.906C472.463 165.899 472.506 164.981 472.375 163.974C472.331 163.624 472.113 163.318 471.719 163.318C466.731 163.231 461.788 163.143 456.8 163.056C455.969 163.056 455.969 164.368 456.8 164.368Z" fill="black"/>
<path d="M458.594 168C457.894 168.963 458.069 170.232 458.856 171.107C460.081 172.419 462.225 172.2 463.844 172.157C465.375 172.113 467.475 172.244 468.744 171.15C469.663 170.363 469.881 169.05 469.225 168.044C468.744 167.344 467.606 168 468.088 168.7C469.488 170.8 464.5 170.8 463.844 170.844C462.838 170.888 458.069 171.019 459.731 168.657C460.213 168 459.075 167.344 458.594 168Z" fill="black"/>
<path d="M459.731 163.319C460.519 159.731 457.894 156.888 456.188 154C454.088 150.456 452.206 146.606 451.725 142.45C451.288 138.819 451.988 134.881 454.175 131.863C456.756 128.319 461.263 126.919 465.506 126.875C474.213 126.744 475.875 137.463 475.831 144.2C475.831 148.881 474.3 152.425 471.456 156.056C469.531 158.506 467.956 161.131 468.613 164.325C468.788 165.156 470.056 164.806 469.881 163.975C469.006 159.775 472.813 156.975 474.781 153.738C476.356 151.2 477.013 148.225 477.144 145.25C477.363 139.956 476.575 133.131 473.119 128.888C469.531 124.425 462.925 124.95 458.156 127.094C452.863 129.413 450.281 134.925 450.281 140.525C450.281 143.894 451.288 147.219 452.688 150.281C453.519 152.119 454.525 153.913 455.619 155.663C456.975 157.85 459.031 160.256 458.462 163.013C458.287 163.8 459.556 164.15 459.731 163.319Z" fill="black"/>
<path d="M500.332 254.406C505.713 250.687 517.7 243.469 534.544 242.244C556.682 240.581 572.825 250.294 577.988 253.706C578.6 259.831 579.3 269.194 579.082 280.656C578.644 301.919 575.407 311.675 574.269 330.444C573.7 339.894 573.525 353.631 575.757 370.562C568.319 373.056 555.5 376.294 539.532 375.069C525.357 373.975 514.332 369.819 507.55 366.625C507.2 360.237 506.544 350.569 505.144 338.844C503.482 325.019 501.775 315.919 500.9 310.8C498.888 298.375 497.357 279.825 500.332 254.406Z" fill="#FFBA15"/>
<path d="M479.856 434.306C476.531 435.618 473.775 436.537 471.85 437.149C463.538 439.774 460.125 439.862 456.275 443.012C455.4 443.712 454.219 444.849 451.944 448.174C448.532 453.249 446.213 458.149 442.8 467.118C439.65 475.431 437.157 482.081 434.838 491.618C433.744 496.081 433 499.887 432.519 502.731C434.444 501.856 437.507 500.324 440.832 497.787C450.063 490.787 452.469 483.043 462.007 469.043C463.975 466.156 466.994 461.868 471.106 456.837C473.25 455.306 476.881 453.118 481.781 451.937C485.063 451.193 487.906 451.106 490.05 451.193C489.7 449.706 489.306 448.218 488.956 446.731C485.938 442.574 482.919 438.462 479.856 434.306Z" fill="black"/>
<path d="M472.944 426.169C473.513 426.475 474.388 426.913 475.351 427.569C479.507 430.456 481.388 434.219 482.744 436.8C488.913 448.613 490.138 447.65 494.032 456.925C495.651 460.775 496.744 464.056 497.444 466.331C500.157 465.281 504.138 463.663 508.907 461.431C520.019 456.225 528.026 451.15 552.701 433.519C573.351 418.731 556.332 430.456 588.138 406.438C589.276 405.606 597.194 399.613 604.588 389.506C609.488 382.856 610.976 378.744 611.413 374.85C611.719 372.356 612.507 365.969 608.394 360.675C605.682 357.175 602.138 355.775 600.651 355.25C597.019 353.894 592.076 353.369 583.544 356.038C574.838 358.794 568.757 362.906 557.732 371.131C549.201 377.519 543.994 381.675 539.576 385.088C525.138 396.331 512.976 405.825 497.357 414.575C491.669 417.681 483.444 421.969 472.944 426.169Z" fill="white"/>
<path opacity="0.18" d="M608.569 360.85C606.644 365.312 603.494 371.918 598.682 379.4C580.788 407.312 556.55 421.225 541.282 429.756C530.038 436.056 512.932 444.15 490.488 449.662C491.669 451.85 492.85 454.256 493.988 456.925C495.432 460.25 496.525 463.443 497.4 466.331C502.432 464.275 509.65 461.125 517.963 456.706C529.994 450.275 533.713 446.862 560.75 427.393C560.75 427.393 576.982 415.756 596.188 399.087C597.282 398.125 603.407 392.743 608.088 383.95C611.107 378.262 611.544 374.893 611.632 372.837C611.894 367.325 609.794 362.993 608.569 360.85Z" fill="#969696"/>
<path d="M474.125 426.519C493.463 417.769 511.706 406.831 528.638 394.056C537.038 387.756 545.175 381.106 553.619 374.894C561.756 368.9 570.2 362.906 579.344 358.487C588.006 354.331 600.519 352.056 607.519 360.544C614.519 369.031 610.056 380.712 604.456 388.544C598.506 396.9 590.719 403.681 582.713 409.937C574.181 416.631 565.431 423.106 556.725 429.625C538.175 443.581 519.144 457.406 497.269 465.675C496.481 465.981 496.831 467.25 497.619 466.944C517.875 459.287 535.769 446.906 553.05 434.044C562.238 427.175 571.425 420.262 580.525 413.262C588.706 407.006 596.8 400.4 603.231 392.306C608.963 385.131 614.081 376.031 611.806 366.494C609.663 357.612 601.306 353.062 592.556 353.412C582.275 353.806 572.781 360.15 564.469 365.619C555.456 371.569 546.925 378.219 538.394 384.869C528.288 392.744 518.094 400.444 507.2 407.269C496.35 414.094 485.063 420.131 473.381 425.381C472.681 425.731 473.338 426.869 474.125 426.519Z" fill="black"/>
<path d="M472.638 426.737C476.269 428.268 478.632 432.162 480.863 435.268C483.05 438.287 485.063 441.393 486.944 444.543C490.882 451.193 494.163 458.193 496.788 465.456C497.094 466.243 498.363 465.893 498.057 465.106C495.3 457.493 491.844 450.143 487.688 443.187C485.588 439.687 483.313 436.275 480.863 432.993C478.763 430.193 476.663 426.956 473.338 425.556C472.507 425.293 471.85 426.387 472.638 426.737Z" fill="black"/>
<path d="M479.682 433.65C475.7 435.05 471.763 436.45 467.782 437.894C464.194 439.162 460.3 440.212 456.888 441.919C454.044 443.319 452.469 445.812 450.982 448.525C449.057 451.981 447.307 455.481 445.6 459.025C439.125 472.85 434.532 487.506 431.863 502.512C431.775 502.95 432.169 503.519 432.65 503.3C438.557 501.244 443.063 496.956 446.869 492.144C451.507 486.281 455.619 479.981 459.688 473.725C463.407 468.037 466.644 461.387 471.894 456.881C474.519 454.65 477.538 453.425 480.907 452.725C484.013 452.069 487.075 451.544 489.7 449.619C490.4 449.137 489.744 448 489.044 448.481C486.244 450.494 482.875 450.887 479.594 451.675C476.794 452.331 474.257 453.425 471.982 455.175C467.125 458.894 464.063 464.45 460.869 469.525C456.757 476 452.469 482.431 447.919 488.644C443.807 494.244 439.082 499.712 432.344 502.031C432.607 502.294 432.869 502.556 433.132 502.819C435.713 488.425 440 474.381 446.082 461.081C447.569 457.844 449.144 454.694 450.807 451.544C452.513 448.306 454.132 444.675 457.544 442.969C461.132 441.219 465.2 440.125 468.919 438.812C472.594 437.5 476.313 436.187 479.988 434.875C480.819 434.656 480.513 433.387 479.682 433.65Z" fill="black"/>
<path d="M448.269 305.943C453.869 334.162 459.513 362.381 465.113 390.6C487.294 391.781 509.432 392.962 531.613 394.143C527.194 364.656 522.819 335.168 518.4 305.725C495.038 305.812 471.675 305.856 448.269 305.943Z" fill="white" stroke="black" stroke-width="3" stroke-miterlimit="10"/>
<path opacity="0.22" d="M498.407 305.768C499.763 313.731 500.813 322.35 501.382 331.625C502.825 354.987 500.725 375.593 497.619 392.35C508.95 392.962 520.282 393.575 531.657 394.143C527.238 364.656 522.863 335.168 518.444 305.725C511.75 305.768 505.057 305.768 498.407 305.768Z" fill="#898989"/>
<path d="M564.644 255.763C562.938 257.425 562.588 259.656 562.369 263.331C561.888 272.694 563.201 279.869 563.201 279.869C564.776 288.313 565.213 296.931 566.307 305.419C567.576 315.131 568.144 320.075 565.651 324.406C563.594 327.994 560.226 330.531 559.219 331.275C555.588 333.944 552.219 334.994 549.332 335.781C544.082 337.269 536.776 339.194 527.544 340.988C525.094 337.75 522.513 335.825 520.807 334.775C518.401 333.288 514.507 330.794 512.144 332.281C511.051 332.981 510.307 334.6 510.657 335.694C511.138 337.138 513.194 336.919 514.419 338.669C515.207 339.806 515.207 341.206 515.119 342.081C513.413 342.431 510.832 342.869 507.638 343.088C501.601 343.481 499.938 342.694 494.863 343.088C489.788 343.481 483.269 344.925 483.226 346.5C483.226 347.638 486.638 348.513 487.601 348.775C490.269 349.475 491.669 349.125 495.344 349.344C498.276 349.519 501.688 350 501.688 350.35C501.688 351.138 484.669 349.956 483.794 354.025C483.532 355.206 484.669 356.388 485.457 357.219C486.332 358.181 488.257 359.8 496.788 360.631C498.538 360.806 500.944 360.981 503.788 360.981C501.251 362.25 498.757 363.519 496.219 364.788C496.219 365.094 496.219 365.531 496.482 365.969C497.926 368.506 505.188 366.844 508.557 366.1C512.932 365.094 519.276 363.169 526.669 358.969C533.276 358.706 538.701 358.181 542.463 357.744C558.213 355.863 566.263 352.844 571.207 350.613C576.632 348.163 579.344 346.106 581.357 343.306C581.969 342.431 583.501 340.113 585.163 333.025C586.826 325.894 587.132 320.25 587.219 318.5C587.394 315.088 587.526 309.269 586.519 295.706C584.988 275.406 584.244 282.756 583.063 269.325C582.932 267.75 582.538 262.981 579.432 258.475C578.513 257.119 577.332 255.456 575.144 254.406C571.776 252.875 567.182 253.225 564.644 255.763Z" fill="white"/>
<path opacity="0.24" d="M573 253.75C573.875 256.856 575.057 261.406 576.107 266.963C576.763 270.463 578.644 281.4 577.988 309.706C577.551 327.556 576.632 330.006 575.188 332.369C571.294 338.669 564.95 341.381 552.307 346.85C541.807 351.356 534.85 354.375 524.744 355.95C520.107 356.694 512.975 357.394 503.832 361.069C502.475 361.594 495.388 364.481 495.694 365.837C495.957 366.887 500.594 366.669 504.663 366.45C509.388 366.187 511.838 366.056 514.988 365.137C517.525 364.394 521.944 362.687 526.494 358.619C533.582 358.662 539.488 358.181 543.863 357.656C550.863 356.825 558.782 355.862 568.057 352.012C573.963 349.562 578.119 347.769 581.357 343.35C582.232 342.169 583.894 339.544 585.557 331.187C586.825 324.844 587.351 318.587 587.351 310.8C587.351 306.862 586.782 300.169 585.688 286.781C584.769 275.887 585.644 288.006 582.625 267.137C582.319 264.994 581.838 261.625 579.344 258.475C577.332 255.85 574.75 254.45 573 253.75Z" fill="#898989"/>
<path d="M563.857 258.475C565.519 253.312 571.95 252.875 575.8 255.718C580.132 258.868 581.488 264.337 582.319 269.325C584.113 280.175 585.6 291.156 586.344 302.093C587.088 313.206 586.825 324.537 583.894 335.343C582.45 340.681 580.263 344.925 575.407 347.812C571.032 350.394 566.175 352.231 561.319 353.675C550.032 357 538.219 357.831 526.494 357.962C525.663 357.962 525.663 359.275 526.494 359.275C538.175 359.1 550.032 358.269 561.319 355.031C566.7 353.5 572.257 351.443 576.982 348.381C581.4 345.537 583.544 341.425 584.944 336.481C588.313 324.537 588.488 311.937 587.482 299.643C587 293.518 586.213 287.437 585.382 281.356C584.55 275.318 584.157 268.931 582.275 263.112C580.744 258.475 577.463 253.793 572.388 252.787C568.275 251.956 563.9 254.143 562.588 258.168C562.325 258.912 563.594 259.262 563.857 258.475Z" fill="black"/>
<path d="M562.981 256.725C560.838 263.419 561.625 270.725 562.325 277.594C563.069 284.813 564.206 291.944 565.038 299.163C565.475 302.75 565.825 306.338 566 309.969C566.219 313.688 566.481 317.669 565.869 321.388C564.644 328.388 558.038 331.625 552.088 334.075C544.388 337.225 536.25 339.281 527.981 340.288C527.15 340.375 527.15 341.688 527.981 341.6C535.288 340.725 542.506 339.063 549.419 336.525C554.888 334.513 561.231 332.15 564.819 327.25C568.756 321.869 567.619 313.688 567.138 307.475C566.569 299.556 565.3 291.725 564.338 283.85C563.244 275.275 561.494 265.519 564.206 257.075C564.469 256.288 563.2 255.938 562.981 256.725Z" fill="black"/>
<path d="M528.026 340.593C524.001 336.262 519.013 331.143 512.538 331.668C510.788 331.799 508.776 332.718 509.388 334.818C509.694 335.868 510.569 336.524 511.444 337.093C513.282 338.274 514.594 339.499 515.163 341.687C515.382 342.518 516.651 342.168 516.432 341.337C515.994 339.718 515.207 338.231 513.894 337.137C513.326 336.656 511.401 335.868 511.182 335.299C511.357 334.556 511.576 333.812 511.751 333.068C512.144 333.024 512.494 332.981 512.888 332.937C513.544 332.893 514.244 332.981 514.901 333.068C520.019 333.899 523.738 337.881 527.107 341.512C527.676 342.124 528.594 341.206 528.026 340.593Z" fill="black"/>
<path d="M514.988 341.468C509.563 343.393 503.525 342.037 497.882 342.256C495.3 342.343 492.719 342.606 490.138 342.999C488.125 343.306 485.194 343.349 483.532 344.749C480.95 346.893 484.188 349.081 486.332 349.343C492.063 350.131 498.013 349.999 503.788 350.306C504.619 350.349 504.619 349.037 503.788 348.993C499.544 348.774 495.257 348.556 491.013 348.337C489.875 348.293 488.738 348.249 487.6 348.162C487.032 348.118 482.35 347.724 484.582 345.624C485.194 345.056 486.769 344.968 487.557 344.793C488.519 344.618 489.482 344.443 490.444 344.268C494.819 343.612 499.282 343.393 503.7 343.568C507.594 343.743 511.488 344.049 515.25 342.737C516.125 342.474 515.775 341.206 514.988 341.468Z" fill="black"/>
<path d="M503.525 349.606C499.15 349.868 494.469 349.693 490.182 350.699C488.213 351.181 486.288 351.968 484.494 352.931C483.663 353.368 482.438 353.893 482.657 355.031C483.094 357.656 489.307 357.612 491.188 357.656C495.913 357.699 500.55 356.824 505.275 357.174C506.106 357.218 506.106 355.906 505.275 355.862C501.994 355.643 498.757 355.949 495.475 356.168C492.457 356.387 488.082 356.956 485.282 355.512C483.4 354.549 484.407 354.418 485.457 353.893C486.288 353.456 487.119 353.062 487.994 352.756C489.613 352.143 491.275 351.749 492.982 351.574C496.438 351.224 499.982 351.137 503.438 350.918C504.357 350.874 504.356 349.562 503.525 349.606Z" fill="black"/>
<path d="M485.15 357.787C490.838 360.718 497.138 361.943 503.482 361.243C504.313 361.155 504.313 359.843 503.482 359.93C497.357 360.587 491.275 359.493 485.807 356.649C485.063 356.299 484.407 357.393 485.15 357.787Z" fill="black"/>
<path d="M503.657 360.412C500.375 361.156 496.744 362.25 495.125 365.487C494.994 365.794 495.038 366.231 495.344 366.406C497.663 367.456 500.025 367.325 502.519 367.237C505.757 367.062 509.038 366.887 512.275 366.362C517.788 365.487 523.082 363.475 527.15 359.537C527.763 358.969 526.844 358.006 526.232 358.619C522.557 362.206 517.744 364.044 512.757 364.962C509.913 365.487 507.069 365.706 504.225 365.837C501.557 365.969 498.582 366.406 496.044 365.269C496.132 365.575 496.219 365.881 496.263 366.187C497.707 363.256 501.032 362.381 504.007 361.725C504.794 361.462 504.444 360.194 503.657 360.412Z" fill="black"/>
<path d="M501.688 197.837C500.375 200.943 500.2 204.006 499.938 207.725C499.807 209.606 499.544 215.512 501.513 222.95C502.738 227.587 504.05 232.618 508.119 237.65C511.663 242.025 515.732 244.475 518.313 245.743C520.107 245.218 522.032 244.606 524.088 243.775C526.1 242.987 527.938 242.112 529.6 241.281C529.688 242.9 529.994 245.787 531.657 248.893C533.057 251.562 534.85 253.312 535.988 254.275C537.3 253.706 538.788 252.962 540.363 251.825C544.082 249.156 546.138 245.875 547.232 243.818C546.619 241.281 546.05 238.393 545.7 235.2C545.088 229.512 545.263 224.481 545.7 220.368C546.663 220.368 548.194 220.237 549.769 219.45C553.313 217.656 554.494 213.937 555.019 212.187C556.288 208.075 555.588 204.575 555.107 202.343C554.669 200.375 553.182 193.506 547.275 188.387C539.882 182.043 530.65 182.831 526.669 183.137C518.182 183.881 505.8 188.081 501.688 197.837Z" fill="white"/>
<path opacity="0.29" d="M539.007 190.838C539.576 193.506 540.101 197.094 540.188 201.294C540.188 202.519 540.276 209.65 538.044 217.744C534.326 231.131 526.057 240.45 522.163 244.475C524.832 243.469 528.376 241.85 532.094 239.094C536.688 235.681 539.619 231.875 541.413 229.25C542.026 235.9 542.638 242.506 543.251 249.156C544.563 247.669 545.876 246.181 547.188 244.694C546.401 240.756 545.701 236.075 545.569 230.738C545.438 226.713 545.657 223.038 546.007 219.8C546.663 219.975 547.844 220.15 549.201 219.713C549.551 219.625 550.863 219.188 552.394 217.438C554.844 214.681 555.369 211.444 555.588 210.088C555.807 208.644 555.982 206.5 555.369 203.219C554.407 197.925 553.138 191.013 548.238 189.175C544.607 187.906 540.844 189.744 539.007 190.838Z" fill="#898989"/>
<path d="M500.025 204.094C498.757 201.206 497.488 197.137 498.45 192.719C499.894 186.2 505.232 182.787 510.657 178.237C515.732 174.037 522.469 167.563 529.338 157.806C528.682 161.525 527.982 165.2 527.325 168.919C530.125 166.425 533.232 163.844 536.6 161.263C538.788 159.6 540.975 158.069 543.075 156.625C542.463 157.456 540.932 159.775 540.844 163.1C540.757 166.775 542.419 169.312 542.988 170.144C543.6 169.312 544.607 168.088 545.875 166.556C547.669 164.456 548.194 164.019 549.113 162.706C550.994 160.037 551.257 158.287 551.607 158.331C552.175 158.419 552.394 162.356 551.344 178.062C553.4 175.744 555.457 173.381 557.469 171.062C557.819 176.181 558.213 181.3 558.563 186.419C559 188.869 559.35 192.456 558.825 196.656C558.213 201.337 556.769 204.969 555.588 207.375C554.669 206.544 553.313 205.581 551.563 205.494C549.463 205.406 548.763 206.587 547.407 206.5C544.475 206.281 544.038 200.462 540.407 195.869C536.863 191.362 531.744 189.919 528.507 189C525.488 188.169 516.257 185.587 508.294 191.144C502.257 195.344 500.507 201.95 500.025 204.094Z" fill="#2F4EBB"/>
<path d="M501.119 197.488C498.931 201.731 499.194 206.631 499.369 211.269C499.588 216.475 500.288 221.725 501.863 226.713C504.488 234.981 509.781 242.55 517.788 246.269C518.531 246.619 519.231 245.481 518.444 245.131C510.744 241.544 505.625 234.325 503.131 226.363C501.688 221.856 501.031 217.131 500.769 212.45C500.506 207.725 500.025 202.431 502.256 198.1C502.65 197.4 501.513 196.744 501.119 197.488Z" fill="black"/>
<path d="M518.488 246.356C531.394 242.987 541.982 233.143 546.313 220.587C546.575 219.799 545.307 219.449 545.044 220.237C540.844 232.399 530.563 241.893 518.138 245.087C517.307 245.306 517.657 246.574 518.488 246.356Z" fill="black"/>
<path d="M545.394 220.675C548.457 220.631 551.3 220.238 553.05 217.481C554.669 214.944 556.813 211.094 556.463 207.988C556.2 205.625 553.794 204.4 551.65 204.313C549.113 204.225 546.794 205.581 545.525 207.725C545.088 208.469 546.225 209.125 546.663 208.381C547.713 206.631 549.594 205.538 551.65 205.625C552.438 205.669 553.4 205.888 554.057 206.369C555.85 207.725 555.063 209.869 554.538 211.488C553.925 213.281 553.007 215.206 551.913 216.825C550.338 219.144 547.932 219.319 545.394 219.363C544.519 219.363 544.519 220.675 545.394 220.675Z" fill="black"/>
<path d="M545.263 219.8C544.738 227.894 544.344 236.075 546.575 243.994C546.794 244.825 548.063 244.475 547.844 243.644C545.656 235.856 546.094 227.806 546.575 219.8C546.619 218.969 545.306 218.969 545.263 219.8Z" fill="black"/>
<path d="M528.944 241.456C529.338 244.475 530.169 247.406 531.482 250.162C532.182 251.694 533.363 255.062 535.419 255.062C537.65 255.062 540.144 252.919 541.719 251.519C544.038 249.375 546.05 246.881 548.15 244.475C548.719 243.862 547.8 242.9 547.232 243.556C545.7 245.306 544.169 247.1 542.55 248.85C540.932 250.556 538.832 252.831 536.469 253.444C534.982 253.837 534.544 253.006 533.844 251.825C533.275 250.862 532.75 249.856 532.313 248.85C531.219 246.4 530.563 243.775 530.213 241.106C530.082 240.275 528.813 240.625 528.944 241.456Z" fill="black"/>
<path d="M513.675 195.562C513.019 204.312 512.8 213.106 513.106 221.856C513.106 222.469 514.025 222.819 514.331 222.206C515.557 219.625 516.782 217.044 518.007 214.462C518.357 213.719 517.219 213.019 516.869 213.806C515.644 216.387 514.419 218.969 513.194 221.55C513.588 221.681 514.025 221.769 514.419 221.9C514.113 213.106 514.288 204.356 514.988 195.606C515.075 194.731 513.763 194.731 513.675 195.562Z" fill="black"/>
<path d="M517.7 229.338C516.65 228.682 516.038 227.282 516.65 226.101C517.088 225.313 517.963 224.832 518.706 224.351C519.494 223.826 520.238 223.344 520.85 222.644C521.594 221.813 521.988 220.763 522.513 219.801C523.519 217.876 525.575 215.382 527.806 217.482C530.475 220.019 528.113 225.751 525.925 227.938C523.694 230.126 520.281 230.607 517.525 229.251C516.781 228.901 516.081 229.994 516.869 230.388C520.369 232.094 524.744 231.438 527.325 228.376C529.863 225.357 532.181 218.838 528.156 216.038C526.625 214.988 524.875 215.163 523.431 216.301C521.506 217.876 521.2 220.588 519.45 222.251C517.919 223.694 515.513 224.263 515.163 226.626C514.9 228.244 515.731 229.644 517.044 230.519C517.744 230.913 518.4 229.776 517.7 229.338Z" fill="black"/>
<path d="M508.075 207.025C508.607 207.025 509.038 205.634 509.038 203.919C509.038 202.203 508.607 200.812 508.075 200.812C507.544 200.812 507.113 202.203 507.113 203.919C507.113 205.634 507.544 207.025 508.075 207.025Z" fill="black"/>
<path d="M523.694 205.012C524.226 205.012 524.657 203.622 524.657 201.906C524.657 200.191 524.226 198.8 523.694 198.8C523.163 198.8 522.732 200.191 522.732 201.906C522.732 203.622 523.163 205.012 523.694 205.012Z" fill="black"/>
</svg>
