<svg width="814" height="859" viewBox="0 0 814 859" fill="none" xmlns="http://www.w3.org/2000/svg">
<path fill-rule="evenodd" clip-rule="evenodd" d="M699.353 432.515C708.743 361.382 814.963 296.306 781.504 228.778C749.221 163.621 585 164 523.5 136C462 108 402.191 23.6351 312.98 8.01099C223.297 -7.69592 125.93 0.674988 40.0598 24.5735C-41.692 47.3259 -98.2014 97.2355 -161.273 140C-219.618 179.561 -271.462 221.142 -318.276 267.54C-371.499 320.288 -443.513 368.683 -456.419 432.515C-469.568 497.553 -446.311 568.869 -389.837 621.481C-334.341 673.181 -226.102 678.177 -151.546 716.537C-80.1664 753.264 -117.924 787.967 -35 810C49.3564 832.413 178.189 847.567 263 826.001C345.268 805.082 436.815 759.857 507.064 723.441C579.822 685.726 645.081 680.87 683 623.501C721.041 565.945 691.026 495.605 699.353 432.515Z" fill="#F4D2D2"/>
<path fill-rule="evenodd" clip-rule="evenodd" d="M712.353 454.093C721.743 382.96 827.963 317.884 794.504 250.356C762.221 185.199 598 185.578 536.5 157.578C475 129.578 415.191 45.2132 325.98 29.5891C236.297 13.8822 138.93 22.2531 53.0598 46.1517C-28.6919 68.904 -85.2014 118.814 -148.273 161.578C-206.618 201.139 -258.462 242.72 -305.276 289.118C-358.499 341.866 -430.513 390.261 -443.419 454.093C-456.568 519.131 -433.311 590.447 -376.837 643.059C-321.341 694.759 -213.102 699.755 -138.546 738.116C-67.1665 774.842 -104.924 809.545 -22 831.578C62.3565 853.991 191.189 869.146 276 847.579C358.268 826.66 449.815 781.435 520.064 745.019C592.822 707.304 658.081 702.448 696 645.079C734.041 587.524 704.026 517.183 712.353 454.093Z" stroke="#CF7979"/>
<path d="M530.5 250.747C535.001 250.747 538.65 247.1 538.65 242.6C538.65 238.101 535.001 234.453 530.5 234.453C525.999 234.453 522.35 238.101 522.35 242.6C522.35 247.1 525.999 250.747 530.5 250.747Z" fill="#FFBA15"/>
<path d="M539.15 228.154C541.248 228.154 542.95 226.453 542.95 224.355C542.95 222.257 541.248 220.557 539.15 220.557C537.051 220.557 535.35 222.257 535.35 224.355C535.35 226.453 537.051 228.154 539.15 228.154Z" fill="#FFBA15"/>
<path d="M290 178.723C292.154 178.723 293.9 176.978 293.9 174.824C293.9 172.671 292.154 170.926 290 170.926C287.846 170.926 286.1 172.671 286.1 174.824C286.1 176.978 287.846 178.723 290 178.723Z" fill="#FFBA15"/>
<path d="M545.2 635.01C548.845 635.01 551.8 632.056 551.8 628.412C551.8 624.768 548.845 621.814 545.2 621.814C541.555 621.814 538.6 624.768 538.6 628.412C538.6 632.056 541.555 635.01 545.2 635.01Z" fill="#FFBA15"/>
<path d="M244.85 657.602C246.534 657.602 247.9 656.237 247.9 654.553C247.9 652.869 246.534 651.504 244.85 651.504C243.165 651.504 241.8 652.869 241.8 654.553C241.8 656.237 243.165 657.602 244.85 657.602Z" fill="#FFBA15"/>
<path d="M282.95 432.382C284.69 432.382 286.1 430.972 286.1 429.233C286.1 427.494 284.69 426.084 282.95 426.084C281.21 426.084 279.8 427.494 279.8 429.233C279.8 430.972 281.21 432.382 282.95 432.382Z" fill="#FFBA15"/>
<path d="M289.15 448.426C290.835 448.426 292.2 447.061 292.2 445.377C292.2 443.693 290.835 442.328 289.15 442.328C287.466 442.328 286.1 443.693 286.1 445.377C286.1 447.061 287.466 448.426 289.15 448.426Z" fill="#2F4EBB"/>
<path d="M285.5 533.396C288.648 533.396 291.2 530.845 291.2 527.698C291.2 524.551 288.648 522 285.5 522C282.352 522 279.8 524.551 279.8 527.698C279.8 530.845 282.352 533.396 285.5 533.396Z" fill="#2F4EBB"/>
<path d="M525.95 209.561C527.938 209.561 529.55 207.95 529.55 205.962C529.55 203.974 527.938 202.363 525.95 202.363C523.962 202.363 522.35 203.974 522.35 205.962C522.35 207.95 523.962 209.561 525.95 209.561Z" fill="#2F4EBB"/>
<path d="M389 215.858C390.74 215.858 392.15 214.448 392.15 212.709C392.15 210.97 390.74 209.561 389 209.561C387.26 209.561 385.85 210.97 385.85 212.709C385.85 214.448 387.26 215.858 389 215.858Z" fill="#2F4EBB"/>
<path d="M108.15 462.171C109.475 462.171 110.55 461.097 110.55 459.772C110.55 458.447 109.475 457.373 108.15 457.373C106.825 457.373 105.75 458.447 105.75 459.772C105.75 461.097 106.825 462.171 108.15 462.171Z" fill="#2F4EBB"/>
<path d="M536.85 651.504C540.164 651.504 542.85 648.818 542.85 645.506C542.85 642.193 540.164 639.508 536.85 639.508C533.536 639.508 530.85 642.193 530.85 645.506C530.85 648.818 533.536 651.504 536.85 651.504Z" fill="#2F4EBB"/>
<path d="M295.05 276.388C294.55 273.289 294.1 267.091 299.05 267.591C300.85 267.791 301.85 269.39 303.85 268.691C307.6 267.391 306.75 262.543 308.3 259.744C310.85 255.245 315.8 261.793 319.6 259.644C320.85 258.944 321.15 257.645 321.1 256.295C321 251.247 325.45 251.597 329.1 252.596C330.05 252.846 330.45 251.397 329.5 251.147C325.8 250.147 319.65 249.797 319.5 255.145C319.45 256.445 320.15 257.745 318.25 258.544C317.65 258.794 316.65 258.494 316.1 258.344C314.8 257.944 313.65 257.045 312.3 256.695C310.55 256.195 308.85 256.545 307.65 257.944C306.15 259.744 306.2 262.193 305.5 264.292C304.75 266.541 303.3 267.841 300.85 266.741C299.85 266.291 298.95 265.892 297.8 266.042C292.65 266.741 292.9 272.989 293.55 276.788C293.75 277.737 295.2 277.338 295.05 276.388Z" fill="#2F4EBB"/>
<path d="M300.95 279.286C301.35 276.187 303.85 274.838 306.75 274.838C308.3 274.838 309.85 275.088 311.35 274.538C314.75 273.238 314.1 269.54 314.9 266.641C316.4 261.143 323.35 264.541 327.2 263.642C329.8 262.992 332 260.393 330.9 257.644C330.55 256.744 329.1 257.144 329.45 258.044C331.15 262.192 325.35 262.442 322.9 262.142C321.1 261.942 319.35 261.642 317.55 262.092C314.7 262.842 313.6 264.941 313.2 267.64C312.85 270.139 312.9 272.888 309.65 273.288C307.9 273.488 306.15 272.988 304.4 273.388C301.6 274.038 299.8 276.387 299.45 279.186C299.3 280.236 300.8 280.236 300.95 279.286Z" fill="#2F4EBB"/>
<path d="M404.25 156.531C402.5 158.731 400.65 161.43 401.5 164.379C402.2 166.778 404.1 167.677 406.4 167.527C407.75 167.427 409.15 167.078 410.25 168.277C411.1 169.177 410.55 171.076 410.3 172.076C409.9 173.625 409.15 175.125 409.3 176.774C409.55 179.023 411.35 180.773 413.65 180.273C414.6 180.073 414.2 178.623 413.25 178.823C408.9 179.823 411.9 172.576 412.1 170.826C412.25 169.377 412 167.777 410.9 166.728C409.8 165.678 408.45 165.778 407.05 165.928C404.85 166.178 402.8 165.478 402.7 162.829C402.65 160.83 404.05 159.03 405.25 157.531C405.95 156.881 404.85 155.782 404.25 156.531Z" fill="#2F4EBB"/>
<path d="M416.05 155.78C413.7 156.78 412.2 159.229 412.8 161.778C413.1 162.927 413.8 164.027 414.8 164.727C416 165.626 417.4 165.426 418.6 166.176C420.85 167.526 419.05 170.175 419.15 172.274C419.2 173.324 419.45 174.273 420.35 174.923C421.7 175.973 423.7 175.623 424.25 173.923C424.55 173.024 423.1 172.624 422.8 173.524C420.9 173.274 420.25 172.424 420.8 170.975C420.9 170.475 421 169.975 421.1 169.475C421.2 168.975 421.25 168.475 421.25 167.976C421.25 166.926 420.95 165.826 420.15 165.077C418.95 163.977 417.1 164.427 415.8 163.527C413.15 161.678 414.1 158.179 416.8 157.029C417.7 156.68 416.9 155.43 416.05 155.78Z" fill="#2F4EBB"/>
<path d="M89.0999 451.226C87.9499 449.427 87.9499 447.228 89.0999 445.378C90.2499 443.579 91.8499 443.529 93.6999 442.829C96.2499 441.78 96.2999 439.131 96.1499 436.731C96.0999 435.882 96.0499 434.982 96.2999 434.132C96.9499 432.133 98.6499 432.683 100.2 432.933C101.1 433.083 101.95 432.933 102.7 432.433C103.65 431.783 104.25 430.634 104.55 429.534C104.8 428.634 104.85 427.685 105.05 426.785C105.15 426.135 105.35 425.535 105.65 424.986C106.45 423.736 107.4 423.636 108.55 424.736C108.8 425.685 110.25 425.285 110 424.336C109.1 421.087 105.1 422.536 104.1 424.836C103.65 425.885 103.6 427.035 103.35 428.134C103.2 428.784 103.1 429.484 102.75 430.084C102 431.433 100.6 431.183 99.2999 431.033C97.7499 430.883 96.5499 430.733 95.5499 432.183C94.3999 433.832 94.6999 435.782 94.6999 437.681C94.7499 439.98 94.2499 440.88 91.9999 441.63C91.0999 441.93 90.3499 442.079 89.5499 442.679C86.6499 444.728 85.8999 448.977 87.7999 451.926C88.2999 452.776 89.5999 452.026 89.0999 451.226Z" fill="#FFBA15"/>
<path d="M95.3497 454.674C93.2497 454.375 94.0497 452.075 94.9997 451.176C95.6997 450.526 96.6498 450.126 97.5498 449.676C98.6498 449.126 99.7498 448.477 100.55 447.527C102.7 444.828 99.5997 441.229 102.6 439.08C105.6 436.981 113.65 436.031 111.3 430.433C110.95 429.533 109.65 430.333 110 431.183C111.7 435.231 103.45 436.431 101.35 438.13C100.6 438.73 99.9498 439.53 99.6498 440.479C99.0498 442.579 100.8 444.728 99.2497 446.727C97.4497 448.926 93.5997 448.926 92.6997 452.025C92.1497 453.775 93.0997 455.874 94.9997 456.174C95.8997 456.274 96.2997 454.824 95.3497 454.674Z" fill="#FFBA15"/>
<path d="M657.558 297.583C656.908 296.433 657.008 295.184 657.708 294.084C658.808 292.485 660.108 292.835 661.808 292.985C662.958 293.085 664.008 293.335 665.108 292.685C667.058 291.485 666.758 288.986 667.108 287.087C667.908 282.638 671.758 286.687 674.358 285.287C675.308 284.788 675.658 283.838 675.858 282.838C676.208 280.889 676.308 275.091 680.058 277.44C680.858 277.94 681.658 276.64 680.808 276.141C677.458 274.091 674.758 277.49 674.458 280.639C674.258 282.438 674.458 284.188 672.058 283.938C671.208 283.838 670.358 283.388 669.508 283.288C668.158 283.138 666.958 283.538 666.208 284.738C665.358 286.137 665.658 287.886 665.308 289.386C664.558 292.785 661.658 290.885 659.308 291.285C656.158 291.835 654.708 295.634 656.208 298.283C656.708 299.182 658.008 298.433 657.558 297.583Z" fill="#FFBA15"/>
<path d="M665.008 300.732C664.158 298.433 666.808 295.884 669.108 297.084C669.408 297.234 669.808 297.234 670.008 296.984C671.158 295.734 671.458 294.285 671.958 292.685C672.858 289.786 675.008 289.386 677.608 288.587C680.158 287.787 683.008 285.688 681.958 282.689C681.608 281.789 680.158 282.189 680.508 283.089C681.958 287.037 674.858 287.337 672.758 288.787C670.208 290.586 670.958 293.835 669.008 295.934C669.308 295.884 669.608 295.834 669.908 295.834C666.558 294.085 662.308 297.533 663.608 301.182C663.908 302.032 665.358 301.682 665.008 300.732Z" fill="#FFBA15"/>
<path d="M448.95 354.759C449.05 354.759 450.15 357.458 450.6 357.808C451.3 358.358 452.15 358.408 453 358.258C454.5 358.008 455.45 356.908 456.75 356.209C459.55 354.609 459.55 357.358 460.65 358.908C461.9 360.757 463.25 359.857 464.7 358.958C465.65 358.358 466.55 357.958 467.4 358.808C467.85 359.258 468.15 360.007 468.5 360.557C469.05 361.357 469.65 362.007 470.55 362.406C471.4 362.806 472.2 361.507 471.3 361.107C469.25 360.207 469 356.808 466.55 356.459C465.4 356.309 464.9 356.958 464 357.458C462.9 358.108 462.25 358.558 461.55 357.308C461.25 356.808 461.2 356.109 460.85 355.609C459.25 352.96 456.75 354.409 454.75 355.709C454.4 355.959 454.05 356.209 453.65 356.409C452.8 356.159 451.9 355.909 451.05 355.659C450.7 355.309 450.7 354.459 450.4 354.009C449.9 353.31 449.4 353.11 448.6 353.26C447.6 353.46 448 354.909 448.95 354.759Z" fill="#FFBA15"/>
<path d="M460.7 349.961C462.2 347.612 465.65 352.511 467.05 353.11C467.9 353.46 468.7 353.46 469.6 353.21C470 353.11 470.35 352.91 470.7 352.76C472.05 352.211 473.2 352.561 474.3 353.51C475.9 354.86 476.35 356.659 478.65 357.159C480 357.459 481.25 357.059 481.85 355.759C482.25 354.91 480.95 354.11 480.55 355.01C479.15 358.009 475.3 352.111 474.3 351.461C472.45 350.261 471.3 351.261 469.45 351.661C466.5 352.261 465.55 348.962 463.1 348.162C461.65 347.662 460.25 347.912 459.45 349.262C458.85 350.061 460.15 350.811 460.7 349.961Z" fill="#FFBA15"/>
<path d="M589.744 437.332C616.294 437.332 642.844 437.332 669.444 437.332C670.394 437.332 670.394 435.832 669.444 435.832C642.894 435.832 616.344 435.832 589.744 435.832C588.794 435.832 588.794 437.332 589.744 437.332Z" fill="#CBCBCB"/>
<path d="M611.494 436.982C611.494 444.729 611.494 452.426 611.494 460.173C611.494 461.123 612.994 461.123 612.994 460.173C612.994 452.426 612.994 444.729 612.994 436.982C612.994 436.032 611.494 436.032 611.494 436.982Z" fill="#CBCBCB"/>
<path d="M648.594 436.232C648.594 425.435 648.594 414.639 648.594 403.843C648.594 402.893 647.094 402.893 647.094 403.843C647.094 414.639 647.094 425.435 647.094 436.232C647.094 437.231 648.594 437.231 648.594 436.232Z" fill="#CBCBCB"/>
<path d="M630.944 404.441C640.994 404.441 651.044 404.441 661.094 404.441C662.044 404.441 662.044 402.941 661.094 402.941C651.044 402.941 640.994 402.941 630.944 402.941C629.994 402.941 629.994 404.441 630.944 404.441Z" fill="#CBCBCB"/>
<path d="M669 224.456C669 233.803 669 243.15 669 252.446C669 253.396 670.5 253.396 670.5 252.446C670.5 243.1 670.5 233.753 670.5 224.456C670.5 223.507 669 223.507 669 224.456Z" fill="#CBCBCB"/>
<path d="M645.65 254.595C663.7 254.595 681.7 254.595 699.75 254.595C700.7 254.595 700.7 253.096 699.75 253.096C681.7 253.096 663.7 253.096 645.65 253.096C644.65 253.096 644.65 254.595 645.65 254.595Z" fill="#CBCBCB"/>
<path d="M699.25 254.396C699.25 260.594 699.25 266.791 699.25 272.989C699.25 273.939 700.75 273.939 700.75 272.989C700.75 266.791 700.75 260.594 700.75 254.396C700.75 253.446 699.25 253.446 699.25 254.396Z" fill="#CBCBCB"/>
<path d="M197.1 195.318C214.75 195.318 232.45 195.318 250.1 195.318C251.05 195.318 251.05 193.818 250.1 193.818C232.45 193.818 214.75 193.818 197.1 193.818C196.15 193.818 196.1 195.318 197.1 195.318Z" fill="#CBCBCB"/>
<path d="M247.9 195.168C247.9 199.966 247.9 204.764 247.9 209.563C247.9 210.512 249.4 210.512 249.4 209.563C249.4 204.764 249.4 199.966 249.4 195.168C249.4 194.168 247.9 194.168 247.9 195.168Z" fill="#CBCBCB"/>
<path d="M231.85 193.967C231.85 186.27 231.85 178.622 231.85 170.925C231.85 169.975 230.35 169.975 230.35 170.925C230.35 178.622 230.35 186.27 230.35 193.967C230.35 194.967 231.85 194.967 231.85 193.967Z" fill="#CBCBCB"/>
<path d="M92.2501 349.363C104.45 349.363 116.65 349.363 128.85 349.363C129.8 349.363 129.8 347.863 128.85 347.863C116.65 347.863 104.45 347.863 92.2501 347.863C91.3001 347.863 91.3001 349.363 92.2501 349.363Z" fill="#CBCBCB"/>
<path d="M114.6 334.318C114.6 338.816 114.6 343.315 114.6 347.813C114.6 348.763 116.1 348.763 116.1 347.813C116.1 343.315 116.1 338.816 116.1 334.318C116.1 333.368 114.6 333.368 114.6 334.318Z" fill="#CBCBCB"/>
<path d="M105.8 335.068C112.3 335.068 118.8 335.068 125.3 335.068C126.25 335.068 126.25 333.568 125.3 333.568C118.8 333.568 112.3 333.568 105.8 333.568C104.8 333.568 104.8 335.068 105.8 335.068Z" fill="#CBCBCB"/>
<path d="M326 650.205C342.3 650.205 358.6 650.205 374.9 650.205C375.85 650.205 375.85 648.705 374.9 648.705C358.6 648.705 342.3 648.705 326 648.705C325 648.705 325 650.205 326 650.205Z" fill="#CBCBCB"/>
<path d="M356.1 648.706C356.1 645.207 356.1 641.708 356.1 638.16C356.1 637.21 354.6 637.21 354.6 638.16C354.6 641.658 354.6 645.157 354.6 648.706C354.6 649.705 356.1 649.705 356.1 648.706Z" fill="#CBCBCB"/>
<path d="M351.55 638.208C358.3 638.208 365.1 638.208 371.85 638.208C372.8 638.208 372.8 636.709 371.85 636.709C365.1 636.709 358.3 636.709 351.55 636.709C350.6 636.709 350.6 638.208 351.55 638.208Z" fill="#CBCBCB"/>
<path d="M93.4 623.914C109.7 623.914 126 623.914 142.3 623.914C143.25 623.914 143.25 622.414 142.3 622.414C126 622.414 109.7 622.414 93.4 622.414C92.45 622.414 92.45 623.914 93.4 623.914Z" fill="#CBCBCB"/>
<path d="M116 604.322C116 610.07 116 615.867 116 621.615C116 622.565 117.5 622.565 117.5 621.615C117.5 615.867 117.5 610.07 117.5 604.322C117.5 603.372 116 603.372 116 604.322Z" fill="#CBCBCB"/>
<path d="M116 602.072C109.5 602.072 102.95 602.072 96.4503 602.072C95.5003 602.072 95.5003 603.572 96.4503 603.572C102.95 603.572 109.5 603.572 116 603.572C116.95 603.572 116.95 602.072 116 602.072Z" fill="#CBCBCB"/>
<path d="M636.95 579.929C635.3 578.28 635.7 575.081 638.25 574.531C639.6 574.231 640.9 575.081 642.2 575.231C643.2 575.381 644.25 575.281 644.9 574.381C645.9 573.081 645.1 571.582 645.05 570.133C644.95 565.584 650.35 565.884 653.05 567.483C653.65 567.833 654.3 567.234 654.15 566.634C652.85 560.386 660 556.087 664.9 560.236C665.65 560.836 666.7 559.786 665.95 559.186C659.9 554.088 651.05 559.286 652.7 567.084C653.05 566.784 653.45 566.534 653.8 566.234C651.5 564.834 648.55 564.135 646.1 565.684C645.2 566.234 644.4 567.084 644 568.083C643.7 568.783 643.55 569.433 643.6 570.183C643.65 571.532 644.1 571.432 643.1 572.732C642 574.181 641.9 573.531 640.35 573.181C639.8 573.032 639.3 572.932 638.7 572.982C637.45 573.032 636.3 573.631 635.5 574.531C633.75 576.48 634.2 579.229 635.95 580.979C636.6 581.678 637.65 580.629 636.95 579.929Z" fill="#CBCBCB"/>
<path d="M646.7 581.428C646.15 576.88 653.6 576.83 655.7 573.681C656.25 572.881 656.45 571.982 656.8 571.132C657.45 569.582 658.6 568.583 660.3 568.133C663.05 567.433 665.9 568.683 668.4 569.732C669.3 570.082 669.7 568.633 668.8 568.283C664.2 566.384 658 564.934 655.45 570.532C654.55 572.531 654.25 573.631 652.15 574.681C650.9 575.28 649.6 575.63 648.4 576.33C646.5 577.43 645 579.129 645.25 581.428C645.35 582.378 646.85 582.378 646.7 581.428Z" fill="#CBCBCB"/>
<path d="M431.65 436.081C432.65 438.58 433.65 441.129 434.65 443.628C434.75 443.328 434.9 443.078 435 442.778C434.45 443.128 433.9 443.478 433.35 443.878C432.5 441.879 432.85 441.379 434.45 442.278C435.4 442.878 435.85 444.178 436.05 445.227C436.5 447.627 436 450.126 435.2 452.425C435 453.025 435.6 453.424 436.1 453.324C439.1 452.725 440.3 456.323 439.7 458.573C439.25 460.222 438.35 461.671 437.45 463.121C436.95 463.921 438.25 464.67 438.75 463.871C440.35 461.372 442.2 458.273 441.1 455.174C440.25 452.875 438.15 451.425 435.7 451.875C436 452.175 436.3 452.475 436.6 452.775C437.6 449.876 438.25 446.227 437 443.278C436.15 441.329 434.2 439.829 432 440.479C430.3 440.979 429.45 442.678 430.25 444.328C431.6 447.077 433.95 445.227 435.7 444.078C435.95 443.928 436.15 443.528 436.05 443.228C435.05 440.729 434.05 438.18 433.05 435.681C432.75 434.831 431.3 435.181 431.65 436.081Z" fill="#CBCBCB"/>
<path d="M135.95 199.616C135 197.217 138.2 196.567 139.7 197.417C140.85 198.067 141.6 199.216 142.3 200.266C142.95 201.216 143.65 202.265 144 203.365C144.4 204.315 144.35 205.214 143.85 206.114C142.1 206.914 141.2 206.714 141.15 205.564C140.7 203.915 142.45 202.815 143.95 202.865C145.5 202.915 146.95 203.815 148 204.914C149.8 206.814 150.45 209.313 150.2 211.862C150.65 211.712 151.15 211.612 151.6 211.462C150.6 210.012 151.55 208.463 152.9 207.713C154.05 207.114 155.35 207.263 156.45 207.863C158.25 208.813 159.5 210.562 160.65 212.162C161.2 212.961 162.5 212.212 161.95 211.412C160.05 208.763 157.2 205.064 153.45 205.914C150.7 206.514 148.5 209.713 150.3 212.212C150.75 212.861 151.6 212.562 151.7 211.812C152.15 207.064 148.65 200.566 143.05 201.366C141.05 201.665 139.6 203.065 139.6 205.114C139.6 206.714 140.6 208.363 142.3 208.463C144.3 208.613 145.65 206.664 145.75 204.864C145.9 202.365 143.95 199.666 142.45 197.817C141.05 196.167 139 194.768 136.8 195.618C135 196.267 133.8 198.067 134.55 199.916C134.85 200.916 136.3 200.516 135.95 199.616Z" fill="#CBCBCB"/>
<path d="M399.35 272.94C397.25 271.69 398.75 267.992 401.1 269.541C403.35 271.041 400.35 273.59 398.9 271.84C398.3 271.091 397.25 272.14 397.85 272.89C399 274.289 401.2 274.189 402.5 273.04C404 271.69 403.6 269.491 402.05 268.391C400.5 267.292 398.25 267.492 397.3 269.291C396.35 270.991 397 273.29 398.65 274.239C399.4 274.689 400.15 273.44 399.35 272.94Z" fill="#CBCBCB"/>
<path d="M558.65 163.628C557.55 162.079 559.45 159.73 561.2 160.429C561.05 160.329 560.9 160.179 560.75 160.079C561.7 161.729 560.3 163.978 558.45 163.878C558.7 164.078 558.95 164.228 559.15 164.428C558.85 163.578 558.5 162.679 558.2 161.829C557.85 160.929 556.4 161.329 556.75 162.229C557.05 163.078 557.4 163.978 557.7 164.828C557.8 165.178 558.05 165.378 558.4 165.378C560 165.478 561.4 164.478 562.1 163.078C562.65 161.979 562.95 159.68 561.6 158.98C558.65 157.53 555.6 161.929 557.35 164.378C557.9 165.178 559.2 164.428 558.65 163.628Z" fill="#CBCBCB"/>
<path d="M599.35 237.952C599.1 236.802 599.95 235.553 601.1 235.303C602.15 235.103 603.1 235.952 603.35 236.902C604 239.151 601.05 240.201 599.65 238.651C599 237.952 597.95 239.001 598.6 239.701C601.2 242.6 606.2 239.751 604.6 236.052C603.9 234.403 602.15 233.353 600.4 233.903C598.55 234.503 597.45 236.452 597.85 238.352C598.15 239.301 599.6 238.901 599.35 237.952Z" fill="#CBCBCB"/>
<path d="M437.05 651.654C435.15 650.755 435.3 648.156 437.05 647.156C438.75 646.206 440.35 647.056 441.9 647.756C443.2 648.356 444.7 648.906 445.85 647.756C446.9 646.756 446.7 645.207 446.75 643.907C446.95 638.859 451.85 639.859 455.2 641.108C456.1 641.458 456.5 640.009 455.6 639.659C452.65 638.509 448.55 637.41 446.2 640.309C445.5 641.158 445.3 642.158 445.25 643.208C445.2 643.907 445.5 645.457 445.1 646.107C444 647.756 442.5 646.256 441.35 645.757C439.15 644.807 436 645.057 434.65 647.356C433.5 649.305 434.2 651.954 436.25 652.904C437.15 653.354 437.9 652.054 437.05 651.654Z" fill="#CBCBCB"/>
<path d="M461.25 533.847C459.75 552.19 460.55 570.584 463.65 588.727C463.8 589.677 465.25 589.277 465.1 588.328C462.05 570.334 461.25 552.041 462.75 533.847C462.85 532.897 461.35 532.897 461.25 533.847Z" fill="#CBCBCB"/>
<path d="M462.25 534.996C470.05 537.695 478.1 539.494 486.3 540.394C494 541.194 502.85 542.043 510.25 539.144C511.15 538.794 510.75 537.345 509.85 537.695C502.65 540.544 493.9 539.694 486.3 538.894C478.25 538.045 470.3 536.195 462.65 533.546C461.7 533.196 461.35 534.646 462.25 534.996Z" fill="#CBCBCB"/>
<path d="M474.15 537.045C471.55 532.997 469.4 528.698 467.9 524.1C467.2 521.901 466.6 519.702 466.15 517.452C465.9 516.103 465.65 514.753 465.5 513.404C465.5 513.254 464.95 509.705 466 510.205C466.5 510.455 467.35 510.005 467.1 509.355C464.35 502.408 462.85 495.11 462.7 487.613C462.45 487.863 462.2 488.113 461.95 488.363C462.35 488.513 462.7 488.663 463.1 488.813C463.6 489.412 464.55 488.763 464.35 488.063C463.35 484.864 462.7 481.565 462.5 478.166C462.45 477.367 462.6 468.37 463.15 468.52C463.75 468.67 464.15 468.12 464.05 467.62C463.1 461.972 462.65 456.224 462.9 450.526C463 447.677 463.25 444.878 463.7 442.079C464.1 439.53 464.3 436.431 466.3 434.582C465.9 434.532 465.5 434.482 465.1 434.432C469.3 442.329 471.65 450.976 473.8 459.573C475.9 468.02 477.75 476.567 479.35 485.164C482.6 502.908 484.65 520.851 485.55 538.895C485.6 539.844 487.1 539.844 487.05 538.895C486.15 520.751 484.1 502.658 480.8 484.764C479.15 475.867 477.25 467.02 475.05 458.224C472.9 449.777 470.55 441.38 466.4 433.632C466.15 433.183 465.55 433.183 465.2 433.482C463.5 435.032 463 437.081 462.6 439.23C462.05 442.279 461.65 445.428 461.45 448.527C461.05 455.025 461.45 461.522 462.55 467.97C462.85 467.67 463.15 467.37 463.45 467.07C460.55 466.271 460.9 472.518 460.85 473.918C460.65 478.816 461.4 483.715 462.85 488.413C463.25 488.163 463.7 487.913 464.1 487.663C463.45 486.913 462.9 486.663 461.9 486.763C461.5 486.813 461.15 487.063 461.15 487.513C461.3 495.11 462.8 502.558 465.6 509.655C465.95 509.355 466.35 509.105 466.7 508.806C461.7 506.406 464.6 517.702 465 519.402C466.5 525.899 469.2 532.097 472.8 537.695C473.4 538.595 474.7 537.845 474.15 537.045Z" fill="#CBCBCB"/>
<path d="M482.1 487.113C481.65 483.914 481.55 480.666 481.95 477.467C482.05 476.667 483.95 467.27 484.9 467.67C485.4 467.92 486 467.62 486.05 467.02C486.35 460.623 488.35 454.925 490.7 449.027C493.05 443.179 495.35 437.531 499.25 432.483C498.9 432.483 498.55 432.483 498.2 432.483C501.05 435.732 500.7 440.68 500.85 444.728C501.05 449.277 501.2 453.825 501.25 458.373C501.35 467.32 501.2 476.267 500.8 485.214C499.95 503.507 497.9 521.751 494.8 539.794C494.65 540.744 496.1 541.144 496.25 540.194C499.5 521.401 501.55 502.358 502.4 483.265C502.8 473.668 502.9 464.071 502.7 454.475C502.6 449.677 502.5 444.878 502.15 440.08C501.95 436.931 501.45 433.832 499.25 431.383C499 431.083 498.45 431.083 498.2 431.383C494.35 436.381 491.95 441.879 489.65 447.727C487.1 454.025 484.95 460.123 484.6 467.02C485 466.82 485.35 466.571 485.75 466.371C482.7 465.021 481.7 471.519 481.3 473.268C480.2 477.967 480.1 482.715 480.8 487.463C480.75 488.463 482.2 488.063 482.1 487.113Z" fill="#CBCBCB"/>
<path d="M464.35 589.977C480 595.025 496.95 594.775 512.45 589.277C513.35 588.977 512.95 587.528 512.05 587.828C496.8 593.226 480.15 593.476 464.75 588.527C463.8 588.228 463.4 589.677 464.35 589.977Z" fill="#CBCBCB"/>
<path d="M510.05 538.644C510.65 546.741 511.3 554.838 511.85 562.935C512.4 571.182 512.6 579.529 511.25 587.726C511.1 588.676 512.55 589.076 512.7 588.126C514.05 580.079 513.95 571.982 513.4 563.885C512.85 555.488 512.2 547.041 511.55 538.644C511.5 537.694 510 537.694 510.05 538.644Z" fill="#CBCBCB"/>
<path d="M243.2 602.821C253.4 597.373 263.65 591.925 273.85 586.477C278.65 587.277 285.25 588.326 293.15 589.426C308.95 591.625 334.4 595.174 366.6 596.124C398.8 597.073 422.95 595.024 432.15 594.124C454.3 592.025 467.7 589.176 478.65 586.227C488.6 583.528 496.8 580.579 502.65 578.33C507.45 579.93 512.8 582.079 518.5 585.028C521.75 586.727 524.75 588.476 527.4 590.226C518 592.925 505.35 596.374 490.3 599.872C458.6 607.27 434.3 610.768 429.2 611.518C400.05 615.667 358.5 621.515 306.25 615.467C290 613.517 268.35 609.969 243.2 602.821Z" fill="white"/>
<path d="M242.65 602.871C242.9 604.97 243.2 607.019 243.45 609.118C247.2 610.168 252.7 611.667 259.5 613.167C272.5 616.066 285.7 618.065 302.95 619.415C366.65 624.413 417.55 619.964 417.55 619.964C443 617.715 467.7 615.416 499.6 606.119C511.6 602.621 521.4 599.072 528.4 596.323C527.85 593.974 527.3 591.625 526.75 589.275C524.8 590.075 521.9 591.225 518.35 592.524C494.25 601.321 474.4 604.22 456.7 606.369C417.8 611.168 398.35 613.517 369.8 613.967C337.3 614.516 293.7 612.567 242.65 602.871Z" fill="#161616"/>
<path d="M242.3 603.82C242.3 605.419 242.3 607.019 242.3 608.618C242.3 609.568 243.8 609.568 243.8 608.618C243.8 607.019 243.8 605.419 243.8 603.82C243.8 602.82 242.3 602.82 242.3 603.82Z" fill="#161616"/>
<path d="M242.85 610.02C280.2 620.116 319.2 621.416 357.65 621.965C394.6 622.465 431.8 620.866 468.2 614.118C488.7 610.32 508.9 604.772 528.4 597.224C529.3 596.874 528.9 595.425 528 595.775C493.6 609.12 457.05 615.918 420.3 618.767C383.25 621.616 345.85 620.966 308.8 618.717C286.65 617.317 264.7 614.418 243.25 608.62C242.3 608.32 241.9 609.77 242.85 610.02Z" fill="#161616"/>
<path d="M528.4 596.173C528.7 594.074 528.8 591.925 528.6 589.826C528.5 588.876 527 588.876 527.1 589.826C527.25 591.825 527.25 593.824 526.95 595.773C526.8 596.673 528.25 597.123 528.4 596.173Z" fill="#161616"/>
<path d="M243.5 603.671C254 598.672 264.3 593.324 274.4 587.526C275.25 587.027 274.5 585.777 273.65 586.227C263.55 591.975 253.25 597.373 242.75 602.371C241.85 602.771 242.6 604.07 243.5 603.671Z" fill="#161616"/>
<path d="M274 586.828C333.65 598.174 395.65 600.273 455.8 591.676C471.8 589.377 487.7 585.828 502.5 579.23C503.4 578.831 502.6 577.531 501.75 577.931C488.45 583.829 474.25 587.278 459.9 589.527C445.3 591.826 430.55 593.226 415.8 594.175C385.85 596.075 355.75 595.575 325.9 592.726C308.6 591.076 291.45 588.577 274.4 585.378C273.45 585.228 273.05 586.678 274 586.828Z" fill="#161616"/>
<path d="M502.2 578.98C511.1 581.879 519.45 585.928 527.25 591.076C528.05 591.626 528.8 590.326 528 589.776C520.1 584.578 511.6 580.48 502.6 577.531C501.65 577.231 501.25 578.68 502.2 578.98Z" fill="#161616"/>
<path d="M243.6 602.872C261.25 608.82 279.65 611.619 298.15 613.119C316.9 614.618 335.8 615.068 354.6 615.068C391.95 615.068 429.4 612.519 466.2 605.821C487.1 602.023 507.8 596.874 527.95 590.127C528.85 589.827 528.45 588.377 527.55 588.677C492.1 600.473 455.25 607.371 418.05 610.769C381.05 614.168 343.65 614.368 306.55 612.169C285.35 610.869 264.1 608.22 243.9 601.423C243.1 601.123 242.7 602.572 243.6 602.872Z" fill="#161616"/>
<path d="M272.4 317.423C333.5 303.278 396.4 300.179 458.9 299.579C476.6 299.379 494.3 299.429 512 299.429C512.95 299.429 512.95 297.93 512 297.93C449.3 297.83 386.3 297.78 324.05 306.427C306.55 308.876 289.2 311.975 272 315.974C271.05 316.223 271.45 317.673 272.4 317.423Z" fill="#161616"/>
<path d="M515.1 298.079C515.75 321.321 516.15 348.261 516 378.2C515.9 395.594 515.75 387.297 514.2 459.671C513.3 501.357 513.05 517.051 510.1 541.142C508.2 556.837 505.9 569.732 504.2 578.479C517.1 582.078 529.4 585.477 540.2 588.475C556.9 593.124 561.35 594.373 568 595.323C578.3 596.723 590.85 596.922 605.35 593.974C610.7 550.189 613.65 512.852 615.35 484.263C621.45 383.798 615.75 337.515 613.55 321.271C610.55 299.379 606.85 281.385 604 268.939C593.3 270.989 584.6 273.188 578.5 274.837C557.55 280.585 540.95 287.333 527.05 293.031C521.9 295.18 517.75 296.929 515.1 298.079Z" fill="white"/>
<path d="M170.4 269.84C170 274.138 169.55 279.436 169.15 284.035C160.85 378.651 156.7 425.984 155.35 456.423C153.95 489.112 153.85 536.495 160.8 595.424C161.35 596.623 162.35 598.273 164.15 599.622C166.5 601.372 168.65 601.322 172.9 602.521C176.25 603.471 178 604.421 179.6 605.02C184.2 606.82 194.5 608.869 207.6 608.369C226.4 607.619 240.85 601.871 251.45 597.523C261.4 593.474 269.35 589.126 274.85 585.827C271.75 557.987 269.45 528.598 268.15 497.759C265.5 432.182 268.15 371.953 273.6 318.273C271.3 317.373 267.95 316.123 264 314.524C257.2 311.775 240.9 305.127 212.2 291.132C200.85 285.634 186.65 278.487 170.4 269.84Z" fill="white"/>
<path d="M603.7 268.74C604.3 272.039 605.1 276.587 606 282.035C607.25 289.783 610.05 308.126 612.1 332.218C614.2 357.309 614.7 378.901 614.75 396.095C614.9 430.982 613.6 456.573 610.2 516.252C609.15 534.845 607.6 562.086 605.65 595.324C607.7 595.174 609.7 595.074 611.75 594.924C612.75 586.627 614.1 574.281 615.15 559.187C615.95 548.29 616.3 540.343 616.65 531.796C618.4 492.61 618.7 493.06 619.3 477.066C620.5 445.527 620.25 421.286 620.05 399.494C619.9 384.449 619.45 370.204 618.55 341.714C617.9 322.321 617.25 305.127 612.85 282.785C611.7 277.087 610.6 272.339 609.8 269.09C607.75 268.99 605.75 268.89 603.7 268.74Z" fill="#161616"/>
<path d="M162.75 270.74C162.4 272.49 161.85 275.189 161.3 278.487C159.7 288.034 159.3 295.231 159.15 297.581C158.05 314.575 155.85 322.872 152.65 360.608C152.05 367.506 151.6 373.554 150.7 385.699C148.85 410.49 147.95 422.886 147.3 436.881C146.6 452.525 146.5 463.571 146.35 485.664C146.2 504.757 146.1 518.552 146.6 536.595C147 550.99 147.8 570.533 149.75 593.825C153.8 595.025 157.8 596.224 161.85 597.424C161.8 595.174 161.65 591.126 161.35 586.078C160.15 563.636 158.2 554.539 157.75 535.846C157.6 530.098 157.7 526.299 157.75 520.851C158.3 481.765 157.65 463.921 158 438.53C158.6 397.095 161.4 364.707 163.8 337.117C166.05 311.026 168.6 288.684 170.8 271.19C168.05 271.04 165.4 270.89 162.75 270.74Z" fill="#161616"/>
<path d="M513.9 298.931C515.75 335.618 515.5 372.405 515 409.092C514.45 444.979 514.2 480.966 511.45 516.803C509.9 537.196 507.45 557.539 503.65 577.682C503.45 578.631 504.9 579.031 505.1 578.081C511.75 542.844 514.2 507.007 515.3 471.22C516.45 434.683 516.95 398.046 516.9 361.459C516.85 340.616 516.5 319.774 515.45 298.931C515.35 297.981 513.85 297.981 513.9 298.931Z" fill="#161616"/>
<path d="M515.75 298.93C543.5 285.185 572.95 275.289 603.35 269.441C604.3 269.241 603.9 267.792 602.95 267.992C572.45 273.889 542.85 283.886 515 297.631C514.15 298.081 514.9 299.38 515.75 298.93Z" fill="#161616"/>
<path d="M602.85 268.991C611.1 310.526 613.6 352.961 613.55 395.246C613.45 437.531 610.95 479.716 608.9 521.951C607.7 546.292 606.5 570.583 605.3 594.924C605.25 595.874 606.75 595.874 606.8 594.924C608.95 551.84 611.2 508.755 613.15 465.621C615.05 423.336 616.25 380.951 613.4 338.716C611.8 315.174 608.95 291.733 604.35 268.641C604.1 267.641 602.65 268.041 602.85 268.991Z" fill="#161616"/>
<path d="M503.9 577.98C506.15 580.579 510.15 581.079 513.3 582.028C517.6 583.328 521.95 584.627 526.25 585.927C534.95 588.526 543.6 591.275 552.4 593.474C569.6 597.673 587.25 598.522 604.7 595.523C605.65 595.373 605.25 593.924 604.3 594.074C587.1 597.023 569.7 596.173 552.8 592.025C544.75 590.075 536.85 587.576 528.95 585.177C524.95 583.977 520.95 582.778 516.95 581.578C514.95 580.979 512.95 580.379 510.95 579.779C508.85 579.129 506.5 578.679 505 576.93C504.3 576.23 503.25 577.28 503.9 577.98Z" fill="#161616"/>
<path d="M603.85 269.041C605.7 269.49 607.55 269.94 609.45 270.39C610.4 270.64 610.8 269.191 609.85 268.941C608 268.491 606.15 268.041 604.25 267.591C603.3 267.391 602.9 268.841 603.85 269.041Z" fill="#161616"/>
<path d="M609.35 269.889C614.35 290.082 615.7 311.175 617.15 331.917C618.65 353.11 619.45 374.352 619.8 395.644C620.4 437.879 618.95 480.114 616.55 522.299C615.2 546.191 613.5 570.082 611.75 593.974C611.7 594.923 613.2 594.923 613.25 593.974C616.4 551.489 619.25 509.004 620.6 466.419C621.95 423.934 621.85 381.35 619.15 338.865C617.7 315.773 616.4 292.081 610.85 269.539C610.55 268.54 609.1 268.94 609.35 269.889Z" fill="#161616"/>
<path d="M606.1 595.774C608.3 595.574 610.45 595.374 612.65 595.174C613.6 595.074 613.6 593.575 612.65 593.675C610.45 593.875 608.3 594.075 606.1 594.275C605.15 594.374 605.15 595.874 606.1 595.774Z" fill="#161616"/>
<path d="M272.35 317.872C269 352.51 267 387.248 266.35 422.035C265.7 456.973 266.4 491.96 268.5 526.848C269.65 546.441 271.3 565.984 273.3 585.477C273.4 586.427 274.9 586.427 274.8 585.477C271.2 550.889 268.95 516.152 268.05 481.364C267.15 446.427 267.6 411.439 269.45 376.551C270.5 356.958 271.95 337.415 273.8 317.872C273.95 316.923 272.45 316.923 272.35 317.872Z" fill="#161616"/>
<path d="M171.35 271.039C203.8 289.082 237.5 304.877 272.1 318.322C273 318.672 273.4 317.222 272.5 316.873C238 303.477 204.45 287.733 172.1 269.739C171.25 269.24 170.5 270.539 171.35 271.039Z" fill="#161616"/>
<path d="M169.8 270.691C164.25 312.976 160.4 355.511 158.3 398.145C156.2 440.78 155.9 483.465 157.3 526.1C158.1 550.041 159.45 573.983 161.35 597.874C161.45 598.824 162.95 598.824 162.85 597.874C159.45 555.339 157.85 512.654 157.95 470.02C158.05 427.335 159.95 384.7 163.55 342.165C165.6 318.274 168.2 294.482 171.3 270.691C171.4 269.741 169.9 269.741 169.8 270.691Z" fill="#161616"/>
<path d="M161.3 598.823C189.15 613.967 222.5 610.718 250.8 598.723C259.3 595.124 267.5 590.776 275.4 586.027C276.2 585.527 275.45 584.228 274.65 584.728C248.3 600.672 217.4 611.818 186.25 606.02C177.8 604.471 169.6 601.622 162.05 597.523C161.25 597.073 160.45 598.373 161.3 598.823Z" fill="#161616"/>
<path d="M150.25 594.674C153.75 596.323 157.35 597.723 161 598.972C161.9 599.272 162.3 597.823 161.4 597.523C157.85 596.323 154.4 594.974 151 593.374C150.1 592.974 149.35 594.274 150.25 594.674Z" fill="#161616"/>
<path d="M161.75 271.041C156.35 312.926 151.85 354.911 148.9 397.046C146 438.981 144.6 481.016 145.5 523.051C146 546.842 147.2 570.634 149.25 594.326C149.35 595.275 150.85 595.275 150.75 594.326C147.15 552.291 146.1 510.106 147.1 467.921C148.05 425.886 150.95 383.901 155.1 342.016C157.45 318.324 160.2 294.632 163.25 270.991C163.4 270.091 161.9 270.091 161.75 271.041Z" fill="#161616"/>
<path d="M162.6 272.09C165.5 271.49 168.4 271.29 171.4 271.44C172.35 271.49 172.35 269.991 171.4 269.941C168.3 269.791 165.25 270.041 162.2 270.641C161.25 270.841 161.65 272.29 162.6 272.09Z" fill="#161616"/>
<path d="M533.05 302.329C535.15 360.309 535.05 418.338 532.65 476.317C532 492.562 531.15 508.756 530.1 525C530.05 525.95 531.55 525.95 531.6 525C535.25 467.121 536.65 409.091 535.8 351.062C535.55 334.818 535.15 318.574 534.55 302.329C534.5 301.38 533 301.38 533.05 302.329Z" fill="#161616"/>
<path d="M557.3 281.536C559.3 321.872 560.3 362.308 560.25 402.693C560.25 443.079 559.25 483.514 557.25 523.85C556.15 546.692 554.7 569.484 552.95 592.276C552.9 593.225 554.4 593.225 554.45 592.276C557.55 551.99 559.65 511.654 560.8 471.269C561.9 430.883 562.05 390.448 561.2 350.062C560.7 327.22 559.9 304.378 558.8 281.536C558.75 280.587 557.25 280.587 557.3 281.536Z" fill="#161616"/>
<path d="M586.4 272.639C589.2 314.574 590.9 356.609 591.35 398.694C591.8 440.929 591.1 483.114 589.2 525.299C588.15 548.94 586.7 572.582 584.85 596.173C584.8 597.123 586.3 597.123 586.35 596.173C589.55 554.238 591.65 512.203 592.5 470.168C593.35 427.983 593.05 385.749 591.55 343.514C590.7 319.872 589.5 296.23 587.9 272.589C587.85 271.639 586.35 271.639 586.4 272.639Z" fill="#161616"/>
<path d="M527.9 543.743C526.75 556.839 524.65 569.834 521.6 582.63C521.4 583.579 522.8 583.979 523.05 583.03C526.15 570.084 528.25 556.989 529.4 543.743C529.5 542.794 528 542.794 527.9 543.743Z" fill="#161616"/>
<path d="M187.75 280.787C181.75 322.722 179.2 365.107 178.8 407.441C178.45 450.026 180.2 492.561 182.8 535.046C184.25 559.087 185.95 583.079 187.65 607.12C187.7 608.07 189.2 608.07 189.15 607.12C186.15 564.785 183.15 522.45 181.5 480.066C179.85 437.781 179.6 395.396 182.05 353.111C183.45 329.069 185.75 305.028 189.15 281.187C189.35 280.287 187.9 279.837 187.75 280.787Z" fill="#161616"/>
<path d="M216.5 294.782C212.7 335.318 210.15 376.003 209.3 416.739C208.5 457.424 209.45 498.11 212.8 538.695C214.65 561.237 217.25 583.679 220.65 606.021C220.8 606.971 222.25 606.571 222.1 605.621C216 565.336 212.5 524.65 211.2 483.915C209.9 443.729 210.65 403.444 212.85 363.308C214.1 340.466 215.85 317.624 218 294.832C218.1 293.833 216.6 293.833 216.5 294.782Z" fill="#161616"/>
<path d="M245.3 306.726C240.4 344.563 237.55 382.649 236.8 420.786C236.05 458.922 237.35 497.108 240.7 535.095C242.6 556.287 245.1 577.38 248.25 598.422C248.4 599.372 249.85 598.972 249.7 598.022C244.05 560.336 240.45 522.399 238.9 484.363C237.35 446.427 237.9 408.39 240.45 370.454C241.9 349.161 244 327.869 246.75 306.676C246.95 305.777 245.45 305.777 245.3 306.726Z" fill="#161616"/>
<path opacity="0.12" d="M575.2 276.039C580.75 298.681 585.25 325.221 586.75 354.961C590.5 430.634 572.7 492.462 557.2 532.147C546.25 549.691 535.35 567.235 524.4 584.779C535.05 589.377 550.85 594.725 570.55 596.325C584.15 597.424 595.95 596.425 605.15 594.925C605.25 592.726 606.9 559.288 607 557.089C612.45 445.079 612.8 437.431 613 429.734C613.9 398.395 613.75 353.411 608.4 297.281C606.55 287.735 604.7 278.188 602.85 268.691C593.7 271.091 584.45 273.54 575.2 276.039Z" fill="#3F3F3F"/>
<path opacity="0.13" d="M226.25 300.48C224.95 305.928 223 314.075 220.7 324.021C210.5 368.405 203 401.044 199 431.083C191.9 484.014 185.05 535.296 214.25 577.381C222.75 589.626 232.05 597.873 238.25 602.772C232.25 605.121 224.8 607.27 216.1 608.32C191.9 611.169 172.5 603.322 163 598.623C159.4 565.485 156.9 529.998 156.1 492.461C154.3 409.391 161.05 334.717 171.35 270.49C189.6 280.487 207.9 290.483 226.25 300.48Z" fill="#3F3F3F"/>
<path d="M173.8 246.699C173.15 247.199 173.65 249.148 174.55 252.497C174.9 253.796 175.25 254.796 175.45 255.446C175.05 258.145 174.7 260.844 174.3 263.543C173.5 263.643 171.45 264.093 169.55 265.742C167.8 267.291 167.1 269.091 166.85 269.891C168.45 270.04 170.4 270.39 172.5 271.04C175.55 271.99 177.95 273.289 179.7 274.389C179.7 274.989 179.8 276.138 180.6 276.988C181.3 277.688 182.15 277.788 182.65 277.888C184.45 278.188 186.6 278.587 189.35 279.187C190.55 279.887 192.55 281.037 195 282.386C203.3 286.884 206.3 287.634 214.6 292.033C219.95 294.882 219.5 294.982 223.25 296.781C229 299.58 233.95 301.229 237.3 302.179C238.7 300.63 240.95 297.631 242.2 293.282C243.2 289.833 243.15 286.834 242.95 284.885C243.8 285.335 245.15 285.835 246.7 285.635C250.7 285.185 253.25 280.637 254.05 277.388C254.75 274.539 254.1 272.74 253.55 269.391C252.3 261.893 251.2 255.196 254.3 250.947C256.9 247.399 262.25 245.749 266.55 241.001C266.95 240.551 267.7 239.701 267.45 239.301C267 238.552 263.5 239.851 261.8 240.601C260.7 241.101 252.45 244.899 249.95 253.496C249.55 254.846 249.5 258.745 249.45 266.492C249.4 272.14 249.5 275.339 247.25 277.188C246.1 278.138 244.4 278.687 242.85 278.338C240.55 277.838 239.45 275.588 238.45 274.089C235.85 270.14 232.15 268.491 227.6 266.242C224.05 264.492 221 263.843 214.85 262.493C209.05 261.244 207.3 261.394 204.8 259.544C202 257.445 200.45 254.496 199.65 252.847C198.85 251.297 197.6 248.848 197.05 245.349C196.75 243.3 196.8 241.851 196.3 241.751C195.4 241.551 194.95 245.699 191.9 247.149C190.05 248.048 188.85 247.199 185.6 247.299C183.5 247.349 181.1 247.798 178.4 248.998C177.5 248.348 174.7 246.049 173.8 246.699Z" fill="black"/>
<path d="M175.3 263.142C174.25 254.895 181.75 247.398 190.05 248.247C197.9 249.047 203.1 258.594 202.85 265.741C202.8 266.691 204.3 266.691 204.35 265.741C204.6 257.844 198.7 247.448 190.05 246.748C180.95 245.998 172.65 254.045 173.8 263.142C173.95 264.042 175.45 264.092 175.3 263.142Z" fill="black"/>
<path d="M175.15 268.34C178.2 274.288 184.75 278.486 191.6 277.587C197.85 276.737 203.15 271.689 204.1 265.441C204.25 264.491 202.8 264.091 202.65 265.041C201.8 270.739 197.1 275.337 191.4 276.087C185.15 276.937 179.25 273.038 176.45 267.59C176 266.74 174.7 267.49 175.15 268.34Z" fill="black"/>
<path d="M180.55 275.59C180.4 273.69 185.8 272.891 187.15 272.591C189.6 272.041 192.1 271.741 194.6 271.741C199.25 271.741 203.7 272.941 207.65 275.39C208.45 275.89 209.25 274.59 208.4 274.09C203.3 270.941 197.35 269.842 191.45 270.392C188.35 270.691 185.3 271.341 182.35 272.341C180.75 272.891 178.85 273.59 179 275.59C179.1 276.539 180.65 276.539 180.55 275.59Z" fill="black"/>
<path d="M202.05 258.295C205.2 262.093 210.3 262.993 214.85 263.993C220.9 265.392 227.15 266.642 232.45 269.99C243.4 276.888 245.45 291.933 236.8 301.579C236.15 302.279 237.2 303.379 237.85 302.629C245.55 294.082 245.75 280.986 237.8 272.49C233.6 267.991 227.6 265.642 221.75 264.093C215.8 262.543 207.25 262.293 203.05 257.195C202.5 256.495 201.45 257.545 202.05 258.295Z" fill="black"/>
<path d="M237.05 284.435C234.55 281.137 230.15 279.987 226.3 281.586C221.55 283.536 221.3 289.384 221.85 293.832C221.95 294.782 223.45 294.782 223.35 293.832C222.9 290.333 222.85 284.935 226.45 283.186C229.55 281.636 233.6 282.436 235.7 285.235C236.3 285.985 237.6 285.235 237.05 284.435Z" fill="black"/>
<path d="M223.15 293.131C220.4 291.032 217.55 289.233 214 290.182C213.6 290.282 213.4 290.732 213.5 291.082C214.4 294.581 219.9 296.03 222.8 297.28C227.25 299.229 231.8 300.878 236.4 302.328C237.3 302.628 237.7 301.178 236.8 300.878C233.1 299.729 229.5 298.479 225.9 296.98C223.95 296.18 222.05 295.33 220.15 294.431C218.45 293.631 215.4 292.681 214.9 290.682C214.75 290.982 214.55 291.282 214.4 291.582C217.5 290.732 220.05 292.581 222.35 294.381C223.15 295.031 223.9 293.731 223.15 293.131Z" fill="black"/>
<path d="M179.2 275.438C181.15 278.637 185.1 279.187 188.55 279.686C193.65 280.436 198.75 280.436 203.85 279.886C204.8 279.786 204.8 278.287 203.85 278.387C199.75 278.837 195.65 278.937 191.55 278.537C188.1 278.187 182.55 277.987 180.45 274.688C180 273.839 178.7 274.588 179.2 275.438Z" fill="black"/>
<path d="M167.55 270.34C168.2 266.841 171.25 265.042 174.65 264.892C174.4 264.692 174.15 264.542 173.95 264.342C174.2 265.542 174.55 266.691 175.05 267.791C175.4 268.691 176.85 268.291 176.5 267.391C176.05 266.242 175.7 265.142 175.4 263.942C175.35 263.642 175 263.393 174.7 263.393C170.7 263.593 166.9 265.792 166.15 269.94C165.95 270.89 167.4 271.29 167.55 270.34Z" fill="black"/>
<path d="M176.25 254.846C175.5 252.697 174.95 250.447 174.75 248.148C174.75 247.948 174.7 247.748 174.7 247.549C174.65 247.099 174.7 247.149 174.9 247.698C175.35 247.998 175.8 248.348 176.25 248.698C177 249.348 177.7 250.048 178.3 250.797C178.95 251.547 180 250.447 179.35 249.748C178.5 248.748 174.95 244.65 173.45 246.249C172.7 247.049 173.25 248.898 173.4 249.798C173.65 251.647 174.15 253.496 174.75 255.246C175.15 256.145 176.6 255.796 176.25 254.846Z" fill="black"/>
<path d="M193.15 247.849C193.6 247.049 194.05 246.25 194.55 245.45C194.75 245.1 194.95 244.8 195.1 244.45C195.4 243.951 195.4 243.501 196 243.651C196.7 243.801 196.45 245.45 196.45 246.05C196.45 246.999 196.5 247.949 196.5 248.899C196.5 249.848 198 249.848 198 248.899C198 247.349 198.05 245.8 197.95 244.25C197.9 243.251 197.55 242.151 196.45 241.801C195.45 241.501 194.75 242.151 194.25 242.901C193.4 244.25 192.65 245.7 191.85 247.049C191.35 247.949 192.65 248.699 193.15 247.849Z" fill="black"/>
<path d="M241.05 280.537C241.35 284.335 245.6 285.585 248.55 283.735C252.9 281.036 253.85 274.938 253.3 270.34C252.55 264.042 251.05 258.194 253.2 251.947C255.25 245.999 260.35 241.151 266.8 240.751C267.75 240.701 267.75 239.201 266.8 239.251C258 239.801 252 247.298 250.75 255.595C250 260.544 251.1 265.142 251.75 269.99C252.15 273.189 251.95 276.238 250.5 279.187C249.85 280.437 248.95 281.686 247.75 282.486C245.9 283.635 242.7 283.286 242.5 280.586C242.5 279.587 241 279.537 241.05 280.537Z" fill="black"/>
<path d="M241.85 283.237C243.4 287.385 248.8 285.536 251.15 283.137C255 279.238 254.15 272.741 253.85 267.792C253.8 266.843 252.3 266.843 252.35 267.792C252.55 270.941 252.85 274.34 252.3 277.489C252.05 278.988 251.5 280.388 250.5 281.587C249.4 282.937 244.6 286.336 243.3 282.837C242.95 281.937 241.5 282.337 241.85 283.237Z" fill="black"/>
<path d="M266.85 239.201C261.15 241.4 255.4 244.499 253.1 250.497C250.45 257.394 252.35 264.891 252.2 272.039C252.2 272.989 253.7 272.989 253.7 272.039C253.85 265.791 252.35 259.393 253.85 253.196C255.5 246.398 261.15 242.999 267.25 240.65C268.15 240.3 267.75 238.851 266.85 239.201Z" fill="black"/>
<path d="M265.7 240.052C260.45 242.451 255.65 246.65 253.2 251.998C251.9 254.797 252.1 257.896 252.1 260.945C252.1 264.843 252.25 268.792 252.55 272.69C252.6 273.64 254.1 273.64 254.05 272.69C253.85 269.542 253.7 266.443 253.65 263.294C253.6 259.995 253.15 256.096 254.4 252.997C256.55 247.749 261.4 243.701 266.45 241.352C267.35 240.952 266.6 239.652 265.7 240.052Z" fill="black"/>
<path d="M178.25 258.145C179.65 260.595 183.2 259.745 183.55 257.046C183.6 256.546 182.85 256.596 182.8 257.046C182.55 259.095 179.95 259.495 178.9 257.796C178.65 257.346 178 257.746 178.25 258.145Z" fill="white"/>
<path d="M188.85 256.195C190.4 258.845 194.35 257.795 194.4 254.746C194.4 254.246 193.65 254.246 193.65 254.746C193.6 257.095 190.7 257.845 189.5 255.846C189.25 255.396 188.6 255.746 188.85 256.195Z" fill="white"/>
<path d="M185.85 259.495C186.2 260.944 185.9 262.393 185 263.593C184.7 263.993 185.35 264.343 185.65 263.993C186.65 262.643 186.95 260.944 186.6 259.295C186.45 258.845 185.7 259.045 185.85 259.495Z" fill="white"/>
<path d="M186.15 259.445C186 261.345 187.05 263.144 188.8 263.944C189.25 264.144 189.6 263.494 189.2 263.294C187.7 262.594 186.75 261.095 186.9 259.445C186.9 258.945 186.15 258.945 186.15 259.445Z" fill="white"/>
<path d="M173.95 263.893C178.35 263.543 181.15 267.142 184.1 269.791C184.45 270.091 185 269.591 184.65 269.241C181.55 266.442 178.55 262.794 173.95 263.094C173.5 263.144 173.5 263.893 173.95 263.893Z" fill="white"/>
<path d="M182.15 272.689C187.8 269.091 194.5 267.891 201.05 269.341C201.5 269.441 201.7 268.741 201.25 268.641C194.5 267.191 187.6 268.391 181.8 272.09C181.35 272.29 181.75 272.939 182.15 272.689Z" fill="white"/>
<path d="M196.35 279.536C201 279.836 205.4 278.387 208.95 275.338C209.3 275.038 208.8 274.488 208.4 274.788C205 277.687 200.8 279.086 196.35 278.787C195.9 278.787 195.9 279.536 196.35 279.536Z" fill="white"/>
<path d="M195 244.049C193.9 245.898 193.65 248.047 194.3 250.097C194.45 250.546 195.15 250.347 195 249.897C194.4 248.047 194.6 246.098 195.6 244.449C195.9 243.999 195.25 243.599 195 244.049Z" fill="white"/>
<path d="M175.2 248.698C176.4 249.448 177.15 250.597 177.45 251.947C177.55 252.397 178.25 252.197 178.15 251.747C177.8 250.198 176.9 248.898 175.55 248.048C175.15 247.798 174.8 248.448 175.2 248.698Z" fill="white"/>
<path d="M201.65 256.695C202.6 257.845 203.7 258.844 204.95 259.594C205.35 259.844 205.75 259.194 205.35 258.944C204.15 258.195 203.05 257.245 202.2 256.145C201.85 255.795 201.35 256.345 201.65 256.695Z" fill="white"/>
<path d="M232.5 281.236C231.45 278.587 226.4 280.386 224.75 281.436C221.8 283.385 220.5 287.034 221.6 290.382C221.75 290.832 222.45 290.632 222.3 290.182C221.45 287.533 222.15 284.684 224.25 282.735C225.15 281.885 226.35 281.286 227.55 280.986C228.4 280.736 231.3 280.186 231.75 281.386C231.95 281.885 232.65 281.685 232.5 281.236Z" fill="white"/>
<path d="M222.2 290.433C218.3 288.783 214.15 288.633 210.1 289.883C209.65 290.033 209.85 290.732 210.3 290.582C214.25 289.333 218.2 289.533 222 291.132C222.45 291.332 222.65 290.582 222.2 290.433Z" fill="white"/>
<path d="M359.55 498.309C357.5 503.208 357.5 506.856 357.2 516.253C356.85 527.849 355.85 539.395 355.75 550.941C355.65 560.687 355.5 575.432 355.1 594.625C371.1 595.525 388.8 595.725 408 594.775C426.3 593.875 443.2 592.026 458.45 589.727C451.25 565.385 446.5 547.642 443.1 533.897C441.3 526.549 438.65 515.553 431.35 502.708C427.35 495.66 423.2 490.362 420.15 486.813C419.35 486.114 401.7 471.269 381.3 478.266C380.3 478.666 365.45 484.064 359.55 498.309Z" fill="#FFBA15"/>
<path d="M389 527.45C392.35 533.398 395.7 539.345 399 545.293C399.45 546.143 400.75 545.393 400.3 544.544C396.95 538.596 393.6 532.648 390.3 526.7C389.85 525.85 388.55 526.6 389 527.45Z" fill="#C64F4F"/>
<path d="M388.6 527.149C396.3 536.745 400.75 547.691 403.15 559.687C405.4 571.033 406.85 582.529 407.7 594.075C407.75 595.025 409.25 595.025 409.2 594.075C408.3 582.229 406.8 570.383 404.5 558.737C402.1 546.692 397.4 535.696 389.7 526.099C389.1 525.299 388 526.399 388.6 527.149Z" fill="#C64F4F"/>
<path opacity="0.19" d="M400.65 477.117C402.4 480.616 404.9 485.764 407.7 491.962C415.85 510.055 424.3 529.149 428.8 552.64C430.65 562.137 432.4 575.882 431.65 593.026C435.85 592.826 440.3 592.476 444.95 591.976C449.6 591.476 454.05 590.877 458.25 590.177C456.95 585.778 454.85 578.781 452.5 570.134C445.95 545.943 445.05 538.395 439.45 522.451C435.3 510.605 431.45 502.558 425.9 494.861C420.9 487.913 416.2 483.565 410.25 480.516C406.55 478.617 403.1 477.667 400.65 477.117Z" fill="#3F3F3F"/>
<path opacity="0.11" d="M388.7 527.699C390.65 534.997 392.35 543.694 393.15 553.49C394.55 570.434 392.75 584.879 390.55 595.675C396.3 595.325 402 594.975 407.75 594.625C407.15 583.279 405.85 573.733 404.6 566.485C401.45 548.042 398.15 541.194 395.5 536.796C393 532.747 390.5 529.699 388.7 527.699Z" fill="#3F3F3F"/>
<path d="M324.65 413.139C323 414.239 322 416.338 320.05 420.486C318.45 423.885 317.7 426.534 316.5 430.483C313.2 441.679 313.55 439.78 312.4 444.028C310.9 449.676 308.2 459.573 306.7 472.618C305.25 485.263 305.55 495.01 305.6 497.359C306.15 512.204 308.75 523.25 310.5 530.347C313.6 543.093 317.75 553.689 326 574.831C327.8 579.38 329.3 583.128 330.35 585.728C329.6 585.828 328.4 585.977 326.95 586.177C319.4 587.077 318.35 586.877 315.3 587.527C311.4 588.377 307.9 589.226 306.55 592.175C305.95 593.525 305.7 595.424 306.45 596.074C307.4 596.874 309.25 595.074 312.45 594.025C315.15 593.175 317.55 593.225 319.2 593.475C317.9 596.024 317.15 598.323 316.7 599.972C315.6 603.771 314.75 606.87 316.15 609.069C316.85 610.169 318.2 611.168 319.3 610.869C319.9 610.719 320.45 610.169 321.95 606.22C323.4 602.272 323.5 601.022 324.7 599.473C325.75 598.173 326.95 597.473 327.75 597.074C327.35 598.323 326.9 600.172 326.7 602.422C326.6 603.771 326.45 605.021 326.7 606.62C326.9 608.07 327.35 611.168 329.65 612.868C330.05 613.168 331.7 614.417 332.7 613.768C333.55 613.268 333.3 611.868 333.65 607.37C333.95 603.571 334.25 602.522 334.5 601.922C335.15 600.172 336.15 598.923 336.9 598.173C336.65 601.772 336.7 604.771 336.8 606.97C337 610.519 337.35 612.118 338.5 613.118C339.15 613.668 340.25 614.217 341.15 613.818C342.05 613.418 342.35 612.168 342.6 610.619C343.7 604.771 343.05 603.071 344.3 600.122C344.8 598.973 345.35 597.573 346.7 596.574C349.55 594.474 353.6 595.724 354.15 595.874C356.55 596.624 357.45 597.923 358.65 597.373C359.65 596.924 360.2 595.474 360.25 594.275C360.3 591.326 357.05 589.076 354.25 587.227C352.85 586.277 350.75 585.028 347.95 584.028C345.5 579.18 342.4 572.132 339.85 563.186C338.15 557.188 337.35 552.589 336.6 548.241C333.95 532.996 334.9 527.148 331.95 512.004C331.25 508.355 330.55 505.456 330.15 503.807C330.35 501.308 330.7 497.409 331.2 492.661C332.85 477.166 333.95 467.47 337.3 456.074C339.95 447.127 342.65 439.78 342.65 439.78C346.05 430.633 347.15 429.383 346.75 426.434C345.35 417.138 330.8 409.041 324.65 413.139Z" fill="white"/>
<path d="M320.8 417.887C311.9 438.429 306.3 460.371 305.1 482.763C303.85 505.605 307.8 527.947 315.2 549.54C319.4 561.885 324.5 573.881 329.7 585.877C330.1 586.776 331.35 585.977 331 585.127C322 564.334 313.2 543.242 309 520.95C304.85 498.958 305.7 476.216 310.5 454.374C313.2 442.128 317.1 430.182 322.1 418.686C322.45 417.787 321.2 416.987 320.8 417.887Z" fill="#161616"/>
<path d="M339.45 446.427C333.15 465.47 329.85 485.413 329.5 505.456C329.5 506.406 331 506.406 331 505.456C331.35 485.513 334.65 465.77 340.9 446.827C341.2 445.927 339.75 445.527 339.45 446.427Z" fill="#161616"/>
<path d="M324.25 496.359C328.7 502.557 330.5 509.954 331.55 517.352C332.65 524.899 333.15 532.546 334.25 540.094C336.45 555.438 340.05 570.733 347.3 584.478C347.75 585.327 349.05 584.578 348.6 583.728C341.05 569.433 337.5 553.489 335.4 537.594C333.55 523.649 334.1 507.505 325.55 495.609C325 494.86 323.7 495.609 324.25 496.359Z" fill="#161616"/>
<path d="M329.5 585.177C324.85 585.427 320.2 585.877 315.65 586.726C312.4 587.376 308.95 588.426 306.7 591.025C305.4 592.574 303.75 596.273 306.6 597.323C307.85 597.773 308.95 596.923 310 596.323C312.6 594.824 315.3 593.274 318.4 594.124C319.35 594.374 319.75 592.924 318.8 592.674C316.25 591.975 313.95 592.574 311.65 593.724C310.95 594.074 310.3 594.424 309.65 594.824C309.25 595.024 308.9 595.273 308.5 595.523C308.05 594.724 307.55 593.924 307.1 593.124C307.2 591.875 309.7 590.425 310.6 589.925C313.05 588.626 315.9 588.176 318.6 587.776C322.25 587.226 325.9 586.876 329.55 586.676C330.5 586.626 330.5 585.127 329.5 585.177Z" fill="#161616"/>
<path d="M325.4 589.626C321.45 590.276 318.2 592.975 316.7 596.624C315.1 600.422 313.75 606.07 315.6 609.969C317 612.918 320.45 613.967 321.75 610.369C322.55 608.12 322.4 605.67 323.2 603.421C324.2 600.622 325.9 598.223 328.4 596.574C329.2 596.024 328.45 594.724 327.65 595.274C325.3 596.824 323.55 598.923 322.4 601.472C321.8 602.771 321.35 604.121 321.05 605.52C320.8 606.67 320.65 612.468 317.9 610.769C316.35 609.819 316.2 606.77 316.25 605.221C316.35 602.921 316.95 600.272 317.7 598.073C318.95 594.374 321.9 591.725 325.75 591.076C326.75 590.926 326.35 589.476 325.4 589.626Z" fill="#161616"/>
<path d="M330.1 593.324C327 595.324 325.9 599.672 325.6 603.171C325.3 606.92 326.35 610.968 329.15 613.617C330.8 615.167 333.35 615.966 333.8 613.067C334.55 608.219 332.6 601.371 337.9 598.472C338.75 598.023 338 596.723 337.15 597.173C335.25 598.223 334.05 599.922 333.3 601.971C332.25 604.97 332.85 608.019 332.4 611.118C332.2 612.518 331.8 614.017 330.25 612.568C329.7 612.068 329.2 611.418 328.8 610.768C327.85 609.269 327.3 607.569 327.15 605.82C326.8 602.321 327.7 596.723 330.9 594.624C331.65 594.074 330.9 592.774 330.1 593.324Z" fill="#161616"/>
<path d="M337.2 597.324C336.25 600.923 335.35 604.672 335.95 608.42C336.2 610.22 337.25 614.618 339.55 615.068C342.15 615.568 343.2 610.97 343.45 609.27C344 605.572 343.3 601.123 346.2 598.274C346.9 597.574 345.85 596.525 345.15 597.224C341.65 600.673 342.85 605.671 341.8 610.07C341.45 611.669 340.45 614.068 338.8 612.219C337.9 611.269 337.65 609.42 337.45 608.171C336.95 604.672 337.8 601.173 338.7 597.774C338.9 596.825 337.45 596.425 337.2 597.324Z" fill="#161616"/>
<path d="M348 585.327C350.95 586.527 354 587.826 356.3 590.125C357.35 591.175 358.65 592.774 358.95 594.274C359.7 598.422 356.6 595.773 355.45 595.274C352.3 593.874 346.05 594.874 344.25 598.073C343.8 598.922 345.1 599.672 345.55 598.822C346.5 597.073 349.1 596.623 350.9 596.373C352 596.223 353.25 596.123 354.3 596.423C355.5 596.773 356.25 597.823 357.4 598.173C359.05 598.672 360.3 597.523 360.55 595.923C361 593.324 358.75 590.425 357 588.726C354.55 586.377 351.4 585.077 348.3 583.828C347.5 583.528 347.15 584.977 348 585.327Z" fill="#161616"/>
<path opacity="0.13" d="M337.9 430.282C332.15 430.632 328.7 445.326 326.8 453.474C324.65 462.62 322.7 475.216 323.1 493.559C323.45 509.953 325.55 522.449 326.25 526.797C329.4 545.491 334.35 561.185 339.2 573.481C340.8 577.979 342.35 582.478 343.95 586.926C343.05 590.625 342.15 594.423 341.3 598.372C340.2 603.57 339.2 608.668 338.4 613.566C339.35 613.666 340.65 613.616 341.55 612.717C342.7 611.567 342.55 609.718 342.6 608.118C342.65 606.619 342.8 599.372 346.05 596.672C348.05 595.023 351.25 595.023 353.45 595.823C355.7 596.672 356.7 598.322 358.2 597.822C359.35 597.472 360.15 596.073 360.3 594.973C360.8 591.324 353.8 587.576 352.65 586.976C350.4 585.776 349.35 585.626 347.9 584.127C346.1 582.228 345.5 579.978 345.25 578.979C341.1 563.184 339.05 564.184 336.25 546.041C334.15 532.345 335.5 533.145 333.35 522.249C331.85 514.552 330.6 511.403 330.2 504.755C329.75 497.458 330.6 491.76 331.5 486.712C335.25 466.069 342.45 441.078 344.2 435.13C342.6 432.631 340.4 430.132 337.9 430.282Z" fill="#3F3F3F"/>
<path d="M439.95 224.807C438.4 224.757 437.2 227.556 436.9 228.305C436.45 229.405 435.75 231.554 436.25 234.603C436.25 234.603 436.55 236.702 437.55 249.398C437.8 252.247 437.85 256.395 437.1 261.593C435.1 267.091 433.2 271.39 431.9 274.189C427.5 283.586 424.55 287.334 418.4 299.23C416.1 303.678 415.9 304.378 413.2 309.876C406.45 323.521 401.5 332.068 396.45 341.215C392 349.212 385.75 360.958 378.4 376.053C378.05 377.352 376.3 384.3 380.35 390.397C384.65 396.845 393.65 399.744 402.35 396.945C403.7 395.046 405.6 392.097 407.35 388.248C409.05 384.5 409.85 381.601 410.4 379.751C410.95 377.902 413.15 371.654 417.6 359.059C419 355.16 420.7 350.512 424.15 341.415C429.4 327.47 432 320.522 433.75 316.174C437.7 306.278 440.7 299.43 446.6 286.135C449.7 279.137 453.5 270.69 457.9 261.094C460.45 259.644 463.95 257.395 467.7 254.146C473.1 249.498 475.8 245.549 481 238.052C484.35 233.154 486.9 228.855 486.2 224.557C486.1 223.957 485.85 222.208 484.9 221.958C483.7 221.608 482.2 224.007 480.55 226.106C478.85 228.255 476.3 231.054 472.5 233.953C473.8 230.355 475.1 227.556 476 225.706C478.05 221.508 479.75 218.809 480.8 214.16C481.95 209.212 480.9 208.312 480.6 208.063C479.25 207.063 476.95 208.962 475.6 207.863C474.4 206.813 475.45 204.514 474.5 203.964C473.55 203.414 471.45 205.064 469.95 206.813C467.35 209.812 466.75 212.711 465.8 215.51C464.9 218.259 463.25 222.008 460.15 226.156C459.4 226.256 458.4 226.306 457.95 225.706C457.45 225.007 458.15 223.857 458.8 222.008C458.95 221.558 458.85 221.808 459.9 217.209C460.3 215.46 461.05 212.211 461.65 209.612C462.5 205.863 462.9 204.314 462.1 202.664C461.95 202.315 461.3 200.965 460.35 200.915C459.25 200.865 458.4 202.615 457.75 203.964C455.1 209.412 453.75 212.161 453.4 213.111C451.65 217.859 449.3 225.106 448.95 227.606C448.9 227.905 448.8 228.955 448.3 230.305C448.05 230.954 447.9 231.204 447.75 231.604C446.5 234.403 447.55 236.253 446.25 237.252C446.1 237.352 445.35 237.902 444.75 237.702C444.1 237.502 443.8 236.652 443.45 233.803C442.95 229.905 443.25 228.755 442.35 227.056C441.75 226.306 441 224.857 439.95 224.807Z" fill="white"/>
<path d="M437.55 247.949C437.9 244.3 437.35 240.752 437.15 237.103C437.05 235.354 437.05 233.554 437.3 231.805C437.45 230.805 437.65 229.806 437.95 228.856C438.45 227.406 438.5 226.207 440.1 226.157C441.6 226.107 441.5 227.007 441.75 228.256C442 229.356 442.05 230.505 442.1 231.605C442.2 233.154 442.25 234.754 442.6 236.253C442.95 237.803 443.9 239.102 445.65 238.552C446.55 238.253 446.2 236.803 445.25 237.103C443.5 237.603 443.65 231.705 443.55 230.705C443.4 229.106 443.25 227.456 442.65 225.957C441.8 223.858 439.85 222.808 438.2 224.757C436.05 227.256 435.6 231.755 435.6 234.854C435.6 239.252 436.45 243.551 436.05 247.949C436 248.899 437.5 248.899 437.55 247.949Z" fill="#161616"/>
<path d="M446.25 237.951C448.75 233.103 449.5 227.605 450.95 222.407C452.5 216.809 454.45 211.311 457.35 206.313C458 205.213 458.65 203.664 459.6 202.814C461.45 201.115 461.45 204.363 461.3 205.763C461 208.862 460.2 212.011 459.5 215.06C458.85 217.859 457.95 220.558 457.3 223.357C456.95 224.906 456.95 226.256 458.05 227.455C458.7 228.155 459.75 227.105 459.1 226.406C457.85 225.056 459.15 222.357 459.55 220.908C460 219.258 460.45 217.609 460.8 215.959C461.5 212.91 462.2 209.811 462.65 206.663C462.9 205.013 463.25 202.114 461.8 200.865C460.55 199.815 459.3 200.815 458.45 201.814C454.8 206.363 452.55 212.361 450.75 217.859C448.7 224.206 448.05 231.304 444.95 237.252C444.5 238.051 445.8 238.801 446.25 237.951Z" fill="#161616"/>
<path d="M458.4 227.605C459.9 227.755 460.45 226.655 461.15 225.455C462.25 223.556 463.25 221.557 464.2 219.608C466.05 215.809 467.35 211.66 469.6 208.112C470.1 207.312 470.7 206.312 471.5 205.713C472.15 204.963 473 204.713 474.1 205.063C474.25 205.762 474.35 206.462 474.35 207.162C474.4 209.611 473.6 212.06 472.75 214.359C471.05 218.908 469.15 223.406 467.3 227.955C466.95 228.854 468.4 229.254 468.75 228.354C469.8 225.755 480.6 202.963 473.55 202.814C472.15 202.764 470.55 204.513 469.75 205.463C468.35 207.112 467.35 209.011 466.45 210.961C465.4 213.31 464.45 215.659 463.35 217.958C462.7 219.358 461.95 220.807 461.25 222.157C460.8 223.056 459.7 226.155 458.45 226.055C457.45 226.005 457.45 227.505 458.4 227.605Z" fill="#161616"/>
<path d="M476.1 209.213C476.65 206.314 479.8 208.313 480.2 210.162C480.55 211.712 479.95 213.261 479.45 214.711C478.7 216.91 477.85 219.059 476.95 221.158C475.2 225.257 473.15 229.155 470.85 233.004C470.35 233.854 471.65 234.604 472.15 233.754C474.3 230.205 476.2 226.506 477.9 222.758C479.35 219.509 481.1 215.91 481.65 212.361C482 210.112 481.35 207.213 478.85 206.414C477 205.814 475 206.963 474.65 208.863C474.5 209.762 475.95 210.162 476.1 209.213Z" fill="#161616"/>
<path d="M473.2 234.352C475.1 232.203 476.95 230.054 478.85 227.905C479.85 226.755 480.75 225.506 481.85 224.506C482.2 224.206 482.55 223.956 482.85 223.656C483.7 223.956 484.55 224.256 485.45 224.556C485.7 225.006 485.1 226.305 484.95 226.705C483.4 231.453 481.15 235.952 478.5 240.15C473.15 248.597 465.8 255.695 457.2 260.843C456.35 261.343 457.15 262.642 457.95 262.143C468.65 255.745 477.45 246.348 483 235.202C484.35 232.503 485.65 229.654 486.5 226.755C487 225.056 487.3 222.757 485.35 221.857C483.45 220.957 481.45 222.707 480.25 223.956C477.4 226.905 474.8 230.204 472.1 233.303C471.5 234.003 472.55 235.052 473.2 234.352Z" fill="#161616"/>
<path d="M436.25 246.398C436.6 250.996 436.95 255.694 436.2 260.293C435.45 264.841 433.55 269.04 431.45 273.138C427.2 281.435 422.75 289.632 418.4 297.879C409.7 314.374 401 330.818 392.3 347.312C387.3 356.758 382.3 366.255 377.3 375.702C376.85 376.551 378.15 377.301 378.6 376.451C396.55 342.414 414.85 308.526 432.5 274.288C434.6 270.239 436.55 266.091 437.4 261.642C438.4 256.594 438.05 251.496 437.65 246.398C437.7 245.448 436.2 245.448 436.25 246.398Z" fill="#161616"/>
<path d="M457.1 260.493C441.1 294.281 427.15 328.869 414.85 364.156C411.25 374.402 407.65 384.649 403.3 394.595C402.9 395.495 404.2 396.245 404.6 395.345C412.05 378.401 417.5 360.657 423.9 343.363C430.45 325.57 437.55 307.926 445.1 290.532C449.4 280.686 453.8 270.939 458.4 261.243C458.8 260.393 457.5 259.643 457.1 260.493Z" fill="#161616"/>
<path opacity="0.1" d="M479.7 208.611C477.65 208.311 474.9 216.708 473.3 220.907C468.45 233.802 464.35 235.302 453.95 252.796C450.1 259.243 444.8 268.94 439.45 281.585C423.45 315.273 407.5 349.011 391.5 382.699C395.4 387.447 399.25 392.246 403.15 396.994C405.1 391.446 407.95 383.299 411.5 373.452C417.95 355.709 426.3 332.867 438.1 305.077C442.8 294.081 449.3 279.236 457.65 261.792C459.95 260.343 463.15 258.094 466.65 254.995C471.35 250.896 477.55 245.348 481.8 236.301C483.15 233.502 484.85 229.204 485.75 223.556C485.1 223.256 484.15 222.906 483.1 223.106C481.3 223.456 480.35 225.205 479.6 226.405C476.7 230.853 472.45 233.802 471.9 233.452C471.6 233.203 472.45 231.753 474.75 227.055C479.45 217.408 477.5 219.957 479.35 216.708C480.4 214.859 481.45 213.26 481.1 211.21C481.1 210.311 480.55 208.761 479.7 208.611Z" fill="#3F3F3F"/>
<path opacity="0.13" d="M476.65 242.699C474.15 244.299 470.6 246.648 466.55 249.747C461.9 253.245 456.9 257.044 452.7 261.842C447 268.34 444.5 274.788 443 278.536C429.25 313.624 412.9 351.71 408.25 362.307C405.7 368.105 401.7 376.851 396.4 387.348C398.8 390.497 401.25 393.645 403.65 396.794C410.55 375.752 418.5 353.71 427.6 330.868C437.4 306.327 447.55 283.385 457.75 262.042C460.5 260.193 463.6 257.844 466.75 254.795C471.2 250.546 474.4 246.248 476.65 242.699Z" fill="#3F3F3F"/>
<path d="M343.7 387.396C341.85 388.646 337.7 391.545 333.45 396.243C329.05 401.091 326.5 405.64 324.4 409.488C322.75 412.437 321.55 415.036 320.7 416.936C322 419.435 324.1 423.283 327 427.882C332.15 436.029 336.15 440.427 343.05 449.274C345.95 452.973 350.15 458.521 355.15 465.518C355.95 469.267 356.65 473.216 357.25 477.364C358.45 485.861 358.9 493.758 358.9 500.856C360.75 502.855 363.95 505.754 368.65 507.803C376.45 511.252 383.55 510.252 387.25 509.653C395.45 508.403 401.05 504.754 404.9 502.205C411.9 497.607 416.65 492.109 419.8 487.56C419.15 479.763 418.3 471.716 417.25 463.369C416.35 456.272 415.35 449.374 414.25 442.676C414.15 437.428 413.65 430.281 411.95 421.984C410.55 415.036 408.85 406.939 403.8 397.343C397.5 385.397 389.65 378.149 386.6 375.5C383.9 373.151 381.45 371.402 379.65 370.152C372.35 374.801 366.05 377.7 361.75 379.449C353.75 382.748 350 383.248 343.7 387.396Z" fill="white"/>
<path d="M321.5 417.136C323.05 411.238 327.35 405.74 331.05 400.942C334.95 395.944 339.35 391.396 344.6 387.747C345.4 387.197 344.65 385.897 343.85 386.447C338.45 390.196 333.9 394.844 329.9 399.992C326.05 404.941 321.7 410.539 320.1 416.686C319.85 417.686 321.3 418.036 321.5 417.136Z" fill="#161616"/>
<path d="M320.4 417.637C330.7 435.631 342.9 452.525 356.75 467.969C357.4 468.669 358.45 467.619 357.8 466.92C344.05 451.575 331.95 434.781 321.7 416.887C321.2 416.038 319.9 416.787 320.4 417.637Z" fill="#161616"/>
<path d="M362.699 380.15C368.299 376.202 374.449 373.253 380.999 371.353C381.949 371.103 381.549 369.654 380.599 369.904C373.899 371.853 367.649 374.852 361.949 378.851C361.149 379.4 361.899 380.7 362.699 380.15Z" fill="#161616"/>
<path d="M379.75 371.753C403.65 388.397 413.9 417.586 412.75 445.826C412.7 446.776 414.2 446.776 414.25 445.826C415.45 416.987 404.85 387.397 380.5 370.453C379.75 369.903 379 371.203 379.75 371.753Z" fill="#161616"/>
<path d="M353.5 465.02C356.1 470.368 356.4 477.015 356.95 482.813C357.55 488.711 357.75 494.659 357.75 500.607C357.75 501.557 359.25 501.557 359.25 500.607C359.3 494.009 359 487.412 358.25 480.864C357.65 475.316 357.25 469.318 354.8 464.22C354.35 463.37 353.1 464.12 353.5 465.02Z" fill="#161616"/>
<path d="M358.7 500.908C366.2 510.104 379 512.704 390.15 509.855C396.35 508.255 402.1 505.206 407.25 501.408C412.4 497.609 417.3 493.21 420.2 487.413C420.65 486.563 419.35 485.813 418.9 486.663C416.1 492.211 411.4 496.459 406.45 500.108C401.65 503.657 396.3 506.556 390.5 508.205C379.6 511.254 367.05 508.905 359.7 499.858C359.15 499.108 358.1 500.158 358.7 500.908Z" fill="#161616"/>
<path d="M413.299 443.578C415.749 458.222 418.149 472.867 418.999 487.662C419.049 488.612 420.549 488.612 420.499 487.662C419.599 472.717 417.199 457.922 414.749 443.178C414.599 442.228 413.149 442.628 413.299 443.578Z" fill="#161616"/>
<path opacity="0.13" d="M364.6 378.15C370.15 384.698 377.75 394.894 384.1 408.689C393.4 428.882 395.25 446.326 396.65 461.171C397.75 472.467 398.35 488.211 396.15 507.004C400.4 505.155 406.4 501.956 412.2 496.408C415.4 493.309 417.8 490.21 419.6 487.511C417.95 473.566 416.3 459.571 414.65 445.626C414.95 434.13 413.15 424.834 411.45 418.536C406.2 399.043 396.1 386.497 392.7 382.549C388.05 377.101 383.5 373.102 380.15 370.453C374.95 373.052 369.8 375.601 364.6 378.15Z" fill="#3F3F3F"/>
<path opacity="0.14" d="M401.85 395.645C400.95 395.895 403.05 404.042 405.05 416.088C405.05 416.088 408.1 434.381 408.75 452.075C409.2 463.771 408.6 480.865 403.35 502.107C405.75 500.908 408.7 499.158 411.75 496.709C415.45 493.71 418.1 490.561 419.9 488.062C419.25 467.919 417.55 457.473 415.95 451.575C415.65 450.426 414.85 447.726 414.2 443.928C413 436.83 413.6 433.781 412.95 427.884C412.45 423.185 411.5 420.086 409.75 414.338C407.1 405.691 402.85 395.345 401.85 395.645Z" fill="#3F3F3F"/>
<path d="M342.999 305.177C339.699 307.027 335.499 309.826 331.449 314.074C323.049 323.021 320.349 333.018 319.399 337.966C318.649 337.866 316.599 337.716 314.949 339.015C312.499 340.915 312.449 344.663 313.399 346.863C313.749 347.662 314.249 348.312 315.299 349.612C316.549 351.161 317.349 352.111 318.649 352.661C319.199 352.91 320.449 353.26 322.249 352.86C322.799 354.51 323.699 356.809 325.049 359.458C326.799 362.857 329.449 367.905 334.749 372.303C336.299 373.603 338.699 375.302 341.949 376.852C343.149 378.401 345.349 381.65 345.599 386.049C346.099 393.796 340.449 400.244 335.099 403.093C325.799 408.041 315.699 403.093 311.999 401.243C309.999 400.244 299.949 395.045 295.749 383.649C290.649 369.904 297.299 356.159 301.249 347.962C305.249 339.715 307.099 340.265 310.149 332.218C314.199 321.572 312.049 317.823 316.699 309.676C318.499 306.477 322.149 300.079 329.799 297.08C336.349 294.531 342.399 295.831 344.999 296.581C347.149 295.281 350.949 293.432 355.749 293.432C367.149 293.432 374.449 304.228 376.199 306.827C381.399 314.474 378.649 316.823 383.299 327.569C389.149 341.115 394.849 340.315 400.099 353.01C402.649 359.208 406.899 369.455 402.199 379.251C397.349 389.347 386.299 392.296 384.899 392.646C382.349 393.296 375.499 394.995 368.649 391.347C367.999 390.997 359.399 386.299 358.699 378.251C358.449 375.302 359.299 372.553 359.499 371.954C360.549 368.705 362.349 366.606 362.899 365.906C365.049 363.257 367.649 358.358 369.449 348.612C370.299 348.562 371.699 348.362 373.099 347.562C376.049 345.863 377.449 342.414 377.299 339.415C377.249 338.715 377.049 334.717 374.149 333.367C372.949 332.818 371.699 332.968 370.999 333.117C361.699 323.721 352.349 314.474 342.999 305.177Z" fill="#2F4EBB"/>
<path d="M343 305.127C337.45 308.376 333.6 311.975 331.15 314.624C323 323.47 320.4 332.717 319.85 334.866C319.5 336.216 319.25 337.315 319.15 338.115C318.6 337.915 317.35 337.565 316.1 338.115C314.2 338.965 313.8 341.264 313.6 342.414C313.1 345.063 314.1 347.162 314.5 347.962C315.05 349.111 315.95 350.961 318.1 351.91C319.85 352.71 321.5 352.41 322.2 352.26C322.9 354.06 323.9 356.559 325.45 359.408C327.8 363.906 330 368.055 334.25 371.753C335.9 373.203 338.6 375.202 342.5 376.751C343.3 378.001 344.4 379.95 345 382.499C345.5 384.499 345.6 386.198 345.55 387.498C346.85 388.147 349.3 389.147 352.35 389.097C358.2 388.997 362.05 385.348 362.95 384.449C362 381.6 361.15 378.101 360.8 374.052C360.65 372.203 360.6 370.454 360.6 368.854C362.15 367.205 364.05 364.856 365.6 361.707C368.35 356.259 368.8 351.211 368.85 348.262C369.55 348.362 370.95 348.511 372.45 347.912C374.55 347.062 375.5 345.213 376.05 344.163C376.2 343.913 378.3 339.615 376.4 335.366C375.95 334.417 375.2 332.667 373.7 332.517C372.6 332.417 371.7 333.267 371.35 333.617C369.3 331.168 365.45 326.619 360.05 320.372C355.4 314.923 352.45 311.525 347.5 308.026C345.7 306.726 344.1 305.777 343 305.127Z" fill="white"/>
<path d="M336.1 358.159C335.6 359.308 337.95 361.358 339.05 362.207C341.35 363.907 343.8 364.157 344.7 364.207C345.75 364.307 349.2 364.556 352.35 362.307C353.1 361.757 355.2 360.308 356 357.609C356.55 355.66 356.4 352.961 355.35 352.511C354.55 352.211 353.8 353.211 352.1 354.41C349.1 356.459 346 356.959 343.35 357.359C338.85 358.059 336.6 357.159 336.1 358.159Z" fill="black"/>
<path d="M320.25 346.612C322.05 354.11 324.95 361.457 329.75 367.555C334 373.003 340.3 378.251 347.65 377.551C354.45 376.902 360 371.603 363.6 366.205C367.85 359.908 369.9 352.36 369.7 344.763C369.65 343.813 368.15 343.813 368.2 344.763C368.4 351.711 366.6 358.508 362.95 364.406C359.5 369.954 353.8 375.802 346.85 376.102C339.5 376.402 333.45 370.404 329.55 364.806C325.65 359.208 323.25 352.76 321.65 346.163C321.45 345.263 320 345.663 320.25 346.612Z" fill="#161616"/>
<path d="M341.5 376.852C343.6 380.051 344.65 383.55 344.65 387.398C344.65 388.348 346.15 388.348 346.15 387.398C346.15 383.35 345 379.501 342.8 376.102C342.3 375.253 341 376.002 341.5 376.852Z" fill="#161616"/>
<path d="M345.35 387.998C351.45 391.496 359.35 389.797 363.5 384.199C364.1 383.449 362.8 382.699 362.2 383.449C358.5 388.397 351.4 389.797 346.1 386.698C345.25 386.248 344.5 387.548 345.35 387.998Z" fill="#161616"/>
<path d="M359.75 370.154C359.8 374.702 360.5 379.201 361.95 383.549C362.25 384.449 363.7 384.049 363.4 383.149C362.05 378.901 361.3 374.602 361.25 370.154C361.25 369.154 359.75 369.154 359.75 370.154Z" fill="#161616"/>
<path d="M321.75 351.361C321.1 352.061 319.5 351.811 318.75 351.411C318.15 351.111 317.6 350.661 317.15 350.212C316.15 349.262 315.35 348.112 314.85 346.863C313.85 344.514 313.4 337.766 317.85 338.966C318.8 339.215 319.2 337.766 318.25 337.516C312.75 336.067 311.9 343.364 313.3 347.013C314.4 349.962 319.45 356.059 322.85 352.411C323.45 351.711 322.4 350.661 321.75 351.361Z" fill="#161616"/>
<path d="M372 333.868C372.6 331.869 375.2 335.718 375.5 336.417C376.1 338.017 376.3 339.766 376.05 341.466C375.65 344.864 372.95 348.113 369.2 347.163C368.25 346.914 367.85 348.363 368.8 348.613C374.85 350.162 378.1 343.865 377.55 338.716C377.3 336.467 376.4 333.568 374.25 332.369C372.85 331.619 371.05 331.819 370.55 333.418C370.25 334.418 371.7 334.768 372 333.868Z" fill="#161616"/>
<path d="M327.1 323.272C328.75 320.123 331.65 318.073 335.15 317.574C336.1 317.424 335.7 315.974 334.75 316.124C330.9 316.674 327.6 319.073 325.8 322.522C325.35 323.372 326.65 324.121 327.1 323.272Z" fill="#161616"/>
<path d="M350.2 315.573C354.4 314.574 358.6 316.673 360.5 320.472C360.95 321.321 362.2 320.571 361.8 319.722C359.6 315.273 354.6 312.974 349.8 314.124C348.85 314.374 349.25 315.823 350.2 315.573Z" fill="#161616"/>
<path d="M339.3 321.721C340.25 327.019 340.5 332.467 339.95 337.866C339.75 339.515 338.95 341.864 339.7 343.514C340.5 345.313 342.65 346.862 344 348.262C344.65 348.962 345.75 347.912 345.05 347.212C344.15 346.263 343.25 345.363 342.35 344.413C340.95 342.964 340.8 342.514 341.1 340.415C341.35 338.515 341.6 336.566 341.7 334.617C341.9 330.168 341.55 325.72 340.75 321.371C340.6 320.372 339.15 320.772 339.3 321.721Z" fill="#161616"/>
<path d="M333 334.567C332.25 333.367 331.9 332.068 332 330.668C332 330.369 332.2 329.069 332.45 329.019C332.6 329.019 332.85 330.768 332.9 330.968C333 331.618 333.05 332.318 333.05 332.968C333.05 333.168 333 334.817 333 333.817C332.95 332.368 333.05 330.918 333.1 329.469C332.6 329.519 332.1 329.619 331.65 329.669C331.9 331.218 332.05 332.768 332.05 334.367C332.55 334.367 333.05 334.367 333.55 334.367C333.55 334.167 333.55 333.967 333.55 333.767C333.55 332.818 332.05 332.818 332.05 333.767C332.05 333.967 332.05 334.167 332.05 334.367C332.05 335.317 333.55 335.317 333.55 334.367C333.55 332.668 333.4 330.968 333.1 329.269C332.95 328.419 331.65 328.669 331.65 329.469C331.6 331.068 331.4 332.818 331.6 334.417C331.7 335.167 332.05 335.867 332.9 336.017C335.4 336.516 334.65 331.618 334.45 330.419C334.3 329.469 334.15 328.019 333.25 327.47C332.5 327.02 331.7 327.47 331.25 328.169C330 330.269 330.7 333.367 331.85 335.267C332.2 336.117 333.5 335.367 333 334.567Z" fill="#161616"/>
<path d="M356.1 331.917C355.35 330.717 355 329.418 355.1 328.018C355.1 327.718 355.3 326.419 355.55 326.369C355.7 326.369 355.95 328.118 356 328.318C356.1 328.968 356.15 329.667 356.15 330.317C356.15 330.517 356.1 332.167 356.1 331.167C356.05 329.717 356.15 328.268 356.2 326.818C355.7 326.868 355.2 326.968 354.75 327.018C355 328.568 355.15 330.117 355.15 331.717C355.65 331.717 356.15 331.717 356.65 331.717C356.65 331.517 356.65 331.317 356.65 331.117C356.65 330.167 355.15 330.167 355.15 331.117C355.15 331.317 355.15 331.517 355.15 331.717C355.15 332.666 356.65 332.666 356.65 331.717C356.65 330.017 356.5 328.318 356.2 326.619C356.05 325.769 354.75 326.019 354.75 326.818C354.7 328.418 354.5 330.167 354.7 331.767C354.8 332.516 355.15 333.216 356 333.366C358.5 333.866 357.75 328.968 357.55 327.768C357.4 326.819 357.25 325.369 356.35 324.819C355.6 324.369 354.8 324.819 354.35 325.519C353.1 327.618 353.8 330.717 354.95 332.616C355.3 333.516 356.6 332.766 356.1 331.917Z" fill="#161616"/>
<path d="M325.6 339.165C326.55 339.165 326.55 337.666 325.6 337.666C324.65 337.666 324.65 339.165 325.6 339.165Z" fill="#161616"/>
<path d="M331.5 340.265C331.55 340.265 331.6 340.265 331.7 340.265C332.1 340.265 332.45 339.915 332.45 339.515C332.45 339.116 332.1 338.766 331.7 338.766C331.65 338.766 331.6 338.766 331.5 338.766C331.1 338.766 330.75 339.116 330.75 339.515C330.75 339.915 331.05 340.265 331.5 340.265Z" fill="#161616"/>
<path d="M328 344.863C328.95 344.863 328.95 343.363 328 343.363C327.05 343.363 327 344.863 328 344.863Z" fill="#161616"/>
<path d="M356.4 338.415C356.45 338.415 356.5 338.415 356.6 338.415C357 338.415 357.35 338.066 357.35 337.666C357.35 337.266 357 336.916 356.6 336.916C356.55 336.916 356.5 336.916 356.4 336.916C356 336.916 355.65 337.266 355.65 337.666C355.65 338.066 355.95 338.415 356.4 338.415Z" fill="#161616"/>
<path d="M361.9 334.716C362.85 334.716 362.85 333.217 361.9 333.217C360.95 333.217 360.95 334.716 361.9 334.716Z" fill="#161616"/>
<path d="M361.15 338.765C361.2 338.765 361.25 338.765 361.35 338.765C361.75 338.765 362.1 338.415 362.1 338.015C362.1 337.615 361.75 337.266 361.35 337.266C361.3 337.266 361.25 337.266 361.15 337.266C360.75 337.266 360.4 337.615 360.4 338.015C360.45 338.415 360.75 338.765 361.15 338.765Z" fill="#161616"/>
<path d="M337.35 359.308C336.55 358.159 335.25 356.509 335.8 355.01C336.45 353.31 338.5 353.56 339.85 353.76C341.5 354.01 342.85 354.31 344.45 353.81C345.75 353.41 346.9 352.561 348.1 351.911C350.95 350.311 354.3 350.161 355.2 353.91C357.75 364.156 339.65 367.055 336.85 358.059C336.55 357.159 335.1 357.509 335.4 358.458C338.85 369.505 360.25 365.406 356.5 353.16C355.85 351.111 354.3 349.362 352.1 349.112C348.5 348.762 346.15 352.361 342.7 352.611C340.15 352.81 337.05 350.861 335 353.26C333.15 355.41 334.65 358.159 336 360.058C336.6 360.858 337.9 360.108 337.35 359.308Z" fill="#161616"/>
<path d="M334.45 356.46C335.55 359.508 341.05 358.559 343.45 358.209C348.05 357.509 352.25 355.51 355.8 352.561C356.55 351.961 355.5 350.862 354.75 351.511C352.15 353.711 349.15 355.31 345.85 356.21C344.4 356.61 336.75 358.309 335.95 356.11C335.55 355.16 334.1 355.56 334.45 356.46Z" fill="#161616"/>
<path d="M343.35 378.401C349.2 379.9 357 376.202 360.3 371.353C360.85 370.554 359.55 369.804 359 370.604C356.1 374.852 348.85 378.251 343.75 376.951C342.8 376.701 342.4 378.151 343.35 378.401Z" fill="#161616"/>
<path d="M343.9 378.851C349.1 382.1 357.65 377.501 360.15 372.553C360.6 371.703 359.3 370.954 358.85 371.803C356.75 376.002 349.1 380.35 344.65 377.601C343.8 377.052 343.05 378.351 343.9 378.851Z" fill="#161616"/>
<path opacity="0.2" d="M364.65 325.869C365 327.668 365.45 330.517 365.75 333.966C366.45 343.163 367.65 358.557 358.35 368.804C356.35 371.003 352.1 374.902 344.25 377.101C346.75 377.001 349.8 376.701 353.1 375.851C354.75 375.451 356.25 374.952 357.6 374.402C357.8 378.85 357.95 383.299 358.15 387.747C359.85 386.647 361.5 385.598 363.2 384.498C360.9 379.4 360.9 375.451 361.2 372.952C361.65 369.454 362.95 366.605 364.25 363.756C365.4 361.257 366.6 359.257 367.55 357.858C367.65 358.907 367.9 360.007 368.6 361.057C371.65 365.605 381.2 366.055 387.2 362.156C392.75 358.557 395.45 351.26 394.05 343.763C395 344.562 396 345.512 396.95 346.662C397.7 347.561 399.65 350.16 402.35 359.307C403.2 362.156 403.6 363.606 403.85 365.055C404.15 367.054 404.7 370.853 403.65 375.152C401.85 382.549 396.5 386.797 394.9 387.997C393.75 388.847 390.25 391.396 385 392.595C382.5 393.145 375 394.945 367.95 390.846C365.3 389.297 363.85 388.147 363.05 386.747C362.2 385.198 362.1 383.749 362 382.649C361.55 375.801 361.35 372.353 361.8 370.003C363.15 363.206 366.2 362.506 367.9 354.759C368.5 351.96 368.65 349.611 368.7 348.111C369.35 348.211 370.35 348.311 371.55 348.011C374.05 347.361 375.3 345.312 375.75 344.562C377.55 341.713 378.35 336.615 375.55 334.266C375.15 333.916 373.75 332.867 371.05 333.067C369 330.667 366.85 328.268 364.65 325.869Z" fill="#3F3F3F"/>
<path opacity="0.13" d="M340.95 342.064C343.5 342.814 346.1 343.614 348.65 344.364C348 344.963 347.35 345.513 346.65 346.113C346 346.663 345.4 347.113 344.75 347.612C343.95 347.013 342.8 345.963 341.9 344.364C341.4 343.514 341.1 342.714 340.95 342.064Z" fill="#3F3F3F"/>
<path opacity="0.16" d="M300.85 348.312C295.4 367.555 299.45 383.1 307.6 386.499C314 389.148 325.55 385.399 327.7 378.851C328 378.002 328.3 376.502 327.15 371.904C326.15 367.855 324.1 361.757 319.5 354.81C318.7 354.31 317.65 353.51 316.65 352.311C314.9 350.162 314.4 347.862 314.25 346.763C315.7 348.262 317.8 350.162 319.15 349.562C320.45 348.962 321.25 347.163 320.8 345.363C321.25 347.662 321.95 350.811 323.25 354.46C324.95 359.308 326.65 364.007 330.6 368.455C332.4 370.504 335.95 373.853 341.95 376.252C342.95 377.502 344.8 380.201 345.4 384.149C345.5 384.749 345.85 387.498 344.95 390.947C344.75 391.747 343.55 396.095 339.6 399.844C335 404.242 329.5 405.042 327.7 405.292C314.15 407.091 303.65 395.245 301.8 393.196C299.95 391.097 296.9 387.598 295.15 382.2C292.35 373.603 294.5 365.856 296.05 360.208C297.5 354.91 299.45 350.911 300.85 348.312Z" fill="#3F3F3F"/>
</svg>
