<svg width="252" height="61" viewBox="0 0 252 61" fill="none" xmlns="http://www.w3.org/2000/svg">
<path d="M34.736 49L34.64 33.688L27.344 45.976H22.352L15.056 34.216V49H4.736V15.4H14.048L24.992 33.304L35.648 15.4H44.96L45.056 49H34.736ZM78.1329 35.848C78.1329 36.008 78.0849 36.856 77.9889 38.392H59.7489C60.1329 39.384 60.7729 40.152 61.6689 40.696C62.5649 41.208 63.6849 41.464 65.0289 41.464C66.1809 41.464 67.1409 41.32 67.9089 41.032C68.7089 40.744 69.5729 40.248 70.5009 39.544L76.1649 45.256C73.6049 48.072 69.7809 49.48 64.6929 49.48C61.5249 49.48 58.7409 48.904 56.3409 47.752C53.9409 46.568 52.0849 44.936 50.7729 42.856C49.4609 40.776 48.8049 38.44 48.8049 35.848C48.8049 33.224 49.4449 30.888 50.7249 28.84C52.0369 26.76 53.8129 25.144 56.0529 23.992C58.3249 22.84 60.8689 22.264 63.6849 22.264C66.3409 22.264 68.7569 22.792 70.9329 23.848C73.1409 24.904 74.8849 26.456 76.1649 28.504C77.4769 30.552 78.1329 33 78.1329 35.848ZM63.7809 29.656C62.6609 29.656 61.7329 29.96 60.9969 30.568C60.2609 31.176 59.7809 32.04 59.5569 33.16H68.0049C67.7809 32.072 67.3009 31.224 66.5649 30.616C65.8289 29.976 64.9009 29.656 63.7809 29.656ZM99.7963 22.264C103.028 22.264 105.62 23.24 107.572 25.192C109.556 27.144 110.548 30.088 110.548 34.024V49H99.7003V35.896C99.7003 32.888 98.6283 31.384 96.4843 31.384C95.2683 31.384 94.2763 31.816 93.5083 32.68C92.7723 33.512 92.4043 34.84 92.4043 36.664V49H81.5563V22.744H91.8763V25.336C92.9003 24.312 94.0843 23.544 95.4283 23.032C96.7723 22.52 98.2283 22.264 99.7963 22.264ZM134.603 48.088C132.971 49.016 130.747 49.48 127.931 49.48C124.251 49.48 121.419 48.6 119.435 46.84C117.451 45.048 116.459 42.376 116.459 38.824V32.104H112.859V24.184H116.459V16.84H127.307V24.184H132.683V32.104H127.307V38.728C127.307 39.528 127.515 40.152 127.931 40.6C128.347 41.048 128.891 41.272 129.563 41.272C130.491 41.272 131.307 41.032 132.011 40.552L134.603 48.088ZM150.506 49.48C147.594 49.48 144.97 48.904 142.634 47.752C140.33 46.568 138.522 44.952 137.21 42.904C135.898 40.824 135.242 38.472 135.242 35.848C135.242 33.224 135.898 30.888 137.21 28.84C138.522 26.76 140.33 25.144 142.634 23.992C144.97 22.84 147.594 22.264 150.506 22.264C153.45 22.264 156.074 22.84 158.378 23.992C160.714 25.144 162.522 26.76 163.802 28.84C165.114 30.888 165.77 33.224 165.77 35.848C165.77 38.472 165.114 40.824 163.802 42.904C162.522 44.952 160.714 46.568 158.378 47.752C156.074 48.904 153.45 49.48 150.506 49.48ZM150.506 41.032C151.754 41.032 152.778 40.584 153.578 39.688C154.378 38.76 154.778 37.48 154.778 35.848C154.778 34.216 154.378 32.952 153.578 32.056C152.778 31.16 151.754 30.712 150.506 30.712C149.258 30.712 148.234 31.16 147.434 32.056C146.634 32.952 146.234 34.216 146.234 35.848C146.234 37.48 146.634 38.76 147.434 39.688C148.234 40.584 149.258 41.032 150.506 41.032ZM179.486 25.576C181.406 23.368 184.238 22.264 187.982 22.264V31.864C187.118 31.736 186.318 31.672 185.582 31.672C181.87 31.672 180.014 33.56 180.014 37.336V49H169.166V22.744H179.486V25.576ZM218.758 35.848C218.758 36.008 218.71 36.856 218.614 38.392H200.374C200.758 39.384 201.398 40.152 202.294 40.696C203.19 41.208 204.31 41.464 205.654 41.464C206.806 41.464 207.766 41.32 208.534 41.032C209.334 40.744 210.198 40.248 211.126 39.544L216.79 45.256C214.23 48.072 210.406 49.48 205.318 49.48C202.15 49.48 199.366 48.904 196.966 47.752C194.566 46.568 192.71 44.936 191.398 42.856C190.086 40.776 189.43 38.44 189.43 35.848C189.43 33.224 190.07 30.888 191.35 28.84C192.662 26.76 194.438 25.144 196.678 23.992C198.95 22.84 201.494 22.264 204.31 22.264C206.966 22.264 209.382 22.792 211.558 23.848C213.766 24.904 215.51 26.456 216.79 28.504C218.102 30.552 218.758 33 218.758 35.848ZM204.406 29.656C203.286 29.656 202.358 29.96 201.622 30.568C200.886 31.176 200.406 32.04 200.182 33.16H208.63C208.406 32.072 207.926 31.224 207.19 30.616C206.454 29.976 205.526 29.656 204.406 29.656ZM250.117 35.848C250.117 36.008 250.069 36.856 249.973 38.392H231.733C232.117 39.384 232.757 40.152 233.653 40.696C234.549 41.208 235.669 41.464 237.013 41.464C238.165 41.464 239.125 41.32 239.893 41.032C240.693 40.744 241.557 40.248 242.485 39.544L248.149 45.256C245.589 48.072 241.765 49.48 236.677 49.48C233.509 49.48 230.725 48.904 228.325 47.752C225.925 46.568 224.069 44.936 222.757 42.856C221.445 40.776 220.789 38.44 220.789 35.848C220.789 33.224 221.429 30.888 222.709 28.84C224.021 26.76 225.797 25.144 228.037 23.992C230.309 22.84 232.853 22.264 235.669 22.264C238.325 22.264 240.741 22.792 242.917 23.848C245.125 24.904 246.869 26.456 248.149 28.504C249.461 30.552 250.117 33 250.117 35.848ZM235.765 29.656C234.645 29.656 233.717 29.96 232.981 30.568C232.245 31.176 231.765 32.04 231.541 33.16H239.989C239.765 32.072 239.285 31.224 238.549 30.616C237.813 29.976 236.885 29.656 235.765 29.656Z" fill="#FFBA15"/>
<path d="M32.736 47L32.64 31.688L25.344 43.976H20.352L13.056 32.216V47H2.736V13.4H12.048L22.992 31.304L33.648 13.4H42.96L43.056 47H32.736ZM76.1329 33.848C76.1329 34.008 76.0849 34.856 75.9889 36.392H57.7489C58.1329 37.384 58.7729 38.152 59.6689 38.696C60.5649 39.208 61.6849 39.464 63.0289 39.464C64.1809 39.464 65.1409 39.32 65.9089 39.032C66.7089 38.744 67.5729 38.248 68.5009 37.544L74.1649 43.256C71.6049 46.072 67.7809 47.48 62.6929 47.48C59.5249 47.48 56.7409 46.904 54.3409 45.752C51.9409 44.568 50.0849 42.936 48.7729 40.856C47.4609 38.776 46.8049 36.44 46.8049 33.848C46.8049 31.224 47.4449 28.888 48.7249 26.84C50.0369 24.76 51.8129 23.144 54.0529 21.992C56.3249 20.84 58.8689 20.264 61.6849 20.264C64.3409 20.264 66.7569 20.792 68.9329 21.848C71.1409 22.904 72.8849 24.456 74.1649 26.504C75.4769 28.552 76.1329 31 76.1329 33.848ZM61.7809 27.656C60.6609 27.656 59.7329 27.96 58.9969 28.568C58.2609 29.176 57.7809 30.04 57.5569 31.16H66.0049C65.7809 30.072 65.3009 29.224 64.5649 28.616C63.8289 27.976 62.9009 27.656 61.7809 27.656ZM97.7963 20.264C101.028 20.264 103.62 21.24 105.572 23.192C107.556 25.144 108.548 28.088 108.548 32.024V47H97.7003V33.896C97.7003 30.888 96.6283 29.384 94.4843 29.384C93.2683 29.384 92.2763 29.816 91.5083 30.68C90.7723 31.512 90.4043 32.84 90.4043 34.664V47H79.5563V20.744H89.8763V23.336C90.9003 22.312 92.0843 21.544 93.4283 21.032C94.7723 20.52 96.2283 20.264 97.7963 20.264ZM132.603 46.088C130.971 47.016 128.747 47.48 125.931 47.48C122.251 47.48 119.419 46.6 117.435 44.84C115.451 43.048 114.459 40.376 114.459 36.824V30.104H110.859V22.184H114.459V14.84H125.307V22.184H130.683V30.104H125.307V36.728C125.307 37.528 125.515 38.152 125.931 38.6C126.347 39.048 126.891 39.272 127.563 39.272C128.491 39.272 129.307 39.032 130.011 38.552L132.603 46.088ZM148.506 47.48C145.594 47.48 142.97 46.904 140.634 45.752C138.33 44.568 136.522 42.952 135.21 40.904C133.898 38.824 133.242 36.472 133.242 33.848C133.242 31.224 133.898 28.888 135.21 26.84C136.522 24.76 138.33 23.144 140.634 21.992C142.97 20.84 145.594 20.264 148.506 20.264C151.45 20.264 154.074 20.84 156.378 21.992C158.714 23.144 160.522 24.76 161.802 26.84C163.114 28.888 163.77 31.224 163.77 33.848C163.77 36.472 163.114 38.824 161.802 40.904C160.522 42.952 158.714 44.568 156.378 45.752C154.074 46.904 151.45 47.48 148.506 47.48ZM148.506 39.032C149.754 39.032 150.778 38.584 151.578 37.688C152.378 36.76 152.778 35.48 152.778 33.848C152.778 32.216 152.378 30.952 151.578 30.056C150.778 29.16 149.754 28.712 148.506 28.712C147.258 28.712 146.234 29.16 145.434 30.056C144.634 30.952 144.234 32.216 144.234 33.848C144.234 35.48 144.634 36.76 145.434 37.688C146.234 38.584 147.258 39.032 148.506 39.032ZM177.486 23.576C179.406 21.368 182.238 20.264 185.982 20.264V29.864C185.118 29.736 184.318 29.672 183.582 29.672C179.87 29.672 178.014 31.56 178.014 35.336V47H167.166V20.744H177.486V23.576ZM216.758 33.848C216.758 34.008 216.71 34.856 216.614 36.392H198.374C198.758 37.384 199.398 38.152 200.294 38.696C201.19 39.208 202.31 39.464 203.654 39.464C204.806 39.464 205.766 39.32 206.534 39.032C207.334 38.744 208.198 38.248 209.126 37.544L214.79 43.256C212.23 46.072 208.406 47.48 203.318 47.48C200.15 47.48 197.366 46.904 194.966 45.752C192.566 44.568 190.71 42.936 189.398 40.856C188.086 38.776 187.43 36.44 187.43 33.848C187.43 31.224 188.07 28.888 189.35 26.84C190.662 24.76 192.438 23.144 194.678 21.992C196.95 20.84 199.494 20.264 202.31 20.264C204.966 20.264 207.382 20.792 209.558 21.848C211.766 22.904 213.51 24.456 214.79 26.504C216.102 28.552 216.758 31 216.758 33.848ZM202.406 27.656C201.286 27.656 200.358 27.96 199.622 28.568C198.886 29.176 198.406 30.04 198.182 31.16H206.63C206.406 30.072 205.926 29.224 205.19 28.616C204.454 27.976 203.526 27.656 202.406 27.656ZM248.117 33.848C248.117 34.008 248.069 34.856 247.973 36.392H229.733C230.117 37.384 230.757 38.152 231.653 38.696C232.549 39.208 233.669 39.464 235.013 39.464C236.165 39.464 237.125 39.32 237.893 39.032C238.693 38.744 239.557 38.248 240.485 37.544L246.149 43.256C243.589 46.072 239.765 47.48 234.677 47.48C231.509 47.48 228.725 46.904 226.325 45.752C223.925 44.568 222.069 42.936 220.757 40.856C219.445 38.776 218.789 36.44 218.789 33.848C218.789 31.224 219.429 28.888 220.709 26.84C222.021 24.76 223.797 23.144 226.037 21.992C228.309 20.84 230.853 20.264 233.669 20.264C236.325 20.264 238.741 20.792 240.917 21.848C243.125 22.904 244.869 24.456 246.149 26.504C247.461 28.552 248.117 31 248.117 33.848ZM233.765 27.656C232.645 27.656 231.717 27.96 230.981 28.568C230.245 29.176 229.765 30.04 229.541 31.16H237.989C237.765 30.072 237.285 29.224 236.549 28.616C235.813 27.976 234.885 27.656 233.765 27.656Z" fill="white"/>
</svg>
