<svg width="666" height="595" viewBox="0 0 666 595" fill="none" xmlns="http://www.w3.org/2000/svg">
<path d="M134.661 546.476H247.317C249.25 546.476 249.25 543.502 247.317 543.502C209.749 543.502 172.18 543.502 134.661 543.502C132.728 543.502 132.728 546.476 134.661 546.476Z" fill="#CBCBCB"/>
<path d="M171.387 534.829H284.439H316.506C318.439 534.829 318.439 531.855 316.506 531.855C278.839 531.855 241.171 531.855 203.454 531.855C192.749 531.855 182.043 531.855 171.387 531.855C169.504 531.855 169.504 534.829 171.387 534.829Z" fill="#CBCBCB"/>
<path d="M314.078 516.491H390.602C392.535 516.491 392.535 513.517 390.602 513.517C365.078 513.517 339.553 513.517 314.078 513.517C312.145 513.517 312.145 516.491 314.078 516.491Z" fill="#CBCBCB"/>
<path d="M379.599 558.123H538.943H583.499C585.432 558.123 585.432 555.149 583.499 555.149C530.368 555.149 477.237 555.149 424.156 555.149C409.287 555.149 394.468 555.149 379.599 555.149C377.666 555.149 377.666 558.123 379.599 558.123Z" fill="#CBCBCB"/>
<path d="M505.141 546.476H610.461C612.394 546.476 612.394 543.502 610.461 543.502C575.371 543.502 540.231 543.502 505.141 543.502C503.208 543.502 503.208 546.476 505.141 546.476Z" fill="#CBCBCB"/>
<path d="M227.64 185.661C225.063 186.107 220.999 187.148 216.737 189.775C214.06 191.41 208.609 195.375 205.189 202.661C203.95 205.238 201.174 211.235 202.562 218.67C204.594 229.673 214.259 235.174 215.795 236.017C220.702 228.533 225.559 220.999 230.466 213.515C229.474 204.247 228.533 194.979 227.64 185.661Z" fill="#FFBA15"/>
<path d="M231.308 212.623C238.544 208.708 245.731 204.792 252.967 200.827C254.553 202.81 257.527 207.221 257.477 213.168C257.477 214.507 257.328 215.746 257.081 216.886C248.457 215.448 239.882 214.011 231.308 212.623Z" fill="#2F4EBB"/>
<path d="M153.693 246.821C154.585 258.468 155.428 270.165 156.32 281.812C159.492 281.614 162.664 281.366 165.787 281.168C164.746 269.323 163.705 257.527 162.664 245.681C159.641 246.078 156.667 246.425 153.693 246.821Z" fill="#2F4EBB"/>
<path d="M171.387 258.964C171.883 266.151 172.378 273.288 172.924 280.474C176.096 280.177 179.268 279.929 182.39 279.632C181.696 272.445 181.052 265.308 180.358 258.121C177.335 258.369 174.361 258.667 171.387 258.964Z" fill="#FFBA15"/>
<path d="M284.142 303.372C234.976 307.882 185.859 312.343 136.693 316.853C132.183 244.888 127.623 172.924 123.113 100.909C172.131 99.1746 221.197 97.4399 270.215 95.7052C274.874 164.944 279.533 234.183 284.142 303.372V303.372Z" stroke="#161616" stroke-width="2" stroke-miterlimit="10"/>
<path d="M173.816 87.2796C174.361 91.195 174.956 95.1104 175.501 99.0259C175.65 99.9676 177.087 99.5711 176.938 98.6294C176.393 94.7139 175.798 90.7985 175.253 86.8831C175.104 85.9414 173.667 86.3379 173.816 87.2796Z" fill="#CBCBCB"/>
<path d="M174.857 87.1805C186.008 86.437 197.209 85.991 208.361 85.7431C209.302 85.7431 209.302 84.2563 208.361 84.2563C197.16 84.5041 186.008 84.9997 174.857 85.6936C173.915 85.7431 173.915 87.23 174.857 87.1805Z" fill="#CBCBCB"/>
<path d="M207.915 85.1484C208.41 89.3612 208.807 93.5244 209.055 97.7372C209.104 98.6789 210.591 98.6789 210.542 97.7372C210.294 93.5244 209.897 89.3116 209.402 85.1484C209.253 84.2067 207.766 84.2067 207.915 85.1484Z" fill="#CBCBCB"/>
<path d="M174.906 87.1309C175.253 90.7985 175.6 94.5157 175.947 98.1833C175.997 98.5798 176.244 98.9267 176.69 98.9267C187.346 99.0259 197.953 97.3407 208.658 97.6877C209.6 97.7372 209.6 96.2504 208.658 96.2008C198.002 95.8539 187.396 97.4894 176.69 97.4399L177.434 98.1833C177.087 94.5157 176.74 90.7985 176.393 87.1309C176.294 86.1892 174.807 86.1892 174.906 87.1309Z" fill="#CBCBCB"/>
<path d="M175.699 87.6265C177.335 88.6177 179.466 88.1221 181.25 88.023C184.224 87.8743 187.198 87.7256 190.171 87.5769C196.119 87.2795 202.017 86.9326 207.964 86.6352C207.716 86.3874 207.469 86.1396 207.221 85.8918C207.37 89.1134 207.518 92.3349 207.667 95.606C207.716 96.5477 209.203 96.5477 209.154 95.606C209.005 92.3845 208.856 89.1629 208.708 85.8918C208.708 85.4953 208.361 85.1484 207.964 85.1484C202.711 85.4457 197.407 85.6936 192.154 85.9909C189.527 86.1396 186.9 86.2883 184.224 86.3874C182.142 86.4866 178.276 87.4778 176.443 86.3379C175.65 85.8422 174.906 87.1309 175.699 87.6265Z" fill="#CBCBCB"/>
<path d="M175.649 87.9239C176.393 90.9472 176.889 94.0201 177.186 97.1425C177.682 97.0929 178.177 96.9938 178.623 96.9442C178.078 94.2679 178.227 91.6411 178.722 88.9152C178.227 88.8656 177.731 88.7665 177.285 88.7169C177.384 91.6906 177.582 94.5157 178.722 97.2416C179.069 98.0346 180.308 97.4399 180.061 96.6469C179.218 93.4749 178.425 90.3525 179.268 87.0814C178.772 87.0814 178.326 87.0814 177.83 87.0814C178.276 90.0551 178.722 93.0288 179.168 96.0026C179.317 96.9442 180.754 96.5477 180.606 95.6061C180.16 92.6323 179.714 89.6586 179.268 86.6849C179.168 85.9414 177.979 86.0405 177.83 86.6849C176.938 90.2038 177.731 93.6236 178.623 97.0434C179.069 96.8451 179.515 96.6469 179.961 96.4486C178.921 93.9705 178.821 91.2941 178.722 88.6673C178.722 87.8743 177.434 87.6265 177.285 88.4691C176.74 91.4428 176.542 94.3174 177.186 97.2912C177.335 98.0842 178.722 97.9355 178.623 97.0929C178.326 93.8714 177.781 90.6498 177.037 87.4779C176.839 86.5857 175.451 86.9822 175.649 87.9239Z" fill="#CBCBCB"/>
<path d="M179.466 90.5506C180.011 89.6585 180.556 88.7664 181.101 87.8743C180.655 87.6264 180.259 87.3786 179.813 87.1308C179.168 88.5681 178.574 90.0055 177.929 91.4428C177.632 92.1367 178.524 93.0783 179.119 92.3349C180.11 91.0958 181.052 89.8072 182.043 88.5681C181.646 88.3203 181.2 88.0725 180.804 87.8247C180.407 89.0142 179.912 90.1046 179.218 91.195C178.772 91.8888 179.862 92.781 180.407 92.0871C181.151 91.1454 181.894 90.2037 182.687 89.262C182.291 88.9646 181.894 88.6673 181.498 88.3699C180.507 90.6993 179.515 92.9792 178.524 95.3087C178.227 96.0025 179.119 96.9442 179.714 96.2008C181.498 93.9705 183.332 91.6906 185.116 89.4603C184.719 89.1629 184.323 88.8655 183.926 88.5681C182.588 90.7489 181.25 92.9792 179.912 95.16C179.565 95.7052 180.11 96.4486 180.754 96.2504C181.547 96.0025 181.647 95.9034 182.241 95.4078C181.845 95.16 181.399 94.9122 181.002 94.6644C180.705 95.5069 180.209 96.1512 179.466 96.6964C178.722 97.2416 179.367 98.4807 180.209 97.9851C181.002 97.539 181.746 97.2416 182.638 97.1425C182.34 96.8451 182.043 96.5477 181.746 96.2504C180.457 95.606 180.06 94.7139 180.556 93.5244C180.705 92.8801 180.953 92.2853 181.25 91.7402C181.647 91.0463 182.39 89.3611 183.133 90.848C183.679 91.9384 181.399 98.0346 181.101 94.2678C181.052 93.2766 181.151 92.2853 181.448 91.3932C181.647 90.6993 181.944 90.055 182.291 89.4107C182.786 88.4194 183.034 88.4194 183.084 89.4107C184.026 91.3932 182.886 94.5157 181.944 96.2504C182.39 96.2999 182.836 96.3495 183.282 96.4486C182.886 95.0609 182.737 93.7227 183.034 92.3349C183.133 91.7897 183.629 89.1629 184.174 90.0055C185.314 91.641 183.431 95.3582 182.638 96.7955C183.084 96.9442 183.579 97.0434 184.026 97.1921C183.877 95.8539 183.827 94.5652 184.075 93.227C184.224 92.3349 184.769 89.4603 185.711 89.3611C187.049 89.2125 184.472 95.3087 183.877 96.2008C184.323 96.2504 184.769 96.2999 185.215 96.399C184.769 94.1687 184.769 89.4107 187.792 88.6673C187.495 88.5186 187.198 88.3203 186.9 88.1716C187.445 91.195 186.603 94.1192 184.521 96.3495C184.918 96.4486 185.364 96.5477 185.76 96.6964C185.413 95.3087 185.364 93.9705 185.711 92.5827C185.909 91.8393 186.95 88.7168 187.941 88.9646C188.635 89.1133 187.743 91.988 187.544 92.6323C186.999 94.2183 186.157 95.606 184.918 96.7955C185.314 96.8947 185.76 96.9938 186.157 97.1425C185.364 93.8218 186.751 90.5011 189.676 88.7168C189.329 88.5681 188.932 88.4195 188.585 88.2708C189.725 91.2941 186.801 95.2095 184.868 97.2416C185.265 97.3407 185.711 97.4399 186.107 97.5885C185.76 96.1512 185.76 94.7635 186.206 93.3262C186.355 92.8801 187.842 89.5098 188.536 89.7576C189.527 90.1046 187.842 93.1279 187.544 93.574C187.198 94.2183 186.553 95.3582 185.909 95.7547C185.165 96.2504 185.215 96.3495 185.165 95.2591C185.116 93.7722 186.107 92.0871 186.95 90.9967C187.396 90.402 188.139 89.4603 188.833 89.2125C189.626 88.8655 189.527 88.7664 189.428 89.8072C189.081 92.8801 187.346 95.6556 185.165 97.7868C185.562 97.8859 186.008 97.9851 186.405 98.1337C185.958 95.2095 186.95 92.1862 189.13 90.1541C189.775 89.5594 190.518 89.1629 190.766 90.402C190.865 90.8976 190.27 92.0871 190.072 92.5332C189.378 94.1687 188.387 95.5565 187.148 96.7955H188.189C187.297 95.7547 188.437 93.4748 188.982 92.4836C189.23 92.0375 191.361 88.7664 191.956 89.0638C192.649 89.4107 191.113 92.7314 190.915 93.0783C190.221 94.4165 189.329 95.606 188.288 96.6964C188.734 96.8947 189.13 97.0434 189.577 97.2416C189.626 93.6235 191.311 90.5506 194.384 88.6177C193.988 88.4195 193.641 88.1716 193.244 87.9734C193.294 91.2941 192.104 94.2183 189.725 96.5477C190.171 96.746 190.568 96.8947 191.014 97.0929C191.311 93.4748 192.996 90.3524 195.772 88.023C195.375 87.9734 194.979 87.9238 194.582 87.8743C196.168 90.2533 192.699 94.7139 191.311 96.4982C191.757 96.6964 192.154 96.8451 192.6 97.0434C192.649 95.6556 192.897 94.367 193.442 93.0783C193.74 92.2853 194.979 89.5594 195.871 89.3611C197.06 89.1133 195.821 91.3932 195.425 92.2358C194.731 93.6731 193.789 94.9122 192.699 96.0521C193.095 96.2999 193.542 96.5477 193.938 96.7955C194.384 93.7227 195.623 89.6585 198.845 88.5186C198.547 88.2708 198.2 88.0229 197.903 87.8247C197.507 91.195 196.02 94.0696 193.542 96.3495C193.988 96.5477 194.384 96.6964 194.83 96.8947C194.979 95.3087 195.326 93.7722 196.02 92.2853C196.466 91.3436 197.655 88.8655 198.746 88.6673C199.291 88.5681 198.746 89.4107 198.547 89.9559C198.25 90.7489 197.853 91.4923 197.457 92.1862C196.664 93.574 195.673 94.813 194.533 95.953C194.979 96.1512 195.375 96.2999 195.821 96.4982C196.02 93.3262 197.507 90.6002 199.985 88.6673C199.638 88.3699 199.241 88.1221 198.894 87.8247C198.498 90.1541 197.308 91.988 195.722 93.7227C194.781 94.7635 194.483 94.5157 194.384 93.1279C194.285 91.2445 195.425 89.3611 197.308 88.8655C197.011 88.6177 196.664 88.3699 196.367 88.1716C196.218 91.1454 195.326 93.8218 193.74 96.2999C194.186 96.4486 194.681 96.5477 195.128 96.6964C195.276 95.2095 195.673 93.7722 196.367 92.434C196.813 91.5419 197.953 89.3116 198.944 89.0638C200.381 88.6673 198.944 91.4923 198.597 92.1862C197.903 93.574 196.961 94.7635 195.871 95.9034C196.317 96.1017 196.714 96.2504 197.16 96.4486C196.961 92.8305 199.142 89.6585 202.562 88.5681C202.265 88.3203 201.918 88.0725 201.62 87.8743C201.224 91.3932 199.539 94.367 196.813 96.6469C197.259 96.8451 197.655 96.9938 198.101 97.1921C198.498 93.7722 200.232 90.848 203.058 88.8655C202.711 88.7168 202.314 88.5681 201.967 88.4194C202.76 90.9967 200.034 94.367 198.547 96.2008C198.993 96.399 199.39 96.5477 199.836 96.746C200.034 94.2183 201.472 89.609 204.495 89.1629C204.197 88.8655 203.9 88.5681 203.603 88.2708C203.058 91.0958 201.918 93.6235 200.084 95.8539C200.53 96.0521 200.926 96.2008 201.372 96.399C201.521 93.3757 202.711 90.7489 204.792 88.6177C204.396 88.5681 203.999 88.5186 203.603 88.469C204.743 90.5506 202.413 94.2183 201.372 96.0521L202.711 96.6469C203.206 94.2678 203.603 90.2533 205.833 88.8159C205.536 88.7664 205.238 88.7168 204.941 88.7168C206.18 90.1046 203.801 94.7635 203.256 96.1512C203.751 96.2999 204.197 96.399 204.693 96.5477C205.387 94.02 206.031 91.5419 206.725 89.0142C206.23 88.9646 205.734 88.8655 205.288 88.8159C205.387 91.195 205.04 93.4253 204.247 95.7052C204.743 95.7547 205.238 95.8539 205.684 95.9034C205.932 93.6731 205.684 90.2037 206.973 88.3203C206.527 88.2708 206.081 88.2212 205.635 88.1221C206.329 90.5506 206.081 92.8801 205.734 95.4078C206.23 95.4574 206.725 95.5565 207.171 95.606C206.973 92.8305 206.775 90.0055 206.576 87.2299C206.13 87.4282 205.734 87.5769 205.288 87.7751C207.171 89.7081 206.428 92.2358 205.585 94.4661C206.031 94.4165 206.477 94.367 206.923 94.2678C206.378 93.227 205.288 91.4923 205.337 90.2533C204.842 89.4603 205.04 89.0638 205.982 89.1133C206.428 89.9063 206.576 90.7489 206.378 91.5915C206.824 91.3932 207.221 91.2445 207.667 91.0463C206.874 90.1046 206.477 89.2125 206.23 88.0725C205.883 88.3699 205.486 88.6177 205.139 88.9151C205.337 89.4603 205.536 90.055 205.734 90.6002C206.18 90.6498 206.626 90.6993 207.072 90.7985C206.725 89.8072 206.576 88.9151 206.626 87.8743C206.329 88.1221 205.982 88.3699 205.684 88.5681C207.617 89.3611 206.279 94.5157 206.031 95.8539C206.279 95.6556 206.527 95.5069 206.725 95.3087C202.958 95.4078 199.192 95.5069 195.425 95.606C194.483 95.6556 194.483 97.0434 195.425 97.0929C198.746 97.192 202.017 96.6964 205.288 96.2008C205.139 95.7052 205.04 95.2591 204.891 94.7635C201.025 95.8043 197.16 96.4982 193.195 96.7955C192.253 96.8451 192.253 98.2329 193.195 98.2824C197.06 98.4311 200.827 97.0929 204.693 97.2416C204.644 96.746 204.544 96.2504 204.495 95.8043C201.521 96.7955 198.547 97.0929 195.425 96.746V98.2329C198.993 97.8859 202.562 97.539 206.13 97.1921C206.081 96.6964 205.982 96.2008 205.932 95.7547C203.553 96.4486 201.224 96.6964 198.746 96.5973V98.0842C201.174 98.0842 203.504 97.7868 205.833 97.1921C206.775 96.9442 206.378 95.5565 205.437 95.7547C202.661 96.3495 199.886 96.6469 197.06 96.6469V98.1337C200.431 97.6877 203.801 97.1425 207.171 96.4486C207.964 96.2999 207.816 94.9122 206.973 95.0113C203.751 95.4078 200.579 95.3582 197.407 94.8626C196.466 94.7139 196.069 96.1512 197.011 96.2999C200.332 96.7955 203.652 96.8947 206.973 96.4982C206.923 96.0025 206.824 95.5069 206.775 95.0609C203.553 95.7052 200.332 96.2999 197.06 96.6964C196.119 96.7956 196.069 98.1833 197.06 98.1833C200.034 98.1833 202.909 97.8859 205.833 97.2416C205.684 96.746 205.585 96.2999 205.437 95.8043C203.206 96.3495 201.025 96.6469 198.746 96.6469C197.804 96.6469 197.804 98.0842 198.746 98.1337C201.323 98.2329 203.801 97.9355 206.329 97.2416C207.122 96.9938 206.973 95.7052 206.13 95.8043C202.562 96.1512 198.993 96.4982 195.425 96.8451C194.483 96.9442 194.483 98.2329 195.425 98.332C198.696 98.6789 201.818 98.332 204.891 97.3407C205.684 97.0929 205.536 95.9034 204.693 95.9034C200.827 95.7547 197.06 97.0929 193.195 96.9442V98.4311C197.308 98.1337 201.323 97.4399 205.288 96.3495C206.23 96.1017 205.833 94.7635 204.891 94.9122C201.719 95.4078 198.597 95.8539 195.425 95.7547V97.2416C199.192 97.1425 202.958 97.0434 206.725 96.9442C207.023 96.9442 207.369 96.6964 207.419 96.399C207.915 93.6235 209.451 88.7168 206.031 87.2795C205.536 87.0813 205.139 87.5769 205.09 87.9734C204.99 89.2125 205.139 90.1541 205.585 91.2941C205.783 91.8393 206.626 92.0871 206.923 91.4923C207.617 90.055 207.221 88.6177 205.783 87.7751C205.189 87.4282 204.544 87.9734 204.693 88.6177C204.99 90.055 205.585 91.1454 206.527 92.2853C206.973 92.8305 207.766 92.3349 207.816 91.7402C207.964 90.1541 206.576 85.4457 204.049 86.883C201.769 88.2212 204.792 93.6235 205.536 95.16C205.833 95.8043 206.676 95.5069 206.874 94.9617C207.964 92.1367 208.46 89.1629 206.18 86.8334C205.734 86.3874 204.842 86.6848 204.891 87.3786C205.09 90.1541 205.288 92.9792 205.486 95.7547C205.536 96.5477 206.824 96.8451 206.923 95.953C207.32 93.227 207.617 90.6002 206.824 87.8743C206.626 87.2299 205.833 87.1804 205.486 87.676C203.95 89.8568 204.247 93.4748 203.999 96.0025C203.9 96.8947 205.189 96.9442 205.437 96.2008C206.279 93.8218 206.626 91.4428 206.527 88.9151C206.477 88.0725 205.288 87.8743 205.09 88.7168C204.396 91.2445 203.751 93.7227 203.058 96.2504C202.81 97.192 204.148 97.539 204.495 96.6469C205.387 94.367 207.766 90.0055 205.783 87.7256C205.585 87.4778 205.139 87.4282 204.891 87.6264C202.165 89.4107 201.67 93.4253 201.075 96.3495C200.926 97.1425 202.017 97.6877 202.413 96.9442C203.751 94.5157 206.13 90.6002 204.644 87.8247C204.396 87.4282 203.801 87.3291 203.454 87.676C201.075 90.1541 199.786 93.0783 199.588 96.4982C199.539 97.0929 200.431 97.539 200.877 97.0434C202.909 94.6148 204.197 91.8888 204.792 88.8159C204.891 88.2212 204.445 87.8247 203.9 87.9238C200.183 88.469 198.399 93.7227 198.151 96.9442C198.101 97.5886 198.993 97.9355 199.439 97.4894C201.372 95.16 204.247 91.4923 203.256 88.2708C203.107 87.8247 202.562 87.5273 202.165 87.8247C198.894 90.1046 196.912 93.4253 196.466 97.3903C196.367 98.0842 197.308 98.2824 197.754 97.9355C200.778 95.4078 202.512 91.988 202.958 88.1221C203.008 87.6264 202.463 87.2795 202.017 87.4282C197.953 88.7168 195.276 92.4836 195.524 96.746C195.574 97.3903 196.317 97.7372 196.813 97.2912C197.953 96.1512 203.9 88.0725 200.183 87.1804C198.646 86.7839 196.912 89.1629 196.168 90.1541C194.632 92.1862 193.839 94.5157 193.542 97.0434C193.442 97.8364 194.582 97.9851 194.929 97.4399C196.714 94.7635 197.655 91.7897 197.804 88.5681C197.804 88.0725 197.308 87.7256 196.862 87.8743C194.83 88.4195 193.591 89.9063 193.095 91.9384C192.749 93.227 192.402 95.6556 193.789 96.4982C195.128 97.3407 196.218 95.8539 196.961 94.9617C198.547 93.1279 199.836 91.1454 200.232 88.7168C200.332 88.1716 199.737 87.4282 199.142 87.8743C196.168 90.1541 194.483 93.2766 194.235 96.9938C194.186 97.6381 195.078 97.9355 195.524 97.539C196.714 96.3495 203.058 88.5186 199.638 87.2299C198.101 86.6352 196.466 89.1133 195.772 90.1046C194.235 92.2853 193.492 94.7139 193.244 97.3407C193.195 98.0346 194.087 98.2824 194.533 97.8859C197.308 95.3087 198.944 92.0871 199.34 88.3203C199.39 87.8743 198.845 87.4778 198.399 87.6264C194.632 88.9646 192.996 93.2766 192.451 96.9442C192.352 97.6381 193.145 98.2824 193.69 97.6877C194.88 96.4486 200.53 88.6673 197.06 87.676C195.474 87.2299 193.74 89.9559 193.046 91.0463C191.757 93.0288 191.163 95.3087 191.063 97.6381C191.014 98.2329 191.906 98.6789 192.352 98.1833C194.235 95.8539 197.903 90.8976 195.871 87.7751C195.574 87.3291 195.078 87.3291 194.681 87.6264C191.609 90.2037 189.824 93.7722 189.477 97.7868C189.428 98.4311 190.32 98.7285 190.766 98.332C193.393 95.7052 194.731 92.3845 194.681 88.7168C194.681 88.1716 194.037 87.7751 193.542 88.0725C190.023 90.2533 188.04 93.8713 187.991 97.9851C187.991 98.6294 188.833 98.9763 189.279 98.5302C191.163 96.5477 192.699 94.1687 193.343 91.4923C193.641 90.3524 193.839 88.1221 192.005 88.2212C190.072 88.3203 188.04 91.6906 187.346 93.1775C186.603 94.8626 185.81 97.0434 187.148 98.5798C187.396 98.8772 187.941 98.8276 188.189 98.5798C190.171 96.6469 191.658 94.2183 192.203 91.4923C192.451 90.2533 192.55 88.1716 190.766 88.1716C188.883 88.1716 186.851 90.9471 186.107 92.3845C184.918 94.5157 184.62 96.8451 185.017 99.2241C185.116 99.8189 185.909 99.918 186.256 99.5711C188.486 97.3903 190.122 94.6644 190.816 91.5915C191.113 90.2533 191.509 87.9734 189.527 88.023C186.107 88.1221 181.399 96.6964 184.62 98.9267C184.868 99.0754 185.165 99.0259 185.364 98.9267C187.098 98.0842 193.244 89.7576 189.477 88.6673C187.891 88.1716 186.107 90.848 185.512 91.988C184.372 94.1192 184.125 96.4486 184.67 98.7285C184.769 99.2737 185.562 99.4719 185.909 99.0754C188.238 96.5973 191.361 92.1862 190.023 88.6673C189.874 88.2212 189.378 87.9734 188.932 88.2212C185.413 90.3524 183.778 94.367 184.719 98.332C184.868 98.8772 185.562 99.0259 185.958 98.6789C187.941 96.746 189.031 94.3174 189.527 91.5915C189.725 90.402 190.171 88.2212 188.635 87.7256C186.999 87.2299 185.463 90.0055 184.918 91.195C183.926 93.3262 183.778 95.6556 184.323 97.9851C184.472 98.5302 185.165 98.7285 185.562 98.332C188.04 95.6556 189.031 92.2853 188.337 88.7168C188.238 88.3203 187.792 88.1221 187.445 88.2212C183.579 89.1629 183.183 94.6148 183.827 97.7868C183.976 98.4807 184.868 98.4311 185.165 97.9851C186.454 96.1512 187.297 94.1192 187.495 91.8393C187.594 90.7489 187.891 88.469 186.405 88.0725C184.918 87.676 184.026 89.8568 183.579 90.8976C182.539 93.227 182.291 95.7052 182.588 98.2329C182.687 98.9267 183.579 99.3232 183.976 98.6294C185.512 95.953 186.801 91.9384 185.413 88.9646C185.314 88.7168 185.017 88.5681 184.769 88.6177C181.101 88.6673 181.3 95.6556 181.944 97.9851C182.093 98.5798 182.985 98.7285 183.282 98.1833C184.67 95.7547 185.562 92.1862 184.372 89.4603C183.53 87.5273 181.993 88.4195 181.052 89.8568C179.714 91.9384 178.871 95.8539 180.209 98.1337C181.25 99.918 182.588 98.5798 183.332 97.2416C184.224 95.606 185.661 91.5915 184.174 89.8568C182.836 88.3203 181.101 90.4515 180.358 91.5419C179.218 93.2766 178.128 96.4486 179.565 98.332C180.655 99.7693 182.638 99.4719 183.233 97.8364C183.48 97.2416 182.836 96.8451 182.34 96.9442C181.3 97.0929 180.457 97.3903 179.565 97.9355C179.813 98.3816 180.06 98.7781 180.308 99.2241C181.349 98.4311 182.043 97.539 182.539 96.2999C182.836 95.5565 181.795 95.16 181.3 95.5565C181.002 95.7052 180.754 95.8539 180.457 96.0025C180.754 96.3495 181.002 96.746 181.3 97.0929C182.638 94.9122 183.976 92.6818 185.314 90.5011C185.76 89.8072 184.67 88.9151 184.125 89.609C182.34 91.8393 180.507 94.1192 178.722 96.3495C179.119 96.6469 179.515 96.9442 179.912 97.2416C180.903 94.9122 181.894 92.6323 182.886 90.3028C183.183 89.609 182.291 88.6673 181.696 89.4107C180.953 90.3524 180.209 91.2941 179.416 92.2358C179.813 92.5332 180.209 92.8305 180.606 93.1279C181.349 91.9384 181.894 90.7489 182.34 89.4107C182.539 88.7168 181.547 88.0725 181.101 88.6673C180.11 89.9063 179.168 91.195 178.177 92.434C178.574 92.7314 178.97 93.0288 179.367 93.3262C180.011 91.8888 180.606 90.4515 181.25 89.0142C181.647 88.1716 180.457 87.4282 179.961 88.2708C179.416 89.1629 178.871 90.055 178.326 90.9471C177.681 90.6498 178.97 91.3932 179.466 90.5506Z" fill="#CBCBCB"/>
<path d="M206.378 86.3379C206.378 88.023 206.428 89.7577 206.477 91.4428C206.527 92.6819 207.072 95.3087 206.279 96.2504C205.784 96.8451 206.428 97.8859 207.171 97.4399C207.518 97.1921 207.617 97.1425 207.915 96.8451C208.212 96.4486 208.163 95.7547 207.568 95.6061C206.676 95.4078 206.031 95.4078 205.139 95.7052C204.247 96.0026 204.594 97.4399 205.536 97.1425C206.081 97.0929 206.626 97.0929 207.171 97.0434C207.072 96.6469 206.973 96.2008 206.824 95.8043C206.676 95.953 206.527 96.0521 206.428 96.2008C206.725 96.5973 207.023 96.9938 207.32 97.3903C208.41 96.1017 208.113 95.2096 208.014 93.4749C207.915 91.1454 207.865 88.7664 207.865 86.437C207.865 85.3466 206.378 85.3466 206.378 86.3379Z" fill="#CBCBCB"/>
<path d="M133.075 129.507C153.445 128.367 173.865 127.921 194.285 128.169C195.227 128.169 195.227 126.682 194.285 126.682C173.865 126.434 153.445 126.88 133.075 128.02C132.134 128.069 132.134 129.556 133.075 129.507Z" fill="#CBCBCB"/>
<path d="M135.702 143.087C150.323 141.55 164.994 140.757 179.664 140.757C180.606 140.757 180.606 139.271 179.664 139.271C164.994 139.271 150.323 140.014 135.702 141.6C134.76 141.699 134.711 143.186 135.702 143.087Z" fill="#CBCBCB"/>
<path d="M137.04 168.413C156.568 166.381 176.145 165.241 195.772 165.093C196.714 165.093 196.714 163.606 195.772 163.606C176.145 163.755 156.568 164.894 137.04 166.926C136.099 167.026 136.099 168.512 137.04 168.413Z" fill="#CBCBCB"/>
<path d="M217.233 236.215C207.617 232.498 201.918 221.842 202.859 211.731C203.851 201.472 211.483 192.699 220.652 188.585C226.947 185.76 233.886 185.165 240.081 188.486C244.938 191.063 249.101 195.028 252.025 199.687C258.122 209.402 257.676 221.148 251.232 230.664C247.367 236.364 240.081 237.999 233.687 238.99C227.343 239.982 220.652 239.635 215.3 235.719C214.507 235.174 213.763 236.463 214.556 237.008C219.512 240.626 225.609 241.369 231.556 240.775C237.454 240.18 244.442 238.891 249.2 235.125C253.909 231.407 256.734 224.369 257.725 218.62C258.667 213.119 257.626 207.568 255.297 202.512C250.092 191.262 238.098 182.241 225.361 185.364C214.358 188.04 204.644 196.912 201.967 208.063C199.093 219.909 205.288 233.142 216.786 237.603C217.728 237.999 218.125 236.562 217.233 236.215Z" fill="#CBCBCB"/>
<path d="M227.69 185.612C228.285 194.781 228.88 203.95 229.524 213.119C229.574 214.061 231.06 214.061 231.011 213.119C230.416 203.95 229.821 194.781 229.177 185.612C229.128 184.67 227.641 184.67 227.69 185.612Z" fill="#CBCBCB"/>
<path d="M230.912 214.011C238.445 209.897 245.88 205.585 253.215 201.025C254.008 200.53 253.264 199.241 252.471 199.737C245.186 204.297 237.751 208.609 230.168 212.722C229.326 213.218 230.069 214.507 230.912 214.011Z" fill="#CBCBCB"/>
<path d="M231.209 214.259C239.734 214.259 248.159 216.291 256.536 217.728C257.477 217.877 257.874 216.439 256.932 216.291C248.457 214.853 239.883 212.772 231.209 212.772C230.267 212.772 230.267 214.259 231.209 214.259Z" fill="#CBCBCB"/>
<path d="M229.92 213.267C225.162 221.148 220.404 228.979 215.597 236.859C215.101 237.702 216.39 238.445 216.886 237.603C221.644 229.722 226.402 221.891 231.209 214.011C231.705 213.218 230.416 212.425 229.92 213.267Z" fill="#CBCBCB"/>
<path d="M145.516 283.498C167.075 281.862 188.585 279.979 210.046 277.748C210.988 277.649 210.988 276.162 210.046 276.261C188.536 278.442 167.026 280.375 145.516 282.011C144.574 282.11 144.574 283.597 145.516 283.498Z" fill="#CBCBCB"/>
<path d="M152.851 246.97C153.644 258.369 154.486 269.818 155.279 281.218C155.329 282.159 156.816 282.159 156.766 281.218C155.973 269.818 155.131 258.369 154.338 246.97C154.238 246.028 152.752 246.028 152.851 246.97Z" fill="#CBCBCB"/>
<path d="M154.288 247.119C157.113 246.623 159.938 246.474 162.813 246.623C162.565 246.375 162.317 246.127 162.069 245.88C162.813 257.477 163.903 269.025 165.241 280.524C165.341 281.465 166.827 281.465 166.728 280.524C165.341 269.025 164.3 257.428 163.556 245.88C163.507 245.483 163.259 245.136 162.813 245.136C159.79 244.987 156.865 245.186 153.892 245.681C152.95 245.88 153.396 247.317 154.288 247.119Z" fill="#CBCBCB"/>
<path d="M169.9 258.716C171.04 265.605 171.734 272.594 171.982 279.582C172.031 280.524 173.518 280.524 173.469 279.582C173.221 272.445 172.527 265.358 171.338 258.32C171.189 257.378 169.752 257.775 169.9 258.716Z" fill="#CBCBCB"/>
<path d="M171.685 259.46C174.559 259.46 177.384 259.311 180.209 258.914C179.962 258.667 179.714 258.419 179.466 258.171C180.16 265.06 180.903 271.9 181.597 278.789C181.696 279.731 183.183 279.731 183.084 278.789C182.39 271.9 181.647 265.06 180.953 258.171C180.903 257.824 180.655 257.378 180.209 257.428C177.384 257.775 174.51 257.973 171.685 257.973C170.743 257.973 170.743 259.46 171.685 259.46Z" fill="#CBCBCB"/>
<path d="M187.545 246.871C188.734 257.576 189.477 268.282 189.775 279.086C189.824 280.028 191.311 280.028 191.262 279.086C190.915 268.331 190.171 257.576 189.031 246.871C188.932 245.929 187.445 245.929 187.545 246.871Z" fill="#CBCBCB"/>
<path d="M188.288 247.466C189.874 247.565 191.509 247.614 193.096 247.714C195.326 247.813 195.375 247.862 195.425 250.093C195.574 253.314 195.722 256.486 195.921 259.708C196.367 265.853 197.061 271.949 198.2 277.996C198.399 278.938 199.786 278.541 199.638 277.599C198.2 269.967 197.507 262.186 197.11 254.404C197.011 252.62 196.961 250.886 196.862 249.101C196.813 248.407 196.912 247.367 196.367 246.772C195.772 246.177 194.731 246.276 193.988 246.227C192.055 246.128 190.171 246.028 188.238 245.929C187.346 245.929 187.346 247.416 188.288 247.466Z" fill="#CBCBCB"/>
<path d="M207.568 294.054C226.699 292.716 245.78 290.287 264.614 286.768C265.556 286.57 265.159 285.182 264.218 285.331C245.483 288.85 226.55 291.229 207.568 292.567C206.577 292.617 206.577 294.104 207.568 294.054Z" fill="#CBCBCB"/>
<path d="M236.711 284.588C244.839 283.745 253.017 282.903 261.145 282.06C262.087 281.961 262.087 280.474 261.145 280.573C253.017 281.416 244.839 282.258 236.711 283.101C235.769 283.2 235.769 284.687 236.711 284.588Z" fill="#CBCBCB"/>
<path d="M250.588 274.675C254.305 274.527 258.072 274.378 261.789 274.229C262.731 274.18 262.731 272.693 261.789 272.742C258.072 272.891 254.305 273.04 250.588 273.188C249.597 273.238 249.597 274.725 250.588 274.675Z" fill="#CBCBCB"/>
<path d="M211.334 107.997C212.276 110.723 212.673 113.498 212.524 116.373C212.474 117.314 213.961 117.314 214.011 116.373C214.16 113.349 213.763 110.475 212.772 107.6C212.425 106.708 210.988 107.105 211.334 107.997Z" fill="#CBCBCB"/>
<path d="M212.574 108.145C226.203 106.758 239.833 105.866 253.512 105.419C254.454 105.37 254.454 103.883 253.512 103.933C239.833 104.379 226.154 105.271 212.574 106.659C211.632 106.758 211.632 108.245 212.574 108.145Z" fill="#CBCBCB"/>
<path d="M214.011 117.166C227.591 116.174 241.122 115.183 254.702 114.192C255.643 114.142 255.643 112.656 254.702 112.705C241.122 113.696 227.591 114.688 214.011 115.679C213.069 115.728 213.069 117.215 214.011 117.166Z" fill="#CBCBCB"/>
<path d="M253.71 105.667C254.157 108.74 254.603 111.763 255.049 114.836C255.197 115.778 256.635 115.382 256.486 114.44C256.04 111.367 255.594 108.344 255.148 105.271C254.999 104.329 253.562 104.726 253.71 105.667Z" fill="#CBCBCB"/>
<path d="M493.395 146.011C493.444 147.895 493.543 149.728 493.791 151.612C493.94 152.553 495.427 152.553 495.278 151.612C495.03 149.778 494.881 147.895 494.881 146.011C494.881 145.069 493.395 145.069 493.395 146.011Z" fill="#CBCBCB"/>
<path d="M494.485 146.755H590.686C591.628 146.755 591.628 145.268 590.686 145.268C558.619 145.268 526.552 145.268 494.485 145.268C493.543 145.268 493.543 146.755 494.485 146.755Z" fill="#CBCBCB"/>
<path d="M589.794 146.606V149.877C589.794 150.819 591.281 150.819 591.281 149.877C591.281 148.787 591.281 147.696 591.281 146.606C591.281 145.615 589.794 145.615 589.794 146.606Z" fill="#CBCBCB"/>
<path d="M495.377 152.157H590.339C591.281 152.157 591.281 150.67 590.339 150.67C558.669 150.67 526.998 150.67 495.377 150.67C494.386 150.67 494.386 152.157 495.377 152.157Z" fill="#CBCBCB"/>
<path d="M495.229 128.912C496.467 134.513 497.508 140.163 498.351 145.813C498.499 146.755 499.937 146.358 499.788 145.416C498.896 139.766 497.855 134.116 496.666 128.516C496.418 127.574 495.03 127.97 495.229 128.912Z" fill="#CBCBCB"/>
<path d="M496.121 128.813C502.613 129.011 509.403 129.804 515.896 129.011C516.838 128.912 516.838 127.425 515.896 127.524C509.403 128.317 502.613 127.524 496.121 127.326C495.179 127.277 495.179 128.763 496.121 128.813Z" fill="#CBCBCB"/>
<path d="M515.153 129.309C514.459 134.661 513.815 140.014 513.121 145.416C513.022 146.358 514.508 146.358 514.608 145.416C515.301 140.064 515.946 134.711 516.64 129.309C516.739 128.367 515.252 128.367 515.153 129.309Z" fill="#CBCBCB"/>
<path d="M503.506 127.177C502.514 126.731 501.325 126.285 500.581 125.492C499.293 124.204 499.392 122.469 499.193 120.784C498.896 118.553 497.657 116.571 497.508 114.291C497.112 114.489 496.765 114.737 496.368 114.935C500.978 117.909 505.042 122.122 504.893 127.97C504.844 128.912 506.331 128.912 506.38 127.97C506.579 121.577 502.167 116.918 497.112 113.647C496.666 113.349 495.972 113.746 495.972 114.291C496.071 115.629 496.467 116.819 496.913 118.107C497.558 119.892 497.558 121.626 497.905 123.46C498.45 126.186 500.333 127.376 502.712 128.466C503.605 128.813 504.348 127.574 503.506 127.177Z" fill="#CBCBCB"/>
<path d="M504.943 120.833C504.398 117.067 506.876 113.449 508.263 110.128C509.354 107.501 510.147 104.825 509.998 101.95C509.502 102 509.007 102.099 508.561 102.148C510.394 110.723 512.674 118.851 508.759 127.277C508.362 128.119 509.651 128.912 510.048 128.02C511.832 124.154 512.773 119.991 512.575 115.728C512.327 111.02 510.989 106.361 509.998 101.752C509.849 100.909 508.511 101.108 508.561 101.95C508.858 108.839 502.514 114.39 503.555 121.23C503.654 122.172 505.091 121.775 504.943 120.833Z" fill="#CBCBCB"/>
<path d="M529.179 92.1367C529.774 110.177 529.972 128.169 529.625 146.209C529.625 147.151 531.112 147.151 531.112 146.209C531.409 128.169 531.261 110.128 530.666 92.1367C530.666 91.1454 529.179 91.1454 529.179 92.1367Z" fill="#CBCBCB"/>
<path d="M530.319 92.3845C532.45 90.6003 536.068 91.3933 538.447 92.1367C539.339 92.4341 539.736 90.9968 538.844 90.6994C535.82 89.7577 531.855 89.163 529.278 91.3437C528.535 91.9384 529.575 92.9793 530.319 92.3845Z" fill="#CBCBCB"/>
<path d="M537.852 92.1367C537.951 109.93 538.05 127.673 538.149 145.466C538.149 146.408 539.636 146.408 539.636 145.466C539.537 127.673 539.438 109.93 539.339 92.1367C539.339 91.1454 537.852 91.1454 537.852 92.1367Z" fill="#CBCBCB"/>
<path d="M531.409 104.131C533.392 102.495 536.316 102.644 538.15 104.379C538.844 105.023 539.884 103.982 539.191 103.338C536.712 101.008 532.946 100.959 530.368 103.09C529.625 103.685 530.666 104.726 531.409 104.131Z" fill="#CBCBCB"/>
<path d="M530.765 98.4311C532.946 96.5477 536.068 96.4981 538.348 98.2329C539.141 98.8276 539.835 97.4894 539.091 96.9442C536.217 94.813 532.351 95.1104 529.674 97.3903C528.98 98.0346 530.071 99.0755 530.765 98.4311Z" fill="#CBCBCB"/>
<path d="M539.388 104.874C541.619 104.874 543.8 105.122 545.98 105.667C545.782 105.419 545.633 105.172 545.435 104.973C545.732 118.355 545.584 131.688 544.89 145.069C544.84 146.011 546.327 146.011 546.377 145.069C547.071 131.737 547.219 118.355 546.922 104.973C546.922 104.676 546.674 104.329 546.377 104.28C544.047 103.685 541.767 103.437 539.388 103.437C538.397 103.387 538.397 104.874 539.388 104.874Z" fill="#CBCBCB"/>
<path d="M539.736 118.95C541.718 117.661 544.097 117.612 546.129 118.801C546.972 119.297 547.715 118.008 546.873 117.513C544.394 116.026 541.371 116.075 538.992 117.661C538.199 118.157 538.943 119.446 539.736 118.95Z" fill="#CBCBCB"/>
<path d="M539.488 111.863C541.223 111.02 543.205 110.97 544.989 111.714C545.881 112.061 546.625 110.822 545.733 110.425C543.403 109.434 541.024 109.484 538.744 110.574C537.902 111.02 538.645 112.309 539.488 111.863Z" fill="#CBCBCB"/>
<path d="M550.193 145.218C550.193 144.376 549.648 141.303 550.144 140.708C550.838 139.865 554.654 140.163 555.645 140.113C559.065 139.915 562.534 139.766 565.954 139.717C572.843 139.618 579.732 139.865 586.572 140.411C586.324 140.163 586.076 139.915 585.829 139.667C586.126 141.897 586.275 144.128 586.225 146.408C586.225 147.349 587.712 147.349 587.712 146.408C587.712 144.128 587.613 141.897 587.315 139.667C587.266 139.221 587.018 138.973 586.572 138.924C578.097 138.279 569.523 138.081 561.048 138.379C559.065 138.428 557.132 138.527 555.15 138.676C553.712 138.775 551.036 138.478 549.698 139.122C547.765 140.014 548.657 143.632 548.707 145.268C548.707 146.16 550.193 146.209 550.193 145.218Z" fill="#CBCBCB"/>
<path d="M555.298 138.428C555.199 137.883 554.703 136.247 554.803 135.702C555.149 134.215 556.587 134.562 557.677 134.562C559.461 134.513 561.295 134.513 563.08 134.463C566.846 134.414 570.613 134.314 574.429 134.265C578.048 134.215 581.666 134.116 585.284 134.067C587.266 134.017 589.249 134.017 591.182 133.967C592.569 133.967 593.362 133.472 593.808 135.256C594.007 136.049 593.858 137.09 593.808 137.883C593.759 138.825 595.246 138.825 595.295 137.883C595.345 136.594 595.741 134.067 594.701 132.976C593.759 132.035 591.826 132.481 590.686 132.53C585.085 132.629 579.534 132.728 573.934 132.828C568.531 132.927 563.08 133.026 557.677 133.125C556.587 133.125 554.257 132.679 553.464 133.67C552.523 134.81 553.663 137.635 553.861 138.874C554.059 139.766 555.496 139.37 555.298 138.428Z" fill="#CBCBCB"/>
<path d="M586.275 140.361C588.505 140.411 590.785 140.46 593.015 140.311C594.106 140.212 595.196 139.816 595.097 138.527C594.998 137.585 593.511 137.585 593.61 138.527C593.66 139.072 586.919 138.924 586.275 138.874C585.333 138.825 585.333 140.311 586.275 140.361Z" fill="#CBCBCB"/>
<path d="M559.66 133.422C559.61 132.58 559.362 131.44 559.462 130.597C559.561 129.606 559.313 129.457 560.453 129.309C562.039 129.11 564.071 129.655 565.657 129.755C568.978 130.002 572.348 130.151 575.668 130.201C578.989 130.25 582.359 130.25 585.68 130.102C587.167 130.052 588.951 129.656 590.438 129.854C591.132 129.556 591.677 129.755 592.024 130.399C592.569 130.647 592.768 131.093 592.718 131.638C592.867 132.034 592.916 132.53 593.065 132.976C593.412 133.868 594.849 133.472 594.502 132.58C594.056 131.489 594.354 129.854 593.461 128.912C592.668 128.07 591.529 128.268 590.438 128.317C585.531 128.565 580.575 128.714 575.668 128.664C570.91 128.565 566.152 128.317 561.394 127.871C560.403 127.772 558.867 127.376 558.173 128.367C557.38 129.556 558.074 132.084 558.173 133.373C558.272 134.364 559.759 134.364 559.66 133.422Z" fill="#CBCBCB"/>
<path d="M597.674 182.489V204.544C597.674 205.486 599.161 205.486 599.161 204.544C599.161 197.209 599.161 189.824 599.161 182.489C599.161 181.547 597.674 181.547 597.674 182.489Z" fill="#CBCBCB"/>
<path d="M598.913 182.489H637.572C638.514 182.489 638.514 181.002 637.572 181.002C624.686 181.002 611.799 181.002 598.913 181.002C597.971 181.002 597.971 182.489 598.913 182.489Z" fill="#CBCBCB"/>
<path d="M636.878 181.994V204.049C636.878 204.99 638.365 204.99 638.365 204.049C638.365 196.714 638.365 189.329 638.365 181.994C638.365 181.052 636.878 181.052 636.878 181.994Z" fill="#CBCBCB"/>
<path d="M598.418 205.783H637.076C638.018 205.783 638.018 204.297 637.076 204.297C624.19 204.297 611.304 204.297 598.418 204.297C597.476 204.297 597.476 205.783 598.418 205.783Z" fill="#CBCBCB"/>
<path d="M615.269 181.002C615.269 179.714 615.368 178.524 615.715 177.285C615.864 176.74 616.062 175.897 616.409 175.501C616.557 175.005 616.904 174.856 617.499 175.055C618.292 174.708 618.689 174.956 618.738 175.848C619.333 177.929 619.432 180.308 619.729 182.489C619.878 183.431 621.315 183.034 621.167 182.093C620.869 179.912 620.77 177.582 620.175 175.451C619.878 174.262 618.986 173.023 617.648 172.924C614.327 172.725 613.732 178.772 613.732 181.002C613.832 181.944 615.318 181.944 615.269 181.002Z" fill="#CBCBCB"/>
<path d="M600.103 185.711V202.066C600.103 203.008 601.59 203.008 601.59 202.066C601.59 196.614 601.59 191.163 601.59 185.711C601.59 184.769 600.103 184.769 600.103 185.711Z" fill="#CBCBCB"/>
<path d="M601.639 185.711H635.342C636.284 185.711 636.284 184.224 635.342 184.224C624.091 184.224 612.84 184.224 601.639 184.224C600.697 184.224 600.697 185.711 601.639 185.711Z" fill="#CBCBCB"/>
<path d="M634.4 185.215V202.562C634.4 203.504 635.886 203.504 635.886 202.562C635.886 196.763 635.886 191.014 635.886 185.215C635.886 184.273 634.4 184.273 634.4 185.215Z" fill="#CBCBCB"/>
<path d="M601.144 202.81H633.36C634.301 202.81 634.301 201.323 633.36 201.323C622.604 201.323 611.849 201.323 601.144 201.323C600.202 201.323 600.202 202.81 601.144 202.81Z" fill="#CBCBCB"/>
<path d="M602.531 196.218C603.622 194.632 604.613 194.285 605.455 195.078C605.604 195.177 605.703 195.276 605.852 195.375C606.199 195.524 606.447 195.772 606.794 195.871C607.388 196.069 608.082 196.02 608.677 195.772C609.123 195.574 609.52 195.227 609.668 194.731C609.916 193.938 609.321 193.789 609.272 193.096C609.024 192.798 609.123 192.501 609.569 192.104C609.668 190.964 610.362 190.717 611.552 191.41C611.849 191.41 612.146 191.51 612.394 191.46C613.286 191.311 613.385 191.014 614.03 190.469C616.111 188.784 618.441 189.626 618.986 192.303C619.036 192.649 619.283 194.929 618.887 195.177C618.49 194.682 618.094 194.235 617.697 193.74C618.986 193.938 619.928 194.632 620.473 195.722C620.77 196.218 621.415 196.168 621.762 195.722C622.753 194.682 623.744 194.632 624.735 195.623C625.082 195.276 625.429 194.929 625.776 194.582C625.38 194.235 625.033 193.889 624.636 193.542C623.348 192.451 623.447 191.212 624.983 189.775C627.065 189.874 628.155 191.906 627.263 193.74C626.123 195.97 623.397 196.268 621.167 196.069V197.556C624.388 197.754 627.659 197.953 630.881 198.151C631.823 198.2 631.823 196.714 630.881 196.664C627.659 196.466 624.388 196.268 621.167 196.069C620.225 196.02 620.225 197.457 621.167 197.556C623.744 197.804 626.569 197.308 628.205 195.028C629.493 193.195 629.394 190.419 627.511 188.982C626.073 187.891 623.893 188.09 622.703 189.527C620.919 191.757 623.001 194.186 624.686 195.673C625.38 196.317 626.42 195.326 625.727 194.632C624.141 192.947 621.712 193.244 620.423 195.028H621.712C620.473 192.996 618.143 191.51 615.814 192.749C614.03 193.74 613.385 196.317 615.021 197.804C616.706 199.34 619.135 198.151 620.027 196.416C621.018 194.434 620.82 191.311 619.383 189.527C617.945 187.743 615.418 187.545 613.633 188.883C612.394 189.824 613.138 189.973 611.056 189.824C610.362 189.775 609.767 189.626 609.074 189.824C608.33 190.023 607.636 190.469 607.289 191.212C607.042 191.757 606.942 192.253 607.19 192.848C607.24 193.046 607.785 193.492 607.735 193.641C607.537 194.731 604.662 192.749 604.167 192.649C601.937 192.303 600.45 194.682 601.094 196.614C601.391 197.507 602.829 197.16 602.531 196.218Z" fill="#CBCBCB"/>
<path d="M645.006 154.338V171.387C645.006 172.329 646.493 172.329 646.493 171.387C646.493 165.687 646.493 160.037 646.493 154.338C646.493 153.396 645.006 153.396 645.006 154.338Z" fill="#CBCBCB"/>
<path d="M646.592 154.239H673.951C674.893 154.239 674.893 152.752 673.951 152.752C664.831 152.752 655.712 152.752 646.592 152.752C645.601 152.752 645.601 154.239 646.592 154.239Z" fill="#CBCBCB"/>
<path d="M646.146 172.577H673.505C674.446 172.577 674.446 171.09 673.505 171.09C664.385 171.09 655.266 171.09 646.146 171.09C645.204 171.09 645.204 172.577 646.146 172.577Z" fill="#CBCBCB"/>
<path d="M646.691 154.982V171.189C646.691 172.131 648.178 172.131 648.178 171.189C648.178 165.787 648.178 160.384 648.178 154.982C648.178 153.991 646.691 153.991 646.691 154.982Z" fill="#CBCBCB"/>
<path d="M647.237 171.288H673.356C674.298 171.288 674.298 169.801 673.356 169.801C664.633 169.801 655.96 169.801 647.237 169.801C646.246 169.801 646.246 171.288 647.237 171.288Z" fill="#CBCBCB"/>
<path d="M647.633 155.279H672.91C673.852 155.279 673.852 153.792 672.91 153.792C664.485 153.792 656.059 153.792 647.633 153.792C646.692 153.792 646.692 155.279 647.633 155.279Z" fill="#CBCBCB"/>
<path d="M652.441 167.373C656.554 165.39 661.213 164.448 665.377 166.877C666.219 167.373 666.963 166.084 666.12 165.588C661.511 162.862 656.307 163.854 651.697 166.084C650.805 166.48 651.598 167.769 652.441 167.373Z" fill="#CBCBCB"/>
<path d="M652.441 165.291C651.549 164.201 653.829 163.854 654.126 163.259C654.374 162.813 654.027 161.425 654.176 161.475C654.622 161.574 655.117 161.276 655.117 160.781C655.068 158.451 657.595 162.168 657.496 162.02C657.794 162.367 658.091 162.714 658.587 162.912C659.281 163.209 660.767 162.416 661.164 162.714C661.61 163.11 662.205 162.912 662.403 162.367C662.8 162.218 663.196 162.069 663.642 161.97C663.592 162.615 664.485 162.961 664.931 162.515C666.269 163.556 666.467 164.399 665.476 164.994C664.732 165.638 665.823 166.679 666.517 166.034C667.805 164.944 668.697 163.061 667.508 161.524C666.517 160.236 664.881 160.335 663.84 161.475C664.286 161.673 664.683 161.822 665.129 162.02C665.228 160.929 664.584 160.037 663.394 159.938C662.106 159.839 661.362 160.929 660.966 162.02C661.362 161.921 661.808 161.822 662.205 161.673C661.362 160.979 661.213 161.276 660.272 161.227C657.744 161.128 658.488 159.542 656.852 158.6C655.216 157.658 653.631 159.096 653.631 160.781C653.928 160.533 654.275 160.285 654.572 160.087C653.829 159.938 652.937 159.889 652.441 160.533C651.896 161.227 652.738 161.772 652.54 162.268C652.243 163.061 650.805 162.813 650.459 163.854C650.112 164.845 650.805 165.737 651.4 166.431C651.995 167.125 653.036 166.034 652.441 165.291Z" fill="#CBCBCB"/>
<path d="M658.388 152.256C658.091 151.612 657.942 150.967 658.091 150.274C658.141 149.827 658.537 148.39 659.231 148.588C659.727 148.737 660.222 150.026 660.321 150.472C660.569 151.265 660.619 152.008 660.519 152.851C660.42 153.792 661.907 153.792 662.006 152.851C662.155 151.513 661.957 150.224 661.312 149.034C660.817 148.043 659.875 146.705 658.587 147.102C657.596 147.399 656.951 148.638 656.703 149.58C656.406 150.769 656.555 151.959 657.1 153.049C657.546 153.892 658.785 153.148 658.388 152.256Z" fill="#CBCBCB"/>
<path d="M647.188 179.862V202.612C647.188 203.553 648.674 203.553 648.674 202.612C648.674 195.028 648.674 187.445 648.674 179.862C648.674 178.871 647.188 178.871 647.188 179.862Z" fill="#CBCBCB"/>
<path d="M647.931 179.317H670.977C671.919 179.317 671.919 177.83 670.977 177.83C663.295 177.83 655.613 177.83 647.931 177.83C646.94 177.83 646.94 179.317 647.931 179.317Z" fill="#CBCBCB"/>
<path d="M648.525 204.297H670.333C671.275 204.297 671.275 202.81 670.333 202.81C663.047 202.81 655.811 202.81 648.525 202.81C647.583 202.81 647.583 204.297 648.525 204.297Z" fill="#CBCBCB"/>
<path d="M655.316 187.445C654.969 190.32 656.802 193.442 659.875 193.789C663.097 194.136 665.476 191.658 665.377 188.536C665.327 187.594 663.84 187.594 663.89 188.536C663.989 190.865 662.205 192.749 659.776 192.253C657.546 191.807 656.604 189.527 656.802 187.445C656.902 186.504 655.415 186.504 655.316 187.445Z" fill="#CBCBCB"/>
<path d="M660.321 193.442C660.222 194.136 660.668 194.682 660.47 195.326C660.173 196.317 658.884 197.259 658.24 198.002C657.149 199.291 656.356 200.579 656.307 202.314C656.257 203.256 657.744 203.256 657.794 202.314C657.893 200.034 659.826 198.696 661.114 197.011C661.511 196.515 661.907 195.97 662.056 195.375C662.205 194.682 661.709 194.136 661.808 193.442C661.907 192.501 660.42 192.501 660.321 193.442Z" fill="#CBCBCB"/>
<path d="M656.901 193.393C655.167 193.294 651.895 192.203 652.688 189.775C653.085 188.486 654.72 188.437 655.414 187.545C656.356 186.405 655.563 185.76 654.82 184.918C654.126 184.125 652.688 183.827 654.621 182.093C655.712 181.101 657.496 182.34 658.388 183.084C658.933 183.579 659.032 184.125 659.776 184.472C660.271 184.719 660.916 184.819 661.461 184.62C662.353 184.224 663.344 181.597 664.286 184.868C664.385 185.265 664.831 185.512 665.178 185.364C665.228 186.405 665.277 187.396 665.277 188.437C664.683 189.18 665.723 190.221 666.318 189.477C667.26 188.288 668.35 186.801 667.656 185.215C667.111 184.026 665.922 183.58 664.732 183.926C665.03 184.075 665.327 184.273 665.624 184.422C665.228 183.084 664.584 181.696 663.047 181.597C662.551 181.547 662.105 181.647 661.709 181.894C661.808 181.845 661.114 182.638 661.114 182.638C660.073 183.183 659.776 182.241 659.181 181.647C658.14 180.507 657.298 179.862 655.613 180.11C654.324 180.308 652.49 181.2 652.044 182.539C651.499 184.125 652.837 184.571 653.432 185.76C654.076 186.008 654.076 186.305 653.382 186.652C653.234 186.95 653.035 187.098 652.787 187.198C652.589 187.346 652.292 187.445 652.094 187.644C651.697 188.09 651.4 188.536 651.201 189.081C650.062 192.699 653.779 194.632 656.753 194.83C657.843 194.929 657.843 193.442 656.901 193.393Z" fill="#CBCBCB"/>
<path d="M657.447 178.425C657.397 177.682 657.149 176.343 658.041 175.897C658.983 175.451 658.834 176.889 658.735 177.384C658.537 178.326 659.974 178.722 660.172 177.781C660.321 176.988 660.42 176.096 660.024 175.352C659.627 174.658 658.884 174.262 658.141 174.361C656.109 174.609 655.861 176.789 656.01 178.425C656.01 179.367 657.496 179.367 657.447 178.425Z" fill="#CBCBCB"/>
<path d="M649.021 179.714V201.571C649.021 202.512 650.508 202.512 650.508 201.571C650.508 194.285 650.508 186.999 650.508 179.714C650.508 178.722 649.021 178.722 649.021 179.714Z" fill="#CBCBCB"/>
<path d="M649.913 202.661H669.688C670.63 202.661 670.63 201.174 669.688 201.174C663.096 201.174 656.505 201.174 649.913 201.174C648.971 201.174 648.971 202.661 649.913 202.661Z" fill="#CBCBCB"/>
<path d="M650.26 179.912H669.837C670.779 179.912 670.779 178.425 669.837 178.425C663.295 178.425 656.802 178.425 650.26 178.425C649.319 178.425 649.319 179.912 650.26 179.912Z" fill="#CBCBCB"/>
<path d="M373.305 447.748C369.984 445.071 365.474 444.526 361.806 446.36C357.494 448.541 355.165 453.646 356.255 458.751C357.147 465.541 358.04 472.38 358.932 479.17C340.841 487.447 332.217 492.85 332.961 495.328C333.853 498.351 348.524 497.062 377.022 491.561C375.783 476.94 374.544 462.369 373.305 447.748Z" fill="#191919"/>
<path d="M361.211 286.868C360.518 296.83 359.378 312.987 357.445 333.01C355.066 358.139 354.074 383.465 350.704 408.494C347.235 434.465 343.419 452.258 352.191 458.453C355.363 460.683 359.179 460.683 361.905 460.337C364.78 459.593 367.655 458.8 370.529 458.057C373.354 459.444 377.171 460.783 380.243 459.197C389.264 454.587 380.739 430.946 381.383 397.045C381.829 374.693 386.141 352.389 391.891 323.098C396.252 300.745 399.573 289.148 393.378 283.448C385.844 276.46 369.141 283.151 361.211 286.868Z" fill="white" stroke="#161616" stroke-width="2" stroke-miterlimit="10"/>
<path opacity="0.14" d="M375.436 282.209C377.319 290.982 379.451 304.264 379.302 320.422C379.054 346.491 372.958 362.946 368.547 382.523C364.532 400.267 360.666 426.138 362.401 459.494C365.028 458.998 367.704 458.453 370.331 457.958C370.926 458.404 373.354 460.039 376.725 459.742C377.22 459.692 380.491 459.345 382.623 456.917C385.249 453.943 384.704 449.532 384.407 447.401C383.267 438.133 383.019 428.765 382.077 419.447C381.086 409.634 381.235 402.001 381.284 397.392C381.334 393.923 381.582 387.43 382.821 376.873C385.002 358.486 386.984 355.363 391.296 328.649C394.567 308.527 393.13 312.194 394.369 307.635C395.509 303.57 397.442 297.672 396.401 290.189C395.905 286.67 395.013 284.687 393.576 283.25C390.602 280.326 386.191 280.375 383.564 280.425C380.045 280.474 377.171 281.466 375.436 282.209Z" fill="#6D6C6C"/>
<path opacity="0.1" d="M389.561 332.763C385.844 340.99 381.929 351.795 379.55 364.83C375.386 387.827 379.5 399.523 375.981 424.106C374.692 433.176 372.264 444.576 367.506 457.462C369.29 457.71 371.074 457.957 372.908 458.255C375.585 459.196 378.955 459.89 381.383 458.255C385.745 455.331 384.258 446.756 383.168 436.695C383.168 436.695 381.829 424.304 381.631 400.762C381.532 387.727 382.722 378.112 384.456 364.086C385.993 351.497 387.876 340.841 389.561 332.763Z" fill="#6D6C6C"/>
<path d="M435.853 443.981C432.532 441.305 428.022 440.759 424.354 442.593C420.042 444.774 417.713 449.879 418.803 454.984C419.695 461.774 420.587 468.613 421.479 475.404C403.389 483.68 394.765 489.083 395.509 491.561C396.401 494.584 411.071 493.296 439.57 487.794C438.281 473.173 437.042 458.602 435.853 443.981Z" fill="#191919"/>
<path d="M417.366 285.331C420.24 308.874 423.313 333.159 426.585 358.386C428.815 375.733 429.36 379.847 431.095 386.587C434.068 398.284 438.083 408.246 441.552 426.337C443.188 434.762 444.031 441.602 440.115 446.756C437.191 450.622 431.491 453.695 430.203 452.506C429.657 451.96 430.004 450.573 430.5 449.334C429.31 450.474 421.777 457.561 415.78 455.083C412.261 453.646 410.824 449.532 410.13 447.302C403.092 425.742 401.952 404.133 401.952 404.133C401.506 395.806 400.415 387.281 398.284 370.182C396.698 357.643 393.725 339.503 387.331 317.448C386.389 316.853 377.171 310.707 376.576 299.358C376.526 298.515 376.179 289.941 381.582 284.142C388.719 276.46 403.984 275.914 417.366 285.331Z" fill="white" stroke="#161616" stroke-width="2" stroke-miterlimit="10"/>
<path d="M377.369 291.279C375.585 296.433 375.089 302.232 377.914 307.139C380.343 311.352 384.258 315.961 389.016 317.448C389.908 317.745 390.305 316.308 389.413 316.01C385.051 314.672 381.383 310.261 379.203 306.395C376.576 301.836 377.171 296.483 378.806 291.675C379.153 290.783 377.716 290.387 377.369 291.279Z" fill="white"/>
<path d="M375.882 300.497C376.328 308.229 381.284 314.672 388.818 316.804C389.76 317.051 390.156 315.614 389.214 315.366C382.375 313.433 377.815 307.585 377.369 300.497C377.319 299.556 375.832 299.556 375.882 300.497Z" fill="white"/>
<path opacity="0.14" d="M397.838 278.888C399.127 282.754 401.109 288.999 403.29 296.731C409.634 319.133 420.587 357.94 421.281 404.628C421.38 412.41 421.678 452.01 425.246 452.208C426.089 452.258 427.476 450.077 429.36 450.573C430.648 450.92 430.698 452.109 431.838 452.555C434.316 453.497 438.43 449.234 440.412 446.112C441.106 445.022 442.692 442.544 443.039 439.025C443.237 437.439 443.089 436.299 442.543 432.928C441.75 427.724 441.354 425.147 441.057 423.858C438.925 413.797 435.109 404.133 431.987 390.503C430.648 384.754 429.756 379.599 428.666 373.652C428.319 371.768 427.377 366.267 426.337 359.427C424.007 343.766 423.264 333.01 421.727 319.282C420.885 311.798 419.596 301.241 417.614 288.404C417.118 287.314 416.226 285.629 414.64 284.092C414.095 283.597 412.41 282.06 407.85 280.623C405.619 279.83 402.2 278.987 397.838 278.888Z" fill="#6D6C6C"/>
<path opacity="0.2" d="M430.054 383.118C432.78 395.806 434.614 406.66 435.853 415.185C437.835 429.063 437.934 434.118 435.357 439.471C431.491 447.549 423.462 452.357 423.958 453.001C424.156 453.249 425.445 452.753 429.905 449.879C430.054 451.068 430.401 452.406 431.392 452.853C433.92 453.943 439.52 448.491 441.949 443.287C445.27 436.1 442.841 428.716 440.611 421.628C437.835 412.657 434.118 399.87 430.054 383.118Z" fill="#6D6C6C"/>
<path d="M364.136 201.075C359.279 200.431 354.818 206.775 346.145 219.413C340.197 228.037 336.034 235.62 333.308 240.874C327.41 240.576 321.512 240.279 315.614 239.932C310.113 239.635 304.611 239.337 299.11 238.99C296.929 238.247 293.658 237.156 289.643 236.215C283.151 234.629 269.719 232.002 268.877 234.331C268.629 235.075 269.521 236.611 275.27 240.229C274.874 241.221 273.436 245.384 275.27 250.191C275.567 250.935 277.203 254.949 281.069 257.031C286.025 259.658 292.865 258.221 297.871 253.314C301.736 255.643 322.701 267.885 342.427 259.509C348.87 256.783 353.381 252.62 357.395 248.952C364.681 242.261 374.246 233.489 374.494 221.296C374.692 212.474 370.034 201.868 364.136 201.075Z" fill="white" stroke="#161616" stroke-width="2" stroke-miterlimit="10"/>
<path d="M268.48 234.926C270.413 236.859 272.296 238.941 274.477 240.576C276.608 242.162 279.037 243.054 281.515 243.897C282.209 244.145 282.506 243.054 281.812 242.807C279.186 241.915 276.658 240.923 274.477 239.139C272.594 237.603 270.958 235.818 269.273 234.133C268.778 233.638 267.985 234.431 268.48 234.926Z" fill="#161616"/>
<path d="M291.923 240.031C290.04 240.725 288.305 241.815 286.967 243.302C286.025 244.343 284.637 245.979 284.984 247.465C285.331 249.151 287.413 249.151 288.801 249.151C291.031 249.101 293.162 248.457 295.095 247.317C295.69 246.97 295.145 245.979 294.55 246.375C293.311 247.119 291.973 247.664 290.535 247.912C289.296 248.11 285.678 248.556 286.322 246.226C286.967 243.847 290.139 241.914 292.27 241.122C292.865 240.874 292.567 239.783 291.923 240.031Z" fill="#161616"/>
<path d="M274.626 241.121C273.585 244.442 273.585 247.664 277.154 249.25C279.78 250.439 283.597 249.845 284.935 247.019C285.232 246.375 284.291 245.83 283.993 246.474C282.903 248.804 279.78 249.2 277.6 248.209C274.576 246.871 274.874 244.145 275.716 241.419C275.915 240.725 274.874 240.428 274.626 241.121Z" fill="#161616"/>
<path d="M274.378 248.457C274.576 251.282 276.311 254.057 279.285 254.603C281.912 255.098 284.34 253.512 285.282 251.133C285.53 250.489 284.489 250.191 284.191 250.836C283.398 252.818 281.168 254.008 279.037 253.413C276.856 252.769 275.617 250.588 275.468 248.457C275.468 247.763 274.328 247.763 274.378 248.457Z" fill="#161616"/>
<path d="M285.084 251.678C288.949 250.985 287.661 257.874 284.836 257.626C284.142 257.576 284.142 258.667 284.836 258.766C287.215 258.964 288.503 256.04 288.652 254.057C288.801 251.877 286.917 250.291 284.786 250.687C284.092 250.737 284.39 251.778 285.084 251.678Z" fill="#161616"/>
<path d="M284.786 247.664C284.786 247.614 284.836 247.614 284.836 247.565C284.637 247.614 284.489 247.664 284.29 247.713C284.687 247.812 284.737 249.101 284.687 249.349C284.637 249.993 284.39 250.588 283.894 251.084C283.398 251.579 284.191 252.372 284.687 251.877C285.43 251.133 285.827 250.092 285.777 249.002C285.728 248.209 285.48 246.821 284.538 246.623C284.34 246.573 284.142 246.623 283.993 246.772C283.993 246.821 283.944 246.821 283.944 246.871C283.547 247.416 284.29 248.209 284.786 247.664Z" fill="#161616"/>
<path d="M282.11 243.996C283.299 244.046 284.043 245.186 283.745 246.326C283.547 247.02 284.638 247.317 284.836 246.623C285.331 244.789 284.092 242.955 282.159 242.906C281.366 242.856 281.366 243.996 282.11 243.996Z" fill="#161616"/>
<path opacity="0.12" d="M371.471 209.055C370.034 213.267 367.655 218.967 363.888 225.212C360.022 231.606 355.71 238.693 347.334 244.641C344.261 246.821 334.993 253.264 321.264 253.76C308.328 254.206 298.812 249.151 295.046 246.871C292.072 249.101 290.04 249.25 288.702 248.952C287.512 248.655 287.066 248.06 284.984 247.416C283.2 246.871 281.763 246.772 280.97 246.722C278.095 246.524 275.121 246.326 274.328 247.664C273.288 249.498 276.658 253.413 279.285 255.544C280.474 256.486 282.556 258.122 285.48 258.568C292.369 259.658 297.474 253.661 297.771 253.314C299.457 254.355 301.885 255.792 304.958 257.18C309.964 259.509 317.051 262.731 326.468 262.681C337.174 262.681 344.905 258.468 346.491 257.576C348.375 256.486 351.894 253.413 358.882 247.218C365.375 241.469 367.754 238.941 369.934 235.471C371.223 233.439 372.859 230.813 373.8 227.194C375.832 219.463 373.106 212.425 371.471 209.055Z" fill="#6D6C6C"/>
<path opacity="0.15" d="M374.098 215.002C373.156 218.273 371.521 222.883 368.696 227.987C366.069 232.745 359.13 244.987 344.41 252.521C340.048 254.751 332.515 258.518 322.057 258.32C310.459 258.072 302.133 253.116 298.614 250.737C296.631 251.976 293.658 253.562 289.792 254.603C284.637 255.941 280.92 255.495 280.821 256.238C280.722 256.982 284.29 258.568 288.008 258.468C293.212 258.32 296.879 254.9 298.217 253.512C301.637 255.99 314.424 264.713 331.177 262.483C344.112 260.748 352.29 253.463 359.477 247.019C364.83 242.212 371.025 236.512 373.404 226.996C374.643 222.139 374.445 217.877 374.098 215.002Z" fill="#6D6C6C"/>
<path d="M358.882 201.273C357.891 202.413 356.156 204.842 354.669 216.439C352.687 232.2 353.727 244.69 354.669 254.008C355.76 265.06 357.296 278.393 359.526 293.559C368.15 296.235 382.474 299.258 399.672 296.532C407.453 295.293 414.095 293.162 419.447 290.932C418.307 278.541 418.456 268.53 418.803 261.938C420.488 227.888 422.025 218.422 422.025 218.422C423.165 211.632 424.205 207.419 421.678 203.603C419.15 199.687 414.342 198.349 399.028 197.358C375.783 195.772 364.086 195.128 358.882 201.273Z" fill="#FFBA15"/>
<path opacity="0.14" d="M392.337 197.457C393.873 202.909 395.162 208.708 396.252 214.853C401.902 247.168 397.937 275.815 392.337 297.177C395.211 296.978 398.235 296.632 401.456 296.086C408.296 294.946 414.293 293.162 419.249 291.328C418.555 281.465 418.357 273.04 418.357 266.349C418.407 247.664 420.042 233.39 420.736 227.69C421.628 220.751 422.57 214.953 423.363 210.74C423.561 209.55 423.759 207.37 422.719 205.09C421.529 202.463 419.299 201.075 418.357 200.53C415.135 198.597 411.864 198.597 410.08 198.597C405.818 198.448 400.168 198.2 392.337 197.457Z" fill="#6D6C6C"/>
<path opacity="0.16" d="M422.966 209.154C414.194 231.903 412.36 248.159 412.558 259.113C412.608 263.226 413.054 273.089 407.8 283.448C404.579 289.742 400.366 294.153 397.144 296.929C400.118 296.532 403.389 295.938 406.908 294.996C411.418 293.807 415.334 292.32 418.654 290.882C418.208 278.095 418.258 264.218 419.1 249.399C419.844 234.926 421.232 221.495 422.966 209.154Z" fill="#6D6C6C"/>
<path d="M416.226 201.422C422.322 198.746 430.599 206.576 435.952 211.582C441.8 217.084 453.646 228.235 454.24 246.474C454.736 261.69 447.153 272.693 443.386 277.302C437.488 284.489 430.797 288.256 426.832 290.089C426.783 291.774 426.535 294.451 425.395 297.375C424.751 298.961 421.479 307.288 415.235 307.634C414.392 307.684 411.517 307.684 408.197 304.562C407.998 304.562 407.007 304.413 406.363 303.521C405.768 302.678 405.719 301.439 406.313 300.448C406.165 300.349 404.876 299.704 404.579 298.168C404.232 296.483 405.372 295.244 405.471 295.194C405.52 294.352 405.719 293.261 406.512 292.716C407.404 292.121 408.345 292.617 409.783 292.518C410.724 292.419 412.063 292.072 413.649 290.684C411.864 290.188 407.85 288.9 407.949 287.463C407.998 285.777 413.797 284.786 415.086 284.538C418.258 283.993 420.984 284.092 422.818 284.241C423.908 282.258 425.494 279.334 427.377 275.815C430.549 269.868 432.135 266.894 433.077 264.763C434.861 260.798 436.844 254.801 437.389 246.425C435.159 244.244 431.739 241.122 427.377 237.702C417.961 230.366 414.789 230.218 412.211 226.055C407.354 218.273 409.684 204.297 416.226 201.422Z" fill="white" stroke="#161616" stroke-width="2" stroke-miterlimit="10"/>
<path d="M404.975 294.6C405.768 298.465 411.716 297.573 414.095 296.185C414.689 295.839 414.144 294.847 413.55 295.244C411.815 296.285 406.66 297.425 406.066 294.352C405.917 293.608 404.827 293.906 404.975 294.6Z" fill="#161616"/>
<path d="M405.57 300.795C408.544 302.926 412.905 301.935 416.028 300.497C416.672 300.2 416.127 299.258 415.482 299.556C412.707 300.795 408.791 301.687 406.165 299.853C405.57 299.407 405.025 300.398 405.57 300.795Z" fill="#161616"/>
<path d="M407.8 305.156C410.873 306.643 414.442 306.445 417.267 304.462C417.861 304.066 417.316 303.075 416.721 303.521C414.243 305.255 411.121 305.553 408.395 304.215C407.751 303.868 407.156 304.809 407.8 305.156Z" fill="#161616"/>
<path opacity="0.18" d="M414.095 203.305C413.103 206.676 424.701 209.897 434.861 220.801C438.38 224.568 445.567 232.25 447.252 243.649C449.383 257.775 441.998 269.075 439.272 273.139C434.019 281.118 427.625 285.827 423.759 288.255C423.759 289.643 423.561 294.699 419.695 298.961C418.902 299.853 415.78 303.273 411.22 303.769C408.593 304.066 406.214 303.322 406.115 303.62C406.066 303.917 407.899 304.314 410.278 305.949C411.815 306.99 411.864 307.436 412.608 307.783C415.681 309.22 420.538 304.859 421.083 304.413C426.138 299.804 426.733 292.964 426.832 290.436C427.972 289.792 429.509 288.9 431.293 287.71C433.127 286.471 438.529 282.903 442.791 278.194C443.931 276.955 449.73 270.363 452.555 259.807C453.546 256.089 456.272 245.334 451.911 233.588C449.978 228.483 447.5 225.162 443.039 219.364C439.074 214.16 436.15 211.582 430.5 206.576C426.436 202.958 424.007 201.273 420.736 201.075C418.506 200.926 414.64 201.472 414.095 203.305Z" fill="#6D6C6C"/>
<path opacity="0.18" d="M448.045 226.005C449.73 230.168 452.159 237.751 451.812 247.416C451.465 257.923 448.045 265.556 446.707 268.183C440.561 280.573 430.847 287.215 426.089 289.99C429.955 288.553 435.555 285.827 440.858 280.722C456.372 265.754 454.092 244.641 453.893 243.154C453.001 235.719 450.325 229.92 448.045 226.005Z" fill="#6D6C6C"/>
<path d="M391.246 163.259C394.22 173.221 395.311 179.02 399.523 188.139C401.506 192.402 403.389 195.772 404.727 198.002C400.415 200.034 393.427 202.661 384.456 203.008C379.153 203.206 374.593 202.512 371.074 201.719C371.421 198.993 371.62 195.574 371.372 191.708C371.025 186.851 369.984 182.737 368.993 179.714C364.235 179.119 359.427 178.475 354.669 177.88C353.728 175.798 352.786 173.667 351.844 171.585C350.556 171.536 349.217 171.486 347.929 171.437C348.92 168.562 350.407 164.052 352.142 158.451C355.363 147.895 355.314 146.408 357.048 144.029C361.856 137.536 372.611 133.373 379.698 136.892C383.911 138.924 386.389 147.052 391.246 163.259Z" fill="white" stroke="#161616" stroke-width="2" stroke-miterlimit="10"/>
<path d="M348.028 172.23C350.506 172.279 352.935 172.081 355.363 171.734C356.305 171.585 355.908 170.148 354.967 170.297C352.637 170.644 350.357 170.792 348.028 170.743C347.086 170.743 347.086 172.23 348.028 172.23Z" fill="#161616"/>
<path d="M347.086 153.297C348.474 152.553 350.308 152.95 351.2 154.238C351.745 155.031 353.034 154.288 352.488 153.495C351.101 151.513 348.474 150.868 346.343 152.008C345.5 152.454 346.244 153.743 347.086 153.297Z" fill="#161616"/>
<path d="M358.783 155.031C360.567 154.486 362.5 155.081 363.541 156.667C364.086 157.46 365.375 156.717 364.83 155.924C363.392 153.842 360.815 152.851 358.386 153.644C357.494 153.892 357.841 155.329 358.783 155.031Z" fill="#161616"/>
<path d="M359.13 160.583C359.08 160.037 359.179 159.492 359.477 158.996C359.526 158.897 359.626 158.749 359.725 158.65C359.526 158.402 359.427 158.352 359.477 158.6C359.378 158.699 359.427 159.195 359.378 159.343C359.328 159.591 359.229 159.839 359.13 160.087C359.08 160.186 359.031 160.285 358.981 160.335C359.229 160.781 359.378 160.83 359.477 160.483C359.675 160.285 359.774 159.839 359.923 159.591C360.072 159.294 360.22 158.997 360.369 158.699C360.766 157.956 359.824 157.212 359.179 157.807C358.832 158.154 358.634 158.501 358.486 158.947C358.238 159.889 359.675 160.285 359.923 159.343C359.973 159.096 360.072 158.996 360.22 158.848C359.824 158.55 359.427 158.253 359.031 157.956C358.684 158.65 358.287 159.343 357.99 160.087C357.742 160.632 357.792 161.276 358.337 161.623C359.675 162.466 360.518 160.731 360.766 159.69C360.964 158.699 360.964 156.617 359.328 157.064C358.039 157.46 357.544 159.343 357.593 160.483C357.692 161.524 359.179 161.524 359.13 160.583Z" fill="#161616"/>
<path d="M355.314 146.606C355.661 144.475 356.503 140.906 358.833 137.239C359.675 135.95 361.41 133.224 364.235 131.39C369.637 127.871 377.914 128.169 383.911 132.481C389.809 136.693 392.733 144.227 391.445 151.76C379.451 150.075 367.357 148.341 355.314 146.606Z" fill="#2F4EBB"/>
<path d="M335.588 146.755C354.174 149.084 372.71 151.413 391.296 153.743C394.121 154.09 394.121 149.629 391.296 149.282C372.71 146.953 354.174 144.623 335.588 142.294C332.713 141.947 332.763 146.408 335.588 146.755Z" fill="#161616"/>
<path d="M379.451 151.265C376.179 152.454 374.246 154.734 372.066 157.361C367.407 163.011 368.795 165.093 365.523 168.612C360.319 174.212 355.016 170.891 350.357 176.393C346.392 181.052 346.937 187.346 347.086 188.784C347.235 190.171 347.929 195.772 352.538 199.638C356.553 202.958 361.905 203.702 362.252 202.958C362.351 202.711 361.955 202.017 358.981 200.034C359.824 200.629 361.211 201.372 362.946 201.719C364.978 202.066 366.911 201.719 366.911 201.422C366.911 201.174 365.821 201.224 364.978 200.332C364.483 199.786 364.284 199.192 364.136 198.646C365.771 199.687 367.803 200.629 369.736 200.034C375.039 198.448 375.981 186.702 376.279 182.786C377.27 170.198 373.652 163.308 378.063 158.848C378.41 158.451 380.194 156.667 382.176 157.064C384.655 157.51 386.538 161.326 385.745 163.854C385.051 166.034 382.573 166.629 382.722 167.075C382.969 167.571 387.133 166.778 390.652 164.002C391.94 163.011 392.981 162.169 393.526 160.682C394.468 158.055 393.378 155.081 391.891 153.297C388.818 149.728 383.019 149.976 379.451 151.265Z" fill="#161616" stroke="#161616" stroke-width="2" stroke-miterlimit="10"/>
<path opacity="0.22" d="M384.357 167.521C383.564 167.62 382.424 167.62 382.375 167.373C382.325 167.224 382.622 167.026 382.622 167.026C382.622 167.026 381.681 168.215 380.491 168.364C379.946 168.413 379.45 168.265 379.104 168.066C381.185 172.477 383.316 177.781 385.15 183.926C387.133 190.667 388.273 196.763 388.917 202.017C391.048 202.017 394.071 201.769 397.541 200.679C400.366 199.786 402.596 198.597 404.281 197.556C399.821 190.568 397.541 184.967 396.252 181.151C395.657 179.367 394.369 175.154 393.774 173.072C392.634 169.305 391.692 166.183 391.098 164.101C390.8 164.399 390.255 164.845 389.611 165.291C388.669 165.985 386.835 167.273 384.357 167.521Z" fill="#6D6C6C"/>
<path d="M371.025 129.209C375.832 130.151 379.45 134.017 380.045 138.527C380.69 143.929 376.725 147.647 376.328 147.944C381.483 148.588 386.588 149.183 391.742 149.827C391.841 148.638 391.891 147.002 391.544 145.119C390.553 139.072 386.984 135.306 386.241 134.562C385.051 133.373 380.838 129.358 374.544 129.011C373.106 128.962 371.867 129.11 371.025 129.209Z" fill="#1B348C"/>
<path d="M261.938 346.145C262.186 348.821 262.384 351.547 262.632 354.223L514.954 354.669C515.698 351.993 516.441 349.267 517.185 346.591C432.135 346.442 347.037 346.293 261.938 346.145Z" fill="white"/>
<path d="M265.308 346.491H267.985C268.926 346.491 268.926 345.005 267.985 345.005C267.092 345.005 266.2 345.005 265.308 345.005C264.317 345.005 264.317 346.491 265.308 346.491Z" fill="#161616"/>
<path d="M262.582 347.929H362.054C362.054 347.929 428.369 347.929 461.526 347.929H517.928C519.861 347.929 519.861 344.955 517.928 344.955C484.771 344.955 451.614 344.955 418.456 344.955C385.299 344.955 352.142 344.955 318.984 344.955C300.2 344.955 281.366 344.955 262.582 344.955C260.699 344.955 260.699 347.929 262.582 347.929Z" fill="#161616"/>
<path d="M263.276 355.264H459.147H514.558C516.491 355.264 516.491 352.29 514.558 352.29C449.284 352.29 383.961 352.29 318.687 352.29C300.2 352.29 281.763 352.29 263.276 352.29C261.343 352.29 261.343 355.264 263.276 355.264Z" fill="#161616"/>
<path d="M271.156 362.5V487.051V522.637C271.156 524.57 274.13 524.57 274.13 522.637C274.13 481.103 274.13 439.57 274.13 398.086C274.13 386.241 274.13 374.346 274.13 362.5C274.13 360.617 271.156 360.617 271.156 362.5Z" fill="#161616"/>
<path d="M478.229 360.518V473.272V505.29C478.229 507.223 481.202 507.223 481.202 505.29C481.202 467.721 481.202 430.103 481.202 392.535C481.202 381.879 481.202 371.223 481.202 360.518C481.202 358.585 478.229 358.585 478.229 360.518Z" fill="#161616"/>
<path d="M66.3146 487.943H179.714H293.608H357.494C359.427 487.943 359.427 484.969 357.494 484.969C319.678 484.969 281.911 484.969 244.095 484.969C206.13 484.969 168.165 484.969 130.201 484.969C108.889 484.969 87.6264 484.969 66.3146 484.969C64.3816 484.969 64.3816 487.943 66.3146 487.943Z" fill="#161616"/>
<path d="M414.491 489.281H514.954H614.922H671.82C673.753 489.281 673.753 486.307 671.82 486.307C638.316 486.307 604.861 486.307 571.357 486.307C538.051 486.307 504.695 486.307 471.389 486.307C452.407 486.307 433.474 486.307 414.491 486.307C412.558 486.307 412.558 489.281 414.491 489.281Z" fill="#161616"/>
<path d="M271.751 362.451V484.275V518.969C271.751 520.902 274.725 520.902 274.725 518.969C274.725 478.377 274.725 437.736 274.725 397.144C274.725 385.596 274.725 374.048 274.725 362.451C274.725 360.518 271.751 360.518 271.751 362.451Z" fill="#161616"/>
<path d="M272.396 363.095V484.424V518.969C272.396 520.902 275.369 520.902 275.369 518.969C275.369 478.526 275.369 438.083 275.369 397.64C275.369 386.141 275.369 374.643 275.369 363.095C275.369 361.212 272.396 361.212 272.396 363.095Z" fill="#161616"/>
<path d="M477.981 359.774V470.15V501.672C477.981 503.605 480.955 503.605 480.955 501.672C480.955 464.896 480.955 428.071 480.955 391.296C480.955 380.789 480.955 370.281 480.955 359.774C480.955 357.891 477.981 357.891 477.981 359.774Z" fill="#161616"/>
<path d="M478.675 360.468V469.902V501.077C478.675 503.01 481.648 503.01 481.648 501.077C481.648 464.599 481.648 428.121 481.648 391.643C481.648 381.235 481.648 370.827 481.648 360.468C481.648 358.535 478.675 358.535 478.675 360.468Z" fill="#161616"/>
<path d="M264.911 355.512C267.489 358.634 269.769 361.905 271.801 365.375C272.792 367.01 275.369 365.523 274.378 363.888C272.197 360.22 269.719 356.751 266.993 353.43C265.754 351.943 263.672 354.025 264.911 355.512Z" fill="#161616"/>
<path d="M274.973 364.334C278.64 361.261 282.258 358.139 285.926 355.066C287.363 353.827 285.282 351.745 283.844 352.984C280.177 356.057 276.559 359.179 272.891 362.252C271.404 363.491 273.535 365.573 274.973 364.334Z" fill="#161616"/>
<path d="M469.704 357.048C472.777 358.981 475.85 360.914 478.922 362.847C480.558 363.888 482.045 361.311 480.409 360.27C477.336 358.337 474.264 356.404 471.191 354.471C469.555 353.48 468.068 356.057 469.704 357.048Z" fill="#161616"/>
<path d="M487.596 353.529C485.019 355.611 482.541 357.841 480.211 360.171C478.873 361.509 480.955 363.64 482.293 362.252C484.622 359.923 487.1 357.693 489.678 355.611C491.164 354.421 489.083 352.34 487.596 353.529Z" fill="#161616"/>
<path d="M472.033 357.197C475.998 357.792 479.864 357.94 483.829 357.544C483.581 356.602 483.333 355.71 483.086 354.768C481.45 355.809 479.765 356.107 477.832 356.305C476.742 356.454 475.651 357.94 476.791 358.832C478.328 360.072 479.864 360.468 481.797 359.972C483.631 359.526 482.887 356.652 481.004 357.098C480.261 357.395 479.517 357.246 478.873 356.701C478.526 357.544 478.179 358.386 477.832 359.229C480.211 358.981 482.54 358.634 484.573 357.246C485.712 356.503 485.415 354.322 483.829 354.471C480.161 354.818 476.444 354.768 472.777 354.223C470.943 354.025 470.15 356.9 472.033 357.197Z" fill="#161616"/>
<path d="M486.406 354.372C485.019 354.074 483.631 354.273 482.441 355.066C481.797 355.512 481.5 356.354 481.896 357.098C482.293 357.742 483.284 358.089 483.928 357.643C484.473 357.246 485.019 357.098 485.564 357.246C486.357 357.395 487.15 356.999 487.398 356.206C487.645 355.462 487.199 354.521 486.406 354.372Z" fill="#161616"/>
<path d="M268.282 356.9C269.174 357.494 272.495 359.031 272.346 360.319L273.833 358.833C273.634 358.833 273.04 356.553 272.891 356.156C272.445 356.9 272.048 357.643 271.602 358.386C274.576 358.238 277.401 357.643 280.127 356.553C279.631 355.71 279.185 354.917 278.69 354.075C277.005 355.809 275.22 357.445 273.288 358.932L275.32 360.964C277.104 357.94 274.576 355.462 271.999 354.174C271.751 355.115 271.503 356.007 271.255 356.949C273.287 356.85 275.32 356.8 277.352 356.9C279.284 356.999 279.235 354.025 277.352 353.926C275.32 353.827 273.287 353.827 271.255 353.975C269.868 354.075 269.124 356.057 270.512 356.751C271.404 357.197 273.585 358.139 272.792 359.477C272.098 360.666 273.585 362.451 274.824 361.509C276.955 359.873 278.987 358.139 280.821 356.206C281.763 355.214 280.821 353.133 279.384 353.728C276.856 354.719 274.328 355.314 271.652 355.462C270.462 355.512 269.917 356.652 270.363 357.693C271.206 359.576 271.156 361.856 273.882 361.806C274.774 361.806 275.27 361.112 275.369 360.319C275.766 357.346 271.85 355.661 269.868 354.372C268.183 353.282 266.696 355.859 268.282 356.9Z" fill="#161616"/>
<path d="M284.538 344.608C284.538 342.18 284.538 339.751 284.538 337.273C284.538 336.331 283.051 336.331 283.051 337.273V344.608C283.051 345.599 284.538 345.599 284.538 344.608Z" fill="#CBCBCB"/>
<path d="M283.795 337.917H324.932C325.874 337.917 325.874 336.43 324.932 336.43C311.203 336.43 297.524 336.43 283.795 336.43C282.853 336.43 282.853 337.917 283.795 337.917Z" fill="#CBCBCB"/>
<path d="M324.188 337.174V344.162C324.188 345.104 325.675 345.104 325.675 344.162C325.675 341.833 325.675 339.503 325.675 337.174C325.675 336.182 324.188 336.182 324.188 337.174Z" fill="#CBCBCB"/>
<path d="M285.678 340.693H317.15C318.092 340.693 318.092 339.206 317.15 339.206C306.643 339.206 296.186 339.206 285.678 339.206C284.737 339.206 284.737 340.693 285.678 340.693Z" fill="#CBCBCB"/>
<path d="M292.667 343.518H316.803C317.745 343.518 317.745 342.031 316.803 342.031C308.774 342.031 300.696 342.031 292.667 342.031C291.725 342.031 291.725 343.518 292.667 343.518Z" fill="#CBCBCB"/>
<path d="M294.352 337.025C294.352 335.34 294.352 333.704 294.352 332.019C294.352 331.078 292.865 331.078 292.865 332.019V337.025C292.865 337.967 294.352 337.967 294.352 337.025Z" fill="#CBCBCB"/>
<path d="M294.55 332.465H330.384C331.325 332.465 331.325 330.978 330.384 330.978C318.439 330.978 306.495 330.978 294.55 330.978C293.608 330.978 293.608 332.465 294.55 332.465Z" fill="#CBCBCB"/>
<path d="M325.378 337.57H330.037C330.978 337.57 330.978 336.083 330.037 336.083C328.5 336.083 326.914 336.083 325.378 336.083C324.436 336.083 324.436 337.57 325.378 337.57Z" fill="#CBCBCB"/>
<path d="M329.64 331.871V336.678C329.64 337.62 331.127 337.62 331.127 336.678C331.127 335.092 331.127 333.456 331.127 331.871C331.127 330.879 329.64 330.879 329.64 331.871Z" fill="#CBCBCB"/>
<path d="M301.737 334.943H310.311C311.253 334.943 311.253 333.456 310.311 333.456C307.436 333.456 304.611 333.456 301.737 333.456C300.745 333.456 300.745 334.943 301.737 334.943Z" fill="#CBCBCB"/>
<path d="M316.506 336.182H324.139C325.08 336.182 325.08 334.696 324.139 334.696C321.611 334.696 319.034 334.696 316.506 334.696C315.564 334.696 315.564 336.182 316.506 336.182Z" fill="#CBCBCB"/>
<path d="M302.678 330.284C301.489 329.145 301.241 327.41 301.34 325.824C301.538 323.197 303.917 323.098 305.9 323.891C306.792 324.238 307.188 322.801 306.296 322.454C304.066 321.561 301.142 321.611 300.151 324.238C299.308 326.468 299.903 329.69 301.637 331.325C302.331 332.019 303.372 330.929 302.678 330.284Z" fill="#CBCBCB"/>
<path d="M305.652 323.147C310.311 321.066 312.244 328.897 308.229 330.879C307.387 331.325 308.13 332.564 308.973 332.168C314.722 329.293 311.352 318.984 304.909 321.859C304.017 322.255 304.81 323.544 305.652 323.147Z" fill="#CBCBCB"/>
<path d="M305.8 322.751C305.553 321.165 304.958 319.728 304.016 318.439C303.471 317.646 302.182 318.39 302.728 319.183C303.57 320.372 304.115 321.661 304.363 323.147C304.512 324.089 305.949 323.693 305.8 322.751Z" fill="#CBCBCB"/>
<path d="M305.107 320.223C305.255 319.827 305.454 319.48 305.701 319.133C305.801 318.984 305.949 318.786 306.098 318.637C306.147 318.538 306.247 318.489 306.346 318.39C306.098 317.894 305.949 317.795 305.85 318.043C305.602 318.29 305.354 318.935 305.206 319.282C304.958 319.728 304.661 320.124 304.363 320.521C303.818 321.314 305.107 322.057 305.652 321.264C306.197 320.521 306.693 319.728 307.089 318.885C307.436 318.191 307.634 317.299 306.742 316.952C305.255 316.407 304.115 318.736 303.719 319.777C303.322 320.719 304.76 321.115 305.107 320.223Z" fill="#CBCBCB"/>
<path d="M548.657 419.993C548.855 422.322 549.053 424.701 549.251 427.03C572.1 426.832 594.948 426.634 617.797 426.436C617.549 424.205 617.301 421.975 617.053 419.794C594.205 419.894 571.456 419.943 548.657 419.993Z" fill="white"/>
<path d="M549.103 427.824H617.599C619.532 427.824 619.532 424.85 617.599 424.85C594.75 424.85 571.951 424.85 549.103 424.85C547.219 424.85 547.17 427.824 549.103 427.824Z" fill="#161616"/>
<path d="M549.549 421.033H616.756C618.689 421.033 618.689 418.06 616.756 418.06C594.354 418.06 571.951 418.06 549.549 418.06C547.616 418.06 547.616 421.033 549.549 421.033Z" fill="#161616"/>
<path d="M547.219 419.993V425.048C547.219 426.981 550.193 426.981 550.193 425.048C550.193 423.363 550.193 421.678 550.193 419.993C550.193 418.06 547.219 418.06 547.219 419.993Z" fill="#161616"/>
<path d="M616.111 419.993V426.733C616.111 428.666 619.085 428.666 619.085 426.733C619.085 424.503 619.085 422.223 619.085 419.993C619.085 418.06 616.111 418.06 616.111 419.993Z" fill="#161616"/>
<path d="M582.706 427.179V512.575C582.706 514.508 585.68 514.508 585.68 512.575C585.68 484.126 585.68 455.678 585.68 427.179C585.68 425.246 582.706 425.246 582.706 427.179Z" fill="#161616"/>
<path d="M582.607 512.129C577.502 515.153 572.398 518.176 567.243 521.199C565.608 522.191 567.095 524.768 568.73 523.777C573.835 520.753 578.94 517.73 584.094 514.707C585.779 513.715 584.243 511.138 582.607 512.129Z" fill="#161616"/>
<path d="M583.45 514.261C589.248 517.482 594.998 520.753 600.796 523.975C602.482 524.916 603.969 522.339 602.283 521.397C596.485 518.176 590.735 514.905 584.936 511.683C583.251 510.742 581.764 513.319 583.45 514.261Z" fill="#161616"/>
<path d="M568.135 524.867C579.138 524.768 590.091 524.421 601.094 523.876C602.977 523.776 603.027 520.803 601.094 520.902C590.14 521.447 579.138 521.794 568.135 521.893C566.202 521.893 566.202 524.867 568.135 524.867Z" fill="#161616"/>
<path d="M569.771 428.27C574.231 434.614 578.295 441.255 581.963 448.095C582.855 449.78 585.432 448.293 584.54 446.608C580.873 439.768 576.808 433.127 572.348 426.783C571.257 425.197 568.68 426.684 569.771 428.27Z" fill="#161616"/>
<path d="M599.558 426.138C593.065 432.334 587.514 439.372 583.004 447.103C582.012 448.739 584.59 450.275 585.581 448.59C589.992 441.057 595.395 434.267 601.689 428.27C603.077 426.931 600.946 424.8 599.558 426.138Z" fill="#161616"/>
<path d="M478.427 484.424C478.03 491.511 477.683 498.599 477.287 505.686C458.354 513.913 449.235 519.316 449.978 521.794C450.821 524.768 465.392 523.727 493.593 518.77C493.791 506.628 493.99 494.485 494.138 482.342C488.934 483.036 483.681 483.73 478.427 484.424Z" fill="#161616"/>
<path d="M537.208 369.588C532.995 373.354 526.998 378.806 520.01 385.547C503.357 401.704 491.115 413.549 482.838 425.791C475.998 435.952 465.838 455.281 465.045 486.902C471.885 488.785 480.508 490.371 490.52 490.272C493.89 490.223 497.112 490.024 500.036 489.677C498.747 482.491 497.707 471.24 500.333 458.057C502.167 448.788 505.24 441.354 508.016 435.952C530.319 426.039 545.386 413.896 555.001 404.628C564.715 395.261 575.768 384.555 572.794 376.972C570.068 369.786 555.546 367.01 537.208 369.588Z" fill="#FFBA15"/>
<path opacity="0.18" d="M560.651 369.637C553.167 379.599 544.196 390.404 533.441 401.407C519.96 415.235 506.628 426.386 494.683 435.258C490.52 453.546 486.357 471.835 482.194 490.074C483.978 490.371 486.01 490.619 488.24 490.619C492.75 490.718 496.616 490.074 499.59 489.281C498.648 483.036 498.004 474.462 499.194 464.5C500.68 452.208 504.447 442.544 507.52 436.15C518.721 430.996 527.593 425.742 533.986 421.579C533.986 421.579 554.01 408.593 569.523 388.669C569.87 388.223 571.059 386.687 572.001 384.308C572.744 382.375 573.686 379.996 572.942 377.518C572.249 375.287 570.563 374.048 568.779 372.809C567.391 371.867 564.665 370.232 560.651 369.637Z" fill="#6D6C6C"/>
<path opacity="0.16" d="M507.124 436.398C504.992 440.363 502.911 444.526 500.879 448.888C494.039 463.608 489.281 477.683 485.96 490.471C490.52 490.272 495.03 490.074 499.59 489.925C498.549 483.928 497.756 475.85 498.648 466.482C499.887 453.249 503.902 442.94 507.124 436.398Z" fill="#6D6C6C"/>
<path d="M509.007 491.263C511.287 498.351 513.567 505.438 515.847 512.526C498.995 522.636 491.016 528.732 491.957 530.765C493.097 533.243 507.619 529.575 535.573 519.762C531.707 508.511 527.841 497.26 523.975 486.01C518.969 487.695 513.963 489.479 509.007 491.263Z" fill="#161616"/>
<path d="M590.735 379.203C594.254 397.095 588.951 407.156 586.423 411.022C581.368 418.754 574.628 421.133 554.951 430.896C547.269 434.713 535.572 440.66 521.249 448.541C522.24 454.835 523.826 462.071 526.354 469.952C528.733 477.386 531.508 483.879 534.185 489.331C531.558 491.858 526.255 496.319 518.176 498.896C509.453 501.721 501.969 500.879 498.301 500.234C490.52 484.87 488.538 471.389 487.992 463.162C487.348 453.249 486.605 441.998 492.404 430.896C496.864 422.372 501.176 421.579 519.217 407.8C546.327 387.133 549.053 379.401 563.03 376.526C574.479 374.197 584.639 376.923 590.735 379.203Z" fill="#FFBA15"/>
<path opacity="0.22" d="M572.199 375.882C572.447 381.631 572.001 390.652 567.392 399.87C563.526 407.652 558.371 413.203 541.371 424.701C526.255 434.911 514.211 442.791 506.429 447.847C511.386 464.45 516.342 481.054 521.298 497.657C522.785 497.161 524.569 496.418 526.403 495.377C529.774 493.444 532.153 491.115 533.689 489.33C531.508 484.672 529.327 479.468 527.394 473.768C524.222 464.648 522.24 456.124 521.001 448.739C533.292 441.899 541.916 437.439 546.972 434.911C554.505 431.144 558.223 429.261 562.039 427.427C563.328 426.832 566.202 425.494 569.969 423.512C574.182 421.331 576.263 420.29 578.147 419.001C579.683 417.961 583.549 415.235 586.672 410.724C591.132 404.281 591.529 397.541 591.826 392.634C592.024 389.462 591.975 384.853 590.785 379.45C588.208 378.36 584.739 377.171 580.575 376.477C577.354 375.882 574.529 375.783 572.199 375.882Z" fill="#6D6C6C"/>
<path opacity="0.11" d="M591.776 389.115C590.983 391.742 589.546 395.558 587.018 399.672C579.237 412.162 567.342 417.118 559.015 421.281C549.152 426.238 535.87 434.415 521.1 448.541C525.263 446.211 530.368 443.436 536.316 440.264C546.823 434.663 552.027 431.888 557.429 429.31C561.642 427.328 566.45 425.197 573.636 421.38C578.791 418.654 581.616 416.969 584.292 413.847C587.315 410.328 588.654 406.809 589.546 404.43C590.636 401.456 592.173 396.153 591.776 389.115Z" fill="#6D6C6C"/>
<path opacity="0.17" d="M520.902 449.036C520.951 453.199 521.249 457.66 521.794 462.369C523.182 474.412 526.106 484.771 529.228 493.147C530.12 492.651 531.161 491.958 532.252 491.016C532.945 490.421 533.54 489.826 533.986 489.281C531.905 484.969 529.873 480.162 527.94 474.957C524.52 465.541 522.339 456.768 520.902 449.036Z" fill="#6D6C6C"/>
<path d="M558.074 282.159C551.879 284.241 550.788 291.626 546.625 300.051C546.625 300.051 540.083 313.433 525.759 324.436C520.555 328.451 509.304 335.538 490.52 336.777C488.686 336.034 485.861 335.042 482.293 334.448C477.188 333.605 470.051 332.366 465.243 336.48C463.062 338.363 460.634 341.932 461.724 344.112C463.062 346.789 469.01 345.748 478.774 345.302C492.304 344.707 491.66 346.194 501.077 345.599C509.503 345.054 522.785 344.261 536.613 336.182C549.846 328.5 556.686 318.241 558.322 315.614C561.494 310.658 562.931 306.643 565.855 298.564C569.721 287.958 569.077 285.579 567.986 284.191C566.103 281.614 561.543 280.97 558.074 282.159Z" fill="white" stroke="#161616" stroke-width="2" stroke-miterlimit="10"/>
<path d="M484.622 338.314C481.5 338.908 476.989 339.057 474.71 341.634C473.421 343.121 473.619 345.748 475.998 345.748C476.692 345.748 476.742 344.608 475.998 344.608C474.809 343.369 474.908 342.378 476.395 341.684C476.89 341.337 477.436 341.089 478.03 340.841C478.675 340.594 479.319 340.445 479.963 340.296C481.599 339.949 483.234 339.652 484.92 339.354C485.613 339.255 485.316 338.214 484.622 338.314Z" fill="#161616"/>
<path d="M461.229 342.923C464.153 346.591 468.713 342.328 472.232 343.27C472.925 343.468 473.223 342.378 472.529 342.179C470.993 341.783 469.654 341.981 468.118 342.477C466.086 343.121 463.608 344.212 461.972 342.13C461.576 341.585 460.783 342.378 461.229 342.923Z" fill="#161616"/>
<path d="M463.013 338.413C463.112 339.9 464.103 340.494 465.541 340.494C468.762 340.494 471.587 339.206 474.809 340.247C475.503 340.445 475.8 339.404 475.106 339.156C473.471 338.611 471.885 338.561 470.199 338.71C469.01 338.809 464.252 340.147 464.153 338.363C464.054 337.719 462.963 337.719 463.013 338.413Z" fill="#161616"/>
<path d="M467.87 335.34C468.366 336.529 469.208 337.075 470.497 337.273C473.025 337.62 475.205 337.719 477.535 338.76C478.179 339.057 478.774 338.066 478.08 337.818C476.791 337.273 475.503 336.777 474.115 336.529C472.529 336.232 469.605 336.728 468.911 335.043C468.663 334.398 467.573 334.696 467.87 335.34Z" fill="#161616"/>
<path opacity="0.16" d="M564.071 282.308C561.246 283.002 562.088 290.585 560.601 297.623C558.123 308.973 550.045 316.06 541.123 323.891C535.077 329.194 527.989 335.439 517.185 338.215C513.468 339.156 507.322 340.197 500.73 340.544C491.809 340.99 487.398 341.238 487.1 341.188C485.613 341.04 481.995 340.643 478.13 342.328C477.337 342.675 475.156 343.617 475.304 344.311C475.503 345.351 480.657 345.054 492.255 344.955C500.829 344.905 499.937 345.054 502.564 344.955C507.52 344.757 516.144 344.459 525.858 340.94C539.686 335.984 548.211 327.212 552.126 323.148C555.893 319.183 557.975 316.11 558.619 315.168C561.692 310.559 563.129 306.445 565.954 298.366C569.225 288.949 569.225 286.471 567.937 284.538C567.044 283.398 565.409 281.961 564.071 282.308Z" fill="#6D6C6C"/>
<path opacity="0.13" d="M462.567 344.509C462.914 343.617 464.401 339.949 468.366 338.016C474.313 335.191 480.112 339.007 480.36 339.156C479.071 339.85 477.981 340.346 477.188 340.643C475.949 341.188 475.453 341.287 475.007 341.783C474.264 342.725 474.462 344.112 474.66 344.955C473.074 345.302 470.993 345.55 468.514 345.451C466.135 345.401 464.103 344.955 462.567 344.509Z" fill="#6D6C6C"/>
<path opacity="0.14" d="M567.887 290.436C565.805 297.375 561.246 309.072 551.234 320.372C537.604 335.786 521.596 341.783 514.31 344.013C519.91 343.022 540.727 338.611 555.397 319.579C564.071 308.279 566.846 296.78 567.887 290.436Z" fill="#6D6C6C"/>
<path d="M556.389 282.556C553.266 285.976 551.036 290.486 549.599 307.139C547.467 331.474 550.838 337.075 547.071 349.118C545.336 354.62 541.768 362.599 533.491 371.174C539.339 374.94 548.806 380.095 561.494 383.069C574.033 385.993 584.689 385.547 591.627 384.754C600.549 357.346 599.805 335.191 597.971 321.562C596.237 308.576 592.321 278.69 576.759 274.923C569.374 273.089 560.998 277.55 556.389 282.556Z" fill="white" stroke="#161616" stroke-width="2" stroke-miterlimit="10"/>
<path opacity="0.12" d="M572.794 275.022C572.546 277.054 572.199 280.078 571.852 283.696C569.523 307.932 572.248 312.343 570.464 326.617C569.473 334.745 567.391 349.961 556.686 364.136C552.225 370.034 547.517 374.147 544.146 376.675C549.549 379.401 557.776 382.821 568.283 384.407C577.7 385.794 585.68 385.249 591.33 384.407C592.916 379.847 594.799 373.652 596.286 366.217C599.062 352.439 599.26 340.693 598.913 332.564C598.269 316.853 596.831 283.151 579.584 276.261C576.907 275.221 574.479 275.022 572.794 275.022Z" fill="#6D6C6C"/>
<path opacity="0.24" d="M598.566 346.194C597.972 346.095 596.584 352.241 594.552 357.792C591.975 364.978 587.117 374.643 577.056 385.1C581.913 384.853 586.82 384.654 591.677 384.407C593.313 379.153 595.394 371.322 597.08 361.658C598.17 355.165 599.31 346.343 598.566 346.194Z" fill="#6D6C6C"/>
<path d="M585.829 281.912C591.429 283.002 593.808 291.874 595.791 299.655C597.773 307.486 601.59 323.445 596.237 344.459C594.007 353.133 592.024 361.211 585.135 369.389C576.164 380.095 564.715 384.258 559.362 385.794C553.415 389.908 550.342 391.99 548.607 393.08C547.368 393.873 546.625 394.319 545.287 395.261C543.354 396.649 543.007 397.095 542.065 397.491C541.074 397.888 539.488 398.185 537.109 397.442C536.911 397.491 535.374 397.689 534.234 396.549C533.54 395.856 533.392 395.063 533.392 394.716C533.243 394.716 532.301 394.617 531.657 393.824C531.062 393.08 531.013 392.039 531.459 391.147C531.26 390.751 531.062 390.206 531.062 389.512C530.814 386.042 534.928 383.267 537.208 381.681C539.637 379.996 544.444 377.319 551.878 376.625C555.893 374.494 561.89 370.678 567.193 364.284C568.878 362.302 580.129 348.325 579.237 329.541C578.89 321.661 576.065 306.99 574.479 293.311C574.38 292.32 574.083 289.643 575.52 287.066C577.601 283.547 582.359 281.267 585.829 281.912Z" fill="white" stroke="#161616" stroke-width="2" stroke-miterlimit="10"/>
<path d="M531.607 391.494C532.301 391.494 532.351 390.354 531.607 390.354C530.913 390.354 530.913 391.494 531.607 391.494Z" fill="#161616"/>
<path d="M531.062 390.899V391.246C531.112 391.841 531.756 391.99 532.103 391.544C534.085 388.917 536.762 386.984 539.884 385.993C540.578 385.794 540.281 384.704 539.587 384.902C536.167 385.993 533.292 388.074 531.112 390.949C531.459 391.048 531.806 391.147 532.152 391.246C532.152 391.147 532.152 391.048 532.152 390.899C532.152 390.206 531.013 390.206 531.062 390.899Z" fill="#161616"/>
<path d="M533.838 394.914C536.366 392.039 539.488 389.859 543.056 388.421C543.701 388.173 543.453 387.083 542.759 387.331C538.992 388.818 535.721 391.048 533.045 394.071C532.599 394.666 533.392 395.459 533.838 394.914Z" fill="#161616"/>
<path d="M537.555 397.59C540.132 394.666 543.106 392.238 546.476 390.255C547.071 389.908 546.526 388.917 545.931 389.313C542.511 391.345 539.438 393.824 536.812 396.847C536.316 397.343 537.109 398.136 537.555 397.59Z" fill="#161616"/>
<path opacity="0.13" d="M583.648 283.795C581.764 286.521 584.837 291.328 586.572 294.897C589.1 300.15 589.496 305.85 590.289 317.249C591.726 337.917 582.111 355.611 581.418 356.85C572.645 372.462 559.015 381.829 554.753 384.704C547.517 389.561 537.257 394.864 538.1 396.896C538.397 397.64 540.033 397.739 540.727 397.689C543.106 397.59 544.097 395.757 547.418 393.427C549.152 392.188 549.103 392.585 552.077 390.8C553.811 389.759 556.289 388.173 559.214 385.943C565.855 384.159 570.762 381.433 573.835 379.45C578.295 376.576 586.869 369.984 592.123 358.485C593.907 354.57 594.601 351.448 595.989 345.252C597.426 338.76 599.706 328.104 598.417 314.524C597.823 308.378 596.782 304.264 595.344 298.862C593.114 290.188 591.082 282.704 587.216 282.209C585.928 282.011 584.391 282.754 583.648 283.795Z" fill="#6D6C6C"/>
<path opacity="0.16" d="M597.773 310.906C597.327 310.906 597.426 316.11 595.295 329.938C593.362 342.328 592.371 348.672 589.645 354.471C585.68 362.897 580.278 368.2 577.651 370.728C570.167 377.964 565.657 378.459 554.208 386.885C548.211 391.296 543.75 395.311 541.123 397.789C547.071 393.824 552.969 389.859 558.916 385.943C564.368 384.357 575.569 380.194 584.59 369.538C590.785 362.203 593.214 355.016 595.097 349.416C601.54 329.442 598.566 310.906 597.773 310.906Z" fill="#6D6C6C"/>
<path d="M563.575 260.302C561.345 261.839 560.948 264.812 560.601 268.084C560.254 271.404 560.205 277.203 563.228 284.39C565.112 284.39 567.441 284.241 570.018 283.745C572.05 283.349 573.834 282.804 575.321 282.258C575.123 275.667 574.974 269.075 574.776 262.483C570.613 259.41 566.251 258.469 563.575 260.302Z" fill="white" stroke="#161616" stroke-width="2" stroke-miterlimit="10"/>
<path d="M551.779 227.244C548.31 229.227 546.823 232.547 543.899 238.99C540.628 246.326 538.348 252.67 537.456 257.329C537.307 258.022 537.654 258.716 538.298 259.014C539.141 259.41 540.628 259.559 541.421 259.757C541.421 261.69 541.669 265.011 543.403 268.579C546.575 275.072 552.424 277.699 554.158 278.393C559.66 277.451 563.724 275.568 566.152 274.13C568.383 272.891 571.257 271.206 574.082 267.935C576.61 264.961 577.948 261.987 578.642 260.005C579.683 260.005 581.269 259.906 582.904 259.014C586.275 257.18 589.149 252.372 587.365 249.448C586.027 247.317 582.359 246.425 578.592 247.813C578.642 246.227 578.592 244.046 578.047 241.469C577.899 240.824 576.858 236.116 574.479 232.795C569.919 226.402 558.817 223.23 551.779 227.244Z" fill="white" stroke="#161616" stroke-width="2" stroke-miterlimit="10"/>
<path d="M539.29 249.696C538.051 247.763 535.325 242.906 535.721 236.463C535.87 234.282 536.167 230.119 539.191 226.203C542.858 221.445 547.963 220.206 549.45 219.909C550.144 218.769 551.333 217.084 553.316 215.696C554.109 215.151 556.29 213.813 561.642 213.515C564.467 213.366 568.779 213.466 573.934 214.952C577.948 216.142 580.625 217.827 582.26 219.165C588.555 224.122 588.059 228.037 596.039 236.066C597.872 237.9 599.161 238.544 601.937 241.27C604.861 244.095 607.19 246.821 608.479 248.457C611.403 252.174 616.904 259.212 617.945 268.728C618.292 271.949 619.283 281.019 613.633 287.958C605.951 297.424 588.604 298.168 578.048 290.634C576.065 289.247 567.838 283.299 568.284 273.734C568.68 265.11 575.867 259.955 576.858 259.212C577.701 259.559 579.435 260.104 581.12 259.509C584.639 258.221 586.126 252.818 584.292 250.092C583.549 249.002 582.359 248.556 582.013 248.457C579.138 247.465 576.461 249.597 576.263 249.745C572.397 246.92 569.473 244.194 567.441 242.063C564.666 239.238 563.278 237.355 562.782 236.661C561.246 234.48 560.106 232.498 559.362 231.011C557.083 231.556 554.109 232.597 550.986 234.629C550.243 235.075 547.765 236.76 545.188 239.684C544.89 240.031 543.453 241.667 541.916 244.145C540.777 246.276 539.884 248.159 539.29 249.696Z" fill="#2F4EBB"/>
<path d="M549.4 254.107C549.4 254.057 549.4 254.057 549.4 254.107C549.4 254.157 549.45 254.256 549.45 254.355V254.404C549.4 254.503 549.351 254.553 549.301 254.652C549.4 254.553 549.301 254.603 549.103 254.751C549.004 254.702 548.905 254.702 548.805 254.652C548.756 254.603 548.706 254.603 548.706 254.553C548.657 254.454 548.657 254.355 548.607 254.256V254.206C548.657 254.107 548.706 254.057 548.756 253.958C548.855 253.958 548.954 253.909 549.053 253.909L549.45 254.305V254.454C549.202 254.503 548.954 254.603 548.706 254.652L548.657 254.603C548.607 254.503 548.558 254.454 548.508 254.355C548.558 254.206 548.657 254.057 548.706 253.958C548.805 253.909 548.905 253.909 549.004 253.859H548.954C548.657 253.909 548.409 254.107 548.409 254.404C548.409 254.702 548.657 254.999 548.954 254.95C549.251 254.9 549.549 254.751 549.598 254.404C549.698 254.107 549.549 253.76 549.251 253.611C548.954 253.463 548.657 253.562 548.508 253.81C548.211 254.206 548.409 254.85 548.905 254.9C549.351 254.95 549.747 254.603 549.747 254.156C549.747 253.71 549.301 253.413 548.855 253.512C548.409 253.661 548.211 254.107 548.409 254.553C548.558 254.85 548.954 254.9 549.152 254.751C549.499 254.702 549.499 254.355 549.4 254.107Z" fill="#161616"/>
<path d="M553.762 252.917C553.861 253.413 553.663 253.364 553.216 252.769C553.316 252.719 553.365 252.67 553.464 252.62C553.663 252.62 553.811 252.719 553.91 252.967C553.96 252.67 553.613 252.422 553.365 252.422C553.018 252.422 552.82 252.67 552.82 252.967C552.77 253.413 553.216 253.76 553.613 253.71C554.109 253.71 554.406 253.215 554.258 252.769C554.109 252.323 553.613 252.075 553.167 252.323C552.721 252.57 552.671 253.017 552.869 253.463C552.969 253.76 553.415 253.81 553.613 253.661C553.861 253.512 553.911 253.215 553.762 252.917Z" fill="#161616"/>
<path d="M552.374 256.189C552.671 256.189 552.721 256.288 552.523 256.536C552.523 256.734 552.473 256.833 552.324 256.833C552.275 256.635 552.275 256.387 552.225 256.189C552.374 256.139 552.473 256.139 552.622 256.238C552.126 255.693 551.333 256.486 551.829 257.031C552.176 257.428 552.82 257.329 553.068 256.883C553.316 256.436 553.068 255.891 552.622 255.743C552.126 255.594 551.631 255.941 551.581 256.436C551.581 256.982 552.126 257.378 552.622 257.279C553.365 257.081 553.068 255.99 552.374 256.189Z" fill="#161616"/>
<path d="M543.205 266.993C546.278 266.448 548.954 264.664 550.689 262.037C551.085 261.442 550.144 260.897 549.747 261.492C548.161 263.871 545.782 265.407 542.957 265.952C542.214 266.051 542.511 267.092 543.205 266.993Z" fill="#161616"/>
<path opacity="0.1" d="M560.056 232.646C560.948 234.431 562.088 236.81 563.377 239.635C567.342 248.259 567.788 250.638 567.937 252.719C568.135 255.842 567.59 258.221 567.144 259.906C564.864 269.124 558.173 275.27 554.852 277.947C556.488 277.748 558.47 277.401 560.651 276.658C564.021 275.518 566.648 273.982 568.432 272.693C568.284 274.229 568.284 276.608 569.176 279.285C570.167 282.457 571.951 284.439 573.438 286.323C574.578 287.76 576.61 290.04 579.832 291.874C582.954 293.707 585.878 294.352 587.662 294.649C591.826 295.591 595.295 295.492 597.625 295.293C600.846 294.996 605.951 294.55 610.709 290.882C611.898 289.941 614.624 287.809 616.26 284.043C616.657 283.151 617.251 281.466 617.549 277.005C617.896 271.751 618.143 268.084 616.904 263.425C615.616 258.617 613.286 254.9 611.006 252.174C607.041 262.83 597.476 268.976 588.852 267.687C582.111 266.646 578.047 261.343 576.858 259.708C579.485 260.302 582.161 259.509 583.697 257.576C585.531 255.396 586.076 251.48 583.697 249.399C581.814 247.763 578.692 247.713 576.362 249.547C573.537 247.515 570.316 244.839 567.044 241.369C564.12 238.346 561.84 235.323 560.056 232.646Z" fill="black"/>
<path d="M548.607 248.754C548.31 248.259 548.26 247.515 548.756 247.119C548.607 247.168 548.508 247.218 548.36 247.267H548.508C548.36 247.218 548.261 247.168 548.112 247.119C548.607 247.515 548.211 249.052 548.013 249.498C548.112 249.398 548.211 249.349 548.36 249.25C548.31 249.25 548.26 249.299 548.26 249.299C548.409 249.299 548.558 249.349 548.707 249.349C548.409 249.2 548.459 248.407 548.508 248.209C548.558 247.763 548.657 247.366 548.855 247.019C548.607 247.069 548.36 247.168 548.112 247.218C548.36 247.416 548.409 247.812 548.36 248.11C548.36 248.259 548.31 248.407 548.26 248.506C548.211 248.754 548.112 248.754 548.36 248.804C548.459 248.903 548.558 248.952 548.707 249.052C548.707 249.002 548.657 249.002 548.657 248.952C548.211 248.407 547.269 248.952 547.715 249.498C547.963 249.795 548.31 249.993 548.707 249.845C549.153 249.696 549.301 249.25 549.4 248.853C549.648 247.862 549.648 246.871 548.756 246.226C548.508 246.028 548.112 246.177 548.013 246.425C547.517 247.416 547.22 248.952 547.864 249.944C548.112 250.34 548.657 250.538 549.053 250.241C549.5 249.894 549.549 249.002 549.599 248.506C549.698 247.763 549.549 245.632 548.26 246.276C547.22 246.821 547.319 248.506 547.814 249.349C548.013 249.944 549.004 249.349 548.607 248.754Z" fill="#161616"/>
<path d="M546.327 243.699C548.954 243.253 551.184 244.69 553.217 246.227C553.811 246.673 554.357 245.681 553.762 245.285C551.482 243.55 549.004 242.212 546.03 242.658C545.336 242.708 545.633 243.798 546.327 243.699Z" fill="#161616"/>
<path d="M549.301 261.541C549.846 261.888 550.342 262.334 550.788 262.83C551.284 263.375 552.077 262.582 551.581 262.037C551.086 261.492 550.491 260.996 549.846 260.55C549.252 260.154 548.706 261.145 549.301 261.541Z" fill="#161616"/>
</svg>
