<svg width="188" height="59" viewBox="0 0 188 59" fill="none" xmlns="http://www.w3.org/2000/svg">
<path d="M33.236 47L33.14 31.688L25.844 43.976H20.852L13.556 32.216V47H3.236V13.4H12.548L23.492 31.304L34.148 13.4H43.46L43.556 47H33.236ZM76.6329 33.848C76.6329 34.008 76.5849 34.856 76.4889 36.392H58.2489C58.6329 37.384 59.2729 38.152 60.1689 38.696C61.0649 39.208 62.1849 39.464 63.5289 39.464C64.6809 39.464 65.6409 39.32 66.4089 39.032C67.2089 38.744 68.0729 38.248 69.0009 37.544L74.6649 43.256C72.1049 46.072 68.2809 47.48 63.1929 47.48C60.0249 47.48 57.2409 46.904 54.8409 45.752C52.4409 44.568 50.5849 42.936 49.2729 40.856C47.9609 38.776 47.3049 36.44 47.3049 33.848C47.3049 31.224 47.9449 28.888 49.2249 26.84C50.5369 24.76 52.3129 23.144 54.5529 21.992C56.8249 20.84 59.3689 20.264 62.1849 20.264C64.8409 20.264 67.2569 20.792 69.4329 21.848C71.6409 22.904 73.3849 24.456 74.6649 26.504C75.9769 28.552 76.6329 31 76.6329 33.848ZM62.2809 27.656C61.1609 27.656 60.2329 27.96 59.4969 28.568C58.7609 29.176 58.2809 30.04 58.0569 31.16H66.5049C66.2809 30.072 65.8009 29.224 65.0649 28.616C64.3289 27.976 63.4009 27.656 62.2809 27.656ZM98.2963 20.264C101.528 20.264 104.12 21.24 106.072 23.192C108.056 25.144 109.048 28.088 109.048 32.024V47H98.2003V33.896C98.2003 30.888 97.1283 29.384 94.9843 29.384C93.7683 29.384 92.7763 29.816 92.0083 30.68C91.2723 31.512 90.9043 32.84 90.9043 34.664V47H80.0563V20.744H90.3763V23.336C91.4003 22.312 92.5843 21.544 93.9283 21.032C95.2723 20.52 96.7283 20.264 98.2963 20.264ZM133.103 46.088C131.471 47.016 129.247 47.48 126.431 47.48C122.751 47.48 119.919 46.6 117.935 44.84C115.951 43.048 114.959 40.376 114.959 36.824V30.104H111.359V22.184H114.959V14.84H125.807V22.184H131.183V30.104H125.807V36.728C125.807 37.528 126.015 38.152 126.431 38.6C126.847 39.048 127.391 39.272 128.063 39.272C128.991 39.272 129.807 39.032 130.511 38.552L133.103 46.088ZM149.006 47.48C146.094 47.48 143.47 46.904 141.134 45.752C138.83 44.568 137.022 42.952 135.71 40.904C134.398 38.824 133.742 36.472 133.742 33.848C133.742 31.224 134.398 28.888 135.71 26.84C137.022 24.76 138.83 23.144 141.134 21.992C143.47 20.84 146.094 20.264 149.006 20.264C151.95 20.264 154.574 20.84 156.878 21.992C159.214 23.144 161.022 24.76 162.302 26.84C163.614 28.888 164.27 31.224 164.27 33.848C164.27 36.472 163.614 38.824 162.302 40.904C161.022 42.952 159.214 44.568 156.878 45.752C154.574 46.904 151.95 47.48 149.006 47.48ZM149.006 39.032C150.254 39.032 151.278 38.584 152.078 37.688C152.878 36.76 153.278 35.48 153.278 33.848C153.278 32.216 152.878 30.952 152.078 30.056C151.278 29.16 150.254 28.712 149.006 28.712C147.758 28.712 146.734 29.16 145.934 30.056C145.134 30.952 144.734 32.216 144.734 33.848C144.734 35.48 145.134 36.76 145.934 37.688C146.734 38.584 147.758 39.032 149.006 39.032ZM177.986 23.576C179.906 21.368 182.738 20.264 186.482 20.264V29.864C185.618 29.736 184.818 29.672 184.082 29.672C180.37 29.672 178.514 31.56 178.514 35.336V47H167.666V20.744H177.986V23.576Z" fill="#34495E"/>
</svg>
