<svg width="184" height="59" viewBox="0 0 184 59" fill="none" xmlns="http://www.w3.org/2000/svg">
<path d="M33.696 47L33.6 29.192L24.96 43.688H20.736L12.144 29.672V47H3.36V13.4H11.184L22.992 32.792L34.512 13.4H42.336L42.432 47H33.696ZM75.3169 34.04C75.3169 34.104 75.2689 34.856 75.1729 36.296H56.2609C56.6449 37.64 57.3809 38.68 58.4689 39.416C59.5889 40.12 60.9809 40.472 62.6449 40.472C63.8929 40.472 64.9649 40.296 65.8609 39.944C66.7889 39.592 67.7169 39.016 68.6449 38.216L73.4449 43.208C70.9169 46.024 67.2209 47.432 62.3569 47.432C59.3169 47.432 56.6449 46.856 54.3409 45.704C52.0369 44.552 50.2449 42.952 48.9649 40.904C47.7169 38.856 47.0929 36.536 47.0929 33.944C47.0929 31.384 47.7009 29.096 48.9169 27.08C50.1649 25.032 51.8769 23.432 54.0529 22.28C56.2289 21.128 58.6769 20.552 61.3969 20.552C63.9889 20.552 66.3409 21.096 68.4529 22.184C70.5649 23.24 72.2289 24.792 73.4449 26.84C74.6929 28.856 75.3169 31.256 75.3169 34.04ZM61.4449 27.032C60.0369 27.032 58.8529 27.432 57.8929 28.232C56.9649 29.032 56.3729 30.12 56.1169 31.496H66.7729C66.5169 30.12 65.9089 29.032 64.9489 28.232C64.0209 27.432 62.8529 27.032 61.4449 27.032ZM96.4658 20.552C99.6978 20.552 102.29 21.512 104.242 23.432C106.226 25.352 107.218 28.248 107.218 32.12V47H98.0978V33.608C98.0978 30.056 96.6738 28.28 93.8258 28.28C92.2578 28.28 90.9938 28.792 90.0338 29.816C89.1058 30.84 88.6418 32.376 88.6418 34.424V47H79.5218V20.984H88.2098V23.816C89.2338 22.76 90.4498 21.96 91.8578 21.416C93.2658 20.84 94.8018 20.552 96.4658 20.552ZM130.896 45.944C130.128 46.424 129.184 46.792 128.064 47.048C126.976 47.304 125.808 47.432 124.56 47.432C121.168 47.432 118.56 46.6 116.736 44.936C114.912 43.272 114 40.792 114 37.496V28.76H110.208V21.944H114V15.176H123.12V21.944H129.072V28.76H123.12V37.4C123.12 38.328 123.36 39.064 123.84 39.608C124.352 40.12 125.024 40.376 125.856 40.376C126.912 40.376 127.84 40.104 128.64 39.56L130.896 45.944ZM146.718 47.432C143.934 47.432 141.422 46.856 139.182 45.704C136.942 44.552 135.182 42.952 133.902 40.904C132.654 38.856 132.03 36.536 132.03 33.944C132.03 31.384 132.654 29.08 133.902 27.032C135.182 24.984 136.926 23.4 139.134 22.28C141.374 21.128 143.902 20.552 146.718 20.552C149.534 20.552 152.062 21.128 154.302 22.28C156.542 23.4 158.286 24.984 159.534 27.032C160.782 29.048 161.406 31.352 161.406 33.944C161.406 36.536 160.782 38.856 159.534 40.904C158.286 42.952 156.542 44.552 154.302 45.704C152.062 46.856 149.534 47.432 146.718 47.432ZM146.718 40.184C148.318 40.184 149.63 39.64 150.654 38.552C151.678 37.432 152.19 35.896 152.19 33.944C152.19 32.024 151.678 30.52 150.654 29.432C149.63 28.344 148.318 27.8 146.718 27.8C145.118 27.8 143.806 28.344 142.782 29.432C141.758 30.52 141.246 32.024 141.246 33.944C141.246 35.896 141.758 37.432 142.782 38.552C143.806 39.64 145.118 40.184 146.718 40.184ZM174.319 24.104C175.247 22.92 176.447 22.04 177.919 21.464C179.423 20.856 181.135 20.552 183.055 20.552V28.76C182.223 28.664 181.535 28.616 180.991 28.616C179.039 28.616 177.503 29.144 176.383 30.2C175.295 31.256 174.751 32.872 174.751 35.048V47H165.631V20.984H174.319V24.104Z" fill="#ECF0F1"/>
</svg>
