<svg width="32" height="30" viewBox="0 0 32 30" fill="none" xmlns="http://www.w3.org/2000/svg">
<path d="M30.1466 10.4235L21.0788 9.09301L17.0252 0.796137C16.9145 0.568974 16.7324 0.385079 16.5073 0.273301C15.9431 -0.0079494 15.2573 0.226426 14.9752 0.796137L10.9216 9.09301L1.85378 10.4235C1.60378 10.4596 1.37521 10.5786 1.20021 10.7589C0.988641 10.9784 0.872059 11.2738 0.876077 11.5801C0.880095 11.8863 1.00438 12.1785 1.22163 12.3923L7.78235 18.8502L6.23235 27.9692C6.196 28.1813 6.21925 28.3995 6.29946 28.599C6.37968 28.7984 6.51364 28.9712 6.68617 29.0977C6.85869 29.2242 7.06287 29.2994 7.27556 29.3147C7.48825 29.33 7.70093 29.2849 7.88949 29.1844L16.0002 24.8791L24.1109 29.1844C24.3323 29.3034 24.5895 29.343 24.8359 29.2997C25.4574 29.1916 25.8752 28.5966 25.7681 27.9692L24.2181 18.8502L30.7788 12.3923C30.9574 12.2156 31.0752 11.9848 31.1109 11.7324C31.2073 11.1014 30.7716 10.5173 30.1466 10.4235Z" fill="#FFBA15"/>
</svg>
